<svg fill="none" height="48" viewBox="0 0 48 48" width="48" xmlns="http://www.w3.org/2000/svg"><path d="m23.9355 39.6237c8.6071 0 15.5843-6.9775 15.5843-15.5844 0-8.6067-6.9772-15.5844-15.5843-15.5844-8.6069 0-15.58449 6.9777-15.58449 15.5844-.0001 8.6069 6.97759 15.5844 15.58449 15.5844z" fill="#fff"/><path d="m36.8384 26.6486c.0862-.4295.1514-.862.1943-1.2952.0423-.427.064-.8652.064-1.314 0-3.6343-1.4732-6.9245-3.8549-9.3064-2.3818-2.3814-5.6721-3.8548-9.3064-3.8548-.0522 0-.1056.0003-.16.0008l-.006-.5127c.0542-.0007.1096-.0011.166-.0011 3.7759 0 7.1943 1.5307 9.6689 4.0053s4.0053 5.893 4.0053 9.6689c0 .4551-.023.9103-.0679 1.3642-.0456.4602-.1129.9092-.2007 1.3451z" fill="#d2122e"/><path d="m36.3685 26.5557c.0828-.4108.1457-.8277.1873-1.2491.0412-.4154.0626-.838.0626-1.2672 0-3.502-1.4198-6.6727-3.7151-8.9679-2.2948-2.2949-5.4655-3.7147-8.9676-3.7147-.0284 0-.0568.0002-.0854.0003-.0279.0003-.056.0003-.0849.0011l-.0015-.1282c.0281-.0005.0571-.0008.0859-.001.0285-.0001.0572-.0002.0859-.0002 3.5374 0 6.7403 1.434 9.0584 3.7523 2.3184 2.3182 3.7525 5.521 3.7525 9.0584 0 .4308-.0215.8577-.0635 1.2795-.0425.4286-.1059.8498-.1888 1.2619z" fill="#d2122e"/><path d="m37.6823 26.8297c.092-.4556.1619-.9177.2084-1.3851.0457-.4609.0693-.9297.0693-1.4053 0-3.8726-1.5697-7.3787-4.1077-9.9168-2.5379-2.5378-6.0441-4.1075-9.9168-4.1075-.0283 0-.0567.0001-.0854.0001-.0278.0001-.0562.0005-.0849.0007l-.0015-.12808c.0281-.00041.0569-.00052.086-.00083.0285 0 .0571-.00042.0858-.00042 3.9081 0 7.4462 1.58443 10.0076 4.14543 2.5609 2.5612 4.145 6.0992 4.145 10.0073 0 .4772-.0238.9503-.0701 1.4178-.0473.4745-.1178.9407-.21 1.3977z" fill="#d2122e"/><path d="m10.7952 23.2972c-.0073.1302-.0125.2536-.0159.3707-.0034.1255-.0051.2496-.0051.3714 0 3.6344 1.4732 6.9248 3.8547 9.3064 2.3819 2.3814 5.6722 3.855 9.3066 3.855.3192 0 .642-.0122.9672-.036.331-.0241.65-.0585.9576-.1037l.0739.507c-.3364.0491-.6685.0863-.9954.1097-.3254.0237-.6599.0357-1.0032.0357-3.7758 0-7.1946-1.5306-9.6691-4.0052-2.4745-2.4747-4.0051-5.8931-4.0051-9.6689 0-.1312.002-.2598.0052-.3855.004-.1355.0092-.2639.0157-.3845z" fill="#d2122e"/><path d="m11.2711 23.3513c-.0061.1158-.0107.2301-.0137.3431-.003.115-.0046.2302-.0046.3449 0 3.5021 1.4197 6.6728 3.7147 8.9679 2.2951 2.2951 5.4658 3.7145 8.968 3.7145.3146 0 .6287-.0115.9404-.0344.3162-.0231.6269-.0575.9319-.1027l.0185.1269c-.3125.0462-.6262.0811-.9413.1041-.3118.0228-.6287.0346-.9495.0346-3.5375 0-6.7403-1.4341-9.0587-3.7525-2.3183-2.318-3.7522-5.5208-3.7522-9.0584 0-.1167.0015-.2327.0046-.3478.0029-.1177.0077-.2335.0137-.3467z" fill="#d2122e"/><path d="m9.93434 23.2233c-.00779.137-.01371.2731-.01756.4078-.00384.136-.00581.2723-.00581.4083 0 3.8726 1.56973 7.3788 4.10763 9.9167 2.538 2.5377 6.0442 4.1077 9.9169 4.1077.3416 0 .682-.0127 1.0203-.0368.3433-.0246.6805-.0614 1.0115-.1093l.0178.1265c-.3389.0493-.6792.0867-1.0201.1111-.3384.0239-.6819.0368-1.0295.0368-3.9082 0-7.4464-1.5842-10.0075-4.1455-2.561-2.5611-4.14535-6.099-4.14535-10.0071 0-.1385.00208-.2757.00593-.4118.00405-.1392.00987-.2765.01766-.4112z" fill="#d2122e"/><g fill="#000"><path clip-rule="evenodd" d="m27.5605 37.1159-.3332.088.02-.5677zm-.2459-.843-.313.0823-.08 1.4679.2857-.0756.0105-.2889.484-.1275.1596.2443.2905-.0765z" fill-rule="evenodd"/><path clip-rule="evenodd" d="m29.1637 35.6118.2244-.0933.5377 1.2912-.2573.1074-.3361-.8068-.1099.5214-.0393.0164-.4478-.2894.3361.807-.2575.1071-.5379-1.2916.2241-.0934.5314.341z" fill-rule="evenodd"/><path clip-rule="evenodd" d="m30.7791 35.1663c-.1859.0029-.2872.0208-.3698.0683-.0867.0498-.1197.1211-.0849.1813.1054.1831.5692-.1524.8128.271.1339.2327.055.4581-.1611.5822-.1691.0974-.2848.0905-.4176.0841l-.1503-.2614c.2059.0351.3148.027.4214-.034.0928-.0536.1188-.1228.0779-.194-.1146-.1991-.5662.1575-.8168-.2778-.1204-.21-.0553-.4321.1695-.5612.108-.0626.2226-.0903.3828-.095z" fill-rule="evenodd"/><path clip-rule="evenodd" d="m32.0904 34.1139-.3254.2419.6816.9173-.2239.1662-.6815-.917-.3254.2415-.153-.2058.8747-.6496z" fill-rule="evenodd"/><path clip-rule="evenodd" d="m33.9218 33.9906-.5999.5672-.9612-1.0166.5913-.5593.1763.1864-.3887.3673.2016.2132.3708-.3505.1761.1862-.3708.3509.2312.2442.3969-.3755z" fill-rule="evenodd"/><path clip-rule="evenodd" d="m33.7498 32.4864.0908-.1084c.0675-.0804.1431-.0876.2232-.0201.0912.0764.0741.1603.0245.2195l-.0949.1133zm-.3757.0489 1.0717.8992.1795-.2138-.4353-.3656.0516-.0615c.0972-.1155.3314.0232.6379.124l.1973-.2352c-.4157-.1429-.5697-.2276-.6985-.1856.0256-.1452-.0213-.2684-.1391-.3674-.1603-.1342-.3958-.1537-.5433.022z" fill-rule="evenodd"/><path clip-rule="evenodd" d="m34.6757 31.2743.0971-.1504c.1432-.2222.3699-.1989.5716-.0686.1723.111.3269.3104.1748.5464l-.0987.153zm-.3666.0954 1.1756.7585.2508-.3888c.2419-.3752.1042-.7067-.2337-.9245-.3222-.208-.7035-.2036-.9251.1396z" fill-rule="evenodd"/><path clip-rule="evenodd" d="m36.2387 29.7656-.1493.3104-.4189-.3833zm-.8013-.36-.14.2915 1.0651 1.0132.128-.2664-.2134-.1954.2169-.4513.2896.0373.1301-.2706z" fill-rule="evenodd"/><path clip-rule="evenodd" d="m36.1342 27.5677.0743-.2313 1.3319.4281-.0852.2656-.8321-.267.3255.4215-.0132.0407-.5101.1529.832.2675-.0854.2656-1.3319-.428.0743-.2314.604-.1831z" fill-rule="evenodd"/><path clip-rule="evenodd" d="m10.2353 20.2227 1.4898-.129-.2857 1.0488zm2.355 1.8143-.6118-.4721.4171-1.5309.7583-.0663.2568-.9421-3.92692.417-.27937 1.0258 3.12809 2.5159z" fill-rule="evenodd"/><path clip-rule="evenodd" d="m14.257 18.4463c.1243-.1883.1728-.339.1457-.4525-.0272-.1134-.1623-.2561-.4057-.4279l-2.697-1.9075.5326-.7533 2.723 1.9253c.4217.2985.6671.5784.7361.8399.0689.2618-.0158.5714-.2542.9299z" fill-rule="evenodd"/><path clip-rule="evenodd" d="m15.535 12.5562 1.2488.8241-.8721.6447zm.7265 2.8829-.1898-.7518 1.2732-.941.6374.421.7834-.5791-3.3362-2.1065-.8531.6305.8959 3.91z" fill-rule="evenodd"/><path clip-rule="evenodd" d="m19.3245 13.3106 1.0945-2.1999-1.8126-1.4099 1.1292-.2535 1.0932.8597.6259-1.24557 1.1238-.25247-1.0482 2.04134 1.9851 1.5193-1.1546.259-1.2254-.9564-.6931 1.3875z" fill-rule="evenodd"/><path d="m14.5005 29.7934c.0046-.0009 1.593-.3805 5.1249 1.1656.0591.0211.694.2444 1.1568.3103-.01-.0305-.0455-.0871-.1478-.1892-.0905-.0909-.1812-.1813 0-.3625.1814-.1812.2721-.0908.3625 0 .7379.7376-.0128 1.0553-.0149 1.0566l-.1233.022c-.5407-.0449-1.4099-.3573-1.4124-.3578l-.0151-.0061c-3.3842-1.4833-4.8184-1.1386-4.8225-1.1381-.1253.0278-.2506.055-.3046-.1952-.054-.2507.0712-.2781.1964-.3056zm7.5626-5.581c-.1096.0965-.3979.3753-.4384.6732l-.0178.1297-.1145.0611c-.0015.0011-.5498.2981-1.233.4121-.1265.0206-.2529.0419-.295-.2106-.0419-.2521.0844-.2732.2107-.2945.4331-.0721.8014-.2265.9724-.3068.0993-.3516.3699-.6491.5266-.7988l-.2348-1.4874.4026-.2466 1.396 1.0153c.1016.0562.1394.1116.1449.1662.0076.0472-.0076.1061-.0614.1851-.3463.6685-.1538.7784-.1532.7788l.035.025c.3454.2923.4482.781.4482.7823l.0022.0098c.2301 1.3184-.1806 1.8122-.2834 1.9126-.209.2576-.5351 1.0234-.5981 1.1732-.1638.8314-.9616.8535-1.1293.8489-.702.1394-.9547.2836-.9555.2841l-.0251.0129c-.71.3132-1.2479.1224-1.4016.0535-.6106-.1302-.8121-.4177-.8126-.4185l-.0311-.0601c-.2139-.588-.544-.698-.545-.6984l-.0832-.0461c-.9353-.7749-.2789-1.6502-.277-1.6529l.024-.0288c.0537-.0538.1867-.2444.3104-.4275-.0741-.02-.129-.0782-.129-.2461 0-.2564.1282-.2564.2563-.2564h.2263c.0432-.0291.099-.0368.1807 0h.3409c.1281 0 .2565 0 .2565.2564s-.1284.2564-.2565.2564h-.2681c-.1369.208-.4203.6325-.5402.764-.0527.0801-.2955.5058.1769.9187.148.0706.5476.3112.791.942.0386.037.1666.1323.5102.201l.0753.0282c.001.0005.3791.2143.9865-.0527.0864-.0437.4324-.2038 1.1266-.3387l.0641-.0052c.0015 0 .5416.0449.6291-.45l.0159-.053c.0013-.003.4223-1.0221.7045-1.3512l.0341-.034c.0007-.0006.3295-.2489.122-1.441-.0116-.0493-.0848-.3304-.2766-.4927l.0022.0017c-.1111-.0882-.4457-.437-.0958-1.2477l-.7387-.5371.1509.9554c.0539.0898.0481.1513.0168.2007-.0102.0568-.047.1054-.1449.1345zm6.5523 9.4561v.0006.0006c.0006.0171.0072.1923.0209.1796l.0062-.0047c.0011-.001.4129-.3403.5733-1.8821l.0049-.0313c.0012-.0042.3505-1.556 1.5522-.0695.0789.0804.7729.774.8111.1823-.0827-.2475-.4693-1.4044-.5488-1.6282-.0803-.1399-.5589-1.0709.9311-1.0985h.0181c.0027 0 .9308.0444 1.9108.4005.1202.0438.2409.0875.1538.328-.0872.2404-.2078.1968-.328.1529-.8569-.3113-1.6789-.3637-1.7584-.3683-.6848.0163-.4785.3358-.478.3364l.0199.0443c.0723.1929.5784 1.7132.5799 1.7174l.0142.0852c-.0316 1.9528-1.6968.1994-1.7018.1947l-.015-.0169c-.4973-.6191-.6386-.2295-.6596-.1573-.184 1.7324-.7476 2.1993-.7496 2.2007l.0064-.0048c-.688.6191-.8368-.1386-.8683-.4359-.0076-.034-.0081-.0716-.0081-.1093v-.0006c-.0011-.0282-.002-.0562 0-.0832v-1.3349c0-1.07-.4116-.7379-.4758-.6798-1.457 1.6049-2.2703 4.1694-2.2724 4.1767-.0394.1221-.0784.2441-.3219.166-.2433-.078-.2041-.2001-.1651-.3221.0025-.0078.8501-2.6817 2.3832-4.3681l.011-.0111c.0039-.0034 1.3362-1.3324 1.3531.994.0006.0146.0006.0294.0006.0444v.0062.0059.0061 1.3841zm-.9937-2.0774c-.0022.0022-.0033.0035-.0033.0035zm2.0977.4533v.0012zm-10.3365-10.9983c-.0008.0009-.3128.3519-.1574.3645.1548-.0152 1.0772-.075 1.0772.6842v-.0209c.0002.0024.1015.9566-.9382.6966l-.0851-.0382c-.0002 0-.0735-.0532-.0493.5071.0035.0259.004.0531.0041.0805l.0002.0012c.0018.0359.0038.0718 0 .1051v.8876c.1952.2553.7011 1.0389-.4542 1.0318-.036.0061-.0753.0023-.115-.003-.0458-.0021-.0914-.0042-.1307-.018l-.5094-.0705c-.127-.0171-.254-.0348-.2199-.2881.034-.2536.161-.236.288-.2185l.5992.0824c.2252.0093.1892-.1113.1418-.1911-.0759-.0277-.1008-.0812-.1088-.1431-.0354-.054-.0507-.113-.0039-.1882v-.9605c-.0802-1.4716.6126-1.1745.8043-1.0652.2889.0555.2642-.1654.2642-.166v-.021c0-.2409-.523-.1732-.5246-.173l-.031.0019c-1.3198 0-.2371-1.2129-.234-1.2163.085-.0959.1702-.1918.3613-.0226.1914.1694.1062.2655.0212.3613zm-1.4887-.2291c-.0013-.0012-.4309-.4522-.4917-.5738-.0199-.0393-.0339-.074-.044-.1036-.1247-.1835-.5907-.9869.9169-.842l.0492.0089c.0115.0035 3.9494 1.1288 10.0865 7.2013l-.0021-.002c.0024.0024.8921.859-.3199 1.2195l-.0202.0049c-.0013.0004-.513.097-.4683.6328.1351.1936.3764.7094-.6317.9676l-.021.0039c-.0018.0004-.6538.103-.9382.2357l-.0642.0211c-.0022.0004-.7498.1455-.6637-1.1457l.0131-.0631c.0003-.0016.1711-.5138-.0882-.8543-.0763-.1-.1927-.1246-.2965-.1464-.3511-.074-.6347-.1337-.5686-.8864 0-.0228.0039-.3129.1045-.564.0475-.1188.0952-.2378.3324-.1429.2374.0954.1899.2145.1422.3332-.0663.1661-.0663.3746-.0663.3748l-.0023.0241c-.0303.3195.0557.3377.1621.3604.1921.0402.4083.0862.5991.3367.3685.4834.2244 1.1241.1798 1.2865-.0304.4838.0284.5662.0534.5796.3381-.1401.9069-.236 1.0031-.2515.4041-.1053.3189-.194.3185-.1944l-.067-.1373c-.1553-1.0089.7366-1.243.8515-1.269.3576-.1109.1002-.3584.0997-.3592l-.0022-.0019c-5.7932-5.7325-9.5408-6.9712-9.8506-7.0666-.4937-.044-.4067.0638-.4064.0639l.0522.1543c0 .0001 0-.0386.0154-.0074.0247.0492.4048.4506.4058.4517.0879.0933.1757.1867-.0106.3622-.1861.175-.2738.0816-.3617-.0116zm6.1391 7.6252c-.0008.0033-.3082 1.1673-.6039 1.6679l-.014.0211c-.0015.0019-.5108.6937.0774.3722l.0311-.015c.0025-.001.8389-.3316 1.3849-.3998.1272-.0158.2544-.0318.2856.2228.0309.2542-.0964.2702-.2233.2861-.4465.0558-1.1556.3268-1.2533.3651-2.486 1.3515-.86-.934-.724-1.1217.2584-.445.544-1.5259.5449-1.529.0329-.1238.066-.2477.3134-.1827.2473.0651.2141.1891.1812.313zm6.7052-13.4952c.5916.163 3.0426 1.0539 3.0426 4.6262v-.0029c.0003.0154.135 5.404-4.9039 5.404h.019c-.0067.0004-2.3128.208-3.4599-2.4632l-.0082-.023c-.0015-.0051-.585-1.8545-1.5643-1.8411l-.0572-.0059c-.0007-.0003-.283-.0688-.6982.2685-.0994.0806-.1987.1616-.3601-.0368-.1612-.1984-.0618-.2793.0377-.36.5197-.4223.9715-.3959 1.0953-.3784 1.2725.0067 1.9558 1.9618 2.0275 2.1778 1.0007 2.3253 2.9435 2.1495 2.9493 2.1489h.0193c4.5126 0 4.3911-4.8709 4.3911-4.8849v-.003c0-2.8847-1.7325-3.8074-2.4521-4.0666v1.5472c1.3274.9691 1.3622 2.0714 1.3622 2.0747.0063.128.0124.2561-.244.2681-.2567.012-.2626-.116-.2688-.244-.0002-.0026-.0268-.8883-1.1947-1.717-.1013-.0166-.1414-.0636-.1575-.123-.0375-.046-.0518-.1047-.0103-.1944v-1.8413c-.0081-.0339-.0089-.0775 0-.1335.0007-.0784.0067-.1538.0782-.197.0548-.058.1277-.0508.202-.0363.0715.0025.1208.016.155.0369zm-4.8243 7.3822c.0005.0016.0008.0024.001.0026zm-7.593-.2303c-.0022.0032-.7387 1.2244-.8154 1.4159l-.0361.0631c-.0005.0007-.2094.2663.0594.3168l.0671.0221c.0003.0002.1168.0584.3133.0584.1282 0 .2564 0 .2564.2564 0 .2567-.1281.2567-.2564.2567-.2424 0-.4308-.0661-.5059-.0971-.9444-.1955-.4669-.9471-.3572-1.1017.1412-.3038.8339-1.4516.8361-1.4551.066-.1096.1321-.2196.3514-.0874.2196.1322.1535.2419.0873.3519zm-.9528 2.2766c-.0001 0-.0004 0-.0004 0zm5.7819.8257.0005.0031s-.0002-.0009-.0005-.0031zm-.2433-.4719.0007.0004c.0001-.0001-.0002-.0001-.0007-.0004zm-3.5528-6.1177c.0025 0 .9054.0006 3.0369-1.3842l-.008.005c.0073-.005 2.5178-1.7774 4.5204-1.7941h.0092c.0038.0002 1.4199.0339 2.3658.6873.1054.0728.2109.1457.0658.356-.1453.2104-.2507.1375-.3562.0647-.798-.5512-2.0259-.5931-2.087-.5948-1.8427.0193-4.2167 1.6948-4.2236 1.6995l-.008.0051c-2.2595 1.4679-3.3064 1.4683-3.3095 1.4683-.1281.0015-.2563.0033-.2595-.2533-.0027-.2562.1255-.2579.2537-.2595zm10.0309 10.4707c-.0018 0-.6155.0466-.62.5923.0022.039.0403.4544.5982.4544l.0711.0112c.0009.0002.3721.122.6297-.5701.0446-.12.0894-.2404.3288-.1513.2396.0892.1947.2095.1498.3297-.3676.9879-1.0299.9286-1.2065.8931-1.0554-.0156-1.0842-.9495-1.0842-.9521v-.0089c0-1.03 1.086-1.1111 1.0891-1.1114.1277-.0112.2554-.0229.2775.2337.022.2563-.1058.2681-.2335.2794zm-9.5958 3.7862c.0044.0008 1.5403.245 1.7295 2.3023.0117.1276.0234.2551-.2309.2781-.2545.0233-.2662-.1046-.2779-.2322-.1528-1.661-1.3017-1.8428-1.3049-1.8434-.1263-.0215-.2528-.0429-.2106-.2954.0421-.2523.1684-.2308.2948-.2094z"/></g></svg>