<svg fill="none" height="48" viewBox="0 0 48 48" width="48" xmlns="http://www.w3.org/2000/svg"><g clip-rule="evenodd" fill-rule="evenodd"><path d="m14.3928 35.4485c2.1057 4.4879 5.4067 7.3882 9.1062 7.3882 6.333 0 11.499-8.4985 11.499-18.9184 0-4.1036-.801-7.9099-2.1603-11.0164l-.2164-.4774c-2.1036-4.50807-5.4127-7.4245-9.1223-7.4245-6.3331 0-11.499 8.4985-11.499 18.9183 0 4.1199.8091 7.9403 2.1764 11.0529z" fill="#fff"/><path d="m32.8398 12.9039c1.3593 3.1066 2.1602 6.9129 2.1602 11.0165 0 10.4199-5.1659 18.9184-11.499 18.9184-3.6995 0-7.0005-2.9003-9.1061-7.3882l2.411-2.9467c1.865 1.4258 4.1931 2.2753 6.7113 2.2753 6.1106 0 11.0945-4.9936 11.0945-11.1156 0-3.3088-1.4564-6.288-3.7602-8.3286zm-15.3502 18.7606 12.6742-15.4922c2.0611 1.8404 3.3637 4.5162 3.3637 7.4892 0 5.5255-4.4984 10.0316-10.0123 10.0316-2.2593.002-4.3468-.7564-6.0256-2.0286z" fill="#000"/><path d="m23.499 5c3.7096 0 7.0187 2.91643 9.1223 7.4245l-2.1299 2.607c-1.9074-1.5512-4.3366-2.4836-6.9742-2.4836-6.1106 0-11.0945 4.9935-11.0945 11.1156 0 3.4301 1.5636 6.5043 4.0151 8.547l-2.2594 2.7628c-1.3693-3.1147-2.1784-6.9331-2.1784-11.055 0-10.4198 5.1659-18.9183 11.499-18.9183zm6.3067 10.8688-12.6843 15.5024c-2.2087-1.8425-3.6185-4.6153-3.6185-7.7077 0-5.5254 4.4984-10.0315 10.0123-10.0315 2.3807 0 4.5692.8393 6.2905 2.2368z" fill="#0072bc"/><path d="m23.2947 33.3978c-.2306-.3458-.4814-.7079-.7423-1.08-.8759-1.2398-1.7011-2.3077-2.2553-2.9326v-.0081h-.0102c-.1112-.1577-.358-.3337-.6695-.4631-.1577-.0648-.3115-.1093-.451-.1335-1.9297-.2063-3.3658-.7746-3.3395-1.3773.0061-.1396.091-.2731.2427-.3924-.0202.0162-.0404.0324-.0566.0485v-.002c.089-.0687.1557-.4692.1557-.9526 0-.0728-.002-.1436-.004-.2123-.0324-.0466-.0526-.1194-.0526-.1982 0-.0587.0101-.1113.0303-.1558-.0101-.0344-.0141-.0728-.0141-.1132 0-.0041 0-.0081 0-.0122 0-.004 0-.0081 0-.0121 0-.0951.0303-.18.0728-.2225.0202-.002.0405-.0141.0566-.0303h.0102c.004-.0081.006-.0162.0101-.0243.0323-.0465.0526-.1193.0526-.1982 0-.0061 0-.0121 0-.0202.008-.0485.0121-.1011.0141-.1557.0081-.176-.0121-.3338-.0505-.4308h.002c-.0061-.0162-.0142-.0324-.0223-.0445l.0041-.0041-.0203-.0202c-.004-.004-.008-.0081-.0121-.0121l-.0243-.0223-.3742-.362c-.093-.0748-.1517-.182-.1517-.3014 0-.1516.0951-.2851.2326-.3539l1.6101-1.7636c.1153-.089.2387-.4045.2994-.7948.0101-.0668.0182-.1335.0242-.1962.0486-.1922.3722-.6917.8111-1.2358.2589-.3215.5118-.6006.712-.7928.002-.002.0061-.006.0081-.0081 0 0 0 0 .002-.002.0466-.0526.087-.1861.1133-.36.0283-.627.4551-1.1771 1.0821-1.4986.0041-.0021.0061-.0041.0102-.0061.002-.002.004-.002.006-.0041.2468-.1254.5421-.1982.8597-.1982.1314 0 .2568.0122.3782.0364.3803.0466.7808.1052 1.1894.18 1.2662.2286 2.3908.5481 3.1634.8738.4026.1941.8475.364 1.3269.4975 1.695.4732 3.2889.3499 4.011-.2326.0101.0121.0182.0263.0283.0384.174-.1496.4956.089.6999.089 0 .0263.1092.1092.1092.1355.2994.1355.4349.7625.5158 1.0355l.4349 1.0881c.3802.8717.271 2.0144.4874 2.9124.1619.7079.0263 1.7151 0 2.4513 0 .1638-.0809.3802-.1092.544l-.4065 1.5796c-.0263.1638-.1902.4348-.1902.627-.0546.0546-.1092.1901-.1618.2447v.0263.0263c-.0263 0-.1092.0546-.1092.1092-.0263 0-.0809.0263-.1092.0263l-.081.0809-.4874.0263c0 .0121-.0162.0182-.0364.0222-.0041.0081-.0101.0162-.0142.0263l-.3641.002c-1.7132 2.7648-4.7695 4.6133-8.2404 4.6133-.0688.002-.1375.002-.2063 0z" fill="#fff"/><path d="m15.7986 13.1547-.2569-1.1123.0061-.0041.8859.7038zm.894-.2326.5886.4632.3014-.1962-2.0692-1.5634-.3135.2043.5583 2.5443.2872-.1861-.172-.7341z" fill="#fff"/><path d="m16.2598 11.0473 1.7961-.8333.1234.2649-.7484.3479.9021 1.9477-.2973.1375-.9042-1.9477-.7484.3479z" fill="#fff"/><path d="m19.3484 11.292.085-1.1387.0061-.002.6371.9364zm.9224.0425.4247.6168.3459-.097-1.5109-2.10747-.3601.10112-.2225 2.59685.3277-.093.0526-.7524z" fill="#fff"/><path d="m21.6624 11.4093 1.2278-.1517.0364.2912-1.5555.1902-.2973-2.42096.3277-.04045z" fill="#fff"/><path d="m23.9885 10.5922.4874-1.03351h.0061l.2609 1.10231zm.8475.3701.176.7281.358.0324-.6574-2.50995-.3722-.03438-1.1347 2.34613.3378.0303.3175-.6836z" fill="#fff"/><path d="m27.9509 9.84797.3055.09101-.6979 2.33802-.3539-.1052-.625-2.24293-.0061-.00203-.5643 1.88896-.3055-.091.6979-2.33796.3742.11124.6047 2.23682.0061.0021z" fill="#fff"/><path d="m28.669 10.0704 1.7961.8353-.1234.265-.7484-.3479-.9061 1.9456-.2974-.1375.9042-1.9477-.7484-.3478z" fill="#fff"/><path d="m30.2204 12.4852.9223-.6735.0061.0041-.2994 1.0921zm.5663.7322-.1962.724.2994.2002.625-2.5159-.3095-.2083-2.1218 1.5108.2812.1901.6068-.447z" fill="#fff"/><path d="m18.9945 37.9464-.3803-.1213.6432-2.0205-.6634-.2124.091-.2831c.4713.1153.6776.1315.9385-.2993l.2792.089z" fill="#fff"/><path d="m21.5026 37.2264c-.2488-.0304-.5947-.1456-.5239-.714.0486-.3964.3095-.637.6554-.5966.4247.0526.5623.3681.5218.7059-.0748.5845-.4591.6269-.6533.6047zm-.0951.3256c.2731.0344.5846-.0566.7221-.271l.0081.0101c-.1861.7564-.4429 1.0719-.8475 1.0214-.3034-.0365-.4571-.2448-.4429-.5461l-.3702-.0445c-.0344.2872.089.815.7848.9 1.0194.1254 1.2399-1.2216 1.2783-1.5371.0587-.4813.0749-1.3854-.8697-1.5007-.623-.0768-1.0114.36-1.0761.9-.0748.5865.265 1.0012.8131 1.0679z" fill="#fff"/><path d="m25.1617 37.1718c.0465.7463-.1214 1.2074-.5482 1.2337-.4288.0263-.6513-.4105-.6978-1.1568s.1213-1.2075.5481-1.2338c.4288-.0263.6513.4106.6979 1.1569zm.3984-.0263c-.0384-.6189-.2609-1.5189-1.1165-1.4663s-.9648.9748-.9264 1.5937.2609 1.5189 1.1165 1.4663.9649-.9748.9264-1.5937z" fill="#fff"/><path d="m26.0455 35.4951 1.9843-.5663.089.3135c-.2003.3802-.625 1.4906-.4652 2.8315l-.3965.1133c-.1274-.8151.1012-1.9942.4693-2.7931l-1.5797.451z" fill="#fff"/><path d="m24.0613 18.5022c-.4288-.1376-.9486-.2205-1.5089-.2205-.8131 0-1.5453.1719-2.0328.4409.0121-.0364.0263-.0708.0404-.1052.441-.5743 1.7092-.9384 3.1716-.8514.3783.0222.7424.0728 1.0781.1476.9345.2468 1.7517.534 2.3484.8151.3944.2103.8333.3984 1.3046.5521 1.2702.4106 2.496.4773 3.3395.2447-.0021.0041-.0021.0061-.0041.0102-.3701.991-2.3605 1.1689-4.4337.3964-.4652-.174-.8961-.3803-1.2784-.6088-.5218-.2751-1.2217-.5623-2.0247-.8252z" fill="#000"/><path d="m29.0493 21.1719c.451.1152.985.1699 1.5473.1415.8172-.0404 1.5251-.2467 1.9762-.5379-.0061.0364-.0142.0707-.0243.1071-.36.5906-1.5777 1.0133-3.0583 1.0032-.3843-.002-.7545-.0344-1.1024-.091-.9749-.1962-1.8366-.4389-2.4778-.6877-.4267-.188-.894-.3519-1.3895-.4793-1.335-.3438-2.5749-.3458-3.3881-.0728 0-.004.0021-.0061.0021-.0101.2265-.9991 2.1986-1.2742 4.3912-.6148.4915.1476.9547.3316 1.3734.5379.5644.2468 1.3087.4955 2.1522.714z" fill="#000"/><path d="m32.9288 27.3101c-.8516.9829-2.0753 1.618-3.4487 1.6584-1.606.0465-3.0583-.7301-3.9726-1.9578.9224.4875 2.0187.8252 3.208.9425 1.5696.1537 3.0441-.0991 4.2133-.6431z" fill="#000"/><path d="m33.2585 25.2654c-.6048 1.0294-2.2472 1.7899-4.1809 1.8243-1.3046.0222-2.4859-.2893-3.3152-.803h-.0121c-.5097-.2892-1.1975-.5117-1.9701-.6047-.0789-.0101-.1598-.0182-.2367-.0243.3317-.1071.7686-.1719 1.246-.1719.6371 0 1.2035.1173 1.5413.2933.5805.4025 1.6647.6755 2.9005.6755 1.07 0 2.0247-.2043 2.6376-.5198.2367-.093.4875-.2022.7423-.3276.2306-.1113.447-.2265.6473-.3418z" fill="#000"/><path d="m33.1594 23.1802c.0141.0627.0242.1254.0263.1901.0546 1.1407-1.7497 2.1276-4.0171 2.1964-1.6586.0506-3.119-.4045-3.8047-1.1002-.36-.267-.896-.4814-1.513-.5744-.3479-.0526-.6816-.0607-.983-.0303.3196-.2245.8253-.3702 1.3937-.3702.5663 0 1.07.1436 1.3895.3681.5684.5097 1.9398.8778 3.5337.8879 2.0995.0121 3.8127-.5987 3.8127-1.3611 0-.0021 0-.0021 0-.0041.0769-.0627.1538-.1517.1538-.2002.004 0 .006-.002.0081-.002z" fill="#000"/><path d="m33.0785 21.4246c.002.0344.004.0688.004.1032 0 1.2883-1.8851 2.338-4.195 2.338-1.513 0-2.8419-.451-3.5802-1.1225-.5583-.4268-1.7395-.722-3.1028-.722-.267 0-.5259.0121-.7747.0323.2407-.5359 1.6505-.7078 3.2363-.3782.9264.1922 1.7233.5158 2.225.8677.6533.271 1.5392.4388 2.5142.4388 1.0113 0 1.9256-.18 2.585-.4671h.004v-.0021c.6412-.2811 1.0356-.6654 1.0356-1.0901h.0486z" fill="#000"/></g><path d="m16.1404 25.5323c.0688.0223.1396.0365.2124.0445-.0728-.008-.1436-.0222-.2124-.0445z" stroke="#000" stroke-miterlimit="2.6131" stroke-width=".019161"/></svg>