<svg fill="none" height="48" viewBox="0 0 48 48" width="48" xmlns="http://www.w3.org/2000/svg"><path clip-rule="evenodd" d="m10.7999 8.97027c2.1861.95958 5.7741.84596 8.1806-.97027 3.365 2.4656 6.6037 2.2125 9.6916 0 2.0588 1.48813 5.2285 2.1235 8.2027 1.0015l1.3333 1.8525c-3.4767 4.6464-2.1898 9.0877 1.3963 12.9962l-1.5059 1.5269c.3412 10.0213-7.4205 12.4139-11.8774 12.6623l-2.3963 1.9606-2.3784-1.9313c-7.9569-.6872-12.15803-4.885-11.89812-12.6659l-1.54828-1.5643c3.0252-3.2721 5.2984-7.7434 1.41232-12.9855z" fill="#000" fill-rule="evenodd" stroke="#000" stroke-width=".038901"/><path clip-rule="evenodd" d="m10.9811 25.201h25.6033c.6729 7.085-3.8284 10.9118-10.6732 11.288l-4.3495.011c-6.5486-.4707-11.4275-3.9282-10.5806-11.299z" fill="#004d98" fill-rule="evenodd"/><path d="m25.6452 25.2863h-3.6268v11.3213h3.6268z" fill="#a50044"/><path d="m18.4269 25.2863h-3.6268v10.118h3.6268z" fill="#a50044"/><path d="m18.4269 34.8859h-2.3623v1.0422h2.3623z" fill="#a50044"/><path d="m32.8223 25.2863h-3.6268v10.118h3.6268z" fill="#a50044"/><path d="m31.5578 34.8859h-2.3623v1.0422h2.3623z" fill="#a50044"/><path clip-rule="evenodd" d="m23.7139 11.3113v10.056l-12.2219.0884 1.2598-4.8401-1.5692-5.7905 7.7354-.99453z" fill="#fff" fill-rule="evenodd"/><path clip-rule="evenodd" d="m23.8907 11.3113v10.056l12.2219.0884-1.2597-4.8401 1.5691-5.7905-7.7353-.99453z" fill="#ffed02" fill-rule="evenodd"/><path d="m20.1559 10.1171h-3.5042v11.1879h3.5042z" fill="#db0030"/><path d="m23.7139 17.7944v-3.5042h-10.904v3.5042z" fill="#db0030"/><path d="m26.2835 10.9102h-1.296v10.322h1.296z" fill="#db0030"/><path d="m28.7437 10.1707h-1.296v11.0857h1.296z" fill="#db0030"/><path d="m31.2201 10.7955h-1.296v10.4841h1.296z" fill="#db0030"/><path d="m33.6734 11.1794h-1.2961v10.0906h1.2961z" fill="#db0030"/><path clip-rule="evenodd" d="m18.9602 8.79651c-2.2571 1.65429-5.8287 1.82839-7.879 1.00124l-.8212 1.05715c3.523 4.957 1.4989 9.9441-1.29448 12.9984l1.28628 1.3613c-.52193 7.4715 3.8383 11.7926 11.5034 12.2372l2.0775 1.7351 2.0734-1.7624c4.4637-.077 12.2907-2.5804 11.4474-12.2208l1.2931-1.3395c-3.2805-3.6382-4.4112-8.6213-1.2413-13.0093l-.7707-1.05033c-2.8048.92173-6.0136.41083-7.9444-.98487-2.8962 2.075-6.5741 2.2892-9.73-.02319zm9.7559 1.41999c1.7413 1.0812 3.6655 1.3889 6.9827 1.0981-1.6611 2.874-1.8405 6.2976-.3696 9.6032l-23.0203-.0137c1.2381-2.9537 1.5222-6.3525-.4188-9.655 2.3926.3474 4.7298.2642 7.0605-1.0039 3.1613 1.8558 6.4135 1.8897 9.7655-.0287zm-17.2243 15.0963h24.6858c.6488 6.831-3.6912 10.5199-10.2906 10.8827l-4.1946.0109c-6.3138-.4539-11.0171-3.7871-10.2006-10.8936z" fill="#edbb00" fill-rule="evenodd" stroke="#deb405" stroke-width=".036484"/><g stroke="#000"><path clip-rule="evenodd" d="m11.8635 11.2851c1.941 3.3025 1.6567 6.7013.4186 9.655l23.0197.0136c-1.4708-3.3055-1.2908-6.7292.3703-9.6032-3.3172.2907-5.2409-.0166-6.9822-1.0978-3.352 1.9184-6.6052 1.8837-9.7666.0279-2.3306 1.2681-4.6672 1.3519-7.0598 1.0045z" fill-rule="evenodd" stroke-width=".155603"/><path clip-rule="evenodd" d="m11.4915 25.3129h24.6854c.6488 6.8309-3.6911 10.5205-10.2905 10.8833l-4.1936.0106c-6.3138-.4539-11.0178-3.7875-10.2013-10.8939z" fill-rule="evenodd" stroke-width=".155603"/><path d="m23.8101 11.6304v9.3274" stroke-width=".155603"/><path d="m27.2146 30.6358c0 .4408-.0867.8773-.2553 1.2846-.1687.4072-.4159.7773-.7275 1.089-.3117.3117-.6817.559-1.0889.7277s-.8437.2555-1.2845.2555-.8773-.0868-1.2845-.2555-.7772-.416-1.0889-.7277c-.3116-.3117-.5588-.6818-.7274-1.089-.1687-.4073-.2554-.8438-.2553-1.2846-.0001-.4408.0866-.8772.2553-1.2845.1686-.4073.4158-.7773.7274-1.089.3117-.3117.6817-.559 1.0889-.7277s.8437-.2555 1.2845-.2555.8773.0868 1.2845.2555.7772.416 1.0889.7277c.3116.3117.5588.6817.7275 1.089.1686.4073.2553.8437.2553 1.2845z" fill="#edbb00" stroke-width=".156383"/><path d="m21.9224 27.9021c-.3917 1.4278-.6347 2.8336.4954 3.5091.7897.4721 1.3236-.4906 1.4715-.8635" stroke-width=".136153"/><path d="m20.7526 31.9894c.6616-.0302 1.0068-.0847 1.4311-.7294" stroke-width=".136153"/><path d="m23.8615 30.5726c.6639-.4081 1.2544-.2106 1.5287.811.6462-.2596 1.2689.2391 1.4312.7431" stroke-width=".136153"/><path d="m25.404 31.3837c-.4905 1.1841-1.7806 1.7323-3.5917 1.9128" stroke-width=".136153"/><path d="m23.8624 30.6212c-.4075-.3731-1.0344-.8001-.1211-1.8971-.3875-.4911-.4931-.9709.0135-1.4262" stroke-width=".136153"/><path d="m27.1993 30.8364c-.596-1.0536-1.9833-2.5136-3.4579-2.1259" stroke-width=".136153"/></g><path d="m19.1659 21.5168v.0123h-.6097v1.184.6712 1.3163h.6588v-1.3163h.9399v-.6712h-.9399v-.5142h1.6219v-.6821z" fill="#000"/><path clip-rule="evenodd" d="m24.1538 22.5104.5914-.3088c-.3775-.8346-1.908-1.072-2.4114 0-.5195 1.2786.0327 2.4665 1.0381 2.5823.6389.093 1.1452-.2198 1.3601-.7754l-.5848-.3351c-.1557.3881-.7495.6552-1.2024.0066-.1394-.2898-.1752-.7359-.0197-1.1696.3714-.5103.9143-.455 1.2287 0z" fill="#000" fill-rule="evenodd" stroke="#000" stroke-width=".00778"/><path clip-rule="evenodd" d="m26.4146 21.525.0123 3.2002 1.7419-.0069c.5668-.0793 1.3099-1.0072.4393-1.7283.4602-.4056.4026-1.2733-.5184-1.4582zm.6698.6302h.8675c.3815.1098.2683.4766.0123.5388h-.8798zm.0068 1.1636.9126.0123c.4514.1343.3494.6487.0136.7366l-.9194-.0068z" fill="#000" fill-rule="evenodd" stroke="#000" stroke-width=".038901"/></svg>