<svg fill="none" height="48" viewBox="0 0 48 48" width="48" xmlns="http://www.w3.org/2000/svg"><path d="m28.6026 14.3789c-.0192.1728-.1632.2879-.2304.4319-.0959.2208-.0767.5087-.2495.7199l-.2016.0192c-.0288.3263-.144.6335-.3359.8926.2207.1152.4607.1536.6623.2592.0864.048.2015.192.2495.2208.8831.4127 1.7373.7006 2.582 1.171l.24.0384.3647.1055.3551.096.3744.1152.3647.1248.048.0192.1056.0384.5759.2207.7295.2976.7006.3263.6719.3264.6527.3359.5951.3264.5471.3071.4799.288.4224.2495.5951.3744 1.2382.787-.1152.0096-1.7085.1536-.9983.0864.2784 2.2268c-.2208-.1536-.6047-.3743-.9886-.6239.7294 1.6797 1.1038 3.4842 1.1038 5.3175 0 7.3812-5.999 13.361-13.3706 13.361-7.3811 0-13.3609-5.9798-13.3609-13.361 0-1.8333.3743-3.6378 1.1038-5.3175-.3839.2592-.7103.4799-.9311.6335l.0096-.048-.0575.0384.2879-2.2172-2.71634-.2304-.16317-.0288 1.27659-.8062.59512-.3744.4319-.2591.4799-.288.5471-.3071.6143-.336.6527-.3359.6719-.336.7295-.3263.7199-.2976.7486-.2879.3744-.1248.3743-.1056.3647-.096.3648-.1055.2495-.0576c1.1998-.6911 2.5052-1.1806 3.8586-1.4686.096-.0864.1728-.1919.2208-.3071l-.0288-.0576c-.5855-.2208-.4896-.8063-.48-1.3534-.0192.4511-.1247.2784-.2591.1056-.0192-.1152-.0288-.24-.0288-.3647l-.1728-.0384c-.0288-.192-.048-.3936-.0384-.5855-.3647.2303-.739.3167-1.1614.1247-.4223.0672-.5183.2976-1.0366.192l-.144-.1344c-.2111.0864-.4607-.0672-.6527-.096-.4895-.0575-2.3036-.1055-2.4188-.8254-.1535-.048-.5567-.3264-.5567-.4991-.7102-.1728-1.6605-.288-2.2172-.7871-.8063-.0192-1.7469-.5183-2.3612-.9982-.1728-.1344-.30715-.3936-.46072-.4992-.32635-.2207-.72948-.3263-1.06542-.57585-.17277-.12478-.33594-.38394-.49912-.48952-.24955-.16317-.5567-.23036-.80626-.42233-.15358-.12478-.28795-.34554-.43193-.45112-.45112-.29755-.95024-.30715-1.39176-.71028-.38394-.36474-.57591-.6047-.57591-1.17101.46073-.44152 4.54004-.23996 4.97197-.23996 2.23645-.01919 6.19095-.36474 8.32175.36474.7775.25916 1.4302.80627 1.8141 1.53574 1.0367.32635.8255.82546 1.4878 1.36297 0-.17277.0192-.34554.0576-.51831l.1536-.11518c-.1536-.12478-.2976-.32634-.2688-.52791l-.3263-.66229c-.2496-.17277-1.3054-.55671-1.1423-1.03663l-.2207.10559c-1.1422-1.01743.5759-2.28442 1.8141-1.73731.2207-.07679.4511-.10558.6815-.07679l.1727.0288c.5663.11518 1.0559.48951 1.6222.5951.5375.09598.3551-.30715 1.1038.13437l-.048.27836c.2015.06719.3839.17277.5471.30715v.27835c.096.02879.2591.21116.3263.28795v.16317c.3936.11518 1.2478.89265.9503 1.35338.2591.28795.4127.60469.3167.99823l.048.07678h.0768c.2784-.45112.6047-1.37256 1.2574-1.46855 1.4397-2.52437 6.8148-1.7949 9.0801-1.84289 1.1998-.01919 2.39.0096 3.5802.0096.3935 0 1.123-.14398 1.5261-.03839.1824.05759.3455.14397.5087.23996-.1536.75827-.5087 1.1422-1.2286 1.44935l-.4799.18237c-.4223.29755-1.0558 1.06542-1.4494 1.43016-.3263.29755-.7678.43193-1.075.6815-.1344.1152-.2399.2975-.3743.4223-.6431.5951-1.5933.9791-2.4476 1.1326-.5183.6047-1.267.7871-2.0157.8063-.1247.0864-.2591.1632-.4031.2304-.0192.0767-.1824.3071-.2591.3167-.0384.3071-.4704.7199-.7775.6719-.1632.1824-1.4974.3071-1.7085.1824-.2016.1535-.4512.2207-.7007.2015-.4319.3552-1.0462.048-1.1902.096-.2688.0672-.4031.144-.7007.1056z" fill="#fff"/><path d="m18.1116 21.1061c-4.7032 3.4842-5.7015 10.1263-2.2077 14.8295 1.4398 1.9485 3.5131 3.3403 5.8551 3.9546.739.7966 1.5261 1.5453 2.3612 2.2556-6.9109-.1248-12.4107-5.8262-12.286-12.7371.0384-2.3516.7487-4.6456 2.0349-6.6133 1.5357-.9214 3.3402-1.8524 4.1561-1.7181zm16.8931 8.5234c0-3.3786-1.6029-6.5557-4.3288-8.5522.835-.1247 2.6203.7967 4.1465 1.7181 3.7721 5.7879 2.1308 13.5434-3.657 17.3059-1.9197 1.2574-4.1561 1.9485-6.4501 2.0253.835-.7007 1.6221-1.4494 2.3708-2.246 4.6648-1.2094 7.9186-5.4231 7.9186-10.2511zm-10.6734-12.5067c1.9101 0 3.801.4319 5.5095 1.2766l-.1536.0384c-1.1134.2783-2.2076.5759-3.3306.7775-1.315-.2496-2.6684-.24-3.9833.0191-.7007-.1247-1.3726-.2783-1.9677-.4223-.192-.048-.9886-.2783-1.5837-.4031 1.7181-.8543 3.6089-1.2862 5.5094-1.2862z" fill="#b5b5b5"/><g fill="#0f0f10"><path d="m27.6235 31.0212.1056-.1056.0384.0384.0384.0384.0384.0384.0384.0384.0288.0384.0384.048.0384.048-.1152.0864-.0288-.0384-.0384-.0384-.0384-.048-.0384-.0384-.0288-.0384-.0384-.0384z"/><path d="m25.2528 33.3056-.1248-.0192-1.9389 1.9389.1056.096 1.9389-1.9389-.1248-.0192.144-.0576-.0384-.1152-.0864.096z"/><path d="m24.0434 29.975v.0096l.0096.0096.144-.048-.0096-.0096h.0096z"/><path d="m20.3096 33.7568.1248.0192.0768-.0768-.1056-.1152-.0768.0864.1152.0288-.1344.0576.0384.1055.0864-.0863z"/><path d="m28.3339 30.1766h-.1056l-.6719.6719.1056.1055.6719-.6815h-.1056l.1056-.0959-.048-.0672-.0576.0672z"/><path d="m27.5564 30.8484v.1056.0096h.0096v.0096l.0192.0096v.0096h.0096v.0096h.0096.0096v.0096h.0096v.0096l.1056-.1056-.0096-.0096-.0096-.0096-.0096-.0096h-.0096v-.0096h-.0096l-.0096-.0096-.0096-.0096v-.0096h-.0096.0096v.1056l-.1056-.1056-.0576.0576.0576.048z"/><path d="m27.0093 31.3955-.5567.5471.1056.1152.5471-.5567z"/><path d="m27.6428 30.8389-.0864.0096-.5471.5471.096.1056.5567-.5472-.096.0096.0768-.1247-.048-.0288-.0384.0384z"/><path d="m26.5582 31.9523-.1056-.0096-1.3246 1.3438.1056.096 1.3246-1.3246-.1056-.0096.1056-.096-.048-.0672-.0576.0576z"/><path d="m23.2467 35.1965-.0575.0288-.7391.7295.1056.1056.739-.7391-.048.0192z"/><path d="m21.1447 33.0561-.0192.0288-.6143.6143-.1056-.1152.6335-.6335.7199-.7199 2.3132-2.3036 1.8813-1.8909.1055.1056-1.8813 1.8909-.0863.0768-2.2653 2.2748-.0863.0864z"/></g><path d="m24.4753 22.066-.4703-.0288-.4896-.0576-1.0558-.1536-1.0654-.1824-1.0174-.1919-1.6318-.3552-.6526-.1535-.1632-.0096h-.1728l-.192.0288-.2015.0288-.2112.0671-.2399.0672-.4896.192-.5279.2304-.5375.2687-.5471.288-.5375.3071-1.0078.6047-.8447.5375-.7871.5279.2208-1.7373-2.07325-.1823.22075-.144.5855-.3744.4319-.2495.48-.288.5375-.3071.6143-.336.6431-.3263.6718-.3263.7103-.3264.7103-.2975.7295-.2784.3647-.1248.3648-.1056.3647-.1055.3551-.096.3456-.0768.3551-.0576h.1056l.1632.0288.4799.1056.6623.1631.7871.2112.9118.2112.4991.1056.5087.1055.5087.0864.528.0672.5279.048.5279.048z" fill="#12814b"/><path d="m24.4081 22.0851.4512-.0384.4991-.0576 1.0366-.1439 1.0462-.1824 1.0079-.192 1.6029-.3455.6431-.144.1631-.0192h.1728l.1824.0288.2016.0384.2207.0576.2304.0672.4799.1919.5183.2304.5279.2496.5279.2975.5375.2976.9983.5951.8254.5183.7775.5279-.2112-1.7085 2.0253-.192-.2016-.1248-.5855-.3743-.4127-.2496-.4799-.2783-.5471-.3072-.5855-.3167-.6335-.336-.6719-.3167-.6815-.3264-.7103-.2879-.7199-.2688-.3551-.1247-.3647-.1056-.3552-.1056-.3455-.096-.3552-.0672-.3359-.0672h-.1056l-.1632.0288-.4799.1056-.6335.1632-.787.2111-.9023.2016-.4799.1152-.4991.0864-.5087.0864-.5183.0672-.5279.0575-.5184.0384z" fill="#e83030"/><path d="m23.861 20.415.1536-.0096.0288.4511c0 .0576.0288.1152.0768.144.0576.0384.1152.048.1824.0384.0672 0 .1247-.0192.1823-.0576.048-.0384.0672-.096.0576-.1536l-.0288-.4415.1536-.0096.0288.4607c.0096.0864-.0288.1632-.0864.2208-.0864.0576-.192.096-.3071.0864-.1056.0096-.2208-.0096-.3168-.0576-.0672-.048-.1056-.1344-.096-.2112zm-1.1518.5951.0864-.7295.2496.0384c.0576 0 .1056.0096.1536.0288.0287.0096.0575.0192.0863.0384s.048.0384.0672.0672c.0096.0288.0096.0672.0096.096 0 .0384-.0192.0672-.048.0864-.0288.0288-.0672.0384-.1055.0384.0479.0192.0959.0384.1343.0767.0288.0384.0384.0864.0288.1344 0 .0288-.0096.0576-.0288.0768s-.0384.0384-.0672.0576-.0671.0384-.1055.0384-.1056-.0096-.2016-.0096zm.2112-.3935h.0576c.0576.0096.1056.0096.1632 0 .0384-.0096.0576-.0384.0576-.0768.0096-.0384 0-.0672-.0288-.096-.048-.0192-.1056-.0384-.1632-.0384l-.0672-.0096zm-.048.3167.0576.0096c.048.0096.0864.0096.1344.0192.0288 0 .048-.0096.0672-.0096.0192-.0096.0384-.0288.048-.0384.0096-.0192.0192-.0288.0096-.048.0096-.0192 0-.048-.0096-.0672s-.0288-.0384-.048-.0384c-.0192-.0192-.0384-.0192-.0576-.0192-.0192-.0096-.0384-.0191-.0672-.0191l-.0576-.0096-.048-.0096zm-.9598-.048.1343-.7199.1536.0288-.1344.7199zm-.9407-.5375-.0768.3264-.1535-.0384.1631-.7103.2208.048c.0672.0192.1152.0288.144.0384.0288.0192.0576.0384.0864.0576s.048.048.0576.0863c.0096.0288.0096.0672 0 .096-.0096.048-.0384.096-.0864.1248-.0576.0288-.1248.0288-.1824.0192l.2592.4031-.1824-.0384-.2496-.3935zm.0384-.096.0192.0096c.0576.0192.1152.0192.1728.0288.0288-.0096.048-.0384.0576-.0768s0-.0767-.0288-.0959c-.048-.0384-.096-.0576-.1536-.0576l-.0288-.0096zm-1.4973-.6719.1535.0384-.0959.432c-.0192.0576-.0096.1151.0192.1631.048.048.1055.0768.1727.0864.0672.0192.1344.0192.2016-.0096.048-.0192.0864-.0672.0864-.1248l.096-.4415.1535.0384-.1055.4415c-.0192.0864-.0672.1536-.144.192-.1056.0288-.2112.0288-.3168 0-.1055-.0096-.2111-.0672-.2783-.144-.048-.0672-.0672-.1535-.048-.2399zm-2.2077.1152.0384.3264-.1439.0288-.0768-.7295.2399-.0192c.048-.0096.1056-.0096.1536-.0096.0288 0 .0672.0096.096.0192s.0576.0288.0768.0576c.0288.0288.0384.0576.0384.096.0096.0288 0 .0672-.0192.0959-.0192.0288-.0384.0576-.0672.0864-.0288.0096-.048.0288-.0864.0384-.0576.0192-.1056.0288-.1632.0288h-.0288zm0-.096h.0384c.0576-.0096.1152-.0192.1728-.0384.0288-.0096.048-.0479.0384-.0767 0-.0384-.0288-.0672-.0576-.0768-.0576-.0192-.1152-.0192-.1728-.0096h-.0383zm15.1943.4416v-.048c.0096-.0192.0096-.0288.0096-.048-.0096.0096-.0192.0288-.0288.0384l-.0384.0384-.3551.3071-.144-.4511c-.0096-.0288-.0096-.0288-.0192-.0576s-.0096-.0288-.0096-.0384c-.0096.0096-.0096.0288-.0192.0384-.0096.0192-.0192.0288-.0288.0384l-.192.3071-.1344-.0383.4224-.6719.1631.5183v.0384c.0096.0192.0192.048.0192.0768.0192-.0288.0384-.048.0672-.0672.0096-.0096.0096-.0192.0192-.0288l.3936-.3648.0288.7967-.1344-.048zm-2.3708-.6815.1632-.0096.0479.4319c0 .0576.0192.1056.0672.144.0576.0288.1344.0384.2016.0288.0672 0 .1248-.0192.1824-.0576.0384-.048.0576-.096.048-.1536l-.048-.4415.1631-.0096.0384.4415c.0192.0864-.0096.1824-.0863.24-.0864.0576-.192.096-.2976.096-.1056.0192-.2208 0-.3167-.048-.0768-.048-.1248-.1248-.1248-.2112zm-1.411 1.075-.1727-.7487.7198.2976c.0192.0096.0384.0192.0576.0288s.048.0192.0672.0288l-.1056-.4991.144-.0384.1728.739-.7295-.2975c-.0192-.0096-.0384-.0096-.0576-.0288-.0192-.0096-.0384-.0288-.0576-.0384l.1152.4895zm-1.5741-.3935.144-.0384.0959.4319c.0096.0576.048.1056.096.1344.0576.0192.1248.0288.192.0096.0672-.0096.1248-.048.1728-.096.0288-.048.048-.1056.0288-.1536l-.1056-.4319.1632-.0384.0959.4415c.0288.0864.0096.1824-.048.2496-.0767.0672-.1727.1152-.2783.1344-.1056.0288-.2208.0288-.3168 0-.0767-.0384-.1247-.1152-.1535-.2016zm-1.8717.8926.1248-.0576c.0192.0288.0384.048.0672.0672.0384.0192.0864.0192.1343.0096.0384 0 .0768-.0192.1056-.048.0288-.0192.0384-.048.0384-.0768-.0288-.0576-.0864-.096-.1535-.096-.0096 0-.0288 0-.0384-.0095-.0768-.0096-.1632-.0384-.2304-.0864-.0384-.0192-.0672-.0672-.0672-.1056-.0096-.0576.0192-.1152.0672-.144.0576-.048.1248-.0864.2016-.096.0672 0 .1247 0 .1919.0192.048.0096.0864.0384.1152.0768l-.1248.0672c-.0192-.0192-.048-.0384-.0672-.048h-.0863c-.0384 0-.0672.0096-.096.0384-.0288.0192-.0384.048-.0384.0768.0096.0384.0672.0672.1919.096.0768.0096.1536.0288.2304.0672.0384.0288.0672.0671.0672.1151.0096.0672-.0096.1344-.0672.1728-.0672.0576-.144.0864-.2304.096-.0767.0096-.1439 0-.2207-.0288-.048-.0192-.0864-.0576-.1152-.1056zm-6.9396-.8638.1439-.7199.1536.0288-.1152.6143.3552.0672-.0288.1055zm-3.0235.5375-.2496-.6911.5183-.192.0384.096-.3743.1344.0672.1728.3839-.1344.0288.096-.3647.1439.0768.2208.3743-.1344.0384.096z" fill="#0f0f10"/><path d="m24.2546 21.1829c-.096 0-.192-.0192-.2784-.0672-.0768-.0576-.1248-.144-.1152-.24l-.0384-.4895.2208-.0096.0288.4799c0 .048.0192.096.0576.1248.048.0288.1056.0384.1632.0384s.1151-.0192.1631-.048c.0384-.0384.048-.0864.048-.1344l-.0192-.4799.2208-.0192.0384.4896c.0096.0959-.0288.1919-.096.2495-.096.0672-.2112.096-.3263.096-.0192 0-.0384 0-.0672.0096zm-.3552-.7391.0288.4319c-.0096.0768.0192.144.0864.192.096.0384.192.0576.2976.048.1055.0096.2015-.0192.2879-.0768.0576-.048.0864-.1248.0768-.2016l-.0288-.4223-.096.0096.0288.4032c.0096.0671-.0192.1343-.0672.1823-.0576.0384-.1343.0576-.2015.0672s-.144-.0096-.2016-.048-.0864-.1056-.0864-.1728l-.0288-.4127zm1.7085.6527c-.0767.0096-.1535 0-.2303-.0288-.0576-.0192-.1056-.0672-.1344-.1248l-.0096-.0288.1824-.0863.0096.0383c.0096.0192.0288.0384.0576.048.0384.0096.0768.0096.1055 0 .0288 0 .0672-.0096.0864-.0384.0192-.0096.0288-.0288.0288-.0479-.0288-.048-.0768-.0768-.1343-.0768-.0192 0-.0384-.0096-.048-.0192-.0768-.0096-.1632-.0384-.2304-.0768-.048-.0288-.0768-.0768-.0768-.1344-.0096-.0672.0192-.1344.0768-.1728.0672-.048.144-.0864.2208-.096.0672-.0096.1343 0 .2015.0192.048.0192.096.048.1248.0864l.0288.0288-.1824.096-.0192-.0096c-.0192-.0192-.0384-.0288-.0576-.0384h-.0767c-.0288 0-.0576.0096-.0768.0288-.0192.0096-.0288.0288-.0192.048.048.0384.1056.0576.1631.0672.0768.0096.1536.0288.2208.0576l.0192.0096c.048.0288.0768.0768.0768.1344.0096.0767-.0192.1535-.0768.2015-.048.0672-.1344.1056-.2304.1152zm-.2879-.1536c.0192.0288.048.048.0864.0576.0672.0192.1344.0288.2015.0192.0768-.0096.1536-.0384.2112-.0864.048-.0384.0672-.0864.0576-.1439 0-.0384-.0192-.0768-.0576-.096-.0672-.0288-.144-.048-.2112-.0576-.1343-.0384-.2015-.0672-.2207-.1248 0-.0384.0096-.0768.048-.1056.0288-.0288.0768-.048.1152-.048h.0863c.0288.0096.0576.0192.0768.0384l.0576-.0288c-.0192-.0192-.048-.0288-.0672-.0384-.0576-.0096-.1152-.0192-.1727-.0096-.0672.0096-.1344.0384-.1824.0864-.0384.0288-.0576.0768-.0576.1248 0 .0384.0192.0672.048.0864.0672.0384.144.0672.2208.0768l.0287.0096c.0768 0 .1536.048.1824.1248.0096.0383-.0096.0863-.048.1055-.0288.0384-.0768.0576-.1248.0576-.0479.0096-.0959.0096-.1439-.0096-.0288-.0096-.048-.0288-.0672-.048zm-2.15.1536c-.0288 0-.0768 0-.144-.0096l-.3456-.0384.096-.7871.288.0384c.0576 0 .1056.0096.1631.0288.0288.0096.0576.0192.0864.0384s.0576.048.0864.0768l.0096.0192c.0096.0288.0096.0672.0096.096-.0096.0384-.0288.0864-.0576.1056-.0096.0096-.0192.0192-.0384.0192.0192.0096.0384.0288.0576.0384.0384.048.048.1056.0384.1631 0 .0384-.0096.0672-.0384.096-.0192.0288-.0384.048-.0672.0576-.0384.0192-.0768.0384-.1247.048h-.0192zm-.4224-.1152.2784.0384c.0576.0096.1056.0096.1344.0096.0384 0 .0671-.0192.0959-.0384.0192-.0096.0384-.0288.0576-.048.0096-.0192.0192-.0384.0192-.0576.0096-.0384 0-.0767-.0192-.1151-.0384-.0288-.0768-.048-.1151-.0672v-.0576c.0287 0 .0671-.0192.0863-.0288.0192-.0192.0384-.048.0384-.0768.0096-.0192.0096-.048 0-.0768-.0192-.0192-.0384-.0384-.0576-.0576s-.048-.0288-.0767-.0384c-.048-.0096-.1056-.0192-.1632-.0192l-.2304-.0288zm.3168 0c-.0288 0-.0576-.0096-.0864-.0096l-.144-.0192.0384-.2975.144.0192.0288.0096c.0096 0 .0288 0 .0384.0096.0288 0 .048.0096.0672.0192.0288.0096.048.0288.0576.0576.0191.0288.0191.0672.0096.0959 0 .0192-.0096.0384-.0192.0576-.0192.0192-.0384.0384-.0576.048l-.0384.0096c-.0096 0-.0192 0-.0384 0zm-.1536-.0864.0768.0096c.0384.0096.0768.0096.1056 0h.0288c.0096-.0096.0192-.0192.0288-.0384.0096-.0096.0096-.0192.0096-.0288 0-.0191 0-.0383-.0096-.0479s-.0192-.0192-.0288-.0192l-.0192-.0192c-.0096 0-.0192 0-.0288 0l-.0192-.0096c-.0192 0-.0384 0-.048-.0096l-.0768-.0096zm-.8063.048-.2207-.0384.1535-.7774.2208.0384zm-.1439-.0864.0959.0096.1248-.6526-.096-.0192zm-.4704-.0287-.2783-.0768-.2208-.3456-.0672.2976-.2111-.0576.1823-.7679.2592.0576c.0384.0096.0768.0192.096.0288l.048.0096c.0384.0192.0672.0384.096.0672.0288.0192.0479.048.0575.0768l.0096.0192c.0096.0384.0096.0768 0 .1055-.0096.0576-.0479.1152-.1055.144-.0384.0192-.0864.0288-.1344.0288zm-.2303-.1152.096.0192-.2496-.384.0672.0096c.0576.0096.1152 0 .1632-.0192.0384-.0192.0672-.0576.0672-.1055.0096-.0192.0096-.048 0-.0672-.0096-.0288-.0288-.048-.048-.0672s-.048-.0384-.0768-.0576l-.048-.0096c-.0288-.0096-.0576-.0192-.096-.0288l-.192-.0384-.1535.6431.0863.0288.0768-.3168h.048l.0288.0096zm6.2869.0096c-.0576 0-.1056-.0096-.1536-.0192-.0863-.048-.1439-.1248-.1727-.2208l-.1056-.4799.2112-.048.1055.4607c.0096.048.048.0864.0864.1152.0576.0192.1152.0192.1632 0 .0576-.0096.1152-.0384.1536-.0768.0288-.0384.0384-.0864.0288-.1344l-.1152-.4511.2303-.0576.1056.4703c.0288.096 0 .2016-.0576.2784-.0863.0768-.1919.1248-.2975.1536-.0576.0096-.1152.0096-.1824.0096zm-.3551-.6719.096.4127c.0192.0768.0576.144.1247.1824.096.0288.2016.0288.2976 0 .096-.0192.192-.0672.2687-.1344.048-.0672.0672-.144.0384-.2208l-.0863-.4031-.1056.0288.096.3935c.0096.0672 0 .1344-.0384.1824-.048.0576-.1152.0864-.192.1056-.0672.0192-.144.0192-.2112-.0096-.0576-.0288-.1056-.0864-.1152-.1536l-.0863-.4031zm-4.1081.6047c-.0288 0-.0672 0-.1056 0h-.096l.0384-.2784.096.0096c.0576 0 .1248.0192.1824.048.0287.0288.0479.0768.0383.1248 0 .048-.0383.0864-.0863.096-.0288 0-.0576 0-.0672 0zm-.1344-.0768h.0192c.048.0096.1056.0096.1536 0 .0192 0 .0384-.0192.0384-.0384 0-.0288-.0096-.0576-.0192-.0768-.0192 0-.0768-.0192-.144-.0288h-.0384zm-7.6595.0672-.2688-.7583.5759-.2112.0672.1632-.3839.1344.0384.1152.3839-.1344.0576.1536-.3647.1439.048.1632.3743-.1344.0672.1536zm-.192-.7103.2304.6335.4703-.1728-.0192-.0384-.3743.1344-.096-.2783.3647-.144-.0096-.0288-.3743.1248-.0864-.2304.3743-.1344-.0192-.0384zm17.6034.5567-.2015-.0768-.0192-.3935-.3935.3455-.1632-.4991-.0096-.0096-.2112.3456-.2015-.048.4799-.7775.1823.5855c.0096.0192.0096.0288.0096.048l.0288-.0192c0-.0096.0096-.0192.0096-.0192l.4512-.4127zm-.1439-.1152.0768.0288-.0288-.6815-.3456.3168c0 .0096-.0096.0192-.0192.0288-.0192.0192-.048.0384-.0576.0576l-.0576.0864v-.1056c0-.0192 0-.0384-.0096-.0576l.0192-.048-.0288.0096-.0096-.0288-.1439-.4415-.3552.5759.0768.0192.1824-.2976.0096-.0192.0192-.0288c0-.0096.0096-.0288.0192-.0384l.0576-.0576v.0768c.0096.0096.0096.0288.0096.0384v.0192c0 .0096 0 .0192.0096.0288l.1343.4127.3552-.3263.0096-.0192.0576-.0864.0096.0864c0 .0192 0 .0384-.0096.0576zm-12.6411.0864c-.0672 0-.1248-.0096-.192-.0288-.1151-.0096-.2207-.0672-.2975-.144-.0576-.0767-.0768-.1727-.0576-.2687l.1152-.4799.2207.0576-.1055.4607c-.0096.048-.0096.096.0192.144.0384.0383.0959.0671.1439.0671.0576.0288.1248.0288.1824 0 .0384-.0192.0672-.0575.0768-.1055l.1056-.4704.2207.0576-.1055.48c-.0192.0959-.0864.1727-.1728.2111-.048.0096-.1056.0192-.1536.0192zm-.3839-.8446-.096.4127c-.0192.0768 0 .1536.048.2111.0672.0672.1632.1152.2591.1344.096.0288.2016.0288.3072 0 .0672-.0288.1152-.096.1344-.1727l.0959-.4128-.0959-.0288-.096.4032c-.0096.0672-.048.1247-.1152.1439-.0672.0288-.144.0384-.2208.0096-.0768-.0096-.1439-.0384-.1919-.0959-.0288-.0576-.0384-.1248-.0288-.192l.096-.3935zm9.1664.835-.1919-.835.7774.3263c.0192.0096.0384.0192.0576.0288h.0096l-.096-.4607.2016-.048.192.8254-.7967-.3167c-.0192-.0096-.0384-.0096-.0576-.0192l.1056.4511zm-.096-.7295.1536.6527.0768-.0192-.1248-.5183.0576.0192c.0192 0 .0384.0096.048.0288.0192.0096.048.0288.0672.0288l.6815.2688-.1536-.6431-.0768.0192.1152.5087-.0576-.0192-.0288-.0096c-.0096 0-.0192-.0096-.0288-.0096l-.0192-.0096c-.0096-.0096-.0192-.0192-.0288-.0192zm-7.4195.5855c-.0576 0-.1056-.0096-.1632-.0288l-.0576-.0192.0672-.2591.0576.0192c.0576 0 .1248.0288.1728.0672.0384.0288.048.0768.0384.1248-.0096.0383-.0384.0767-.0768.0959-.0096 0-.0288 0-.0384 0zm-.1344-.0863c.048.0191.1056.0191.1632.0191.0096-.0095.0192-.0287.0288-.0479s0-.0384-.0096-.0576c-.0384-.0384-.0864-.048-.144-.048zm-2.1788-.0192-.5759-.1152.1536-.7775.2207.048-.1152.6143.3552.0672zm-.4991-.1632.4511.0864.0096-.048-.3551-.0672.1151-.6143-.096-.0192zm12.1611.0576c-.0864.0096-.1728-.0096-.2495-.0576-.0864-.048-.1344-.144-.144-.24l-.048-.4895.2303-.0096.0384.4799c0 .048.0192.0864.048.1152.0576.0288.1152.0288.1824.0192.0576 0 .1152-.0192.1632-.048.0288-.0384.0384-.0864.0384-.1344l-.048-.4799.2303-.0096.048.4799c.0192.096-.0192.2016-.096.2688-.0863.0672-.2015.1056-.3167.1056zm-.3551-.7199.0384.4223c0 .0768.0384.1536.1055.192.0864.048.192.0672.2976.048.1056 0 .2016-.0384.2784-.096.0575-.048.0863-.1344.0671-.2112l-.0384-.4127-.0959.0096.048.4127c0 .0672-.0192.1248-.0576.1824-.0576.048-.1344.0768-.2016.0768-.0768.0096-.144 0-.2112-.0288-.0576-.0384-.0864-.1056-.0864-.1728l-.0383-.4127zm-13.0058.6911-.0768-.8063.3071-.0192c.048-.0096.0864-.0096.1344 0 .0288 0 .0576 0 .0864.0096.0384.0096.0768.0384.1056.0768.0288.0288.048.0768.048.1152.0096.0384 0 .0768-.0288.1056-.0192.0384-.048.0672-.0768.0864l-.0288.0191c-.0192.0096-.0384.0192-.0576.0192l-.0288.0096c-.048.0096-.096.0192-.144.0192h-.0576l.0288.3264zm-.0096-.7391.0672.6719.0863-.0192-.0287-.3264.1247-.0096c.048 0 .0864-.0096.1248-.0191l.0288-.0096c.0192 0 .0288-.0096.0384-.0192s.0192-.0096.0384-.0192c.0192-.0192.0384-.0384.048-.0672.0096-.0192.0192-.048.0192-.0672 0-.0288-.0192-.0672-.0384-.0864-.0096-.0192-.0288-.0384-.0576-.048s-.0672-.0192-.096-.0192c-.0384-.0096-.0768-.0096-.1152 0zm.1535.288h-.0287l-.0192-.2592.0767-.0096c.0672-.0096.1344-.0096.192.0096.048.0192.0768.0576.0768.1056.0096.048-.0192.0864-.0576.1056-.048.0192-.096.0384-.1536.0384zm.0288-.0672.0384-.0096c.048 0 .0864-.0192.1248-.0384.0192-.0096.0384-.0288.0288-.0576 0-.0192-.0192-.0384-.0384-.048-.048-.0192-.1056-.0192-.1632-.0096h-.0096z" fill="#0f0f10"/><path d="m17.4589 24.5039.7007.2112.7774.2111.9791.24.5375.1248.5759.1248.5759.1151.5951.096.5855.0864.5759.0672.5567.048.4703.0096v15.3478l-.3551-.3071-.0288-.0096-.3648-.3456-.3935-.3743-.3743-.3744-.3552-.3647-.3455-.3647-.3264-.3744-.3167-.3743-.2976-.3647-.2879-.3744-.2784-.3743-.2495-.3648-.2592-.3743-.2303-.3647-.2208-.3648-.2016-.3647-.3935-.7103-.1728-.3647-.1631-.3552-.2976-.7007-.144-.3455-.1247-.3455-.2208-.6719-.1824-.6431-.1632-.6335-.1247-.6239-.096-.5855-.0864-.5759-.048-.5375-.0288-.5087-.0288-.48v-.4415l.0096-.4127.0288-.3839.0576-.6431.0672-.48.048-.3071z" fill="#e83030"/><path d="m19.2442 34.8606 9.5792-9.5792.096-.0288.9598-.2399.7775-.2016.7007-.2208.0192.1056.0575.2976.0672.4703.0288.2975.0288.3264.0192.3743v.4127.0576l-10.6062 10.6062-.0768-.1055-.2687-.3648-.2592-.3647-.2495-.3552-.2304-.3647-.2208-.3551-.2111-.3648z" fill="#1074bc"/><path d="m21.5574 35.8588.1248-.3359c.0864.0576.192.0768.2976.0672.1055-.0192.2111-.0768.2783-.1536.0768-.0672.1248-.1728.1248-.2784 0-.0959-.0384-.1919-.1152-.2495-.1056-.096-.2783-.1056-.5183-.0288-.0384.0192-.0672.0288-.0864.0384-.2879.096-.4991.1344-.6335.1248-.144-.0096-.2783-.0672-.3743-.1728-.1344-.1248-.2016-.3072-.2016-.4991.0096-.2016.1056-.384.2496-.5087.1056-.1152.2399-.2016.3839-.24.1344-.0384.2688-.0288.3935.0288l-.1055.3359c-.0768-.0096-.1536-.0192-.2304-.0096-.0672.0192-.1344.0576-.1824.1056-.0672.0576-.1152.144-.1248.24-.0095.0864.0288.1728.096.2303.096.096.3072.096.5855-.0096.0192-.0096.0384-.0192.0576-.0192.1824-.0767.3744-.1151.5759-.1151.144.0096.2784.0768.3744.1823.1535.144.2399.336.2399.5471-.0096.2208-.1056.4224-.2687.5759-.1248.1344-.2976.2208-.4704.2592-.1631.0192-.3359-.0192-.4703-.1152z" fill="#ffd432"/><path d="m23.8706 33.968c-.0768-.096-.0768-.2304 0-.3263.0384-.048.096-.0672.1536-.0576.0575.0096.1151.0288.1535.0672.0384.0383.0672.0959.0672.1439 0 .0672-.0288.1248-.0768.1632-.0384.0384-.096.0576-.1439.0576-.048.0096-.1056-.0096-.1536-.048z" fill="#ffd432"/><path d="m25.4256 32.6722-1.7277-1.7374.2783-.2783 1.4782 1.4781.6335-.6238.2495.2495z" fill="#ffd432"/><path d="m27.2013 30.6372c-.0384-.048-.0576-.1056-.0576-.1631 0-.0576.0192-.1152.0576-.1536.048-.0384.1056-.0672.1631-.0672.0576 0 .1056.0288.1536.0672.0384.0384.0672.096.0672.1536 0 .0575-.0192.1151-.0672.1631-.0384.0384-.096.0576-.1536.0576-.0575 0-.1151-.0192-.1631-.0576z" fill="#ffd432"/><path d="m28.3147 27.7385.0288-.0479.0288-.0768.0096-.0768-.0192-.0672-.0384-.0672-.0096-.0096v-.5087l.0864.0384.1248.096.0671.0672.0384.0767.0288.0864.0288.0768.0096.0864-.0096.0768-.0288.0864-.0288.0768.0864-.048.0864-.0384.096-.0192.096.0096.096.0288.0959.0384.096.0672.096.0863.096.1056.0672.1248.0384.1344.0192.1439-.0096.0576-.0096.0768-.0672.144-.048.0768-.0672.096-.2112.2111-.4415.432-.4415-.4416v-.5567l.4895.4895.0864-.0959.1344-.1344.0768-.096.0576-.0864.0287-.0768.0096-.0864-.0288-.0863-.0287-.0864-.0672-.0672-.096-.0768-.096-.0384-.0864-.0096-.1056.0096-.0576.0192-.0576.048-.1439.1152-.0864.0864-.0288.0288v-.4704zm-.2784.3264.1056-.1152.096-.096.0768-.096.0096-.0288v.4704l-.0672.0672.0672.0671v.5567l-1.2958-1.2957.4415-.4224.1728-.1535.1248-.0864.1056-.0576.1055-.0288.0768-.0096h.0768l.1344.0384.0576.0288v.5087l-.0384-.0576-.0768-.0576-.0672-.0384-.0672-.0288h-.0768l-.0767.0288-.0768.048-.096.0672-.1056.096-.1056.1056z" fill="#ffd432"/><path d="m30.6759 27.1531c-.048-.0384-.0672-.096-.0672-.1536s.0288-.1056.0672-.144c.0384-.048.096-.0672.1536-.0672s.1152.0192.144.0672c.0383.0384.0671.0864.0671.144s-.0192.1152-.0671.1536c-.0384.0384-.0864.0672-.144.0672-.048 0-.1056-.0288-.1536-.0672z" fill="#ffd432"/><path d="m24.6289 36.3579-.048.0192-.2016.0288-.144.0288h-.1343l-.2496-.0288-.4127-.0672-.1536-.0384-.1536-.048-.2783-.0959-.3456-.144.7391-.7487 1.9389-1.9389 1.315-1.3341.5567-.5567.5471-.5472.6815-.6814.0767.1631.096.2496.0672.192.0192.0576.0192.0575.0288.096.0288.0864.0192.0672.0384.2592.0288.2207.0192.1536.0096.4415-.0384.3264-.0096.1439-.0288.1056-.0384.0768-.048.0672v.1632l-.0192.1727-.0384.1824-.0288.1248-.0768.1728-.0768.1727-.0863.1728-.0576.1056-.1056.1824-.0864.1247-.0864.1152-.096.1152-.096.1056-.2111.1727-.2016.144-.192.1152-.1247.1632-.1632.1632-.2304.1727-.2303.144-.1728.0864-.192.0768-.2591.096-.2688.0767-.2111.048-.2016.0288-.2112.0096-.1056-.0096zm-2.2269-7.8994c.7775-.9407 2.582-.7487 3.609-.3744-1.8717 1.8909-3.7625 3.753-5.6342 5.6439-.7487-1.7373-.1344-3.6858 1.219-4.924.1823-.1632.739-.5855.9982-.5567-.0576.0768-.1344.1344-.192.2112z" fill="#ffd432"/><path d="m26.7213 19.0616.0096-.096.0192-.096.0096-.0576-.0096-.048-.0096-.0384-.0384-.0383-.096-.096-.0767-.1248-.0576-.1248-.048-.1344-.0672-.2687-.048-.288-.144-.0672-.1344-.0576-.0767-.0479-.0576-.0576-.1152-.1344-.2688.0384-.1439.0192-.1344-.0192h-.0576l-.0576.0384-.0576.048-.048.0576-.0576.0384-.0384.0191-.0384-.0287-.0384-.0864v-.048l.0096-.0384.0384-.0864.0192-.0576c-.0864-.0288-.1727-.048-.2687-.0384l-.048.0672-.1344.2112h-.048l-.1824-.2784c-.0959 0-.1919 0-.2783 0l.048.0384.0288.0384.0384.0576.0192.048.0192.1344v.1151l-.0288.048-.0864-.0288-.048-.0384-.048-.0384-.048-.0383-.1152-.0672-.0672-.0192-.0671.0192-.0768.0384-.0864.0288h-.0768l-.096-.0192-.0864-.0096-.096.0096-.1055.0288-.1056.0767-.048.0192-.048.0096h-.1248l-.1536-.0288-.0384.0864-.0192.0672-.0383.1728-.096.2112-.096.1919-.0768.1824-.0288.0864-.0096.0864-.0288.0959-.0192.096.0096.0384.0192.048.0288.0384.0576.048c.7487-.1344 1.5069-.2112 2.2652-.2112.7679.0192 1.5454.096 2.3036.2592zm-9.7999 4.4824-.1056-.0384c-.4895 1.8429-.4607 4.1082-.1728 5.9702.8159 5.1352 3.8202 9.3681 7.7555 12.6411 4.6168-3.8201 7.9187-8.9841 7.9667-15.1078.0096-1.1615-.0768-2.3804-.384-3.5035l-.1055.0288c-2.1789.6815-5.2408 1.4398-7.4772 1.4398s-5.2983-.7583-7.4771-1.4302zm3.5322 14.8295-.0768.1632c.1056.048.2112.096.3263.144-.0863-.096-.1727-.2016-.2495-.3072zm-.9215-1.2477-.4703.7006c.3552.2304.7295.4416 1.1134.6239l.1248-.2687c-.2687-.3456-.5183-.6911-.7679-1.0558zm-.8446-1.3534-.9599.9982c.3552.336.7487.6527 1.1518.9311l.5184-.7775c-.2496-.3744-.4896-.7583-.7103-1.1518zm-.8351-1.6317-1.5069 1.0078c.3551.5279.7678 1.0174 1.219 1.4589l1.0078-1.0462c-.2592-.4607-.4991-.931-.7199-1.4205zm-.5855-1.4302-1.8429.7679c.2208.5183.4895 1.0078.7967 1.4877l1.5453-1.027c-.1919-.4031-.3551-.8063-.4991-1.2286zm-.4223-1.3534-1.9773.4223c.1152.5088.2688 1.0079.4607 1.4974l1.8621-.7679c-.1247-.3839-.2495-.7582-.3455-1.1518zm-.3551-1.6125h-1.8525c.0096.6047.0767 1.219.1919 1.8141l1.9677-.4223c-.1344-.4512-.2304-.9215-.3071-1.3918zm-.2016-1.6125-1.4974-.2976c-.1055.5567-.1535 1.1134-.1631 1.6797h1.8141c-.0672-.4511-.1152-.9118-.1536-1.3821zm-.048-1.7565-.9119-.384c-.2111.5279-.3743 1.0654-.4895 1.6222l1.4302.2879c-.0192-.2975-.0288-.5855-.0288-.8926 0-.2016 0-.4128 0-.6335zm.1728-1.9581-.192-.1344c-.3072.4703-.5663.9598-.7967 1.4782l.8255.3455c.0288-.5663.0768-1.1326.1632-1.6893zm.1151-.5759c-.0671.0768-.1247.1632-.1823.2495l.1152.0768c.0192-.1056.0383-.2111.0671-.3263zm1.8429-.096-.9502-.9502c-.1632.1727-.3264.3455-.4799.5279l.0576.0192c.4127.1343.883.2687 1.3725.4031zm2.3708.5759-1.8525-2.7739c-.4703.3263-.9118.6911-1.3245 1.0846l1.2286 1.2286c.6335.1728 1.2861.3263 1.9484.4607zm8.9649-.3743 1.3918-1.4494c-.3552-.3359-.7487-.6527-1.1518-.931l-1.8429 2.7547c.5279-.1152 1.075-.2304 1.6029-.3743zm2.1693-.6143c-.192-.24-.4032-.4608-.6239-.6815l-1.1422 1.1902c.6047-.1632 1.1902-.3264 1.7181-.4991zm.4799.8638.1248-.0768c-.0576-.0863-.1248-.1823-.192-.2687.0288.1152.048.2303.0672.3455zm.2207 1.9389.8159-.3359c-.2208-.5184-.4895-1.0175-.7967-1.4878l-.2015.1344c.096.5567.1631 1.123.1823 1.6893zm-.0192 1.6413 1.3822-.2975c-.1152-.5087-.2687-1.0079-.4607-1.4974l-.8927.3744c.0192.4799.0096.9502-.0288 1.4205zm-.1919 1.7469h1.8045c-.0096-.6047-.0672-1.219-.192-1.8141l-1.4398.3072c-.0192.4991-.0863 1.0078-.1727 1.5069zm-.2976 1.507 1.9485.3839c.1056-.5567.1632-1.1134.1632-1.6797h-1.8333c-.0768.4415-.1728.8734-.2784 1.2958zm-.4319 1.4781 1.8429.7679c.2112-.5279.3743-1.0846.4991-1.6413l-1.9581-.384c-.1055.3936-.2207.7871-.3455 1.171zm-.5663 1.4494 1.5261 1.0174c.3072-.4799.5759-.979.8063-1.4973l-1.8429-.7391c-.1536.4127-.3167.8254-.4895 1.219zm-.7199 1.4589 1.0462 1.0463c.3936-.4032.7487-.8351 1.0655-1.2958l-1.4878-.9983c-.192.4224-.4031.8447-.6239 1.2478zm-.931 1.5358.4991.7582c.4703-.3263.9118-.691 1.3246-1.0846l-1.0079-1.0078c-.2495.4607-.5183.9023-.8158 1.3342zm-1.1902 1.6221.0288.0576c.5183-.2208 1.0174-.4895 1.4877-.7967l-.4607-.6815c-.3264.4896-.6815.9599-1.0558 1.4206zm-9.3297-17.2867c-.2783-.0576-.5375-.1248-.787-.1824-4.7032 3.4843-5.7015 10.1263-2.2077 14.8295 1.4398 1.9485 3.5131 3.3403 5.8551 3.9546-.2688-.288-.5279-.5759-.7775-.8639-5.1831-1.8909-7.8611-7.6307-5.9606-12.8138.3839-1.0462.9406-2.0253 1.6413-2.8987l.0192-.0672c.6431-.7487 1.3822-1.411 2.2172-1.9581zm2.1213.4319c-.6239-.1151-1.2382-.2399-1.8141-.3647l-.1248.0768 1.9677 2.9563c.3935.0768.7775.144 1.1614.2016zm1.7661.2976c-.4799-.0672-.9982-.1536-1.5166-.2496l1.1806 2.8604c.2976.0383.5855.0671.8639.0959zm1.5069.1728c-.3743-.0288-.8062-.0768-1.2765-.144l.5375 2.6971c.2591.0192.5087.0288.7486.0288v-2.5819zm1.5166-.1632c-.4703.0672-.9119.1248-1.2958.1536v2.6011c.24-.0096.4991-.0192.7583-.0384zm2.1884-.3647c-.6623.1247-1.3342.2495-1.9581.3359l-.5471 2.7355c.3648-.0384.7487-.0768 1.1326-.1439zm1.5741-.3264c-.4223.096-.8542.1824-1.3053.2688l-1.3726 2.9467c.2975-.048.5855-.1056.883-.1632l1.9677-2.9371zm1.1039-.2496c-.2688.0672-.5279.1248-.8063.1824.8351.5471 1.5933 1.219 2.2268 1.9965l.0672.0672c3.4842 4.2809 2.8315 10.5774-1.4493 14.0616-.8543.6911-1.8141 1.2382-2.8508 1.6221-.2495.2976-.5183.5855-.7774.8735 5.663-1.4878 9.0512-7.2852 7.5731-12.9482-.6143-2.3516-2.0253-4.4249-3.9833-5.8551zm4.1369 1.7182c-1.3342-.8063-2.87-1.6126-3.7914-1.7182 4.7224 3.6666 5.5767 10.4623 1.9101 15.1847-1.5358 1.9773-3.6954 3.3594-6.1334 3.9161-.6623.6815-1.363 1.3342-2.102 1.9581 6.9108-.2016 12.3435-5.9702 12.1323-12.881-.0576-2.3036-.7582-4.5401-2.0156-6.4597zm-8.1587-3.6474c1.0175-.2016 2.0157-.4607 3.0235-.7199l.1536-.0384c-.4031-.2016-.8159-.3743-1.2286-.5279l-.0096.0672-.0768.0192-.0576-.0096-.0384-.0384-.0384-.048-.0575-.0864c-.2304-.0768-.4704-.1536-.7103-.2208l-.0768-.0096-.0768.0096.0384.048.0384.0576.1344.1056.1151.1152.0384.0576.0192.0576.0672.0192.0384.0192.048.0384.0288.0384.0384.1055.0384.1248.0096.0864-.0096.0864-.0288.0672-.0288.0672-.0576.0192h-.048l-.048-.0288-.048-.0288-.0192-.0864-.0384-.0768-.0671-.0672-.0672-.0576-.1632-.0576-.1632-.0864-.1344-.1055-.1343-.1248-.0192.1248v.2687l-.0192.1344.0384.0576.0096.1056-.0096.1247-.0288.1152-.0864.1536-.0288.0384-.048.0384zm-4.2808.0672c.6431.1151 1.3053.1919 1.958.2303.6815-.0384 1.363-.1248 2.0349-.2495-1.3246-.24-2.678-.24-3.9929.0192zm-1.3822-.2784c.2687.0576.5567.1248.8446.1824l.1824-.0384-.1344-.0384-.0384-.0288-.0383-.0384-.0288-.0384-.0288-.048-.0384-.0768v-.0864-.1727l-.0096-.1728-.0192-.0672-.0288-.0864-.0768.0576-.0384.0384-.1056.0672-.096.0576-.048.0288-.0384.048-.0863.1056-.0768.1151-.0576.1152zm-2.1692-.5471c.5951.1344 1.3917.3647 1.5837.4031l.4223.1056-.0192-.0768-.0096-.1152-.0096-.1151.0192-.1152.0192-.1152.0384-.1056.0576-.0864.096-.0863.0384-.1536.0672-.1344-.0768-.0192-.0768.0096-.144.0192h-.096l-.0864-.0192h-.0479l-.0384.0096-.0768.0576-.0576.0288-.048.048-.0672.1152-.0384.048-.048.0287-.048.0096-.0576-.0383v-.1824l.0096-.0672c-.4511.1632-.883.3455-1.3053.5471zm-5.3943 4.6552c-.8159.5087-1.5166.9791-1.8909 1.2382l.2399-1.8525-2.22678-.1919s1.44938-.9791 3.09068-1.8525c1.6413-.8735 3.7338-1.8141 5.5575-2.1117.0863 0 .1823 0 .2687.0192.5567-.2879 1.1422-.5375 1.7373-.7391l.0768-.0767.0864-.048.0672-.0384.0768-.0384.1343-.0864.1344-.0768.0768-.0288.0864-.0192.4511-.1056.2112-.0672.2112-.0863.0671-.0768.0768-.0864.1344-.1632.096-.1824.0864-.2015-.0576-.0768-.048-.096-.0576-.2016-.0384.0192-.0672.0864-.0576.0288h-.0384l-.0959-.1248-.0288-.1151-.0384-.2496-.0192-.3167v-.3168l-.0384-.0096-.0576.0384-.0672.0096-.0672-.0576-.048-.0576-.0096-.0768v-.096l.0192-.1631.0384-.1536.0288-.1152v-.048l-.0096-.0576-.0576.0384-.0672.048-.0672.0288h-.0864l-.0095-.0768v-.0864l.0383-.1535.048-.1536.0384-.1536h-.4031l-.1248-.0192-.0576-.0384-.0384-.0192-.0576.0192-.1055.1056-.0288.0384-.0384.0192-.0864.048-.0864.0288-.096.0288-.0864.0192-.0959-.0096-.096-.0192-.0864-.0288-.0768-.0576-.048-.0384-.0192-.0384-.0672-.1056-.048.0192-.0288.048-.0672.1056-.1535.1248-.0768.048-.0864.0384-.0864.0288-.0864.0192h-.096l-.1055-.0192-.048-.0384-.0864-.1248-.0576-.0384-.0384.0096-.0576.0288-.0768.0288-.0768.0192h-.0672l-.0863-.0096-.144-.0384-.144-.048-.0672-.0576-.0672.0096-.0672.0384-.0384.0192-.1247.0192h-.0768l-.1536-.0192-.144-.0576-.1056-.0672-.0575-.048-.0768.0288-.0768.0096h-.1728l-.096-.0288-.0768-.0288-.0671-.048-.0576-.048-.096.0096h-.0864l-.0768-.0288-.0864-.0287-.0768-.0384-.0672-.048-.0767-.0672-.0576-.0672-.0288-.0768-.0192-.0864-.0096-.0384-.0384-.0576-.0384-.0192h-.0672l-.0672-.0192-.1056-.0479-.1056-.0768-.0863-.1056-.0288-.0768-.0288-.0864-.0384-.0576-.0768-.0192-.1344-.0384-.1248-.0384-.2399-.0959-.2496-.0288-.2495-.0384-.2304-.048-.2304-.0768-.2399-.0672-.2208-.096-.2015-.1344-.192-.1439-.2208-.0192-.2591-.048-.2208-.048-.1152-.0288-.2783-.096-.2688-.1344-.3071-.1536-.2976-.1919-.2783-.2016-.1248-.1152-.1248-.1247-.0768-.1152-.096-.1056-.0384-.0384-.05755-.0384-.05759-.0288-.07679-.0192-.18237-.07678-.18237-.08638-.17277-.09599-.17277-.13437-.17277-.11518-.16317-.14398-.14398-.12478-.13438-.15357-.01919-.04799-.08639-.0384-.04799-.01919-.36474-.16318-.18237-.09598-.17277-.11518-.12478-.10558-.11518-.12478-.10558-.13438-.08639-.13438-.36473-.11518-.34555-.12478-.16317-.07678-.16317-.09599-.15358-.10558-.13437-.12478-.14398-.14398-.13438-.14397-.06718-.07679-.0576-.08638-.02879-.09599-.0096-.10558.04799-.02879.048.00959.05759.0192.05759-.0096.5567-.02879.23996-.0096h.65269l.38394.0096.86385.01919h1.62213l.73905-.02879.7487-.04799 1.1422-.0096 1.1326-.0096 1.123.03839.5567.0288.5567.04799.6335.05759.6335.05759.3072.04799.3071.06719.2976.08639.2783.10558.2784.15357.2687.18237.2496.21117.1248.11518.1151.12478.0576.06719.0288.07678.0576.07679.0384.07679.0864.17277.0576.08638.0576.06719.0768.04799.096.0192.1535.0288.1344.05759.1152.05759.1056.09598.096.08639.0863.09598.1536.23036.1536.23996.1632.22076.0959.09599.096.08637.1152.0864.1344.0672.1152.0288h.1151l.1056-.0288.1056-.0384.096-.0576.096-.0768.1632-.15356.0863-.13438.0672-.12478-.0384-.03839-.1343.0192h-.1344l-.0768-.0096-.0576-.0192-.0576-.02879-.0576-.0384-.0096-.07678.0096-.05759.048-.0384.0576-.04799.1152-.06719.048-.04799.0384-.05759.0672-.09598.0575-.10559.0288-.04799.0288-.05759v-.05759l-.0192-.05759-.1343.0192-.1248-.0192-.1248-.0096-.1344-.01919-.0384-.05759-.0096-.07679.048-.0192.048-.03839.0384-.04799.0192-.04799.0384-.11519.0288-.10558-.0384-.0096-.048.0096-.096.0384-.0672.00959-.0767.0192-.0672.0096-.0672-.0288v-.09598l-.0096-.10558-.0192-.09599-.0384-.08638-.0384-.08639-.0576-.07678-.0768-.07679-.0864-.06719-.1343-.05759-.1344-.05759-.144-.05759-.1344-.06719-.1248-.09598-.1151-.09599-.0384-.04799-.0576-.06719-.0288-.06719-.0288-.07678.0096-.29755.048-.0288h.0384l.0672.04799.0576.06719.0287.0384.1344.06718.1056.048h.1248l.0576.0096.048-.0192.0576-.0192.0384-.05759.0383-.05759.0096-.05759-.0096-.07679-.0192-.05759-.0287-.04799-.0288-.04799-.048-.0288-.1056-.06718-.1152-.048-.144-.03839h-.1344l-.1247.0288-.1248.03839-.24.08638-.2303.10559-.0384-.048-.0096-.05759.0192-.11518.0384-.11518.0576-.11518.0767-.09598.0864-.10558.096-.08639.1056-.07679.1152-.05759.1152-.03839.2687-.0288h.1344l.144.0096.1343.0096.1344.0384.1248.04799.1056.06719.1536-.05759.1535-.048.1728-.01919.1824.0096.1343.02879.144.0288.2688.10558.2687.11518.2688.11518.2687.11518.1344.04799.1344.0288.1344.03839.144.0096h.1535l.1536-.0096.0672-.0096.0672-.04799.0576-.0192.0672.0288-.0096.04799-.0096.03839-.048.08639-.0672.06719-.0576.07678.1824.048.2015.03839.1824.06719.096.03839.0864.05759v.09599l-.2112.01919-.096.0192-.0864.04799.192.07679.2016.05759.0959.02879.0864.048.0864.04799.0576.06719v.06719h-.2208l-.1055.03839-.048.02879-.0384.048.1056.04799.1151.02879.24.06719.2304.06719.1055.03839.1056.05759.1248.09599.1056.09598.1056.11518.1056.14398.0287.06719.0288.06719.0096.06718-.0288.07679h-.0959l-.1056-.01919-.0768.00959-.0384.0288.0768.07679.096.07678.096.07679.0863.10558.1536.19197.1248.21116.0096.06719.0288.05759v.06719l-.0096.04799-.0768.0192-.048-.0192-.0768-.04799h-.0576l-.0576-.0096h-.048l-.0383.0384.1823.14397.1824.17277.1536.19197.1343.19196.096.0096.1056-.0096.0864-.0192.096-.02878.096-.0288.0863-.05759.0768-.06719.0768-.07678.0096-.11518.0288-.10559.0768-.21116.1152-.20157.144-.18237.1535-.15357.1824-.14398.192-.11518.096-.02879.0863-.0384.1344-.22076.1632-.22076.1632-.20157.1919-.23036.2112-.16317.2208-.13438.2495-.10558.1152-.03839.1344-.0288.2495-.09598.24-.07679.5087-.13438.2208-.02879.2303-.0384.4608-.03839.4607-.0192h.4895l.6047-.01919h.6143l1.2382.00959h1.2574l.6239-.00959.6143-.0192.4895-.0096.4895.0096.9886.0096.9887.01919 1.0078-.01919.144-.0288.1439-.01919h.0672l.0672.00959.0672.0192.0672.03839-.0192.07679-.0288.08639-.048.06719-.0576.06718-.1344.12478-.1247.10559-.1152.09598-.1344.08639-.1344.07678-.1343.06719-.2688.10558-.2784.09599-.2303.25915-.24.25916-.1344.11518-.1343.09598-.144.09599-.1536.05759-.0576.11518-.0672.10558-.1631.20157-.1728.18237-.2016.15357-.2015.14398-.2112.13437-.2208.11518-.2207.09599-.192.23996-.2112.2112-.2207.1823-.24.1632-.2495.1536-.2496.1248-.2496.1151-.2687.096-.4511.1248-.24.0576-.24.048-.0959.1344-.1152.1151-.1344.1056-.1248.0768-.1535.0768-.1536.0672-.2976.1152-.2015.0288-.2208.0288-.4319.0288-.1344.1055-.1344.0864-.144.0672-.1439.0576-.0672.144-.0384.0768-.048.0576-.192.0863v.1248l-.0288.1248-.0576.1056-.0767.0864-.0288.0384-.0576.0192-.096.0287h-.2112l-.0672.0768-.0768.0576-.0767.0288-.0864.0288-.096.0096-.0864-.0096-.1824-.0192-.0576-.048-.0575.0192-.048.0384-.0576.0288-.096.0288-.096.0096-.0864.0096-.0864-.0096-.096-.0192-.0863-.0384-.0768-.0384-.0672-.048-.0672.0768-.0768.0672-.0864.0576-.0864.048-.0959.0288-.096.0192h-.096l-.096-.0288-.0576-.0096-.0576.0768-.0768.048-.0863.0384-.0864.0288-.096.0192h-.096l-.1824-.0096-.1152-.0384-.0863-.0576-.0768-.0768-.0672-.0768-.0384.0192-.0576.0768-.096.096-.0768.048-.0768.0383-.0863.0288-.0864.0192h-.0864l-.096-.0096-.0864-.0288-.0288-.0479-.048-.0384-.0576-.0768-.1151.0576-.0576.0288-.048.0288.0096.1343v.1536l-.0096.0672-.0192.0672-.0288.0576-.0384.048-.0288-.0576-.0288-.048-.048-.048-.0576-.0384-.1056-.0768-.0767-.0288.0959.1152.0576.1152.0288.0576.0288.0672.0096.1247-.0192.1344-.0384.144-.0384.1344-.0864.2207-.0383.0672-.1152-.096-.096-.1055-.0288.2687-.0384.2592-.0288.1247-.048.1248-.048.1152-.0672.1056h-.0672l-.0575-.0288v-.0672l-.0096-.0672-.0288-.0576-.0384-.0384-.1152.2016-.0768.1056-.0768.0768.0096.048.0096.0575.0576.096.144.192.4319.2208.2208.1055.1151.0288.1248.0192.096.0384.0864.0576.0672.0768.0768.0864.096.048.0959.0768.0768.0864.0576.0959c.5567.2208 1.0846.4512 1.5933.7199.096-.0192.192-.0288.288-.0192 2.7451.4319 6.3253 2.39 8.6481 3.9642l-2.2364.1919.2304 1.8525c-.3744-.2591-1.0654-.7295-1.8813-1.2382 3.6186 6.0278 1.6701 13.8505-4.3481 17.4691-1.9484 1.171-4.1753 1.7949-6.4501 1.8237h-.1056c-7.026 0-12.7274-5.6919-12.7274-12.7179 0-2.3132.6335-4.588 1.8333-6.5845zm4.3672-1.9868c-.8926.0191-2.5243.8734-3.9449 1.7277-3.7722 5.7878-2.1404 13.5433 3.6474 17.3154 1.9676 1.2862 4.2617 1.9869 6.6037 2.0253-.7295-.6143-1.4302-1.2766-2.0925-1.9581-5.8262-1.3245-9.4736-7.122-8.149-12.9482.5663-2.4476 1.9581-4.6264 3.9353-6.1621zm.2688-.192s3.8969.9406 6.2677 1.1038c2.3804-.1632 6.2774-1.1038 6.2774-1.1038 1.3533-.24 4.9719 2.1116 6.2389 2.9659l-.2015-1.5837 1.8332-.1536c-2.2076-1.4302-5.4902-3.1675-8.0242-3.5706-.2016-.0288-1.9101.4415-2.1404.4991-1.2862.3167-2.6492.5951-3.9834.6623-1.8525-.096-3.6186-.5759-5.4039-1.027-.3839-.096-.6239-.144-.691-.1344-2.534.4031-5.8167 2.15-8.0243 3.5706l1.8237.1536-.2016 1.5837c1.2574-.8639 4.8856-3.2155 6.2294-2.9659zm8.5425 11.1341c.4128.4991.7967 1.4686.8543 2.0733 0 .3455-.0576.691-.1728 1.0174.2784-.0672.7103-.6815.8447-.9502l.1056-.2112c.4319-.8543.2591-1.5262-.1728-2.3324-.1152-.2208-.2688-.4128-.4511-.5855zm-3.1674 3.1675h.1344.0575c.5664-.0576 1.0751-.2304 1.4686-.6623.1344-.144.2688-.3648.24-.5759-.0384-.1728-.1056-.3264-.192-.4799zm-.9791.7774.6143-.6238c.0288-.0384.0672-.0768.1056-.1056l1.9197-1.9101 1.315-1.315c.0096-.0288.0384-.0576.0672-.0672l5.0103-5.0103v-.0576c0-.7199-.0672-1.4398-.2015-2.1405l-.0768.0288-.2208.0672-.2879.0864-.3648.096-.4223.1152-.4703.1247c-.2016.048-.4032.1056-.6047.144l-9.4832 9.464c.4799.8927 1.0366 1.7469 1.6509 2.5436l1.3822-1.3726zm-4.9047-11.4316.096.0288.2207.0672.2976.0863.3551.096.4127.1152.4608.1152c1.5741.3935 3.369.7775 4.9911.7775s3.417-.384 5.0008-.7775l.4607-.1152.4127-.1152.3648-.096.2879-.0863.2208-.0672.096-.0288.2015-.0576.048.2111c.5183 2.4572.0768 5.5191-.7582 7.8419-1.2478 3.4746-3.5131 6.335-6.3254 8.6866-4.0889-3.4363-6.9876-7.9859-7.266-13.409-.0575-1.027-.0288-2.102.1824-3.1195l.048-.2111zm6.4885 5.4327c-.1824-.5855.0384-1.2094.4511-1.6222.1344-.1247.288-.2303.4511-.3167.0576-.0288.1152-.048.1728-.0576l-.0768-.0384c-.1056-.0288-.2208-.0384-.3263-.0384-.4608 0-.8543-.0096-1.315.096-1.1038.2687-1.7565 1.5933-1.7565 2.6587-.0192.528.0384 1.0463.1632 1.555zm1.8333-1.8333c-1.171-.2784-1.7853.6047-1.6989 1.6989zm-3.2635.048c.8831-.6431 2.3708-.528 3.3786-.1728l2.5628-2.5628c-1.363.3168-2.8027.5759-4.1657.5759-1.6605 0-3.4458-.3839-5.0487-.787l-.4704-.1248-.4127-.1152-.3647-.096-.2976-.0864-.2207-.0672-.0768-.0192c-.4895 2.4188-.048 5.4423.7679 7.7267.2783.7775.6142 1.5358.9982 2.2653l1.0078-1.0079c-.7967-1.6605-.0096-4.0601 1.4398-5.1063.2111-.1248.6527-.4703.9022-.4223zm-1.6605 4.8663c-.2688-.1247-.5279-.4511-.6719-.6718-.048-.0768-.096-.1632-.1344-.2496v.1824c0 .1247.0096.2495.0384.3743.0384.2784.096.6623.2208.931zm.7295-.7294c-.432-1.1806-.2112-3.0715.7199-3.9546-1.2574.5087-2.87 2.8315-1.8813 4.0985.1056.144.3647.4032.5279.4704zm.9502 3.6857c.2304.0672.5951.2112.6911.24.2975.096.7967.1536 1.0942.096.24-.0576.4895-.1056.6815-.2976.3647-.3935.3839-1.1518.3263-1.6605-.5471.7391-1.2765.9886-2.1404.9695zm5.7494-5.759c.048.096.0864.192.1152.288.2496.6047.384 1.4397.2784 2.0924-.0288.144-.144.3647-.144.4415-.0384.3648-.0576.5759-.2304.9119l-.1055.2111c-.192.384-.4608.7295-.8063.9887-.096.0768-.2208.1248-.3167.2111-.0768.0768-.1536.1536-.2112.24-.1824.1824-.3839.3359-.6047.4511-.4319.2112-.8831.3456-1.363.4032-.1344.0096-.2783-.0288-.3935-.0288-.1056.0096-.2112.0576-.3168.0672-.4703.0383-1.2861-.1728-1.7661-.4032l-1.4205 1.4206c.979 1.2478 2.0828 2.39 3.2922 3.4074 4.1465-3.4938 7.074-8.293 7.0932-13.8121zm-.6622.6623c.0575.0672.1343.1536.1631.192.3648.4607.6623.9694.7295 1.5741.0288-.1344.0384-.2592.0288-.3935.048-.5183-.1056-1.4398-.3647-1.9197zm-2.438 2.4476c.0864.2016.1631.4031.2207.6143.1824.6623.1728 2.0348-.5567 2.3708.2784.0192.9695-.2208 1.2094-.336.6815-.2975 1.027-.7582 1.1134-1.4877.0288-.1344.0384-.2688.0384-.4031-.0384-.2496-.096-.4992-.1823-.7391-.0384-.1728-.1056-.336-.1728-.4991-.1344-.2592-.2976-.4991-.4703-.7391z" fill="#101111"/><path d="m42.6834 6.76613-.1343.18237-.144.13438-.1632.11518-.1632.10558-.1727.08639-.192.07678-.192.06719-.1823.04799-.192.0384-.2016.03839-.4031.05759-.4031.0288-.4032.01919-.5567-.05759-.2591-.04799-.2688-.05759-.0672-.03839-.0864-.0096.2208-.15357.2016-.15358.096-.08638.0959-.10559.0864-.10558.0864-.11518.4031-.0096.4128.0096.8254.0288.432-.0096.4511.0096.4415-.0096.2112-.0096zm-19.2063-.19197-.096.0096h-.0864l-.0768-.0096-.0768-.01919-.1535-.05759-.144-.06719-.288-.16317-.1439-.07679-.1536-.04799h-.0768l-.0672-.0096-.1344-.0192-.1152.0096-.1055.07679-.0096.09598.0192.08639.0384.08638.0575.07679.048.06719.0288.08638.1248.0384.0096-.06719-.0192-.06719-.048-.11518-.0768-.09598-.0672-.10559.0864-.02879.1344.08638.048.14398.0672.10558.0768.03839.0864.0384.0767.02879.096.0096h.096l.0864-.01919.1632-.0384.1535.04799.1536.0384.0768.0096.0864-.0096.0864-.0096zm-.6239 6.53654-.0192-.0672h-.0864l-.1056.0768-.096.0863-.0768.1056-.0575.1056-.048.1152-.0288.1248-.0096.1343v.1344l.096.0288.0671-.0576.0672-.096.0768-.0575.2016-.1056.1056-.0288.1535-.048-.0576-.096h-.1151l-.1728.0576-.1344.048-.1248.0384.0576-.1536.0768-.144.0384-.0672.1344-.0959zm1.6317.1151-.0672-.0959-.0768-.096-.0864-.096-.0863-.0864-.1152-.0384-.1152.048.0576.0768.0672.0384.0672.0384.0959.1344.0288.0671.0288.0768-.1439-.0576-.1536-.0384-.144-.0191-.1536-.0096-.0288.1247.144.0192.144.0288.1344.048.0672.048.1247.1152.0864.1344.0768.0288.0864-.0672.0288-.1152-.0096-.0672-.0288-.1152zm2.5724-.0863-.0288-.0672-.0096-.0768-.0768-.1056-.096.0288.0576.3359-.0768-.0192-.0768-.0959-.096-.0576-.0863-.0864-.096-.0384-.1152.0192.0288.0864.0768.0576.0864.048.0767.0671.0768.096.0384.1152.0288.1056.0576.1056.0864-.0096.0672-.0576.048-.096.0288-.1152.0096-.1248zm-1.5166-.4032-.0384-.0096-.0384.0096-.0384.0096-.1055.0576-.0864.096-.0672.096-.0384.1056-.0288.1247-.0096.1152v.2496l.1248.0192.0384-.0864.048-.0672.0576-.0768.0671-.0576.0864-.048.0768-.0384.0864-.0288.0768-.0191.0576-.1248-.0672-.0096h-.0768l-.0672.0192-.1919.096-.1344.0767.0096-.0863.0288-.0864.048-.0864.1247-.096.1056-.0672v-.0672zm-2.1884-1.2094v-.096l-.0864.0096-.0672.0288-.096.0864-.0767.0864-.0576.0864-.0576.1056-.0384.1056-.0192.1055-.0384.2208.048.0672.0864.0192.0863-.1248.1056-.1152.1152-.096.0672-.0287.0768-.0192.0768-.0288.0672-.0096.0672-.0096.0767-.0288-.0384-.1056-.1535.0096-.1536.0288-.144.0576-.1536.0672.0288-.0672.096-.1536zm3.0619.2592-.096-.0576-.0672.0288.0096.0768.0576.096.0096.0672-.0384.1631-.0576-.0672-.0672-.0768-.0768-.0575-.0672-.0576-.0959-.0288-.0768-.0288-.096-.0192h-.096l.0192.1056.0768.0192.0768.0288.0672.0383.1727.1824.096.1248.0384.1056.048.096.096-.0192.0576-.0864.0384-.1536.0192-.1728.0096-.0768-.0096-.0863-.0192-.0768zm-1.2766-.5951.0096-.1056-.0096-.0768-.0096-.0864-.0384-.0768-.1056-.1439h-.0672l-.0096.0672.0192.0671.0384.0768.0288.0768.0096.144-.0192.0672-.0192.0384-.0384-.0576-.0672-.0864-.1247-.1056-.1344-.096-.1248-.0959h-.096l-.0384.0767.0864.096.096.0672.1056.0672.096.0768.0576.0864.0479.096.048.1055.0768.0864.0672.0096.0768-.0384.0096-.1727zm1.1998 0v-.0672l-.0192-.1152-.048-.1632-.0384-.0767-.0672-.048-.0864.0288.0096.0863.048.0864.0288.0864-.0096.0864-.1344-.1152-.1439-.1152-.0864-.048-.0576-.0575-.096-.0192-.096-.0096v.1247l.096.0384.096.048.0864.0672.1056.0672.0768.0864.0671.0864.0576.096.096.1247.096-.0576.0384-.1631zm-2.8123-1.0942-.1056.0192-.096.0576-.0672.0767-.048.096-.048.1248-.0288.1056-.0288.1152.0384.1152h.1056l.0864-.0576.096-.0864.0864-.0768.096-.0384.0959-.0192.1056-.0288.096-.0288-.0288-.1056h-.1152l-.1056.0192-.0959.0384-.1344.048-.0672.0576-.096.0192.0288-.0864.0288-.0768.048-.0672.0672-.0672.0672-.0575zm-.9695.1056-.0672-.0576-.1055.0576-.144.2111-.1248.2208-.048.1152-.0288.1151-.0384.1152-.0096.1344.0864.0384h.0864l.0768-.0288.0768-.0384.0768-.0576.0671-.048.1344-.0384.0864-.0288.0096-.0768-.096-.0192h-.096l-.0863.0192-.0768.0384-.0672.0384-.0768.0192.0288-.1247.048-.1248.1344-.24.1343-.1632zm3.2347-.57595-.0672-.07679-.0864-.03839-.048.10558.0576.06719.0384.07679.0288.06719.0096.08638-.1152-.08638-.1248-.06719-.1343-.05759-.0768-.0096-.0864.0096v.06719l.0864.06718.096.0384.0959.03839.096.07679.0768.06721.0576.0768.0672.0672.096.0287.0288-.0767.0192-.0768v-.0768l-.0096-.0864-.048-.15357-.048-.14398zm-.096-.88305-.0576-.11518-.0672-.09599-.0672-.03839-.0576-.05759-.0671-.0192-.0768.048.0384.06718.0863.0576.0864.11518.0288.09598-.0672-.0192-.1919-.08638-.144-.0192-.144.0096-.0672.04799.048.08639.0864.01919.0768-.0096.0768.0096.0864.0384.0864.05759.0767.07678.0576.07679h.096l.0864-.03839.0192-.07679-.0096-.08639zm-2.9659.88305.0384-.09598.2687-.11518.1344-.07679.1248-.09599-.0384.11519-.096.09598-.0576.09598.0672.05759.1728.0096.0576-.0096.096-.01919.1344-.0384.1439-.06719.1152-.08638.1056-.09598.0672-.09599.0768-.13438.0576.08639.0096.06719-.0192.07679-.0384.10558.0384.07678.0959.0192.1344-.07679.0768-.06718.0576-.08639.0576-.08639.0384-.09598.0288-.09598.0096-.09599-.0096-.09598-.0768-.05759-.0768.04799-.0192.06719-.0096.12478-.0384.09598-.048.09599-.0384-.10559-.048-.11518-.0672-.10558-.0959-.09598-.1248-.0192-.048.08639-.0096.10558-.0288.10558-.0384.09598-.096.09599-.1152.08638-.1055.05759-.1152.0288.0288-.13438.0192-.14397v-.06719l-.0192-.06719-.0288-.06719-.096-.06719-.0672.0288-.0576.09598-.1344.15357-.1055.06719-.1056.06719-.1152.04799-.1248.048-.1248.01919-.1247.0096h-.1344l.0768-.06719.0672-.07679.0767-.07678.0576-.09599.048-.07678.0384-.09599.0384-.09598.0192-.10558-.0192-.16318-.0288-.06718-.0672-.048-.0864.048-.0863.02879-.096.0096-.096-.0288.0672-.13437.0384-.15358.0096-.07678v-.05759l-.0192-.09599-.0288-.07679-.1152-.04799-.0672.05759-.0768.0384-.1536.04799-.0288-.06719-.0095-.07679-.0096-.07678-.0384-.06719-.0384-.10559-.0384-.08638-.0576-.07679-.0672-.06719-.0672-.05759-.0864-.04799-.1728-.07679-.1823-.08638-.1632-.07679-.0864-.05759-.0768-.05759-.0672-.08638-.0575-.08639.0959.0288.0864.02879.096.05759.1152.03839.0672.0096.1248-.03839.1055-.06719.0672-.10558.0288-.17277-.0192-.12478-.048-.11518-.0864-.10558-.1055-.08639-.144-.06719-.0672-.02879-.2688-.0384-.2015.0192-.096.0096-.096.02879-.096.0384-.0864.04799v-.12478l.0672-.10558.0864-.08639.096-.07679.1056-.06718.1248-.0384.2399-.07678.1728.01919.192.0288.1727.05759.0768.02879.0768.04799.0384.08639v.10558l.0096.08639.1152.01919.0384-.09598-.0096-.10558v-.0288l.0768-.05759.0959-.02879.1056-.0096.096-.0096h.096l.192.0192.1823.05759.1824.07679.1824.07678.1823.07679.1632.07679.24.09598.2687.08639.1056.02879.1344.0288.1344.00959h.1247l-.1055.06719-.1344.0288-.0192.11518.096.06719.1823-.0192.192.0096.1824.02879.1727.048-.0863.05759-.0864.08638-.144.17277.0096.06719.192.0288h.1535l.144.02879.144.04799-.0768.05759-.0576.07679-.0288.08639.0192.09598.0768.06719.0768.03839.0864.0288.0864.03839.1919-.0096.1824.04799.1056.048.1056.03839.2111.12478.2016.22076.0768.07679-.1152.0192-.1152.02879-.096.04799-.0768.05759.0096.09599.0384.07678.096.048.096.04799.096.06719.096.08638.0864.07679.0671.09598.0576.08639.048.09598-.1247.0096-.1248.0096-.1248.0192-.1152.05759-.0096.06718.0384.11519.1536.07678.096.05759.1535.12478.1824.19197.144.18237-.1152.01921-.1056.0192-.2207.048-.0864.0192-.0576.096.0576.0767.0672.0288.2879.2304.1152.1056.096.1152h-.2016l-.096.0096-.0864.0288.0288.1055.0672.0768.0768.0672.096.0768.0672.0672.0768.0864.1439.1631.24.336-.096.0192-.1056-.0384-.1151-.0192-.1152.0384v.0672l.0576.0864.096.2111.0479.1632.0288.1728.0288.1631-.1055-.0192-.1056-.0287-.1056-.0096-.096.0479.0096.0768.0768.0192.1056.0288.1248.0288.1151.0384.1248.0192.096.048.0768.0576.1344.1248.1055.1439.0864.1536.0576.1824.048.1824.0384.1823.0192.1824-.2208-.0672-.1151-.0288-.1152.0096-.0288.0672.0096.0672.0768.1152.0576.0768.048.0863.0383.1056.0096.096v.1056l-.0096.1056-.0288.096-.0383.0959-.0672-.0575-.0768-.0576-.0672-.048-.0864-.0096h-.0864l-.0864.0096-.0959.0576-.096.0671-.0768.0864-.0672.0864-.0576-.0864-.0672-.0672-.0768-.0575-.096-.0288-.0959-.0288-.096-.0192h-.2016l-.0672.0288-.0768.0288-.0672.0575-.0575.0672-.096.1536-.0768.1536-.0864-.0576-.096-.0768-.1152-.0384-.1055.0288-.0096.0768-.0288.096-.048-.0672-.0192-.2688v-.2783l.0096-.1152.0288-.1248.048-.1152.0671-.1055.0096-.0864-.0863-.0192-.0864.0192-.0768.1248-.0576.1343-.048.144-.0288.1536-.0096.1536.0096.1535.0096.1536.0192.1536.0384.1056.048.0863.0768.096.0768.0768.0863-.0288.0384-.096.0672-.2399.0768.0672.0864.0768.0864.0575.1056.0192.0288-.0863.0288-.0864.0384.2399.0191.192.0096.0576v.1248l-.0096.1151-.0191.1248-.0384.1056-.1728.1344-.192.1248-.1728.1151-.0863.0768-.096.0864-.1152.0288-.1056.0384-.1152-.1152-.1343-.0768-.1056.0576-.0864.096-.0768.096-.0864.0864-.0768-.096-.0768-.096-.0863-.0864-.0864-.0576-.096.0576-.096.0864-.0864.0672-.1248-.0384-.0384-.0672-.1151-.096-.0672-.0288-.1344-.0575-.1536-.0384-.1248-.0576-.0959-.0864-.048-.1152v-.0768l.0192-.0864.0384-.1823.0384-.1824.0383-.1728.0096-.096-.0096-.0863.096.0479.0672.0096h.0672l.0864-.1919.0384-.096.0192-.1056.0768.096.0768.096.1247.2015.0096.1728.0384.0768.1152.0768.0768-.0288.1152-.1056.0864-.048.1055-.1152.0576-.1343.048-.1536.0096-.1632-.0096-.1536-.0096-.1631-.0384-.144-.0288-.1536-.1055-.1824-.0864-.0767-.096-.0384-.096.0384.0096.0767.1248.1536.0576.1248.0384.1344.0288.144.0096.1343-.0096.1536-.0096.144-.0288.1248-.096.1343-.1248.0768-.0288-.096-.0192-.1055-.0192-.1536-.0672-.0768-.1151-.1728-.0672-.0768-.0768-.048-.0864-.0287-.1056-.0096-.0576.0767-.0192.1056-.0096.1056-.0288.1056-.1056-.144-.1247-.144-.0768-.0672-.0672-.0575-.096-.0384-.0864-.0288h-.0576l-.0768.0288-.1247.0672-.0864.0959-.0864.1056-.0768-.0672-.0384-.0672-.0384-.0863-.0288-.0768-.0288-.1632-.0192-.1824-.0864-.0384-.0959.0192-.096.048-.0864.0576v-.2208l.048-.2111.0576-.192.0768-.192-.0384-.0959-.096.0096-.0864.0288-.144.0959.0384-.1439.0576-.144.0864-.144.096-.1344.096-.1247.1247-.096.1344-.0864.1536-.048.0768-.0576.0864-.0288.1823-.048v-.0672l-.1727-.0576-.0672.0192-.0576-.0672-.0096-.0959.0096-.096.0192-.0864.048-.1632.0576-.1631.0384-.0672.0575-.0672.0384-.0672-.0384-.0768-.1055.0096-.1056.0288-.096.048-.0864.0384.0672-.1248.0864-.1152.1152-.1056.1151-.0959-.0096-.0864-.1247.0096-.0864.0288-.0768.0575-.0768.0768-.0672.0768-.0576.0864-.096.1632-.0287.1152-.0384.1055-.0192.1056.0672.096.0959-.0096.0672-.0576.0672-.0672.0768-.0384-.0288.0768-.0288.096-.0288.1632-.0288.1824-.0192.1151-.0096.0672-.0864.0288-.0672.0384-.1439.1056-.1344.1248-.1152.1343-.0672.0384-.0864.0288-.0767.0288-.096.0192h-.1728l-.0768-.0096-.0864-.0192-.1152-.0864-.0671-.0095-.0672.0095-.0576.0864-.0672.0768-.0864.0768-.096.0576-.1056.0288-.1151-.0096-.1056-.0384-.0864-.048-.0864-.0864-.048-.1056-.0672-.0863-.1056-.0096-.0767.1247-.048.1824-.096.1152-.1248.0768-.0768.0288-.0864.0288-.0768.0288-.0863-.0192-.0864-.0576-.0384-.0768.096-.0768.0959-.0864.0768-.096.0672-.1152-.0288-.0959-.096.0384-.2015.2015-.1632.096-.0864.0576-.096.0384-.0864.0384-.0959.0096-.096-.0288-.096-.0576.0864-.0768.096-.0768.0768-.096.0095-.1151-.0959-.048-.1152.0864-.0768.0767-.0864.0768-.0864.0576-.096.048-.0959.0384-.1152.0192h-.1344l-.1632-.0768.096-.0768.096-.096.0864-.1055.0576-.1152-.0192-.0768-.0768-.0576-.0672.0384-.0576.096-.1152.144-.0768.0671-.0767.048-.0768.0384-.096.0384-.0864.0096h-.096l-.0768-.0192-.0672-.0576.0864-.0768.0768-.0863.0576-.096.048-.1056-.0192-.0672-.096-.0192-.1056.1248-.0576.096-.0863.0864-.0864.048-.096.0191h-.1056l-.096-.0287-.0768-.0576-.0864-.0672-.0575-.0768-.0384-.0768.0288-.1152v-.0384-.0384l-.2208-.0288-.096-.0192-.0768-.0288-.144-.1439.2976.0288.2975-.0192.2784-.0288.2688-.0672.2687-.0864.2592-.1056.2591-.1152.2496-.1247.1152.0288.1343.0095.2592.0096.048.0864.0672.0864.0768.0672.0672.0576.0863.0576.096.0288.2016.048.0096.0768.0672.1151.1344.1152.1343.096.1152.048.1248.0288.1248.0096.1343-.0096.1344-.0288.1248-.0288.1152-.0576.096-.0672.0864-.0672.0863-.0288.1248.0768.048.0192.0672.0288.1152.0288.1344.0192.1247.0096.1248-.0096.1248-.0192.1248-.0288.048-.0288.0863-.048.1056-.1151.096-.0192.1152.0288h.0768l.1248-.0288.0767-.0768v-.0672l-.1247-.0096h-.1248l-.1056-.0192-.096-.0384-.096.0288-.0671.0768-.0768.0768-.0864.0576-.1152.0383-.1248.0192-.1248.0096-.1151-.0192-.1152-.0288-.1152-.0383-.1056-.0864-.0864-.0768h-.0672l-.0863.0768-.2016.1343-.1728.0768-.096.0288-.048.0096-.0479.0096h-.096l-.048-.0096-.048-.0096-.1248-.0288-.1248-.0672-.0864-.0767-.0671-.1056.1823-.0288.1632-.0576.1632-.0672.1631-.0768.0288-.0672-.0192-.0672-.1151-.0288-.1056.0384-.1056.0576-.1056.0384-.1248.0288-.1151.0192-.1344-.0096-.1248-.0192-.1152-.0288-.1056-.048-.096-.0768-.0863-.0863.3551-.0768.1728-.048.1631-.0576.0384-.0864-.1151-.0672h-.096l-.1056.048-.096.0288-.2879.0288-.144.0288-.1536.0192-.144.0096-.1439-.0192-.1248-.0384-.1344-.0864-.0768-.0288.3648-.0576.3551-.0576.3359-.0864.1632-.0575.1632-.0672.0384-.0768-.0192-.0576-.0768-.048-.1248.048-.0768.0288-.4415.1152-.2208.048-.2399.0384-.2304.0287-.2303-.0096-.2304-.0287-.1056-.0384-.1152-.0384-.1727-.0864-.0768-.048-.0672-.0672.2303-.0192.2304-.0096.24-.0288.1055-.0192.1056-.0288.2592-.0672.2687-.096.2496-.0959.2592-.096.1151.048.1248.0288.1344.0288.1344.0096.0384.1055.0576.1056.0767.0768.096.0768.096.0576.1056.048.2208.0768.2399.0096.0384.0672.0384.0767.0576.0672.0672.0576.1344.096.1535.0672.2208.0096.2016-.0192.0959-.0192.096-.0288.096-.0384.0864-.048.0864-.0288.048.0672.0768.0768.1151.0576.1056.0384h.0672l.0672-.0096.0768-.048.0192-.0672-.0768-.0576-.1344-.0096-.1248-.0288-.1055-.1344-.0768-.1439-.0672.0192-.0672.0384-.1152.0575-.0768.048-.096.0384-.0863.0192-.096.0192h-.2016l-.1824-.0288-.0767-.048-.0768-.048-.1056-.1343.1536-.0576.1631-.0576.1056-.048.048-.0192.0768-.048.0576-.1152-.1152-.0384-.0768.0192-.1344.0672-.1343.0576-.144.0864-.1152.0288h-.1056l-.1056-.0096-.1055-.0288-.096-.0384-.096-.0384-.192-.096-.096-.144.24-.0095.2208-.0576.2111-.0576.2016-.0768.0384-.0768-.0192-.0864h-.1248l-.1248.048-.1343.0384-.144.0384-.1344.0192-.144.0288h-.1536l-.1535-.0096-.1344-.0192-.1344-.0384-.1344-.0864-.1055-.096-.0768-.1248.2495-.0096.24-.0096.2495-.0383.1056-.0288.1152-.0384.1344-.0288.0672-.0192.048-.09601-.0576-.07679-.2016.05759-.2112.04801-.2303.0288-.2208.0288h-.2303l-.2112-.0384-.2016-.06721-.1056-.03839-.0767-.05759.2591-.0288.2688-.05759.1343-.03839.1248-.03839.1152-.05759.0576-.0288.0672-.03839.0672-.0288.048-.12478-.144-.00959-.096.03839-.192.08638-.2015.07679-.096.0288-.1056.0096-.2016.02879-.1055.0096-.096-.0096-.096-.0096-.096-.02879-.0864-.04799-.0576-.07679.1632-.07679.192-.05759.1823-.06719.0864-.04799.0864-.05759.0768-.0288.0768-.05759.1344-.10558v-.07679l-.2688.0384-.2208.11518-.1919.09598-.2016.06719-.2207.04799-.2208.0384-.2016-.0384-.096-.03839-.0767-.04799.2495-.12478.2496-.12478.2495-.14398.1056-.08638.1056-.09598v-.06719l-.0864-.0384-.0864.0288-.1152.09598-.1631.09599-.1728.09598-.1728.07679-.1823.06719-.192.03839-.192.0192-.096-.0096-.0959-.0192-.096-.0192-.096-.03839-.1056-.08639-.0864-.08638.2976-.11518.2879-.11518.288-.14398.1535-.07678.1248-.09599.0768-.08638-.0288-.08639-.0864-.0096-.1631.09599-.1248.07678-.2592.13438-.2591.10558-.2688.10559-.2783.04799-.144.02879-.144.0096h-.1344l-.1343-.0192-.144-.03839-.1344-.04799-.0864-.05759.3264-.09599.3167-.11518.288-.13437.2207-.11518.0768-.0384.0192-.06719-.0576-.07678-.1056.01919-.0672.0288-.0671.03839-.192.09599-.048.01919-.2496.10558-.2591.09599-.2976.08638-.1343.0192-.1344.0096h-.1344l-.1344-.0192-.1248-.02879-.1439-.0384-.1344-.06719-.1152-.09598-.0864-.05759-.0672-.07679-.048-.08638-.0288-.09599.3072-.08638.3071-.04799.0384-.07679-.0288-.08639h-.0863l-.096.0096-.144.05759-.1632.04799-.0768.0192-.0959.0096-.2208.05759-.2208.04799-.4511.07679-.4703.03839-.4799.0384-.2208-.0096-.2208-.0384-.2207-.04799-.2016-.06719-.192-.09598-.18233-.12478-.07679-.06719-.07678-.07678-.07679-.09599-.05759-.09598-.04799-.07679-.04799-.08638-.048-.06719-.03839-.07679.65265-.0096.6719-.0096.6527-.0096.6719-.02879 1.1998-.0096 1.219.0288 1.2094.05759 1.2094.09598.4703.06719.4703.09598.2112.04799.2016.07679.2111.09599.192.10558.192.13437.1727.13438.1632.15358.144.14397.1248.12478.0767.12478.0768.13438.0864.12478-.0096.07678.0864.10559.0672.03839.1536.02879.1535.048.1344.07678.1344.07679.1152.10558.1152.10558.0959.13438.0768.14398.0672.09598.1536.22076.1344.15358.1343.14401.0864.0576.0864.0479.0864.048.0864.0288.096.0288.096.0096h.0959l.1056-.0192.1152-.048.1152-.0576.1056-.0767.0959-.0768.096-.09601.0768-.10558.0672-.10558.0384-.12478zm-.4223-3.23465.0672.06718.0863.0288h.0864l.1152-.0288v.07679l-.1344.03839h-.0672l-.0767-.01919-.0672-.04799-.096-.13438-.0096-.07679.0672.0096zm4.6552 12.1707.0192.1248-.0288.1248-.0384.0768-.0672.0864.0096-.1152.0096-.096-.0192-.0864-.048-.0672.0768-.0384zm-.3552-2.4187-.0959.0191-.096-.0095h-.096l-.0864.0191.0864-.0671.1056-.0288h.1056l.0863.0288zm-3.8489.0575-.1536.0192-.0864.0096-.0863-.0288.0671-.0671.0864-.0096zm3.8969.096.1056.1824.1344.192.0768.0863.0768.0672.096.048.1055.0384.096.0864.0672.1056-.0096.1056.0192.0768.0768.0288.0768-.048.0288-.0864-.0096-.0864.0672.0576v.0768l.0384.0864.0672.0383.0671-.0383.0384-.144.1344.0768.0672.048.0384.0671.0192.0672-.0288.096-.1056.0096-.3263-.0864-.336-.048-.0384.0672.0192.0768.0576.0672.0192.0768-.0672.0768.0096.0864.096.0384.0864-.0864.0672.0384-.0672.0864-.0384.0671.0768.0672.0672-.0096.0864-.048.0192.1344-.0288.0672-.144-.0384-.0864-.0864-.2016-.2111-.0959-.0864-.0864-.0672-.0768-.0768-.0672-.0384-.0864.0768.0096.0864.0384.0768-.1248.0672-.0672.0671.048.0768.1632-.0096-.0384.0672-.0672.048-.0288.0864.1536.0384.0192.0672-.0288.0672-.096.096-.0672-.0192-.0768-.0768-.0672-.1632-.0287-.1056-.0288-.0864-.0192-.0768-.0192-.1631-.0192-.096-.0288-.0672-.0288-.0768-.048-.0672-.1536-.0384-.0768-.0288-.0768-.0384-.0672-.048-.0959-.1343-.0192-.0768-.096-.0384-.0864.0288-.096.0384-.0768.0288-.0864.0096-.0767-.0192v-.0768l.0383-.1152.0672-.048.048.096.0768.0192.0288-.1344-.0288-.096.096.0864.0768.0384.0672-.1056-.0096-.0768.0576-.1055.0959-.0768.096-.0864.0768-.1056.096-.048.1152-.0288.1248-.0096zm-1.4013.7871-.0096.0864-.096.0864-.1152.0672.0192-.0864.0576-.0768.0864-.0576zm-1.2766.3743-.1152-.0864-.0768-.0383-.0672-.0288v-.0864l.0384-.0864.1152.0576.0672.1056.0288.0671zm4.54.2976-.1343-.1152-.1344-.096.0576-.0768.0768.0384.0767.0864.048.096zm-8.0146-.0576-.0864.0576-.0768.0768-.096.1439-.0096-.1343.0384-.0672.0384-.0672.0864-.1056.0768-.0576.0384.0768zm1.5837.5375-.0576.0768-.0768.048-.0672.0192-.0671-.0576.0288-.0768.0959-.048.0384-.0672-.096-.0288-.0383-.096.0671-.0192.0864.0096h.0672l.0288-.0959-.2016-.0384.048-.1152.0384-.0672-.0864-.0864h-.0671l-.0864.1248-.0768.144-.0768.1343-.096.144-.1056.096-.0768.0192-.0671-.0096-.0864-.096.0192-.1152.1055.0384.096.0672.0384-.096-.144-.1343.0768-.0384.096.0576.0288-.0768-.0576-.0768.0096-.096.1056-.0768.1056-.0768.0864-.0768-.0288-.0672-.0768-.0288-.0672.0096-.1536.1056-.096.0864-.1247.0384-.1248.0384-.1344.0288-.0672.0096-.0672-.0096-.0672-.0192-.0671-.0672.0096-.096.0575-.0672.1344-.0576.0864-.0287.0864.0383.0576.0768.0864.0288.0384-.1247-.0288-.0672.0768.0192.0383.0671.0864.0576.0384-.1055-.0096-.0768.096-.0768.1152-.0384.1248-.0384.0672-.0288.1151-.0672.1344-.1536.0864-.1247.096-.096.0672-.096.0576-.096.0672-.0768.1247-.0096.096.0192.096.048.0192.0768.0864.1728.0864.096.1247.0767.0288.096-.0096.1056.0192.0768.1152-.0096.0384-.0864.0096-.0864.0384.0768v.1344l.0384.0768.1152-.0384.0384-.1344.0576.0768v.1152l-.0576.096-.1056.0479-.1152.0096-.1056-.0288-.0864-.0191-.0959.0096-.096.0767-.096.0288h-.1152l-.1152-.0192h-.1056l-.0767.0288-.0672.0768-.0192.0672-.0096.0768-.0672.2304-.0768.2207-.0384.0864zm5.903.2784-.0192-.0768-.048-.0768-.0864-.1152.0864-.096.0768.144.0192.1056zm-6.834-.096-.0864.096-.0768.1055-.0288.0768-.0384.0864-.0096-.0864-.0096-.0768.0096-.1535.048-.1152.0768-.048zm.8254.0768-.0096.0863-.0288.096-.0192.0864.0096.096-.0672-.0576-.0479-.1056-.0192-.1056.0384-.0863zm.288-2.6396-.0192-.096-.0192-.2111-.1056-.0384-.096.0959-.096.0864-.0096-.0768-.0192-.0671-.0096-.1248v-.1344l-.0096-.1344.0864.096.0864.1056.096.0672h.1344l.0864-.1344.048-.0672.0479-.0672.0096.096v.1056l-.0384.2016-.0479.2015-.0288.096-.0288.1056-.0672-.0864zm.2783 0 .0096-.0768.0768-.0288.1152.048.0576.0192-.0096.0384-.0192.0576-.0096.1248-.1152-.0192-.144-.0288.0192-.1248zm3.7146 0 .0576-.048.096-.048h.0864l.0672.0672v.0384l.0096.0768-.0768.0288h-.0864l-.0768-.0096-.0864.0288-.0192-.096zm.4799 0-.0384-.1728-.0288-.1919-.0576-.1824.0192-.0672-.0479-.1056-.0096-.0672.0863.048.0672.0864.0384.096.0384.0864.0672.0576.096-.0288.096-.0864.0768-.1152.0863-.1056.096-.0768.0288.0864v.2976l-.0384.1823-.048.192-.0576-.0864-.0767-.048-.0864-.0288-.0768-.0192-.0384.096.0192.096-.0384.0672-.0288.0768-.0384.0768-.0672.048-.0384-.192zm-.2687-.4511-.0864.0096h-.0768l-.0672.0288-.0672-.0192-.048-.1728.0096-.1056.096-.0768.1152-.0672.0576.0864.0384.1056zm-3.561-.0768-.0192.144-.1152-.0096-.1248-.0192v-.1728l.0192-.0768.0384-.0768.1152.096zm3.6186.2591-.0768.0288-.0768.0192-.1344.0192.048-.0672.0768-.0575h.0864zm-3.705.0768h-.096l-.1344-.0192.0672-.0768h.0672l.1056.0288zm10.2607-3.7817.2207.0864.192.0671.192.048.2111.0288-.0864.0672-.0768.048-.1919.0768-.192.0576-.2112.0192h-.1919l-.2112-.0192-.2016-.048-.1919-.0576-.144-.0768-.144-.1056-.2783-.2111-.048-.0864-.048-.0864.0672-.0384.0768-.0288.1535-.048.1536-.0576.0768-.048.0768-.048.192.1152.1823.1152.192.1152zm-16.0485-.24.0959.1056.1152.096-.1152.0864-.1343.0672-.2688.1055-.2303.0576-.2304.0768-.1152.0288-.1152.0288-.1152.0096h-.1343l-.3744-.0288-.1727-.0288-.0864-.0288-.0768-.0288-.0672-.0192.2016-.0384.2015-.0288.2016-.048.192-.0575.3839-.144.3743-.1344h.0672l.1632-.0672.1152-.0288zm-5.212-.4511-.2015-.0768-.2304-.1056-.2112-.1248-.2111-.1343-.2112-.1536-.192-.1536-.1823-.1728.6431.1824.3167.0768.1632.0192.1728.0192.2975.0096h.2976l.5951-.0288 1.1806-.0768.1535-.0288.0768-.0096.0768-.0096.1248-.0288.1152-.0384h.1056l.0575.1152.144.1536.1344.1344.1536.1247.096.048.0959.0384-.2015.0672-.2112.0576-.3647.0864-.048.0096-.2112.048-.2112.0288-.4223.0384-.4223.0288-.4223.0384-.2016-.0096-.192-.0384-.3839-.0672-.2304-.0672zm3.5322 0 .1056-.0288.1248-.0096.096-.0672h.1056l.1152.0288h.1247l.0384.0672.048.0672.1344.1056.144.0767.1439.0768-.1631.0864-.1632.0672-.1728.0672-.1727.0672-.3264.096-.3359.0672-.3264.0384-.1727.0095h-.1824l-.1632-.0191-.1728-.0192-.1727-.0288-.1536-.0384-.1632-.048-.144-.0576-.1535-.0768-.1344-.0864-.1536-.0864.192-.0288.2016-.0288.4031-.0288.3839-.0384.2016-.0287.1824-.048.2303-.048.24-.0576.2303-.0576zm14.8103 0-.0959-.096-.096-.1248.1152-.0288.1055-.0288.1056-.048.096-.0575.0864-.0768.0864-.0768.0768-.096.0576-.1056.1439.1824.144.144.1824.1343.1919.1056.2112.0768.2112.0576.1727.0384.0576.0096.2208.0192-.1344.0864-.144.0672-.1439.0671-.144.048-.1536.0384-.1632.0288h-.1727l-.1728-.0192-.1536-.0192-.1535-.0384-.144-.048-.1344-.0671-.1248-.0672-.1248-.096zm2.4284 0 .0384-.0288.3072-.1056.096.048.1055.0384.1632.048.048.0096.2208.0672.2207.0672.2496.048.2592.0383.2495.0288.2592.0192.2591.0096.2592-.0096.2591-.0288.2592-.0288-.0864.0864-.1056.0864-.144.0864-.1535.0768-.336.1344-.2111.0384-.2112.0288-.2112.0096h-.2111l-.2208-.0288-.2112-.0384-.2303-.0576-.24-.0864-.2399-.0864-.2016-.096-.192-.1152-.1727-.1439.0671-.0864zm1.2766 0-.2015-.0576-.1824-.0672-.0864-.0192-.0864-.0384-.0768-.0384-.0864-.0288.1152-.1056.1344-.0959.1344-.1056.0576-.0672.048-.0768.0768-.0576.0863-.0384.1248-.048.1248-.0576.1248.0288.1248.0288.1343.0192.1248.0288.2112.0192.2303.0192.2112.0192.2112.048.4031.0096.4031-.0192.384-.0192.3935-.0384.3839-.0672.384-.0768.3647-.1055.3647-.1344-.1919.2015-.2112.1632-.2208.144-.2399.144-.24.1151-.2399.1056-.2592.096-.2495.0768-.3744.0864-.1536.0288-.2207.0288-.4127.048-.4128.0288h-.4223l-.4031-.048-.2016-.0288zm-.4895-.6815-.1632.1536-.1823.1248-.192.0959-.2016.0768-.2015.048-.2208.0192-.2208-.0192-.2207-.048-.1632-.0384-.1536-.0768-.2975-.1727-.0672-.0768-.0768-.0768-.0672-.0768-.0576-.0672-.096-.1631.1248-.0576.1248-.0768.1056-.08641.0384-.06719.048-.06719.2303.16319.24.144.2591.1151.2496.096.2784.0768.2783.048.2976.0192zm-15.415-.24.0096.0672.1056.1728-.1152.0768-.1248.0576-.2495.0864-.5183.1535-.2592.0384-.2592.0288-.2687.0192-.144-.0096-.1248-.0192-.1056-.0288-.1151-.0096-.0672-.0192-.0672-.0096-.0672-.0192-.0672-.0288-.1536-.0671-.1631-.0864-.0768-.0576-.0768-.0672-.048-.0672-.0576-.0768.1824.0192.1823.0096h.3552l.3647-.0288.3552-.0576.2879-.0288.2688-.0576.2591-.0767.2688-.096.1248.0384.1151.0288zm-8.38898-2.20759-.10559.0192-.33594.0288-.34554.00959-.34554-.01919-.34555-.0192-.13437-.0096-.20157-.01919-.32634-.048-.24956-.06718-.25916-.06719-.23996-.09599-.23996-.10558-.23036-.12478-.20156-.15357-.09599-.08639-.09598-.09598-.07679-.09599-.08638-.12477.19196-.0192h.19197l.18237-.0096.18237-.0288h.47992l.47992-.00959h.47032.23036l.23996.01919.69108-.03839.09599-.0096.06719.03839.07678.15358.08639.15357.10558.14398.11518.15357.12478.13438.14398.12478.14397.10558.15355.08639-.32632.06719zm.95028 0 .2495.0192.2976.0096.2879-.0096.2784-.0096h.0384l.2495-.02879.2784-.0384.5471-.10558.0576.08639.048.09598.048.07679.0575.06719.144.12478.1536.09598.1632.09598-.2496.05759-.2687.0384-.24.0096-.2784.02879-.3263.0192-.3359-.0288-.3264-.04799-.1632-.03839-.1535-.048-.1632-.09598-.1536-.10558-.1344-.12478-.1343-.13438zm24.9558 0-.1248.08639-.0864.03839-.0864.0288-.0768.02879-.0768.0288-.1631.02879h-.1632l-.1632-.02879-.1536-.0384-.1439-.05759-.2976-.11518-.1344-.05759-.1151-.07678-.1152-.08639-.1248-.08638h-.0864l-.0576.08638.048.08639.192.11518.0768.04799.2399.12478.1152.07678.1344.0576.1344.04799.1343.04799-.0768.07679-.1055.05759-.0864.02879-.096.0288-.1824.02879-.1823-.0096-.1824-.03839-.1632-.04799-.1632-.06719-.3263-.14398-.096-.05759-.096-.07678-.096-.048-.1055.0384.0096.10558.0959.03839.288.18237.144.09599.0768.01919.0863.0288-.0575.06719-.1344.06719-.0768.00959-.1536.0192-.1536.0288-.1631-.0192-.144-.0288-.144-.02879-.144-.03839-.1439-.048-.1344-.05759-.2592-.15357-.0959-.0096-.048.11518.2111.14398.2304.10558.2399.08638.24.07679-.1248.05759-.1439.0384-.144.01919-.1536.0288h-.1536l-.1535-.0192-.144-.02879-.1344-.0288-.2016-.08638-.1919-.09599-.0768.0096-.0384.08639.0576.07678.2111.09599.2016.09598.1056.0192.1152.03839.1247.0096h.1248l-.1152.09598-.1151.07679-.144.04799-.1152.0288-.1728.0096h-.1439l-.0768-.0096-.0672-.0096-.144-.0288-.096-.03839-.096-.05759-.0959-.0288-.1056.0192-.0096.06719.0864.08639.2399.12477.24.05759.1152.0192.1247.0096.1344-.0096.1152-.0192-.1152.10559-.1344.09598-.1055.05761-.1248.0384-.1344.0288-.1344.0192h-.1439l-.1344-.0096-.1344-.0192-.1152-.0384-.0864.0288.0192.096.0864.0575.1824.0384.2015.0192.192.0096.1056-.0192.096-.0096-.0768.1344-.096.1248-.1248.0864-.0768.0384-.0767.0192-.1344.048-.1344.0192h-.1344l-.1344-.0192-.1247-.0288-.1344-.048-.2208-.0864-.1152.0576.0384.0864.0768.048.1056.0288.0864.0479.096.0384.1056.0384.1151.0288.1152.0192-.0096.0672-.0672.1152-.0863.048-.1056.0576-.1248.0384-.0864.0096-.0864-.0096-.0768-.0288-.0768-.0288-.0767-.0384-.1824-.1536h-.0672l-.0384.1056.0192.048.0384.096.0192.0864-.0384.1055-.048.0672-.0768.048-.1631.048-.0768-.0096-.1152-.0672-.0672-.096-.096-.0384-.0384.096.0672.1344.0768.0768.0768.0672.1152.0096.1247.0096.0672-.0096.1056-.0192.0864-.0768.0864-.1248.0672-.2015.1727.0383.192.0288.096.0096.096-.0192.096-.0288.0863-.0383.1536-.096.096-.1056h.0576l.1248.1152.1535.1247.1536.096.1728.0768.1824.0768.1919.0384.2016.0192.2112-.0096-.1248.0864-.144.0768-.1536.048-.1439.0288h-.1536l-.1536-.0096-.1632-.0384-.1535-.048-.1056-.048-.096-.0768-.096-.0864-.1152-.0288-.0384.0768-.0096.0768.1824.144.096.0576.1056.0575.096.0384.1055.0384.1152.0192.1152.0288-.1056.0288-.1056.048-.1055.0288-.1248.0192h-.1728l-.1728-.048-.0768-.0288-.0767-.0384-.0768-.048-.0672-.0672-.0768-.0288-.0768.0288-.0288.0672.1344.1632.1536.0864.1439.0576.1536.0384-.096.1152-.1152.0767-.1439.048-.0768.0096-.0768.0096-.0672-.0096-.1056-.0288-.1535-.0672-.144-.0959-.1344-.1248h-.0672l-.048.096-.0768.1439-.0672.0864-.0959.0672-.0864.0096-.0864-.0288-.0672-.0384-.0672-.048-.0768.0096-.0192.0384-.0288.0576.0384.0864.2304.096.096.0192.1056-.0192.0959-.048.0768-.0672.096-.1248.0384-.048.0576.048.1152.0768.096.048.1055.0288.1152.0192.1056.0096h.1152l.1248-.0096.1343-.0768.144-.0864.1152-.1056.0288-.0671.0288-.0768.2303-.0288.1152-.0288.1056-.0384.096-.048.1056-.0576.0864-.0672.0959-.0768.096-.0192.1056-.0288.1728-.0864.1824-.0959.1823-.0864.0672.096.0768.0863.0768.0672.0864.0768.1823.1152.2304.1152.2208.0864.2207.048.2496.0576h.2399l.2208-.0288-.096.0767-.0672.0096-.0768-.0096-.1151.0192-.0288.0864-.0096.0384.0864.0768.0575.0672-.0863.1728-.0768.048-.0864.0288-.0864.0096-.0864-.0288-.1344-.0864-.1151-.1152-.0576-.0768-.0384-.0768-.0096-.0672-.0096-.096-.0672-.0575h-.096l-.0192.1055.0096.048.0096.0672.0384.096.0672.1056.0672.0864.0864.096.0959.0767-.1247.0672-.0672.0192-.0672.0192h-.0672l-.0672-.0192-.1056-.048-.0864-.0768-.0863-.0959-.0672-.096-.0384-.096-.0288-.1056-.0096-.096-.096-.0576-.0384.0576-.0288.048.0192.1152.0384.1152.0384.1152.0768.1151.0672.1152-.096.0576-.1248.0384-.1056-.0096-.1152-.0288-.0767-.0384-.0672-.0576-.1056-.1343-.0384-.0768-.0288-.0768-.0384-.1632-.1248-.0576-.0672.0288.0672.2496.0384.1151.0576.1152-.048.0864-.0672.0768-.0768.0576-.0863.0288-.1152.0192-.1056-.0192-.096-.0288-.096-.0384-.0864-.096-.0575-.1152-.048-.1055-.1056-.0576-.0576.0863.0192.0864.0288.0864.048.0864.0672.0864.0576.0864-.0576.0864-.1248.0288h-.1248l-.1248-.0096-.144-.096-.0575-.0672-.0384-.0768-.0096-.1344-.0288-.0864-.0768-.0288-.0768.0576-.0576.1632-.0288.0864-.096.1056-.1152.0768-.0671.0288-.1344.0287-.0768.0096-.096-.0287-.0672-.0864-.0672-.0672-.1055.0192-.096.048-.0864.0192-.1056-.2976-.0768-.1536-.0864-.1343-.096-.1344-.1055-.1152-.1344-.0864-.096-.048-.0576-.0288-.0384-.2111-.0384-.1824-.048-.1728-.0672-.1631.096.0383.1152.0576.1248.0192.096-.0864-.0384-.1247-.048-.1152-.048-.1056-.0672-.1056-.144-.2015-.1248-.1728-.0287-.0384-.1728-.1728.0864.0288.0959.0384.096.0192.0864-.048-.0096-.0768-.0192-.0672-.0768-.1151-.2399-.288-.1344-.1344-.144-.1151.1056-.0384.1344.0096.1344.0096.0671-.0096.288-.0576.2208-.0576.1055-.048.0864-.04801.0864-.07679.0576-.09598.0576-.18237.0096-.03839.0864-.22077.048-.09598.0576-.08639.0576-.09598.0863-.08638.0768-.07679.0768-.07679.096-.06719.0864-.06719.2015-.09598.2112-.09598.0288-.08639.1536-.23996.0864-.12478.0576-.07678.1631-.18237.2016-.16318.192-.13437.2111-.11518.2208-.09599.2304-.06719.2399-.09598.24-.05759.2495-.06719.24-.07679.2016-.03839.2015-.03839.2016-.0096.2112-.0192.4319-.0096.4319-.02879 1.219.01919h1.219 1.2286l1.2286-.00959.192-.0192.1823.0096.3744.0096-.0288.06718-.144.15358-.1056.07679-.0864.08638-.1344.07679-.1439.07679-.2976.11518-.3071.08638-.3168.06719-.3263.03839-.336.0096-.3263-.0192-.3264-.04799-.2783-.03839-.2688-.03839-.2687-.07679-.1248-.03839-.1248-.05759-.0864.00959-.0384.06719.0192.07679.2016.08638.144.048.1632.03839.2975.07679-.1344.15357-.144.13438zm2.0636 0-.1056.07679-.3071.14398-.3168.13437-.1823.05759-.192.05759-.192.0192-.2111.0288h-.4032l-.2111-.0288-.192-.0192-.1056-.03839-.096-.02879.3264-.10559.1631-.07678.0672-.0384.0768-.05759.096-.10558.1152-.09598.0864-.09599.0672-.12478.1535.0384.1536.01919.3264.0192h.6526l.1632-.02879.1728-.0384.1728-.02879.1631-.04799-.1247.13437-.1344.10559-.144.09598zm3.3594 0-.1535.14398-.2208.15357-.24.11518-.2495.09599-.2496.09598-.2687.05759-.2688.04799-.2687.0384-.2688.02879-.2783.0192-.288-.0096-.2783-.0096-.2784-.02879-.2688-.04799-.2591-.05759-.1056-.048-.1056-.02879.5759-.26876.24-.14397.2207-.14398.2208-.19197.2112-.19196.1056.01919.1055.0384.5088.08638.2591.0384.2592.03839.2591.0192.2784.0096.2591-.0096.2496-.048.5087-.04799-.096.10559-.096.09598zm-31.50185 1.56454-.07679-.03839-.29755-.21117-.14398-.11518-.11518-.11518.38394.04799.38393.0288.38394.01919.38394-.00959.3839-.0288.384-.02879.3743-.048.3743-.07678.1728.05759.1728.08638.1728.07679.1727.07679.2592.06719.2495.08638.2496.07679.1344.0192.1343.00959.096.0192.144.0096.096.05759.048.11518.096.10558.0864.1056.0959.096.1152.0768-.1632.0479-.1631.0384-.1632.0288-.1728.0096-.3647.0096-.1728.0192-.1824.0192-.5567.0096h-.2687l-.2688-.0096-.2687-.0192-.2592-.0384-.2687-.0576-.24-.0767-.3839-.1152-.3744-.144-.3551-.15357zm5.60545 0 .2112-.03839.2783-.05759.2784-.06719.5375-.15358.0576.06719.1343.09599.0768.02879.0672.0192.1632.01919h.1632l.0672.09599.1055.10558.1056.08639.1056.04799-.048.10558-.1152.04801-.1919.0576-.192.048-.3839.0672-.7967.1055-.3072-.0384-.3071-.0288-.144-.0287-.1248-.048-.1535-.048-.1248-.0672-.0672-.0192-.0672-.03841-.096-.09599-.0864-.11518-.0959-.11518.3071.0288.288-.0192.2879-.02879zm16.4708 0 .0864-.07679.0768-.07678.0672-.09599.1728-.01919.1535-.0384.1536-.04799.1536-.06719.1344.10558.1439.08639.144.07679.1632.05759.3071.10558.3264.12478.0864.01919.0959.0288.192.02879.4031.0192-.0959.08639-.0864.0768-.096.0672-.1056.0576-.1152.048-.1152.0383-.2495.0672-.24.0288-.2591.0096-.2496-.0288-.2495-.048-.1344-.0383-.1536-.0384-.2687-.1248-.2592-.144-.24-.17277zm2.3996 0-.0576-.0096-.1247-.02879-.1152-.048-.1056-.05759-.1248-.01919-.1056-.0384-.1056-.03839-.1055-.02879-.2688-.10559-.1248-.07678-.1056-.09599h.1056l.1152-.01919.1056-.0288.1152-.0192.096-.04799.0959-.04799.096-.04799.0864-.06719.1536.03839.1632.0192h.1631l.1728-.0096.1632-.04799.1535-.05759.144-.07679.1248-.10558.3839.08639.4032.07678.1919.0192.2112.0096h.2208l.2111-.0192.0768-.0192.0864-.00959.096-.0096.0768-.0288-.096.12478-.1056.10558-.1056.09599-.1056.09598-.1247.07679-.1248.08638-.2496.12478-.2783.10558-.2784.06719-.2207.0384-.0768.0096-.3168.00959h-.2687l-.2592-.00959zm1.7853 0 .048-.0192.1632-.07678.192-.11518.1919-.12478.1824-.15358.0864-.07678.0672-.08639.096-.10558.0767-.05759.336.09598.3263.06719.336.04799.3455.0288h.3456l.3455-.0192.3359-.04799.336-.04799.3167-.07679.3168-.09598-.1344.18236-.1536.15358-.1727.14397-.1728.11519-.192.10558-.192.09598-.1151.04799-.2688.13438-.3839.14398-.3936.12479-.4127.1152-.4127.0768-.4319.0479-.432.0288h-.4415l-.4511-.0096-.096-.0288-.1056-.0191-.2208-.0192-.2207-.0288-.1056-.0096-.096-.0288-.1728-.0192.0768-.048.0672-.0576.1344-.1152.0768-.05759.0768-.03839.096-.0192.0863.0096.3264-.05759.144-.03839.1535-.06719.0864-.0192zm-25.3493-1.47815.096.10558.096.11518.1151.09599.1152.08638.1248.07679.1344.06719.1248.04799.1439.0192.0864.04799.096.01919.096.0288.096.0192-.096.05759-.1152.01919-.1248.0192-.1152.0192-.3071.03839-.3168.0096-.3167.0192-.31674.00959-.31675-.01919-.28795-.0192-.29755-.04799-.29755-.04799-.34554-.12478-.17277-.06719-.17278-.08639-.16317-.07678-.15357-.10559-.13438-.13437-.12478-.14398.70068.05759.35514.0288.35514.00959.34555-.00959.35514-.0288.34554-.03839.33594-.06719zm4.9528.70068.0479.07679.0672.05759.144.11518.1536.08638.1632.048-.2208.07678-.2304.05759-.2207.048-.2304.03839-.2303.02879-.2496.0096h-.2496l-.2399-.0096-.24-.01919-.2399-.04799-.2304-.048-.2208-.05759-.4223-.15357-.4223-.15357-.0768-.06719-.096-.0384.5759-.02879.288-.0384.2879-.04799.2304-.01919.2303-.048.4512-.10558.1151.10558.1344.07679.1536.05759.144.0288.1631.02879h.1632l.1536-.0192z" fill="#ffd432"/></svg>