<svg fill="none" height="48" viewBox="0 0 48 48" width="48" xmlns="http://www.w3.org/2000/svg"><path d="m22.4551 41.9166c-1.9896-.9543-2.9336-1.1268-4.4258-1.7054-5.0753-2.0911-7.7958-5.1973-7.6536-11.0342.7308-5.928 3.167-8.5875 2.0707-12.3333-.3756-1.4109-1.2282-2.8828-2.4463-3.9385 2.3042-1.9187 3.979-3.51225 5.3901-6.9027 2.9944 2.39561 6.3036.72072 9.0747.66989 2.7609.05065 6.0701 1.73589 9.0749-.65972 1.4109 3.38028 3.0757 4.97383 5.4001 6.89253-1.2383 1.0557-2.0911 2.5276-2.4464 3.9589-1.1166 3.7152 1.3196 6.3849 2.0606 12.3131.132 5.8369-2.5885 8.9431-7.6333 11.0442-1.5124.5788-2.4667.7411-4.4461 1.7156-1.1266.5686-1.6751 1.4007-2.01 2.0606-.3246-.67-.8828-1.4922-2.0096-2.081z" fill="#000"/><path d="m20.0695 40.6577c-1.9184-.5074-3.1568-1.137-4.4967-1.9084v-32.25968c1.2079.68005 2.0504 1.14715 4.4967 1.02534v10.92254c.1422-.1828.2843-.4061.4669-.7512 1.2486 1.1065 2.3146.4974 3.9284.4264 1.6039.071 2.6697.6903 3.9183-.4264.1421.3553.2944.6092.4569.7614v-10.93292c2.4362.13198 3.3903-.33494 4.4968-1.02534v32.25986c-1.3399.7513-2.5682 1.401-4.507 1.9186v-10.3642c-1.1164.7512-1.5227.7614-2.8319 1.1472-.7715.2943-1.2079.5785-1.543 1.1471-.3248-.5787-.7614-.873-1.5327-1.1471-1.3298-.396-1.746-.4466-2.8525-1.1573v10.3641z" fill="#fff"/><path d="m31.7242 15.8386-.3857-2.0404c-.0305-.6698-.6802-.8222-.995-.1319v2.4159c.0305.1826.0712.2638.2133.3958h-1.6445c.1625-.1725.193-.1522.2133-.4161v-5.7963c-.0203-.1523-.071-.2131-.2133-.33489h1.6445c-.0913.10149-.1826.17269-.2133.33489v2.6393l1.9896-2.6088c.071-.1218.0508-.2637-.1421-.38572h1.1471c-.0812.04066-.2943.12202-.4466.32492l-1.624 2.1927c.5076-.0509.8527-.1015 1.0961.5582.4264 1.9795.4163 3.6747 1.0456 2.5884-.3044 1.4618-1.5835.9847-1.685.264zm-16.1879.6076c.2767-.1799.3618-.2499.383-.5498v-5.5985c0-.1799-.1063-.31975-.3085-.41981 2.171 0 2.9586-.08008 3.6184.59981.6599.6898.4577 1.5597-.3511 2.2693 1.3622.5998 1.2878 2.6592.4257 3.2291-.8407.5199-1.0961.4699-3.7675.4699z" fill="#000"/><path d="m22.049 15.8286c-.5178-.7681-.3553-1.5987.2029-1.9618.4669-.2699 1.2181-.2388 1.2181.7578-.0101.5605-.5787.7474-.8931.4879-.4671.7163.7003 1.5779 2.2635.4775v-5.3461c-.4974.0207-.9643.0207-1.4718.0935l.1826-.38418c.8628 0 1.8576 0 2.7914-.01035-.1014.13503-.2131.20763-.2639.41523l.0101 5.3874c-2.1112.7473-3.1162 1.1106-4.0398.0831zm-4.9626-3.2686v-2.4363c.8516 0 1.352.4161 1.3627 1.1878-.0214.8526-.4578 1.2686-1.3627 1.2485zm.01 3.4311v-3.0555c1.3256.0102 1.7105.8222 1.721 1.6141-.0107.9135-.588 1.4617-1.721 1.4414z" fill="#fff"/><path d="m17.6612 38.4032v-.4291c.3495-.0106.4317.0208.4317-.1884v-3.0664l-.4831-.0105c.4937-.3767.7917-.6488 1.4293-1.2244v4.3222c-.0104.1883.1439.1675.4626.1675v.4291z" fill="#000"/><path d="m28.2115 36.033c.0029-3.2754-3.3793-3.2766-3.3786-.001-.0028 3.2754 3.3791 3.277 3.3786.0016z" fill="#fff"/><path d="m27.2872 36.0331c-.0018 2.9296-1.5407 2.9289-1.5407-.0005.0017-2.9296 1.5407-2.9294 1.5407.0002zm2.8822-.539h.1002c.3441 0 .6068-.0565.7692-.2118.1816-.1367.282-.3534.282-.6264 0-.2545-.0813-.4475-.2006-.5841-.1242-.1602-.3057-.2167-.5495-.2167-.1386 0-.282.0187-.4013.0801-.1434.0565-.2054.0941-.2054.1366 0 .0189.0429.0565.1433.1555.0812.0755.1194.1932.1194.2921 0 .1367-.0382.2355-.1194.3109-.1004.0801-.2006.1177-.344.1177-.1432 0-.2627-.0376-.344-.1366-.1002-.099-.1434-.2354-.1434-.3909 0-.2544.1243-.4664.387-.6455.2629-.1742.583-.273.9698-.273.4252 0 .7691.1177 1.051.3344.282.2354.4252.5086.4252.8384 0 .2543-.0813.471-.2629.6454-.1624.1554-.4252.3109-.7692.391.3631.099.6688.2543.8695.4851.2006.2167.3058.5088.3058.8432 0 .4099-.1434.7395-.4491.994-.301.2543-.6832.372-1.1704.372-.4061 0-.7263-.0988-.9938-.2732-.2819-.1978-.4012-.4286-.4012-.7253 0-.1743.0381-.3109.1385-.4286.1051-.1177.2436-.1743.4061-.1743.1241 0 .2436.0377.325.1177.0811.0755.1193.1932.1193.3109 0 .1366-.0573.2732-.1625.372l-.1577.1556c0 .0611.0766.1177.2198.1553.1434.0614.3057.099.5065.099.2436 0 .4633-.0801.6065-.2543.1434-.1745.2197-.4099.2197-.7018 0-.3721-.1002-.6642-.3008-.862-.1816-.1932-.4873-.292-.8506-.292-.019 0-.0381.0188-.0813.0188h-.0572v-.4292z" fill="#000"/><path d="m23.0677 36.2444c-.1209.1366-.2557.2308-.4138.3109-.1394.0612-.3162.099-.4929.099-.395 0-.6881-.1555-.9438-.4286-.2372-.2969-.3533-.6642-.3533-1.1352 0-.4664.1161-.8384.3906-1.1306.2557-.2921.609-.4521 1.0228-.4521.4927 0 .888.1978 1.1808.5888.2789.372.4325.8949.4325 1.5826 0 .7962-.1768 1.4604-.5115 1.969-.3348.5089-.7858.7632-1.3158.7632-.2975 0-.5533-.0801-.7671-.2543-.1999-.1556-.3162-.3533-.3162-.5841 0-.1789.0605-.3157.1395-.4099.0977-.0988.2138-.16.3533-.16.1348 0 .2372.0423.3113.1177.1024.0801.1397.1789.1397.292 0 .099-.0373.1978-.1163.2732-.0603.0801-.0975.1178-.0975.1413 0 .0565.0371.0942.1348.1555.079.0376.1765.0753.2975.0753.2743 0 .4929-.1743.6695-.4851.1533-.3344.2557-.763.2557-1.3095v-.0191z" fill="#fff"/><path d="m22.3982 33.8987c-.2557 0-.4323.099-.5719.3157-.1161.1932-.1766.4851-.1766.8763 0 .372.0605.6641.1953.8808.1209.1932.316.292.572.292.2557 0 .4324-.099.5485-.2731.121-.1744.1814-.471.1814-.8386 0-.4096-.0603-.7066-.1999-.9185-.1165-.2168-.3116-.3346-.5488-.3346z" fill="#000"/><path d="m23.6152 31.4123c-.838-.352-1.2356-.4155-1.8642-.629-2.1379-.7712-3.2839-1.9168-3.224-4.0694.308-2.1864 1.334-3.1672.8723-4.5487-.1582-.5204-.5174-1.0632-1.0305-1.4527.9708-.7075 1.6761-1.2953 2.2705-2.5458 1.2615.8836 2.6552.2658 3.8225.2472 1.163.0186 2.5569.6401 3.8225-.2432.5944 1.2466 1.2956 1.8343 2.2746 2.5418-.5217.3894-.8809.9323-1.0305 1.4602-.4703 1.3703.5559 2.3548.868 4.5412.0556 2.1526-1.0902 3.2982-3.2154 4.0731-.637.2133-1.039.2733-1.8726.6326-.4747.2098-.7055.5167-.8466.76-.1368-.247-.372-.5502-.8466-.7673z" fill="#cd3529"/><path d="m24.3526 30.0805c-1.5835-.0407-3.4816-1.147-3.8165-3.3193-.1827-1.2182.2131-2.7204 1.6547-3.8776-.203.2537-.4771.5176-.6498 1.0659-.2942.8832-.2232 1.6139.061 2.3348.6294 1.1774 1.5531 1.9083 2.7813 1.9488 1.8473-.1115 2.7101-1.4516 2.9233-2.1012.1726-.5074.4569-1.2588-.1422-2.5275-.1928-.396-.5075-.7208-.5075-.7208.8526.5888 1.8068 1.8372 1.675 3.6949-.1222 1.7559-1.7259 3.4308-3.9793 3.502zm.0921-7.42-.2836-.9035h-.9245l.7248-.6092-.2836-.9665.7879.5568.746-.5358-.2732.9351.7355.6198h-.9245z" fill="#fff"/></svg>