<svg fill="none" height="48" viewBox="0 0 48 48" width="48" xmlns="http://www.w3.org/2000/svg"><path d="m40 24c0 8.8372-7.1638 16-16 16-8.8368 0-16-7.1628-16-16 0-8.8364 7.1632-16 16-16 8.8362 0 16 7.1636 16 16z" fill="#dba111"/><path d="m39.4661 24c0 8.542-6.9242 15.4663-15.4662 15.4663-8.5422 0-15.46651-6.9242-15.46651-15.4663s6.92431-15.46643 15.46651-15.46643c8.5419 0 15.4662 6.92433 15.4662 15.46643" fill="#034694"/><path d="m35.0217 24.0001c0 6.0872-4.9347 11.021-11.0218 11.021-6.0875 0-11.0223-4.9338-11.0223-11.021 0-6.0878 4.9348-11.0223 11.0223-11.0223 6.0873-.0001 11.0218 4.9345 11.0218 11.0223" fill="#dba111"/><path d="m34.6883 24c0 5.9031-4.7861 10.6883-10.6883 10.6883-5.9031 0-10.6884-4.7853-10.6884-10.6883 0-5.9029 4.7853-10.6884 10.6884-10.6884 5.9023 0 10.6883 4.7854 10.6883 10.6884" fill="#fff"/><g fill="#dba111"><path d="m14.8416 33.2211c.1183.1129.4092.39.4092.39l.2789-.2937-.8319-.7931-.107.1123-1.117 1.171.4241.4036s.3582-.3756.4892-.5125c.1096.104.3724.3546.3724.3546l.2791-.293s-.2624-.2504-.3718-.3551c.0694-.0732.1047-.1102.1748-.1841"/><path d="m16.848 34.5584c-.0377-.2246-.1638-.423-.3545-.5585-.1899-.135-.4179-.1882-.6425-.1514-.2418.0412-.4591.1821-.6122.3963-.1526.2156-.2142.4669-.1731.7098.0378.2239.163.421.3532.5566.1903.1353.4199.1894.6441.1517.2418-.0407.4592-.182.6117-.3968.1222-.1704.1858-.3656.1858-.5607.0001-.0486-.004-.0985-.0125-.147zm-1.1947.622c-.1944-.1375-.0339-.425.0793-.5831.113-.1593.332-.4057.5264-.2683.2029.1451.0133.4587-.0777.586-.0913.1287-.3247.4105-.528.2654z"/><path d="m18.1555 35.0024c-.4476-.2265-.9655-.0408-1.2033.4305-.1192.2356-.1424.4943-.0657.727.0709.2163.2246.3927.4329.4976.2084.1061.4428.1245.6595.0533.2326-.0758.4266-.2477.5451-.4832.2388-.4722.0801-.9986-.3685-1.2252zm-.4951 1.31c-.0525.0172-.1023.0118-.1589-.0163-.0888-.0453-.12-.1261-.12-.2164 0-.1251.0601-.2723.1111-.3728.0883-.1746.2676-.4504.4804-.343.0562.0286.0898.0659.1068.1178.0356.1074-.0002.2838-.0961.4727-.0955.189-.2163.3226-.3233.358z"/><path d="m19.0801 35.6507-.0824.2361s.2107.074.2746.0951c-.0806.2306-.4524 1.2917-.4524 1.2917l.552.1936s.3723-1.0602.4528-1.2908c.0643.0225.2751.0957.2751.0957l.1338-.3811-1.1022-.3867z"/><path d="m21.3718 36.1628-.7459-.1576-.0319.1518-.3334 1.5831.7591.1609c.2426.0501.4024-.0095.4935-.0684.1156-.0754.1967-.1992.2278-.3471.0086-.0402.0127-.0793.0127-.1175 0-.1069-.0339-.2033-.0951-.2861.0855-.0679.1465-.1637.1718-.2834.0065-.0309.0103-.0657.0103-.1022 0-.2026-.1157-.4599-.4689-.5335zm-.2053 1.2085c-.008.0362-.0225.0841-.0499.102-.0253.0164-.074.0185-.137.0048 0 0-.0287-.0063-.0626-.013.0242-.1142.0404-.1902.0641-.3046.0324.0076.0739.0157.0739.0157.0979.0207.1166.0931.1166.1457.0001.0212-.0026.0391-.0051.0494zm-.051-.8472c.0655.0149.1136.0389.1321.0669.0085.0129.0127.0309.0127.0522 0 .0128-.0018.0277-.0051.0456-.0101.0464-.0236.1107-.1527.0843 0 0-.0161-.0043-.0382-.009.0206-.0958.0303-.1436.0512-.24z"/><path d="m22.7488 36.4206-.8102 1.6591.4627.0355s.1252-.2643.1752-.3696c.0979.0081.196.015.2919.0227.0359.1109.1263.3921.1263.3921l.6156.0479-.6878-2.132z"/><path d="m24.5756 37.7449c-.0103-.2425-.0569-1.3462-.0569-1.3462l-.5846.0245.074 1.7715 1.1715-.0487-.0176-.425s-.4184.0179-.5864.0239"/><path d="m26.1791 37.5752c-.0377-.2397-.2087-1.3309-.2087-1.3309l-.1532.0245-.4254.0663.2746 1.7521 1.1589-.182-.0664-.4203s-.4134.0652-.5798.0903z"/><path d="m29.534 36.3967c-.0047.1519-.0943.2827-.2339.338-.0775.0308-.1514.0308-.2254-.0006-.1137-.0487-.2189-.1718-.2822-.3299-.0743-.1865-.0895-.345-.0407-.4563.0335-.078.0993-.1362.1998-.1765.1088-.0433.2121-.0034.3538.08l.1299.0767.2158-.3403-.1281-.0842c-.2353-.1546-.5267-.1862-.7787-.0855-.234.0933-.4153.2678-.5112.4909-.0972.2262-.0973.4851.0014.7307.1862.4654.7124.6947 1.1724.5105.3325-.1328.5207-.3854.5446-.7304l.0109-.1539-.4235-.0315-.0049.1624"/><path d="m30.8987 35.9128c-.1198-.2129-.6578-1.1779-.6578-1.1779l-.1348.076-.3764.2102.8652 1.5479 1.0229-.5714-.2071-.3716c.0001 0-.3661.2041-.512.2868"/><path d="m32.0363 33.5255-.1254.0918-.2197.1615.718.9786c.0329.0443.0329.074.03.0912-.0069.0505-.0595.1052-.106.1387-.0219.0157-.0727.037-.1247.0288-.0371-.0053-.0663-.0255-.0924-.0607l-.7096-.9677-.4729.3462.7062.9629c.1048.1425.2349.2268.3868.25.1704.0265.364-.0315.5441-.1645.3702-.2707.3641-.6302.2026-.8504z"/><path d="m34.1908 33.1697c-.1088-.113-.2431-.1637-.384-.1561-.0083-.1095-.0508-.2142-.1355-.3018-.1479-.1527-.4785-.2716-.783.0247l-.5476.5296 1.234 1.2739.557-.54c.1781-.1725.2172-.3395.2189-.4475.003-.1385-.054-.2741-.1598-.3828zm-.9322-.043c.0184.0196.0409.0425.0409.0744 0 .0261-.0143.0583-.057.0992 0 0-.0116.0117-.0272.0274-.0691-.0717-.1019-.1054-.172-.1774.1235-.1133.1748-.0649.2153-.0236zm.2922.4386c.1-.0965.1963-.0117.2237.0171.0266.0267.0568.0643.0568.0969v.0011c-.0006.0301-.026.0717-.0719.1162 0 0-.0212.0207-.0465.0445-.0807-.0835-.1353-.1395-.2161-.2225.0239-.0238.054-.0533.054-.0533z"/></g><path d="m14.8378 33.0568c.0482.0465.4085.3901.4085.3901l.1189-.1252-.6639-.6331-.0267.028-1.0362 1.0869.2553.2437s.4415-.4627.489-.5134c.0483.046.3731.3553.3731.3553l.119-.1249s-.3248-.3091-.3731-.355c.0431-.0451.2934-.3077.3361-.3524" fill="#fff"/><path d="m16.4257 34.0945c-.1646-.1172-.3615-.164-.5547-.1316-.2122.0364-.4025.1602-.5372.3498-.1351.1902-.1893.4107-.1533.622.0324.1938.1413.3649.3059.4816.1656.1178.3633.1639.5574.1314.2111-.0355.4017-.1599.5362-.3482.1075-.1519.1643-.3239.1643-.4943 0-.0424-.0037-.0854-.0106-.1279-.033-.1935-.1421-.365-.308-.4828zm-.1498.8884c-.1114.1557-.4012.4979-.6896.2927-.2875-.2041-.0593-.5899.0516-.7466.1112-.1567.4012-.4983.6882-.2942.2885.2058.061.5918-.0502.7481z" fill="#fff"/><path d="m18.1031 35.1067c-.3884-.1964-.8385-.0329-1.0472.3798-.105.2075-.1258.4333-.0591.638.0613.1859.1945.338.3751.4289.181.0925.384.1089.5709.0474.2034-.0672.3732-.2178.4782-.4252.2081-.4126.0716-.8726-.3179-1.0689zm-.6539 1.2926c-.3146-.1582-.1472-.5743-.0603-.7452.0866-.1717.3221-.5531.6361-.3935.0836.0418.1394.104.166.1854.0617.1884-.0384.4319-.1037.5613-.0649.1284-.2021.3537-.3907.4155-.0808.0273-.1642.019-.2474-.0235z" fill="#fff"/><path d="m19.1903 35.6888-.0446.1261s.2198.0773.2749.0967c-.0244.069-.4528 1.2906-.4528 1.2906l.3329.117s.4288-1.2215.4527-1.2907c.0551.0192.2749.096.2749.096l.0574-.1623-.8832-.31z" fill="#fff"/><path d="m21.3482 36.2761-.6322-.1334-.0084.0384-.309 1.4701.645.1354c.164.0344.3005.0173.406-.0519.0913-.0596.1525-.1546.1776-.273.0064-.0323.0102-.0631.0102-.0932 0-.1286-.0637-.2374-.1776-.3154.1319-.038.2262-.135.2566-.279.0052-.0224.0083-.049.0083-.0791-.0001-.1471-.0774-.3558-.3765-.4189zm-.221.1302c.1063.0224.1799.0631.2173.1209.0216.0329.0322.0713.0322.116 0 .0218-.0028.0444-.0079.069-.0411.1958-.1992.1937-.2902.1738 0 0-.0963-.0198-.1521-.0315.013-.0604.0864-.4093.0991-.4695.0404.0083.1016.0213.1016.0213zm-.0486.6562c.1796.0377.208.1794.208.2655 0 .037-.0058.0634-.0066.0678-.0181.0849-.0505.1423-.1002.1745-.0526.035-.1283.0418-.2241.0219 0 0-.115-.0246-.1766-.0368.0133-.0632.0992-.4704.1122-.5325.0527.011.1873.0396.1873.0396z" fill="#fff"/><path d="m22.8535 36.4717-.7353 1.5052.2118.0157s.1557-.3271.1763-.3689c.0447.0035.4047.0315.4488.035.0141.0432.1264.3921.1264.3921l.3647.0281-.5461-1.6932zm-.0807.6052c.0356.1137.104.3329.1266.4045-.0726-.0054-.2399-.0184-.3118-.0239.033-.0676.1332-.2737.1852-.3806z" fill="#fff"/><path d="m24.4639 37.8661c-.0029-.0733-.057-1.3462-.057-1.3462l-.0376.0014-.3147.0128.0647 1.5399.9394-.0398-.0083-.1922c.0002.0001-.5186.0219-.5865.0242" fill="#fff"/><path d="m26.0826 37.7094c-.0117-.0726-.2094-1.3326-.2094-1.3326l-.0377.0061-.3106.0491.2388 1.5223.9288-.1466-.03-.1902c0 .0001-.5135.0807-.5799.0919" fill="#fff"/><path d="m29.6497 36.3993c-.0055.2006-.1232.3704-.3066.4443-.1068.0425-.2122.041-.3141-.0027-.1436-.0607-.2691-.2046-.3451-.3934-.0855-.2157-.0993-.4045-.0395-.5457.0465-.1067.1349-.1866.2641-.2379.1691-.0677.3244.0095.4558.0874l.0328.0192.0945-.1484-.0316-.0214c-.2039-.1335-.4558-.1614-.6725-.0746-.2054.0823-.3649.2342-.4477.4286-.0849.197-.0841.4256.0028.6411.1621.4066.6198.6064 1.0217.4462.2915-.117.4497-.3284.4709-.6303l.0027-.0389-.186-.0129z" fill="#fff"/><path d="m30.8536 36.0709c-.0363-.0636-.6578-1.1771-.6578-1.1771l-.0342.019-.2737.1533.7507 1.3445.8207-.4583-.0934-.1683c.0002.0002-.4542.2533-.5123.2869" fill="#fff"/><path d="m32.011 33.6877-.0317.0233-.1258.0925.6495.8849c.0435.0595.0606.119.0513.1772-.0155.1054-.1115.1864-.1518.2151-.046.0347-.1303.0635-.211.0504-.0685-.0101-.1247-.0464-.1697-.1067l-.6412-.8746-.284.2095.637.8684c.0857.1171.1904.1862.3107.204.1897.0287.3677-.0769.4573-.1422.3073-.226.3115-.5088.1786-.6886z" fill="#fff"/><path d="m34.1072 33.2506c-.1192-.1234-.2718-.1515-.43-.0907.0126-.0368.02-.0745.02-.1121 0-.0915-.0364-.1808-.1096-.2561-.0992-.102-.3559-.228-.6186.0273l-.4641.4497 1.0716 1.1063.4745-.4601c.1196-.1149.1821-.2388.1836-.364.0018-.1094-.0426-.2129-.1274-.3003zm-.692-.0481c0 .0775-.0505.1411-.0911.1808 0 0-.0712.0691-.1114.1087-.0432-.0444-.2916-.3003-.3341-.3457.0289-.0278.0742-.071.0742-.071.145-.1413.2723-.1506.3892-.0295.0535.0556.0732.1081.0732.1567zm.2952.8028c-.0439-.0453-.3335-.3449-.3779-.3901.0382-.0369.1374-.1333.1374-.1333.1891-.1823.3808.0109.3889.0198.0596.0616.0889.1198.0889.1777v.0022c-.0008.0636-.0377.1302-.1076.1993.0001 0-.0922.0888-.1297.1244z" fill="#fff"/><path d="m16.8914 13.4597-.6467.1744.0742.2316c.0894.2809.0085.5749-.2104.7669-.1218.1068-.2624.1558-.4175.1452-.2357-.0159-.5017-.1684-.7114-.4083-.247-.283-.3703-.5555-.3546-.7864.0109-.1683.0928-.3162.2498-.4538.1735-.152.3935-.1461.6919-.0869l.2214.0438.1431-.6194-.2228-.0544c-.4791-.1185-.9788-.002-1.3352.31-.6981.6108-.7551 1.6084-.1324 2.3205.5786.6614 1.5825.7335 2.2368.1612.4713-.4117.6355-.9384.4754-1.5216z" fill="#dba111"/><path d="m18.6477 10.2159-.6606.3111s.3687.7815.4955 1.0508c-.1884.0886-.3709.1749-.5596.2639-.1272-.2691-.4962-1.051-.4962-1.051l-.8698.4107 1.3247 2.8099.8706-.4105s-.4105-.8691-.5425-1.1508c.1886-.0883.3709-.1745.5599-.2635.1324.281.5423 1.1502.5423 1.1502l.8704-.4107-1.3243-2.8092z" fill="#dba111"/><path d="m21.5928 11.9566c-.0424-.2092-.0855-.4221-.1274-.631.2688-.0541.9829-.1983.9829-.1983l-.1256-.6241s-.7145.1444-.9834.1987c-.0387-.1913-.0708-.352-.1097-.543.2791-.0563 1.0433-.21072 1.0433-.21072l-.126-.62384-.2286.04591-1.7579.35551.6146 3.04534 2.0025-.4049-.1258-.6235s-.7779.1568-1.0589.2139" fill="#dba111"/><path d="m24.4332 9.25217-.963-.01999-.0048.23225-.0602 2.87357 2.0216.0424.0145-.6728s-.7762-.0167-1.0598-.0225c.0081-.3804.0517-2.43293.0517-2.43293" fill="#dba111"/><path d="m27.554 10.8188c-.2498-.1835-.3229-.2571-.2976-.3573.0123-.052.069-.2179.2484-.1735.108.0278.2154.0846.2633.317l.0526.258.6359-.2149-.0396-.2002c-.0782-.3932-.4108-.72791-.8282-.83219-.299-.07425-.5987-.03453-.8447.11323-.2258.13525-.3846.34876-.4474.60136-.1596.6368.2697.9435.5535 1.1466.291.2081.365.2896.3206.4634-.0139.0543-.0459.0972-.096.1276-.0582.0342-.1313.0466-.1908.0311-.1529-.0376-.219-.1098-.2835-.3075l-.0781-.2371-.638.261.0618.2025c.1196.3936.4052.6417.8725.7588.5252.1314 1.1624-.1102 1.3211-.7408.1656-.6645-.2866-.9975-.5858-1.2171" fill="#dba111"/><path d="m29.8516 12.4757c.2451.1239.8947.4524.8947.4524l.2873-.568s-.6502-.3285-.8945-.452c.0875-.1742.1616-.3207.2489-.4946.2535.128.9504.4802.9504.4802l.2865-.568-1.8083-.9138-.1045.207-1.2971 2.5654 1.8234.9209.2875-.5677s-.7085-.3579-.9646-.4868c.0959-.1907.1944-.3843.2903-.575" fill="#dba111"/><path d="m33.4528 12.7659-2.8974 1.4993.5543.482s.4782-.2542.652-.3455c.1293.1125.3198.2783.4469.3887-.0623.1849-.2394.7047-.2394.7047l.7636.6644 1.2388-3.6529z" fill="#dba111"/><path d="m16.7828 13.6487-.3415.0929.0251.0772c.1085.3409.0106.6975-.2563.9309-.1533.1345-.332.1961-.5295.1834-.2799-.0188-.5776-.1868-.8178-.4616-.2748-.3145-.411-.6255-.3929-.8993.0141-.208.116-.3963.3029-.5598.2454-.2145.5543-.1753.8241-.1219l.0741.0144.0747-.3238-.0742-.0185c-.4306-.1057-.8774-.0023-1.1964.2769-.631.5527-.6817 1.4553-.1174 2.1011.5222.5971 1.4274.6625 2.0183.1465.4285-.3758.5725-.834.4274-1.3633z" fill="#fff"/><path d="m18.7136 10.3555-.5197.2457s.4375.9284.4951 1.0504c-.1112.0527-.7285.344-.8406.3963-.0574-.1222-.4946-1.0506-.4946-1.0506l-.5907.2783 1.1925 2.5289.5903-.2779s-.4841-1.0263-.5424-1.1505c.1119-.0527.7285-.3433.8404-.3962.0582.1239.5425 1.1508.5425 1.1508l.5896-.2786-1.1925-2.5292z" fill="#fff"/><path d="m21.4711 12.1393c-.0242-.1215-.164-.8134-.1882-.935.1293-.0259.9827-.1984.9827-.1984l-.0645-.3195s-.8532.1717-.9832.198c-.0237-.1191-.1468-.7279-.1704-.8469.1303-.0267 1.0427-.21043 1.0427-.21043l-.0647-.31962-1.6823.33948.5534 2.74097 1.6983-.3429-.0645-.3196c-.0001.0001-.9279.1873-1.0593.2139" fill="#fff"/><path d="m24.2747 9.40427-.6522-.01413-.0013.07701-.0578 2.71875 1.7121.0363.0076-.3629s-.9268-.0196-1.0596-.0224c.0034-.1451.0513-2.43263.0513-2.43263" fill="#fff"/><path d="m27.5424 10.1381c.2074.0519.3271.1904.3779.4358l.0176.0858.3402-.115-.0129-.0671c-.0672-.3351-.3538-.62131-.7138-.71186-.2589-.06456-.5167-.0307-.7269.09553-.1902.1143-.3243.29443-.3771.50673-.134.5342.2142.783.4934.9826.2827.2022.4531.3402.3805.6269-.0288.1194-.1068.1875-.1669.2234-.0932.0558-.2075.0733-.3079.0486-.2062-.0517-.3124-.1625-.3929-.4099l-.0262-.079-.3531.144.0206.0678c.1026.3373.352.5512.7624.6539.4509.1126.9974-.0914 1.132-.6285.1403-.563-.2293-.8355-.5284-1.0541-.2539-.1874-.4072-.3127-.355-.5198.0457-.1851.199-.3453.4365-.2858" fill="#fff"/><path d="m30.3197 11.2055c.119.0599.9494.4795.9494.4795l.1477-.2913-1.5315-.7737-.0351.0691-1.2263 2.4269 1.5458.7812.1473-.2912s-.8439-.4267-.9635-.4873c.0557-.1108.3742-.7401.4296-.8509.1178.0595.8944.4519.8944.4519l.1481-.2913s-.7775-.3921-.8953-.4519c.0548-.1081.3348-.6629.3894-.771" fill="#fff"/><path d="m33.5241 12.9039-2.6944 1.3944.3011.2618s.5714-.3029.6522-.3457c.0671.0585.5407.4705.6063.5277-.0286.0851-.2402.7039-.2402.7039l.5113.4446 1.0411-3.0699zm-1.4291 1.1501c.1274-.0659.453-.2351.6516-.3385-.0739.2112-.1957.5588-.2425.6941-.1033-.0905-.3057-.2663-.4091-.3556z" fill="#fff"/><path d="m31.6439 23.5803c-.221-.5853-.9819-.8395-1.7012-.568-.2999.1128-.5456.3014-.7131.5241.475-1.3555 2.4096-1.6432 2.4096-2.9042 0-2.1138-3.0018-1.5217-2.565.0003 0-.6906 1.099-.8171 1.099 0 0 .8172-1.9163 1.3531-1.9163 2.7338 0 1.522 1.5222 1.6628 1.3682 3.0548-.0262.24-.2843.5554-.6579.5554-2.3316 0-1.4993-2.8702-2.314-3.7436l.0426-.5897c.471.2888 1.7205-.3877.8979-1.4191 0 .5072-1.0561.4791-1.0561-.4791 0-1.2965 1.2122-.62 1.2711-.3337-.0581-.4721-.0801-.7718-.0021-1.0439-.6535.2107-.7146-.167-.6319-.3132.0946-.169.2212-.3664.4758-.3664.1376 0 .2202.0191.2689.0527.0814.0556.1409-.0715.1293.0468.0699-.1065.0419.0264.1093-.0804.0688-.106.1613-.2259.324-.3856l-.007-.2392.1904.0698.1827-.2956c-.1972-.4089-.4649-.212-.662-.719-.1648-.0428-2.7324.2364-2.658-.7878-.2094 0-.7053.1147-.3984.5317-.2386.0287-.4106-.2423-.7704.4908.4507-.0845.2174.4192.2174.5625 0 .9288-1.2364.9131-1.2364.4781-.2979.2895-.1289.9226.3217 1.0786 0 0-.1714.6772-.5944 1.1066-.6279-.025-1.6354-.1342-2.2149-.682-.25-.2361-.4484-.3647-.6175-.4308v-.307c.2475-.1211.5189-.3355.8009-.6937.22-.2686.3391-.6132.307-.9791-.0042-.0436-.0106-.0868-.0183-.1289-.0024-.0134-.0057-.0264-.0088-.0397-.0061-.0295-.0133-.0577-.0218-.0869-.0041-.0141-.008-.0285-.0124-.0424-.0096-.0292-.0201-.0572-.0315-.0849-.0047-.0116-.0081-.024-.0137-.0349-.0157-.0374-.0332-.0725-.0521-.1079-.0081-.0144-.0166-.0278-.0245-.041-.013-.0212-.0253-.0428-.039-.0633-.011-.0163-.0226-.0328-.0342-.0492-.012-.0157-.0247-.0318-.037-.0476-.0137-.0168-.0271-.0346-.0417-.0513-.0097-.0111-.0202-.0217-.0305-.0319-.0366-.0404-.0763-.0781-.1178-.114-.0034-.003-.0075-.0068-.0116-.0099-.0231-.0198-.0478-.0387-.0721-.0568-.0062-.0047-.0127-.0092-.0196-.0141-.026-.0183-.0526-.0362-.0803-.0533-.0017-.0011-.0033-.0017-.0045-.003-.2639-.1615-.5827-.2461-.9195-.2194-.811.0646-1.4137.7422-1.346 1.5135.0527.601.4959 1.0809 1.0722 1.234-.2022.1128-.373.1779-.4115.1779.0064.0042.0147.0089.0238.0148.0023.0011.0051.0028.0079.0042.0078.005.0171.0102.0266.0153.0024.0014.0053.0027.0076.0041.013.0066.0264.0134.0414.0205.0024.0011.0052.002.0076.0031.0133.0062.0269.0127.0413.0182.0041.0019.0086.0036.013.0051.0353.0147.075.028.1184.0404.0062.0017.0127.0031.0181.0048.0175.0044.0354.0085.0538.0129.0061.0011.0123.0024.0188.0037.0233.0042.0477.0083.0721.0113.0021 0 .0042.001.0062.001v.1746c-.0092.002-.0175.003-.026.0043-.2638.0434-.4352.1246-.5126.3594-.077.2357.0021.3209.1256.4862-.1044.1865-.3778.2563-.021.6684-.0259.1556.007.4035.2335.4787.0739.0251.1355.0384.2005.0496l-.0003 3.0897c-.2259.1197-.3374.269-.3991.4081 0 0-.1813-.4026-.1694.395.2061-.1599.125.1851.125.1851-.2806.3635.0758.3438.0758.3438.2417-.2414.1924.1094.1924.1094 0 .4278.1737.5952.1752.5959v2.3538l-.2052.0006.0019.6495.359-.0006c-.2015.0836-.3344.2825-.315.5024.0244.2772.2804.4831.572.4606.2913-.0234.5078-.2664.4829-.5442-.0165-.1917-.1435-.3482-.3162-.4201l.3312-.0009-.0014-.6495-.1975.0009.0003-2.0883c.0407.0223.0847.0378.1325.0482.0191.0036.038.0062.0575.0075.0085.0014.0174.0014.0259.0016-.0531-.2745.1109-.4565.1109-.4565.0842-.1267.206-.2255.3446-.2953.4145-.2079.9801-.1554 1.1491.1832 1.0712-.2823 1.9916-1.359 1.9916-1.359l.5272.8974c-1.1178.3737-3.5526 2.4904-1.8625 3.2235-.0006.2134-.0292 1.7971-1.0447 1.6713-1.4626-.1802-1.8273.425-1.5465 1.1052-.132.5737.3097.7728.3097.7728-.0663-.3314.0931-.6059.6975-.6024-.0031.6045.3873.7135.3873.7135.0028-.5177.3625-.7094.682-.708-.0023.4266.4932.5887.4932.5887s-.1256-.4916.4345-.5887c1.418-.247.0863-1.7054 2.2427-2.1073 0 0-1.0738-.1619-1.0738-.7489 0-.5343.972-.8997 1.3066-.8997.6864 1.3113 1.432 1.3217 1.6274 1.331.304.3395.2021 1.4838-.2367 1.4613-1.6063-.0862-1.5475.8909-1.3675 1.0907-.0205.3793.2745.5984.2745.5984 0-.4066.3868-.5209.8829-.494-.026.4966.2904.5708.2904.5708.0086-.4998.3784-.5846.641-.5708-.0192.3502.3285.4534.3285.4534s-.0342-.4446.4338-.4446c.8878-.0006-.4016-1.9032 1.3311-3.7849-1.522.7045-2.3318-1.0567-2.3318-1.3947.7823.9155 3.3187 1.0983 3.3187-.4655 0-1.494-1.6419-2.0506-.8737-2.622.4468-.3323 1.3254.3389.8227 1.0322.7209-.2671 1.1226-.9652.9021-1.5501zm-9.7291.0471c-.5738.3374-.9585.7643-1.4817.951-.0794.0279-.1428.0358-.1978.0323v-2.916c.1386.013.4983.0622.9188.2361.4165.2272.4165.697-.1091.8083.3322.6361 1.483.3247 1.7339-.1934.1228-.0109.2314.2084.3335.4158-.1615.0839-.492.2505-1.1976.6659zm6.4228-4.834c-.0631.0857-.1253.1708-.1799.2438.1456.2419.4194.3931.7193.3653.4146-.0392.7198-.4072.6816-.8221-.0022-.0151-.0043-.0287-.0063-.0434-.0444.2148-.2977.3968-.6198.4266-.2439.0229-.4647-.0472-.5949-.1702z" fill="#d1d3d4"/><path d="m19.0664 17.0387c0 .0004-.0011.0015-.0011.0025h-.0003c.0065-.0155.0133-.0309.0211-.046-.0074.0144-.0142.0285-.0198.0435zm.0263 12.2304c.0007-.0005.0018-.0005.002-.0013h-.0002c-.0004.001-.001.001-.0017.0013zm-.0181-13.4754h.0007zm-.2194 13.4036.3589-.0005c-.0438.0183-.0834.0424-.1194.0711.0357-.0137.0735-.022.1136-.022.18 0 .3258.1458.3258.326 0 .1798-.1458.3257-.3258.3257-.1457 0-.2676-.0956-.3089-.2279v.0295c.0246.2778.28.4839.5719.4599.291-.0228.5074-.2664.4834-.5435-.017-.191-.1438-.3476-.3165-.4195l.331-.0014-.0016-.6495-.1975.001v-2.0884c-.193-.1002-.3045-.3184-.2614-.5425.1236 0 .2342.0321.3081.0827-.1141.2511.1698.517.1698.517-.0532-.2744.1105-.456.1105-.456.0849-.127.2066-.226.3446-.2959.415-.208.9803-.1555 1.1493.1829 1.0712-.2819 1.9917-1.359 1.9917-1.359l.5275.8968c1.2365 0 .8061-.9259.7253-1.0066.2846 0 .685.2094.685.6731 0 1.1388-3.3105 1.301-3.3105 2.6833 0 .5804.5753.8011.5753.8011 0 1.2603-.8654 2.0089-1.4574 2.0089-.9465 0-1.6713-.1917-1.6713.8404h.33c-.3135.3135-.021.7732-.021.7732-.066-.3309.0938-.6049.6981-.602h.3771c-.2396.2395-.0997.603.0106.7139.0021-.5183.3614-.7098.6814-.708h.2736c-.0744.0734.0452.4141.2198.5881 0 0-.1262-.491.4346-.5881 1.4175-.247.0855-1.7054 2.242-2.1079 0 0-1.0731-.1614-1.0731-.7491 0-.5334.9715-.8995 1.3057-.8995.2633-.0377.5141-.0282.7289.0179.0873.8466 1.0592.8054 1.271.8054.8245.8247-.2096 2.1484-.2096 2.1484-1.2655 0-1.7663.1747-1.7663.9116h.2395c-.1342.1349-.0581.5058.0343.5984 0-.4068.3875-.5204.8836-.4943h.2609c-.1273.1272-.1049.4365.0299.5708.0074-.4998.3777-.5846.6408-.5708h.2174c-.0814.0822 0 .3428.1115.4544 0 0-.0343-.4449.4334-.4454.8882 0-.4019-1.9032 1.3318-3.7849-1.522.7049-2.3325-1.0568-2.3325-1.3949.7825.9158 3.3195 1.0985 3.3195-.4649 0-1.2614-1.1702-1.8543-1.0733-2.3523.0337-.3812.3534-.68.7439-.68.4122 0 .7463.3348.7463.7471 0 .3143-.193.5827-.4679.6929.0006 0 .0006-.0007.0006-.0007-.0006.0007-.0015.0015-.0015.0029.7202-.2672 1.1224-.9655.9027-1.5503-.2217-.5853-.9826-.8402-1.7013-.5688-.3012.1136-.5459.3015-.7132.5246.4741-1.3554 2.4091-1.6426 2.4091-2.9042 0-2.1138-3.0018-1.5215-2.5651.0006 0-.0229.0014-.0455.0042-.0675.0765-.8603 1.6144-1.0362 1.6144.0853 0 .9581-1.9697 1.4892-1.9697 2.7783 0 1.324 1.4551 1.6551 1.4551 3.0483 0 .166-.0877.8804-1.0542.8804-.9327 0-1.381-.5213-1.6357-1.2016-.4751-.9178-.3006-2.3504-.8355-2.9233l.0425-.5891c.4712.2891 1.7211-.3881.9001-1.4194 0 .5077-1.0569.479-1.0569-.4788 0-1.2966 1.2114-.62 1.2703-.334-.0581-.4719-.081-.7723-.0014-1.0434-.6541.2101-.7143-.1673-.6329-.3139.0957-.1693.2222-.3664.4764-.3664.3673 0 .344.1348.3247.3248.1403-.2122.1802-.3717.5066-.691l-.0069-.2398.1894.0704.1842-.2959c-.1969-.409-.4647-.2112-.6627-.7186-.1641-.0431-2.3229-.2423-2.2481-1.2669-.1911 0-.7111.6588-.3592 1.0113 0 0-.2785 0-.4482 0-.2398.0283-.7992-.139-1.1582.5936.884-.8838 1.4578 1.2248-.1704 1.2248v-.0003c-.2402.0006-.4463-.0996-.4602-.269-.1623.7117.8634.9331.8634.9331 0 .2115-.5138 1.3562-.7635 1.6056.1683.1684.2206 1.1847-.5575 1.1847.2806-.7587-.5447-1.4016-1.3462-1.8269h.001c-.1451-.0552-.2833-.1222-.4114-.203-.4921-.2248-.8921-.3514-.8921-.3514v-.5948c.2475-.1213.5189-.3357.8009-.6939.2203-.2684.3388-.6129.3066-.9791-.0034-.0437-.0099-.0862-.0186-.129-.0019-.0133-.005-.026-.0079-.0393-.0064-.0295-.0136-.0585-.0221-.0869-.0038-.0144-.008-.028-.013-.0424-.0093-.0292-.0199-.0577-.0308-.0855-.0049-.0118-.0089-.023-.0138-.0346-.0161-.0367-.0337-.0727-.0523-.1072-.0074-.0148-.0165-.028-.0242-.0421-.013-.0211-.0256-.0421-.0391-.0626-.0113-.0164-.0225-.0332-.0346-.0496-.0119-.0157-.0239-.0318-.0366-.0469-.0136-.0179-.0273-.0353-.0421-.052-.0095-.011-.0197-.0217-.03-.0322-.0371-.04-.0764-.0777-.1177-.1129-.0042-.0034-.0077-.008-.0118-.0109-.0232-.0196-.0475-.0384-.0725-.0562-.0066-.0043-.0127-.0099-.0192-.0143-.0264-.0188-.0526-.036-.0804-.0533-.0016-.0008-.0033-.0021-.0049-.0027-.2637-.1624-.5827-.2462-.9194-.2198-.0725.0058-.1431.0187-.2121.0335-.4668.1789-.8066.7254-.8066 1.3722 0 .6095.3022 1.1293.7272 1.3367.0058.0016.012.004.018.0054-.2025.1129-.3732.178-.412.178.0066.0042.0151.0089.0244.0151.0023.0011.0048.0024.0075.0039.0081.0047.0167.0094.0269.0149.0025.0014.0049.0028.0077.0037.0121.0065.0263.0141.0409.0213.0027.0007.0055.002.0076.0035.0128.006.0267.0115.0417.0177.0041.0017.008.0035.0124.0051.036.0143.0753.0281.1192.0404.006.0013.0119.0031.0181.0048.017.0045.0348.0086.0533.0124.0062.0017.0126.0027.0192.0041.0232.0045.0471.0085.0722.0115.0018 0 .0037.0003.0055.0016.1546.0126.3374-.0258.3374-.0258v.345c-.0278 0-.2708-.0783-.3374-.145-.0083.0013-.0171.0028-.026.0045-.2632.0431-.4347.1241-.512.3593-.077.2357.0021.3208.1256.4861-.1051.1859-.3778.2561-.0216.6685-.0253.1553.0072.4037.2335.4791.0741.025.1358.0376.2005.0492.1341 0 .3374.112.3374.3904v2.6551c.1221.0071.2546.0236.375.034v-2.9164c.1386.0134.4986.0627.9185.2359.0048.0023.0085.005.0127.0078-.0003-.0003-.0008-.0003-.0008-.0006.0384.0047.0774.0129.116.0245.2796.0859.4537.3286.3884.5435-.0653.2145-.346.319-.6251.2333.3316.6366 1.4831.3251 1.7338-.193.1223-.0109.2311.2085.3334.4155 0 0 .2884.1105 1.0026.1105 0 0-2.8915 1.8461-3.7278 1.8461-.3573 0-1.1499 0-1.1499.2702-.2177 0-.5318.3701-.5318.5817.2059-.1607.3737-.1607.3737-.1607.1756 0 .2745.0524.2745.0524-.0644.0636-.3529.3892-.3529.642.2416-.242.347-.2409.347-.2409s.2525-.0326.3425.0578c-.0608.0604-.1673.2793-.1673.5383 0 0 .1499-.2892.3374-.2892v2.7754c0 .0849-.3829.1662-.5407.1662zm.1178-8.3972c-.0713.0027-.1051-.0899-.1057-.1235-.0018-.0339.025-.1283.0961-.1311.1694-.0058.5082.0755.5095.1089.0014.0331-.3306.1396-.4999.1457zm-.1092-.4581c-.0982-.0069-.1307-.1397-.1274-.1863.0031-.0458.0548-.1728.153-.1656.2344.0176.6889.1811.6851.2272-.0029.0469-.4766.142-.7107.1247zm-.0403-.5869c-.1041-.0274-.1126-.1763-.1-.2255.013-.049.0934-.1746.1978-.1475.2479.065.7036.3315.6906.3804-.0127.049-.5404.0575-.7884-.0074zm.7679-1.6539c.043-.1027.0339-.243.0072-.375-.0045 0-.0089.0003-.0134.0003-.2983 0-.54-.2419-.54-.5396-.0044-.051.0028-.1004.0199-.1458h.0003c0-.001.0006-.0021.0011-.0024.0645-.2258.2717-.3921.5188-.3921.2974 0 .5398.2419.5398.5403-.0001.3442-.2424.6611-.5336.9144z" fill="#034694"/><path d="m27.6937 18.5727c.1444.2419.4189.3931.7188.3652.4152-.0388.7196-.407.6816-.8224-.0015-.0147-.0043-.0288-.0062-.0435-.044.2146-.2985.3971-.6199.4269-.2446.0229-.4651-.0473-.5953-.1701-.0627.0859-.1256.171-.179.2439" fill="#ed1c24"/><path d="m26.6856 17.1727.2607.0138-.1305.1789s-.1741.0551-.1302-.1927zm-.622 0h.3756s-.0135.3032.2608.3303l-.0583.0965s-.7371-.1926-.5781-.4268z" fill="#fff"/><path d="m19.6119 19.7625c.013-.0488-.4427-.3154-.6905-.3803-.1045-.0271-.1849.0985-.1979.1475-.0127.0492-.0041.1981.1.2254.248.065.7758.0564.7884.0074zm-.0374.4548c.0039-.0461-.4506-.2096-.6851-.2272-.0981-.0072-.1498.1198-.1529.1656-.0033.0466.0291.1794.1274.1863.234.0174.7077-.0777.7106-.1247zm-.516-1.3714v.1742c.0667.0668.3097.145.3374.145v-.345c.0001.0001-.1827.0384-.3374.0258zm-.0951 1.6996c-.0711.0028-.0979.0972-.0961.1312.0006.0335.0345.1262.1058.1234.1693-.006.5012-.1126.4999-.1458-.0014-.0333-.3402-.1146-.5096-.1088zm-.3487 4.5992c-.2802.3631-.0784.6944-.0784.6944 0-.2529.2885-.5784.3529-.642 0 .0001-.0988-.0524-.2745-.0524zm.8941.7705c-.043.224.0684.4422.2614.5425.0411.0213.0857.0381.1325.0473.02.0046.0388.007.0583.0093.0085.0001.0171.0003.0257.0006 0 0-.2838-.2657-.1697-.5169-.0741-.0508-.1846-.0829-.3082-.0829zm-.5129-7.4125c-.4249-.2074-.7271-.7272-.7271-1.3366 0-.6468.3397-1.1933.8066-1.3723-.7009.1553-1.1954.7782-1.1335 1.4804.0524.5947.4869 1.0703 1.054 1.2285zm4.512-1.4918c.451-.0848.6041.3162.6041.4597 0 .5437-.4235.7627-.7745.7648v.0003c1.6282 0 1.0544-2.1085.1704-1.2247zm-1.0883 4.679c.7782 0 .7259-1.0163.5576-1.1848.2497-.2495.7634-1.3941.7634-1.6055 0 0-1.027-.2215-.863-.9342-.0003-.0005-.0003-.0008-.0003-.0014l-.0137-.0025c-.2799.2954-.1098.9113.3343 1.065 0 0-.1714.6772-.5945 1.1067-.4211-.0164-1.0114-.0718-1.5299-.2703.8015.4254 1.6268 1.0683 1.3462 1.827zm-3.0397-4.8798c.2012-.0161.3784.1266.3955.3189.0167.1913-.1331.3604-.3347.3763-.2019.0163-.3795-.1264-.3955-.3184 0 .2976.2416.5396.5399.5396.0045 0 .0089-.0003.0134-.0003.0267.132.0359.2723-.0072.375.2913-.2533.5336-.5702.5336-.9144 0-.2984-.2423-.5403-.5398-.5403-.2484 0-.4564.1673-.52.3946.0472-.125.1666-.219.3148-.231zm5.7344-.3928c-.3519-.3525.1681-1.0113.3592-1.0113-.209 0-1.115.5932-.8074 1.0113zm-4.5336 5.857c.2791.0857.5597-.0188.6251-.2332.0654-.2149-.1088-.4576-.3884-.5436-.0386-.0115-.0776-.0198-.1159-.0245.4037.2303.399.6921-.1208.8013zm-.8097-2.9658s.4.1266.8921.3514c-.0988-.0612-.1915-.1303-.2748-.2087-.2498-.2361-.4486-.3647-.6173-.4301zm.1517 5.145c.8363 0 3.7279-1.8461 3.7279-1.8461-.7142 0-1.0027-.1105-1.0027-.1105-.1612.084-.4921.25-1.1974.6654-.5739.3378-.9585.765-1.4818.9514-.0797.0289-.1431.0356-.1977.0326-.1205-.0104-.2529-.0268-.3751-.034v-2.6552c0-.2784-.2033-.3903-.3374-.3903v3.0898c-.2261.1199-.3374.2689-.3986.4082 0 0-.4312-.0575-.4189.7405 0-.2117.3141-.5818.5318-.5818 0-.27.7926-.27 1.1499-.27zm7.2127 4.2744c-.2118 0-1.1838.0411-1.2711-.8055-.2148-.0461-.4655-.0554-.7289-.0179.6871 1.3113 1.433 1.3218 1.6282 1.3319.3037.3388.2019 1.4829-.2369 1.4599-1.6062-.0856-1.5473.8917-1.3674 1.0916 0-.7369.5009-.9116 1.7663-.9116.0001 0 1.0344-1.3237.2098-2.1484zm.3303 3.1642h-.2174c-.0184.351.3291.4544.3291.4544-.1117-.1116-.1931-.3723-.1117-.4544zm-2.0326.4942c-.0924-.0925-.1686-.4635-.0343-.5984h-.2396c-.02.3798.2739.5984.2739.5984zm4.7949-12.2003c0-1.1218-1.5385-.9456-1.6144-.0842.0678-.6314 1.0957-.7245 1.0957.0663 0 .8173-1.917 1.3527-1.917 2.7339 0 1.522 1.5218 1.6628 1.3679 3.0543-.0261.2409-.2842.5557-.6578.5557-.8011 0-1.23-.3401-1.479-.8206.2547.6803.7029 1.2017 1.6357 1.2017.9665 0 1.0542-.7144 1.0542-.8803 0-1.3932-1.455-1.7244-1.455-3.0484.0001-1.2892 1.9697-1.8203 1.9697-2.7784zm-11.3447 5.4122c0 .4295.1752.5962.1752.5962 0-.259.1065-.4779.1673-.5383-.0899-.0906-.3425-.0579-.3425-.0579zm11.1167-2.3743c-.3905 0-.7103.2989-.744.6801.0178-.0915.0788-.1804.1979-.2694.4474-.3326 1.3243.3372.8241 1.0295.2749-.1104.4681-.3787.4681-.6931.0001-.4122-.3339-.7471-.7461-.7471zm-3.4225 8.6682h-.2609c-.0266.4961.2909.5708.2909.5708-.1347-.1343-.1572-.4437-.03-.5708zm-7.3691-2.6461c-.0403 0-.078.0083-.1138.0219-.124.0944-.1996.241-.1951.4019.0413.1322.1632.2278.3089.2278.18 0 .3258-.1458.3258-.3257 0-.1801-.1458-.3259-.3258-.3259zm1.8325 2.4092h-.3771c-.0032.6044.3877.714.3877.714-.1102-.111-.2501-.4746-.0106-.714zm1.1692-3.8216c0-1.3822 3.3105-1.5445 3.3105-2.6832 0-.4638-.4003-.6732-.685-.6732.0806.0807.5112 1.0066-.7253 1.0066-1.1181.3742-3.5528 2.4907-1.8628 3.2244-.0008.2127-.0294 1.7966-1.0444 1.6721-1.4623-.181-1.8271.4235-1.5464 1.1038 0-1.0322.7248-.8404 1.6714-.8404.5919 0 1.4573-.7486 1.4573-2.009 0 0-.5753-.2207-.5753-.8011zm-2.8141.8472v-2.7756c-.1876 0-.3374.2893-.3374.2893v2.368-.0152l-.205.0007.0017.2989c.1577-.0001.5407-.0814.5407-.1662zm.5698 3.5765s-.2926-.4598.0209-.7732h-.33c-.1324.5743.3091.7732.3091.7732zm2.0408-.5961s-.1576 0-.2737 0c-.0021.4266.4935.5881.4935.5881-.1747-.1738-.2943-.5147-.2198-.5881z" fill="#6a7ab5"/><path d="m12.8014 27.0532-.0182-.056-.0078-.0583c-.0268-.1996-.075-.5714-.3621-.6379-.0767-.0179-.156-.0087-.2406.0261.023-.0883.0203-.1683-.0075-.2416-.1058-.2752-.4804-.2717-.6817-.2691h-.0592l-.0583-.0108c-.1977-.0364-.5665-.1052-.7178.1473-.0407.0675-.0569.1456-.0499.2365-.0766-.0494-.1539-.0715-.2317-.0678-.2946.0157-.40725.3732-.4675.5656l-.01838.0559-.02733.0519c-.09653.1772-.27554.5058-.0822.7284.05164.0594.12111.0992.20984.1203-.07015.058-.11546.1245-.13525.2005-.07694.2842.22852.5016.39212.618l.048.0355.0413.0418c.1387.1466.3962.4181.6674.3032.0718-.0309.1313-.0845.179-.1622.0339.0848.0827.1477.1485.191.247.1601.5479-.0629.7097-.1819l.0479-.0351.0531-.026c.1818-.0871.5204-.2478.4948-.5414-.0068-.0787-.0397-.151-.0986-.2203.0906-.0054.1656-.0328.2265-.0822.2294-.1853.11-.5404.0459-.7314" fill="#fff"/><path d="m11.5109 27.2912c1.6481.9741 1.1405-.097 1.1043-.2554-.0365-.1579-.0503-1.3428-1.1043.2554z" fill="#ed1c24"/><path d="m11.4073 27.5352c-.4171 1.8676.4448 1.0546.5838.9718.1389-.0836 1.2615-.4633-.5838-.9718" fill="#ed1c24"/><path d="m11.1427 27.5125c-1.90592.1798-.8656.7486-.7435.8548.1226.1059.8299 1.0568.7435-.8548z" fill="#ed1c24"/><path d="m11.0829 27.2531c-.7607-1.7567-.9801-.5918-1.0435-.4422-.0633.1484-.74908 1.1156 1.0435.4422z" fill="#ed1c24"/><path d="m38.306 26.7951-.0272-.0519-.0187-.0559c-.0602-.1924-.1729-.5498-.4666-.5656-.0788-.0037-.1556.0183-.2322.0672.007-.0903-.0101-.1684-.0497-.2359-.152-.2527-.5203-.1838-.718-.1473l-.0589.0107h-.0589c-.2006-.0026-.5755-.006-.681.2692-.0286.0732-.0307.1533-.0082.2415-.0834-.0347-.1628-.0437-.2401-.026-.2868.0663-.3361.4382-.3614.6378l-.0088.0584-.0178.056c-.0644.1909-.1835.546.0459.7315.0609.0493.1353.0768.2265.0822-.0589.0693-.0917.1417-.0986.2204-.0254.2935.3127.4542.4948.5413l.0526.026.0478.0351c.1624.1191.4635.342.7098.182.0666-.0434.115-.1063.1485-.1911.048.0778.1069.1313.1794.1622.2711.1149.5289-.1565.6674-.3032l.0417-.0418.0473-.0354c.1641-.1164.4694-.3339.3927-.618-.0205-.0762-.0649-.1425-.1356-.2006.0884-.0211.1581-.0609.2095-.1203.1936-.2227.0149-.5512-.0822-.7285" fill="#fff"/><path d="m36.849 27.1168c-1.4352-1.2662-.2601-1.1151-.0985-1.1293.1608-.0135 1.2927-.3669.0985 1.1293z" fill="#ed1c24"/><path d="m36.6492 27.2912c-1.6481.9741-1.1415-.097-1.1046-.2554.0362-.1579.0498-1.3428 1.1046.2554z" fill="#ed1c24"/><path d="m36.7524 27.5352c.4173 1.8676-.4447 1.0546-.5839.9718-.1389-.0836-1.2611-.4633.5839-.9718" fill="#ed1c24"/><path d="m37.0167 27.5125c1.906.1798.8664.7486.7438.8548-.1218.1059-.8301 1.0568-.7438-.8548z" fill="#ed1c24"/><path d="m37.076 27.2531c.7612-1.7567.9801-.5918 1.0438-.4422.063.1484.7487 1.1156-1.0438.4422z" fill="#ed1c24"/><path d="m37.4463 27.3079c-.0018-.0153-.0067-.029-.0088-.0438.153-.1124.3184-.2328.3184-.2328l-.0159-.0356s-.1929.0336-.3779.0659c-.0928-.1522-.2511-.2554-.4323-.273-.0576-.173-.1151-.3493-.1151-.3493l-.0387.0033s-.0261.1837-.0523.3636c-.1114.03-.2113.0931-.2874.1833-.0405.0486-.0698.1036-.0931.161-.1863 0-.3832.0006-.3832.0006l-.0083.0384s.1836.0894.3532.1724c.0006.0155-.0014.0308 0 .0464.013.1494.0829.2835.1957.3813-.0595.1862-.1266.3943-.1266.3943l.0329.0199s.1546-.1602.2923-.3016c.0719.0237.1484.033.2257.0261.078-.0059.1519-.0293.219-.0641.1596.1149.3396.2451.3396.2451l.0295-.0254s-.1021-.1928-.193-.3655c.0943-.1165.1387-.2615.1263-.4106" fill="#fff"/><path d="m36.8461 27.0212c-.0904.007-.1718.0496-.2299.1195-.0581.0692-.0862.1566-.0779.2465.0157.186.1805.3244.3661.308.091-.0083.1717-.0508.2306-.1197.0576-.0698.0856-.1567.078-.2472-.0163-.1862-.1813-.324-.3669-.3071z" fill="#ed1c24"/><path d="m11.3107 27.1168c1.4357-1.2662.2598-1.1151.0987-1.1293-.1616-.0135-1.2932-.3669-.0987 1.1293z" fill="#ed1c24"/><path d="m11.8542 27.3619c.1708-.0829.3535-.1725.3535-.1725l-.0085-.0384s-.1965-.0006-.3833-.0006c-.0227-.0573-.0521-.1124-.0928-.1609-.0759-.0902-.1758-.1532-.2875-.1834-.0255-.18-.0516-.3635-.0516-.3635l-.0394-.0033s-.0572.1761-.1139.3493c-.1823.0176-.3408.1208-.4335.273-.1843-.0323-.3783-.0659-.3783-.0659l-.0149.0356s.1649.1204.3179.2328c-.0025.0149-.007.0286-.0086.0437-.0126.1499.0328.2941.127.4106-.0917.1725-.1938.3655-.1938.3655l.0303.0254s.1796-.1302.3391-.2451c.0671.035.1409.0575.2187.0641.0779.007.1543-.0024.2262-.0261.1372.1415.2916.3016.2916.3016l.0339-.0199s-.0672-.2082-.1271-.3938c.1126-.0984.1825-.2325.1958-.3819.0016-.0155-.0008-.0307-.0008-.0462" fill="#fff"/><path d="m11.5436 27.1407c-.0583-.0699-.1393-.1127-.2301-.1195-.1854-.0169-.3504.1209-.3666.3071-.0076.0905.0203.1774.0778.2472.0582.069.14.1114.2303.1197.1854.0165.3504-.122.3665-.308.0076-.0899-.0202-.1773-.0779-.2465" fill="#ed1c24"/><path d="m11.5205 19.1521c-.8023-.1417-1.57065.397-1.71243 1.1993-.14157.8029.39643 1.5712 1.19893 1.7129.8031.1416 1.5717-.3967 1.713-1.1995.1421-.8025-.3963-1.5707-1.1995-1.7127" fill="#fff"/><path d="m11.8552 20.2704c-.0129-.0079-.0356-.0226-.063-.0407-.1212-.0804-.3589-.2376-.3654-.2423-.033-.0226-.065-.0441-.0966-.0654-.1057-.0708-.2002-.1324-.289-.1837-.0343-.0195-.0674-.0377-.1008-.0539-.1413-.0713-.2767-.1144-.4366-.1285-.1232.089-.2302.1992-.3168.3266.3676.1327.7265.3453 1.4739.8095.0427-.0988.1858-.4031.1943-.4216" fill="#ed1c24"/><path d="m11.5107 21.0629c.0149-.0372.0806-.2035.1075-.2675-.7659-.4758-1.1216-.6863-1.49-.8165-.0571.1026-.1.2145-.1279.3337.2103.2887.7739.5724 1.5104.7503z" fill="#ed1c24"/><path d="m11.4277 19.8539c.2868-.1696.6126-.1234.8641-.0376-.0938-.1211-.2074-.2269-.3394-.3093-.2376-.0473-.5657-.0547-.8269.1529.095.0558.1931.1209.3022.194z" fill="#ed1c24"/><path d="m10.2834 21.2241c.0384.0264.0777.0514.1195.0749.0844.0467.1759.087.2703.1215.0401.0152.0808.0292.1218.0425.1437.0472.4734.1329.4979.1386.0051-.0126.1286-.3181.1755-.4342-.571-.1416-1.1963-.3895-1.49336-.7118-.01784.1488-.01091.296.02053.4357.06263.1365.16333.2453.28783.3328" fill="#ed1c24"/><path d="m11.3122 21.721-.1192-.0307c-.1105-.0281-.2302-.0596-.352-.0969.0594.1265.1528.2252.2524.3015.1335.0177.2653.0143.3919-.0075-.0915-.0712-.1731-.1665-.1731-.1665" fill="#ed1c24"/><path d="m12.5064 20.2311c-.0271-.0887-.0627-.1746-.1075-.2546-.2251-.1004-.568-.1985-.8674-.052l.413.2727c.0861-.0076.1653-.01.2378-.0082.0396.0006.0764.0027.1115.0061.0809.0072.1499.0202.2126.036" fill="#ed1c24"/><path d="m12.2949 20.3066c-.012.6787-.332 1.2022-.6077 1.5297.4316-.15.7719-.5219.8568-1.0024.0291-.1641.024-.3256-.0064-.4793-.0671-.0209-.1473-.0383-.2427-.048" fill="#ed1c24"/><path d="m11.0224 19.6024c.1933-.1704.4215-.2279.632-.2327-.0534-.0171-.1079-.0318-.1646-.0414-.3002-.053-.5938.0028-.8433.1379.1329.026.2529.0726.3759.1362z" fill="#ed1c24"/><path d="m11.9602 20.3073c-.0982.2046-.1559.3299-.2039.4438-.0147.0346-.029.0681-.0435.103-.0229.0571-.0935.2348-.0935.2348l-.042.1042-.1824.4518c.0503.0667.1112.1211.1711.1636.271-.3091.6082-.8285.6185-1.5084-.0682-.0024-.1432.0001-.2243.0072" fill="#ed1c24"/><path d="m10.7044 21.5485c-.091-.0313-.1818-.067-.2676-.1088.0321.099.0783.1868.1248.2622.0972.0624.204.1116.318.1468-.0739-.0832-.1376-.1817-.1752-.3002z" fill="#ed1c24"/><path d="m10.303 21.3665c-.0617-.0369-.119-.078-.1721-.1232.0601.1075.1358.206.2237.2925-.0209-.0539-.0392-.1097-.0516-.1693" fill="#ed1c24"/><path d="m35.2794 20.8648c.1418.8028.9099 1.3411 1.7125 1.1995.8028-.1417 1.3407-.91 1.1997-1.7129-.1417-.8023-.9101-1.341-1.713-1.1993-.8028.1419-1.3407.9101-1.1992 1.7127" fill="#fff"/><path d="m36.144 20.2704c.0128-.0079.0355-.0226.0635-.0407.1214-.0804.3587-.2376.3648-.2423.0336-.0226.0657-.0441.0972-.0654.1046-.0708.1999-.1324.2889-.1837.0342-.0195.0677-.0377.1004-.0539.141-.0713.2772-.1144.4368-.1285.1232.089.2306.1992.3161.3266-.3674.1327-.7253.3453-1.4736.8095-.0429-.0988-.1852-.4031-.1941-.4216" fill="#ed1c24"/><path d="m36.4889 21.0629c-.0151-.0372-.0814-.2035-.1068-.2675.7644-.4758 1.1212-.6863 1.4893-.8165.0569.1026.0999.2145.1279.3337-.2106.2887-.7741.5724-1.5104.7503" fill="#ed1c24"/><path d="m36.5718 19.8539c-.287-.1696-.6126-.1234-.8645-.0376.0939-.1211.2082-.2269.3402-.3093.2373-.0473.5652-.0547.8261.1529-.0943.0558-.193.1209-.3018.194z" fill="#ed1c24"/><path d="m37.7154 21.2241c-.0375.0264-.0767.0514-.1192.0749-.084.0467-.1753.087-.2696.1215-.0404.0152-.0814.0292-.1224.0425-.1429.0472-.4729.1329-.4977.1386-.0055-.0126-.1293-.3181-.1753-.4342.5708-.1416 1.1956-.3895 1.4936-.7118.0178.1488.0101.296-.0208.4357-.0629.1365-.1633.2453-.2886.3328" fill="#ed1c24"/><path d="m36.6876 21.721.1183-.0307c.1108-.0281.2313-.0596.3532-.0969-.0603.1265-.1533.2252-.2528.3015-.1332.0177-.2654.0143-.3913-.0075.0904-.0712.1726-.1665.1726-.1665" fill="#ed1c24"/><path d="m35.493 20.2311c.0274-.0887.0624-.1746.1082-.2546.2245-.1004.5666-.1985.8662-.052l-.4126.2727c-.0862-.0076-.1654-.01-.2381-.0082-.039.0006-.076.0027-.1116.0061-.0807.0072-.149.0202-.2121.036" fill="#ed1c24"/><path d="m35.7046 20.3066c.0117.6787.3325 1.2022.6085 1.5297-.4328-.15-.7735-.5219-.8575-1.0024-.0288-.1641-.0247-.3256.0067-.4793.0665-.0209.1472-.0383.2423-.048" fill="#ed1c24"/><path d="m36.9775 19.6024c-.1934-.1704-.4222-.2279-.6323-.2327.0532-.0171.1074-.0318.1647-.0414.2999-.053.5935.0028.8428.1379-.1323.026-.2526.0726-.3752.1362z" fill="#ed1c24"/><path d="m36.0393 20.3073c.0985.2046.1552.3299.2047.4438.0143.0346.0279.0681.0424.103.0233.0571.0938.2348.0938.2348l.0418.1042.1827.4518c-.0506.0667-.111.1211-.1711.1636-.2709-.3091-.6087-.8285-.6182-1.5084.0679-.0024.1432.0001.2239.0072" fill="#ed1c24"/><path d="m37.2952 21.5485c.091-.0313.1812-.067.2677-.1088-.0329.099-.0782.1868-.1254.2622-.0971.0624-.2039.1116-.3174.1468.0737-.0832.1374-.1817.1751-.3002z" fill="#ed1c24"/><path d="m37.6969 21.3665c.0609-.0369.1184-.078.1718-.1232-.0603.1075-.1355.206-.2237.2925.0205-.0539.0389-.1097.0519-.1693" fill="#ed1c24"/></svg>