<svg fill="none" height="48" viewBox="0 0 48 48" width="48" xmlns="http://www.w3.org/2000/svg"><path d="m24.3433 41.2315c7.4429 0 13.4766-6.0336 13.4766-13.4766 0-7.4429-6.0337-13.4766-13.4766-13.4766-7.443 0-13.4767 6.0337-13.4767 13.4766 0 7.443 6.0337 13.4766 13.4767 13.4766z" fill="#fff"/><path d="m20.4476 16.0025-1.9369-4.856.862-1.37489 6.1491.54019 3.6065.8347.6602 1.315-1.6696 3.541-7.6658.5238z" fill="#fff"/><path d="m24.2996 42.0444c-7.9168 0-14.33866-6.4163-14.33866-14.3386 0-6.0727 3.77566-11.2669 9.11176-13.3566l-.0055-.0055c-.12-.1473-.2401-.3001-.3492-.4637-.6929-1.0258-.873-3.11.6547-4.11395 1.3859-.91117 3.0555-.25644 3.2955-.15277v-.01091c.0328-.87298.7475-1.57136 1.626-1.57136.8784 0 1.5986.69838 1.6259 1.57136v.01091c.2455-.10367 1.9096-.75294 3.2955.15277 1.5277 1.00395 1.3476 3.08815.6547 4.11395-.1091.1636-.2291.3164-.3492.4637l-.0054.0055c5.336 2.0897 9.1117 7.2785 9.1117 13.3566.0054 7.9223-6.411 14.3386-14.3278 14.3386zm0-1.2876c7.1966 0 13.0511-5.8544 13.0511-13.051s-5.8545-13.0511-13.0511-13.0511c-7.1966.0055-13.051 5.8545-13.051 13.0511s5.8544 13.051 13.051 13.051zm0-30.2433c-.1691 0-.3164.1419-.3983.3492h-.0054c-.1637-.1036-.9549-.5729-1.9206-.2182h-.0054c-.382-.1146-1.1622-.2455-1.8497.2401-.9275.6547-.7311 2.0515-.2728 2.7771.3983.6329.9603 1.1731 1.2167 1.4022l.0055.0055.0327.4038c1.0203-.2838 2.0897-.4365 3.1973-.4365s2.177.1527 3.1973.4365l.0327-.4038.0055-.0055c.251-.2291.8184-.7693 1.2167-1.4022.4583-.7256.6547-2.1224-.2728-2.7771-.6875-.4856-1.4677-.3492-1.8496-.2401h-.0055c-.9657-.3492-1.7568.1146-1.9205.2182h-.0055c-.0873-.2128-.2346-.3492-.3983-.3492z" fill="#000"/><path d="m24.2995 8.0364c.8785 0 1.5987.69838 1.626 1.57136v.01091c.1473-.06001.8075-.32191 1.615-.32191.5347 0 1.1294.11458 1.6859.47468 1.5277 1.00396 1.3477 3.08816.6547 4.11396-.1091.1636-.2291.3164-.3491.4637l-.0055.0055c5.3361 2.0897 9.1117 7.2784 9.1117 13.3566 0 7.9168-6.4164 14.3386-14.3387 14.3386-7.9168-.0054-14.33864-6.4218-14.33864-14.3441 0-6.0727 3.77564-11.2669 9.11174-13.3566l-.0055-.0054c-.12-.1473-.24-.3001-.3492-.4638-.6929-1.0257-.8729-3.11.6548-4.11391.551-.36011 1.1512-.47468 1.6859-.47468.8075 0 1.4677.26189 1.615.32191v-.01092c.0273-.86752.742-1.5659 1.6259-1.5659zm.3983 2.8263c-.0818-.2128-.2291-.3492-.3983-.3492-.1691 0-.3164.1418-.3983.3492h-.0054c-.12-.0764-.5784-.3492-1.1949-.3492-.2237 0-.4692.0382-.7257.1309h-.0054c-.1746-.0491-.4256-.1036-.7202-.1036-.3492 0-.753.0818-1.1294.3437-.9276.6547-.7312 2.0515-.2729 2.7772.3983.6329.9603 1.173 1.2168 1.4022l.0054.0054c-5.6416 1.4405-9.821 6.5637-9.821 12.6473 0 7.1966 5.8544 13.0511 13.051 13.0511 7.1967 0 13.0511-5.8545 13.0511-13.0511 0-6.0836-4.1794-11.2068-9.821-12.6473l.0054-.0054c.251-.2292.8184-.7693 1.2167-1.4022.4583-.7257.6548-2.1225-.2728-2.7772-.3764-.2674-.7802-.3437-1.1294-.3437-.2892 0-.5456.0545-.7202.1036h-.0055c-.2564-.0927-.5019-.1309-.7256-.1309-.622 0-1.0803.2673-1.2004.3492zm-.3983 3.7974c1.1131 0 2.1934.1419 3.2301.4038l-.0328.4037c-1.0203-.2837-2.0897-.4365-3.1973-.4365s-2.177.1528-3.1972.4365l-.0328-.4037c1.0312-.2674 2.117-.4038 3.23-.4038zm0-7.44758c-.6383 0-1.2494.24553-1.7077.69293-.2074.19642-.371.43103-.4965.67656-.3001-.06547-.6548-.10912-1.0367-.10912-.7966 0-1.5168.20733-2.1388.61108-.7748.50742-1.2822 1.26583-1.4677 2.19883-.18.8948-.0327 1.9151.371 2.7117-1.0421.491-2.0296 1.1076-2.9354 1.8278-1.173.9275-2.1933 2.0187-3.0499 3.2464-1.7678 2.5371-2.70627 5.527-2.70627 8.637 0 2.0461.40375 4.0321 1.18947 5.9035.7638 1.806 1.855 3.4265 3.2518 4.8178s3.0118 2.488 4.8178 3.2518c1.8714.7912 3.8574 1.1895 5.9035 1.1895 2.046 0 4.0321-.4038 5.9035-1.1895 1.806-.7638 3.4264-1.8551 4.8178-3.2518 1.3913-1.3913 2.4879-3.0118 3.2518-4.8178.7911-1.8714 1.1894-3.8574 1.1894-5.9035 0-3.11-.933-6.0999-2.7007-8.6425-.8512-1.2276-1.8769-2.3188-3.05-3.2464-.9112-.7202-1.8933-1.3313-2.9354-1.8278.4037-.7966.5511-1.8169.371-2.7117-.1855-.933-.6929-1.69136-1.4677-2.19878-.622-.40376-1.3367-.61109-2.1388-.61109-.3819 0-.7366.04911-1.0366.10912-.1255-.25098-.2892-.48013-.4966-.67655-.4583-.44195-1.0639-.68748-1.7023-.68748zm.0219 4.82318.7856-.4528h.0055l.0218-.0109.0219-.0109c.0327-.0219.3382-.2128.742-.2128.1473 0 .2946.0272.4419.0818l.0273.0109.0273.0055h.0054l.2347.0654.2346-.0709c.1146-.0327.2891-.0709.4856-.0709.2564 0 .4692.0655.6547.1964.4965.3492.2946 1.2658.0491 1.6587-.2292.3601-.5292.6984-.7639.933-.9804-.2139-1.981-.3219-2.9844-.3219-1.004 0-2.0079.1091-2.9845.3219-.2401-.2401-.5402-.5729-.7639-.933-.2455-.3929-.4474-1.3095.0491-1.6587.1855-.1309.3983-.1964.6547-.1964.1965 0 .3711.0382.4856.0709l.2346.0709.2347-.0654h.0054l.0273-.0055.0273-.0109c.1418-.0546.2946-.0818.4419-.0818.4038 0 .7093.1909.7421.2128l.0218.0109.0218.0109h.0055l.7856.4528.011.0219.0163-.011.0164.011zm-3.9721 4.5013.9712-.2728c.9657-.2673 1.9642-.4037 2.9736-.4037s2.0078.1364 2.9736.4037l.9712.2728.0272-.3874c.9549.3274 1.8606.7748 2.7117 1.3313 1.1131.7312 2.0897 1.6314 2.9136 2.6735.8293 1.0531 1.4786 2.2261 1.926 3.4865.4583 1.304.6929 2.668.6929 4.0648 0 6.7383-5.4834 12.2217-12.2217 12.2217s-12.2217-5.4834-12.2217-12.2217c0-1.3913.2346-2.7608.6929-4.0648.4475-1.2604 1.0913-2.4334 1.9261-3.4865.8238-1.0475 1.8059-1.9423 2.9135-2.6735.8512-.5565 1.7569-1.0039 2.7117-1.3313z" fill="#fff"/><path d="m22.2372 18.2721-.1528-.7202-.2073.0437-.0218-.1037.0164-.0055c.0927-.0218.2018-.0654.2018-.1964l-.0054-.0218.1146-.0273.2127.993zm1.0858-.4583c-.0109-.1473.0545-.2401.1582-.2619v-.0054c-.0873-.0219-.1473-.0873-.1528-.2074-.0109-.1582.0873-.2619.2565-.2728.1691-.0109.2782.0764.2891.2346.0055.1201-.0381.191-.1254.2292v.0054c.1036.011.18.0928.1909.2401.0109.1964-.0764.311-.2837.3219-.2128.0109-.3219-.0873-.3328-.2837zm.2837-.3328c.1037-.0055.12-.0819.1146-.1637-.0055-.0818-.0382-.1473-.1364-.1419-.1037.0055-.1201.0819-.1146.1583.0055.0873.0382.1582.1364.1473zm.0327.4965c.1146-.0055.1364-.0928.131-.2019-.0055-.1091-.0437-.191-.1528-.18-.1146.0054-.1364.0927-.1309.2018.0054.1037.0382.191.1527.1801zm1.2768-.131c-.0055.0601.0163.131.0982.1419.1527.0109.1746-.191.1855-.3383l-.0055-.0054c-.0436.0709-.1145.0982-.2073.0927-.1364-.0109-.2401-.12-.2292-.3219.0164-.2346.1255-.3656.3383-.3492.2565.0164.2892.2183.2674.5074-.0219.3001-.0982.5402-.3656.5238-.1746-.0109-.2673-.0982-.2564-.2673zm.1637-.6656c-.0983-.0055-.1419.0873-.1528.2073-.0109.1419.0273.2237.12.2292.12.0109.1473-.0928.1582-.2128.011-.12-.0272-.2128-.1254-.2237zm1.2603 1.0858.1582-.7202-.2073-.0437.0218-.1037.0164.0055c.0928.0218.2128.0218.2674-.0982l.0054-.0218.1146.0272-.2183.9876z" fill="#000"/><path d="m24.4742 9.97886v.28914c0 .0219-.0164.0382-.0382.0382h-.2783c-.0218 0-.0382-.0163-.0382-.0382v-.30005h-.3001c-.0218 0-.0382-.01637-.0382-.03819v-.27826c0-.02183.0164-.0382.0382-.0382h.3001v-.30008c0-.02183.0164-.0382.0382-.0382h.2783c.0218 0 .0382.01637.0382.0382v.30554h.3001c.0218 0 .0382.01637.0382.03819v.27826c0 .02183-.0164.0382-.0382.0382h-.3001z" fill="#fff"/><path d="m24.2996 12.8378c.3405 0 .6165-.276.6165-.6165s-.276-.6166-.6165-.6166-.6166.2761-.6166.6166.2761.6165.6166.6165z" fill="#000"/><path d="m24.2996 13.8254c.1869 0 .3383-.1515.3383-.3383s-.1514-.3383-.3383-.3383c-.1868 0-.3382.1515-.3382.3383s.1514.3383.3382.3383z" fill="#000"/><path d="m24.2996 15.7513c.1296 0 .2346-.105.2346-.2346s-.105-.2346-.2346-.2346-.2346.105-.2346.2346.105.2346.2346.2346z" fill="#000"/><path d="m21.7407 16.0024c.1296 0 .2346-.105.2346-.2346s-.105-.2346-.2346-.2346-.2346.105-.2346.2346.105.2346.2346.2346z" fill="#000"/><path d="m14.6587 32.3653-.1528-.3765c.0218-.0054.0382-.0109.0491-.0163.2674-.1092.3656-.2565.2892-.4474-.0437-.1037-.1091-.1637-.2019-.1801-.06-.0109-.1146-.0054-.1746.0109-.0546.0164-.1146.0382-.1855.0655l-.7639.311c-.1636.0655-.2728.1255-.3273.18-.0819.0819-.0982.1801-.0491.3056.0764.1964.2673.2291.5674.1091.0109-.0054.0327-.0109.06-.0218l.1528.3765c-.0382.0163-.0655.0272-.0873.0327-.2237.0873-.4201.1146-.5838.0709-.1964-.0491-.3437-.1964-.442-.431-.1036-.251-.0927-.4692.0382-.6493.0655-.0927.1474-.1691.251-.2237.0873-.0436.191-.0927.3165-.1473l.6383-.2564c.2183-.0873.382-.1364.4747-.1419.1746-.0109.3219.0436.442.1528.0818.0764.1527.1746.2018.3001.0819.2073.0873.3928.0164.5565-.0764.1691-.2291.3001-.4583.3928-.0109.0055-.0382.0164-.0709.0273zm1.2494.5402-1.7896 1.1457.4365.6821-.3001.1909-.6547-1.0257 2.0897-1.3368zm1.3695 1.7405.2783.2946-1.2277 1.1458c-.1473.1364-.2673.2237-.3655.2619-.2565.1036-.4965.0382-.7202-.2019-.1637-.1801-.2346-.3601-.2074-.5511.0164-.1091.0546-.2073.1255-.2892.06-.0763.131-.1582.2183-.24l1.2276-1.1458.2783.2946-1.2768 1.2004c-.1036.0982-.1637.18-.1855.251-.0218.0873 0 .1636.0764.2455.0709.0764.1528.1091.2401.0927.0709-.0109.1582-.0709.2619-.1637zm-.6602 2.7553 1.4295-2.0242.4965.3492c.191.1309.311.2782.3601.4365.0546.1746.0273.3492-.0982.5237-.0927.1364-.2128.2128-.3492.2401-.0927.0164-.1964.0055-.3219-.0382.0928.1091.1473.2074.1692.2947.0381.1582.0054.3164-.1092.4746-.1255.1801-.2891.2783-.4801.3001-.1801.0164-.3656-.0382-.562-.18zm.5347-.06.1692.12c.1091.0764.2127.1091.3055.0982s.1691-.06.2292-.1473c.0654-.0927.0873-.1964.0709-.3055-.0218-.1146-.0873-.2128-.2128-.3001l-.12-.0873zm.6438-.9057.1201.0873c.1036.0709.2018.1036.3001.0927.0927-.0109.1746-.06.2346-.1418.0545-.0764.0709-.1583.0491-.2401-.0164-.0764-.0873-.1582-.1964-.2346l-.1255-.0928zm1.7896 2.7117.8185-2.3407.5729.2019c.2182.0763.371.1855.4692.3219.1036.1527.12.3328.0545.5292-.0545.1528-.1473.2619-.2728.3274-.0818.0436-.1909.06-.3164.0491.12.0818.2019.1582.2455.2346.0818.1364.0928.3001.0273.491-.0709.2074-.1964.3492-.3819.4202-.1637.0654-.3601.06-.5893-.0164zm.502-.2019.191.0655c.1309.0436.2346.0491.3219.0109s.1473-.1037.18-.2019c.0382-.1091.0328-.2128-.0163-.311-.0491-.1037-.1474-.1801-.2892-.2292l-.1419-.0491zm.3656-1.053.1418.0491c.1201.0436.2237.0436.3165.0054.0873-.0382.1473-.1037.1855-.2019.0327-.0873.0218-.1691-.0218-.2455-.0382-.0709-.1255-.1255-.2565-.1691l-.1473-.0491zm2.0678 1.0202-.1364 1.004-.4037-.0546.3328-2.4607.6329.0873c.2237.0327.3874.1037.4965.2182.1364.1474.191.3438.1582.5893-.0436.311-.1909.5129-.4419.5947l.2346 1.1622-.4256-.0546-.2073-1.053zm.0491-.3546.1474.0218c.1145.0164.1909.0164.2455.0055.1255-.0328.2019-.1364.2291-.3219.0164-.1364 0-.2346-.06-.3056-.0327-.0436-.0764-.0709-.1309-.0873-.0491-.0163-.1092-.0273-.1746-.0327l-.1473-.0218zm2.7554-1.0258.4037-.0327.1255 1.675c.0164.2019.0055.3492-.0218.4474-.0818.2674-.2837.4147-.6111.4365-.2401.0164-.4256-.0436-.5565-.18-.0764-.0819-.1255-.1746-.1473-.2783-.0219-.0927-.0382-.2019-.0491-.3219l-.1255-1.675.4037-.0328.131 1.7405c.0109.1419.0382.2401.0818.3001.0491.071.131.1037.2401.0928.1091-.0055.18-.0491.2237-.1255.0327-.0655.0436-.1637.0327-.3056zm2.0569.8676.7148-.2074.3437 1.1786-.2019.06-.1254-.1801c-.0328.0819-.071.1473-.1146.1964-.071.0819-.1692.1419-.2947.1801-.1582.0436-.3.0382-.431-.0164-.1364-.0545-.2455-.1691-.3274-.3328-.0381-.0818-.0873-.2073-.1364-.3765l-.1909-.6602c-.0655-.2291-.0982-.3928-.0928-.491.0055-.1746.071-.3165.1964-.4256.0873-.0764.191-.1309.322-.1691.2782-.0819.5074-.0328.6874.1473.0928.0927.1746.251.2346.4692l-.3928.1146c-.0437-.1419-.0873-.2401-.1364-.2946-.0818-.0928-.1801-.1201-.3001-.0873-.1091.0327-.1746.0982-.1964.1909-.0109.0546-.0109.1146 0 .1746.0109.0546.0273.1146.0491.191l.2128.7311c.0491.1746.1036.3001.1528.371.0763.1091.1855.1419.3164.1037.1146-.0327.1801-.1037.1964-.2128.0109-.0818 0-.1964-.0436-.3437l-.0273-.0982-.3219.0927zm2.0297-.813.6602-.3437.5674 1.0912-.1855.0982-.1582-.1528c-.0164.0873-.0382.1583-.0709.2128-.0546.0982-.1419.1746-.251.2292-.1419.0764-.2892.0982-.4256.0709-.1473-.0273-.2728-.1146-.3874-.2619-.0545-.0709-.1255-.1855-.2073-.3437l-.3165-.6056c-.1091-.2128-.1746-.3656-.1855-.4638-.0272-.1692.0109-.3219.1092-.4529.0709-.0927.1636-.1691.2782-.2291.2565-.1364.4911-.131.7039.0054.1091.0764.2182.2128.3219.4092l-.3601.191c-.071-.131-.131-.2183-.191-.2619-.0982-.0709-.2019-.0818-.311-.0273-.1037.0546-.1528.131-.1582.2237 0 .06.0109.1146.0327.1692.0218.0491.0491.1091.0819.1746l.3491.6711c.0873.1636.1583.2782.2237.3382.0983.0928.2074.1037.3329.0382.1036-.0545.1527-.1364.1527-.2455-.0054-.0818-.0382-.191-.1091-.3274l-.0436-.0873-.2947.1528zm1.495-2.5207.2237.2782-.6166.4856.4038.5129.4529-.3546.2237.2782-.4529.3547.4692.5947.6166-.4856.2237.2783-.933.7365-1.5332-1.9478zm1.0421-1.1185.191-.2674.993.6984.0054-.0054-.4637-1.4514.2073-.3001.3928 1.2604 1.6914.1255-.2073.3001-1.3968-.1091.131.431.6984.491-.191.2674zm1.0858-1.6041.1364-.3165 2.1824.3601.0055-.0054-1.7733-1.3204.1364-.3165 2.0406 1.5932-.1637.382zm-8.7353-15.8173c.9221 0 1.8005-.06 2.6081-.1746.24-.0327.1964-.0928-.0164-.131-.8403-.1473-1.7078-.2237-2.5917-.2237-.8893 0-1.7568.0764-2.5916.2237-.2128.0382-.251.0983-.0164.131.8075.1146 1.6859.1746 2.608.1746zm9.1227 11.1796c0 5.0414-4.0867 9.1226-9.1227 9.1226s-9.1281-4.0812-9.1281-9.1226c0-5.0415 4.0867-9.1227 9.1227-9.1227 5.0414 0 9.1281 4.0867 9.1281 9.1227zm-9.1227 8.0205c4.4195 0 8.0151-3.5956 8.0151-8.0151 0-4.4194-3.5956-8.015-8.0151-8.015-4.4194 0-8.015 3.5956-8.015 8.015-.0055 4.4195 3.5956 8.0151 8.015 8.0151z" fill="#000"/><path d="m24.2996 35.3826c4.2397 0 7.6767-3.437 7.6767-7.6768 0-4.2397-3.437-7.6767-7.6767-7.6767-4.2398 0-7.6768 3.437-7.6768 7.6767 0 4.2398 3.437 7.6768 7.6768 7.6768z" fill="#0078bf"/><g fill="#000"><path d="m26.2147 35.1479c-.6111.1582-1.2549.24-1.9151.24-.6329 0-1.2549-.0763-1.8442-.2237l.0055-.0054 9.2863-9.2863.0054-.0055c.1474.5893.2237 1.2058.2237 1.8442 0 .6602-.0818 1.304-.24 1.9151l-.0055.0054-5.5107 5.5107zm-6.3291-1.1567c-.7257-.5129-1.3586-1.1458-1.8715-1.8715l.0055-.0054 10.6831-10.6831.0054-.0109c.7257.5129 1.3586 1.1458 1.8715 1.8714l-.0055.0055-10.6831 10.6885zm-3.0445-4.4413c-.1473-.5893-.2237-1.2058-.2237-1.8442 0-.6602.0818-1.304.24-1.9151h.0055l5.5107-5.5107.0054-.0054c.6111-.1582 1.2549-.2401 1.9206-.2401.6329 0 1.2549.0764 1.8442.2237l-.0055.0055-9.2918 9.2808z"/><path d="m23.072 15.7678c.1055 0 .191-.0855.191-.191 0-.1054-.0855-.1909-.191-.1909s-.191.0855-.191.1909c0 .1055.0855.191.191.191z"/><path d="m21.7516 14.3984c-.1364.0272-.2728.0545-.4147.0873-.2619-.2456-.6765-.6711-.9712-1.1458-.2946-.4692-.5074-1.5223.1092-1.9588.2291-.1582.4746-.2182.7038-.2291v.0054c-.7966.8676-.2073 2.2152.0818 2.6244.1855.2674.3547.4693.4911.6166z"/><path d="m22.2536 14.0436c-.1201-.12-.3001-.3273-.4965-.611-.1201-.1746-.3438-.6057-.3656-1.0422-.0218-.4528.1801-.8511.4801-1.0257.6548-.3929 1.2386-.2183 1.5223-.0873l.0055.0054c-.3001.0819-.8676.322-.9549.9603-.1145.8566.5729 1.686.8239 1.9588h-.0054c-.2619.0218-.5184.0491-.7748.0818.0054-.0054-.1473-.1473-.2346-.2401z"/><path d="m26.8531 16.0024c.1296 0 .2346-.105.2346-.2346s-.105-.2346-.2346-.2346-.2346.105-.2346.2346.105.2346.2346.2346z"/><path d="m25.5218 15.7678c.1055 0 .191-.0855.191-.191 0-.1054-.0855-.1909-.191-.1909-.1054 0-.1909.0855-.1909.1909 0 .1055.0855.191.1909.191z"/><path d="m26.8476 14.3984c.1364.0272.2728.0545.4147.0873.2619-.2456.6765-.6711.9712-1.1458.2946-.4692.5074-1.5223-.1092-1.9588-.2291-.1582-.4747-.2182-.7038-.2291v.0054c.7966.8676.2073 2.2152-.0819 2.6244-.1855.2674-.3546.4693-.491.6166z"/><path d="m26.3402 14.0436c.12-.12.3001-.3273.4965-.611.12-.1746.3437-.6057.3655-1.0422.0219-.4528-.18-.8511-.4801-1.0257-.6547-.3929-1.2385-.2183-1.5222-.0873l-.0055.0054c.3001.0819.8675.322.9548.9603.1146.8566-.5729 1.686-.8239 1.9588h.0055c.2619.0218.5183.0491.7748.0818-.0055-.0054.1473-.1473.2346-.2401z"/></g><path d="m18.7944 18.7141c.0109.0054.0109.0109 0 .0218-.06.06-.3328.3055-.7638.3492-.4256.0436-.6384-.0873-.6929-.1255-.011-.0055-.0055-.0164 0-.0218.0709-.0546.371-.2892.7147-.3328.3874-.0491.6766.0763.742.1091zm-4.6649 9.9519c.0109-.0054.0163 0 .0163.0109.0109.0873.0491.4693-.1855.8621-.2291.3819-.4747.4856-.5401.5074-.011.0055-.0164 0-.0164-.0163-.0055-.0928-.0109-.4911.1691-.813.2019-.3546.4911-.5183.5566-.5511zm-1.9315.3329c-.0109 0-.0164.0054-.0164.0163.0109.0873.0819.4638.4092.7748.3219.3055.5784.3383.6439.3383.0109 0 .0109-.0055.0109-.0218-.0109-.1365-.0273-.3929-.3765-.7312-.2837-.2782-.5947-.3601-.6711-.3764zm-.0928-1.244c-.0109-.0055-.0163 0-.0163.0109.0054.0818.0436.4583.3382.7857.2892.3219.5402.3764.6002.3819.0109 0 .0164-.0055.0109-.0164 0-.1364 0-.3874-.311-.742-.2509-.2946-.551-.3983-.622-.4201zm1.9588-.1201c.0109-.0054.0164 0 .0164.0109.0054.0873 0 .4638-.2729.8239-.2618.3492-.5128.4256-.5783.4365-.0109 0-.0164-.0055-.0164-.0164.0055-.0927.0382-.4801.2456-.7747.2346-.3274.5347-.4529.6056-.4802zm-.0437-1.1403c.0109-.0055.0164 0 .0164.0109-.0055.0819-.0327.4474-.3165.7802-.2782.3219-.5237.3765-.5892.3874-.0109 0-.0164-.0054-.0164-.0163.0109-.0873.0709-.4638.2892-.7312.251-.3001.5456-.4092.6165-.431zm.1965-1.0476c.0109 0 .0163.0055.0163.0164-.0109.0818-.0873.4365-.4092.7257-.3164.2782-.562.3055-.6274.3055-.011 0-.0164-.0055-.011-.0218.0219-.0873.1255-.442.3765-.682.2783-.2619.5838-.3274.6548-.3438zm.3546-.9766c.0109 0 .0164.0054.0109.0164-.0218.0763-.1418.4201-.491.6711-.3438.24-.5838.24-.6493.2346-.0109 0-.0109-.0109-.0109-.0219.0327-.0818.18-.4255.4528-.6329.311-.2291.6166-.2619.6875-.2673zm.4965-.9439c.0109 0 .0164.0054.0109.0163-.0382.071-.2073.3929-.6002.5784-.3819.18-.6274.1309-.6874.1146-.0109-.0055-.0109-.0109-.0055-.0219.0437-.0763.251-.3873.5565-.5456.3383-.1746.6493-.1527.7257-.1418zm.4529-.8021c.0109 0 .0109.0109.0054.0164-.0436.0709-.2455.3819-.6602.5292-.4037.1474-.6492.0764-.7093.0546-.0109-.0055-.0109-.0109-.0054-.0218.0545-.071.2892-.3765.6165-.5074.3656-.1364.682-.0873.753-.071zm.5674-.8675c.0109.0055.0109.0109.0055.0218-.0491.0655-.2838.3547-.7148.4638-.4147.1037-.6493.0109-.7093-.0164-.0109-.0054-.0109-.0109 0-.0218.06-.0655.3274-.3437.6657-.4419.3764-.1146.682-.0328.7529-.0055zm.5402-.9166c.0109.0054.0109.0109.0054.0218-.0491.0655-.2892.3546-.7202.4638-.4201.1036-.6602.0109-.7147-.0219-.011-.0054-.011-.0109 0-.0218.06-.0655.3273-.3437.6711-.4419.3764-.1091.6874-.0219.7584 0zm.7693-.7748c.0109.0055.0109.0109.0054.0218-.0545.06-.311.3274-.7475.4038-.4255.0709-.6492-.0437-.7038-.0764-.0109-.0055-.0109-.0164 0-.0218.0655-.06.3492-.3165.6984-.3874.3819-.0764.682.0327.7475.06zm.7802-.7311c.0109.0054.0109.0109 0 .0218-.06.06-.3328.3056-.7639.3437-.4255.0382-.6383-.0873-.6929-.1254-.0109-.0055-.0054-.0164 0-.0219.0709-.0545.371-.2891.7148-.3328.3873-.0491.6765.0818.742.1146zm-.2837-1.0476c-.0055.0218.0054.0327.0218.0273.0982-.0055.4092-.0327.7257-.2455.3273-.2183.4474-.4911.4746-.562.0055-.0109 0-.0164-.0163-.0218-.0928-.0055-.4529-.0219-.7857.2182-.3165.2346-.3983.4965-.4201.5838zm-5.6962 7.9987c-.0109-.0055-.0164 0-.0164.0109-.0109.0818-.0545.4474.1637.8239.2128.3655.442.4692.502.491.0109.0055.0163 0 .0163-.0164.0273-.1309.0819-.371-.1473-.7747-.1909-.3383-.4528-.502-.5183-.5347zm.2291-1.2658c-.0109-.0055-.0163-.0055-.0163.0054-.0218.0819-.0928.442.0927.8348.1801.3874.3983.5074.4529.5292.0109.0055.0164 0 .0164-.0109.0382-.1255.1091-.3601-.0764-.7856-.1583-.3492-.4092-.5347-.4693-.5729zm.4147-1.1786c-.0054-.0054-.0164-.0054-.0164.0055-.0272.0764-.1473.4147-.0163.8239.1255.3983.3219.5401.3764.5729.011.0054.0164 0 .0219-.011.0545-.12.1527-.3382.0218-.7747-.1146-.3547-.3328-.5675-.3874-.6166zm.4692-1.1785c-.0054-.0054-.0163-.0054-.0163.0055-.0328.0764-.1746.4146-.0819.8348.0928.4146.2783.5729.3274.611.0109.0055.0164 0 .0218-.0109.06-.1145.1801-.3328.0819-.7856-.0819-.3765-.2838-.6057-.3329-.6548zm.6166-1.0257c-.0055-.0109-.0109-.0055-.0218 0-.0437.0709-.2347.3819-.2019.8129.0327.4201.1909.6057.2346.6493.0054.0055.0109.0055.0218-.0055.0764-.1091.2292-.3.2019-.7638-.0273-.3765-.1964-.6329-.2346-.6929zm.6165-1.004c-.0054-.0109-.0109-.0109-.0218 0-.0491.0655-.251.3711-.2401.8075.0109.4202.1637.6166.2074.6602.0054.0055.0109.0055.0218-.0054.0818-.1037.2401-.2892.2346-.753-.0055-.3819-.1582-.6492-.2019-.7093zm.6548-.9875c-.0055-.0109-.011-.0109-.0219 0-.0491.0655-.2673.3655-.2673.7966 0 .4201.1418.622.1855.6656.0054.0055.0109.0055.0218-.0054.0873-.0982.251-.2838.2564-.7475.011-.3765-.1364-.6493-.1745-.7093zm.802-.8948c-.0055-.0109-.0109-.0109-.0218 0-.0546.06-.3001.3437-.3383.7802-.0382.4256.0873.6384.1255.6875.0054.0109.0109.0054.0218-.0055.0982-.0927.2783-.2619.3274-.7256.0382-.3929-.0819-.6711-.1146-.7366zm.7802-.7857c-.0054-.0109-.0109-.0109-.0218 0-.06.06-.3055.3383-.3492.7748-.0436.4255.0819.6383.1146.6929.0054.0109.0109.0055.0218 0 .0982-.0928.2783-.2564.3383-.7202.0491-.3983-.0709-.682-.1037-.7475zm.9767-.6329c0-.0109-.0109-.0109-.0164-.0055-.0709.0491-.3656.2728-.4965.6875-.1255.4092-.0491.6438-.0218.6984.0054.0109.0109.0109.0218 0 .1146-.0709.3274-.1964.4692-.6438.1255-.3601.0655-.6657.0437-.7366zm12.0416 1.2822c-.0109.0054-.0109.0109 0 .0218.06.06.3328.3055.7639.3492.4256.0436.6383-.0873.6929-.1255.0109-.0055.0055-.0164 0-.0218-.0709-.0546-.371-.2892-.7147-.3328-.3874-.0491-.6766.0763-.7421.1091zm4.665 9.9519c-.0109-.0054-.0164 0-.0164.0109-.0109.0873-.0491.4693.1855.8621.2292.3819.4747.4856.5402.5074.0109.0055.0164 0 .0164-.0163.0054-.0928.0109-.4911-.1692-.813-.1964-.3546-.4856-.5183-.5565-.5511zm1.9315.3329c.0109 0 .0163.0054.0163.0163-.0109.0873-.0818.4638-.4092.7748-.3219.3055-.5783.3383-.6438.3383-.0109 0-.0109-.0055-.0109-.0218.0109-.1365.0273-.3929.3765-.7312.2837-.2782.5947-.3601.6711-.3764zm.0982-1.244c.0109-.0055.0163 0 .0163.0109-.0054.0818-.0436.4583-.3382.7857-.2892.3219-.5402.3764-.6002.3819-.0109 0-.0109-.0055-.0109-.0164 0-.1364 0-.3874.311-.742.251-.2946.5456-.3983.622-.4201zm-1.9588-.1201c-.0109-.0054-.0163 0-.0163.0109-.0055.0873 0 .4638.2728.8239.2619.3492.5128.4256.5783.4365.0109 0 .0164-.0055.0164-.0164-.0055-.0927-.0382-.4801-.2455-.7747-.2401-.3274-.5347-.4529-.6057-.4802zm.0382-1.1403c-.0109-.0055-.0163 0-.0163.0109.0054.0819.0327.4474.3164.7802.2783.3219.5238.3765.5893.3874.0109 0 .0163-.0054.0163-.0163-.0109-.0873-.0709-.4638-.2891-.7312-.2456-.3001-.5456-.4092-.6166-.431zm-.1964-1.0476c-.0109 0-.0164.0055-.0164.0164.011.0818.0873.4365.4092.7257.3165.2782.562.3055.6275.3055.0109 0 .0164-.0055.0109-.0218-.0218-.0873-.1255-.442-.3765-.682-.2782-.2619-.5783-.3274-.6547-.3438zm-.3546-.9766c-.011 0-.0164.0054-.011.0164.0219.0763.1419.4201.4911.6711.3437.24.5838.24.6493.2346.0109 0 .0109-.0109.0109-.0219-.0327-.0818-.1801-.4255-.4529-.6329-.311-.2291-.6165-.2619-.6874-.2673zm-.4911-.9439c-.0109 0-.0164.0054-.0109.0163.0382.071.2073.3929.6002.5784.3819.18.6274.1309.6874.1146.011-.0055.011-.0109.0055-.0219-.0437-.0763-.251-.3873-.5565-.5456-.3438-.1746-.6548-.1527-.7257-.1418zm-.4583-.8021c-.0109 0-.0109.0109-.0055.0164.0437.0709.2456.3819.6602.5292.4038.1474.6493.0764.7093.0546.0109-.0055.0109-.0109.0055-.0218-.0546-.071-.2892-.3765-.6166-.5074-.3655-.1364-.6765-.0873-.7529-.071zm-.5674-.8675c-.011.0055-.011.0109-.0055.0218.0491.0655.2837.3547.7148.4638.4146.1037.6492.0109.7093-.0164.0109-.0054.0109-.0109 0-.0218-.0601-.0655-.3274-.3437-.6657-.4419-.3765-.1146-.682-.0328-.7529-.0055zm-.5402-.9166c-.0109.0054-.0109.0109-.0055.0218.0492.0655.2892.3546.7203.4638.4201.1036.6601.0109.7147-.0219.0109-.0054.0109-.0109 0-.0218-.06-.0655-.3274-.3437-.6711-.4419-.371-.1091-.682-.0219-.7584 0zm-.7693-.7748c-.0109.0055-.0109.0109-.0055.0218.0546.06.311.3274.7475.4038.4256.0709.6493-.0437.7039-.0764.0109-.0055.0109-.0164 0-.0218-.0655-.06-.3492-.3165-.6984-.3874-.3765-.0764-.6766.0327-.7475.06zm-.7802-.7311c-.0109.0054-.0109.0109 0 .0218.06.06.3328.3056.7638.3437.4256.0382.6384-.0873.6929-.1254.011-.0055.0055-.0164 0-.0219-.0709-.0545-.371-.2891-.7147-.3328-.3874-.0491-.6711.0818-.742.1146zm.2837-1.0476c.0054.0218-.0055.0327-.0218.0273-.0982-.0055-.4092-.0327-.7257-.2455-.3274-.2183-.4474-.4911-.4747-.562-.0054-.0109 0-.0164.0164-.0218.0927-.0055.4528-.0219.7857.2182.3164.2346.4037.4965.4201.5838zm5.7016 7.9987c.0109-.0055.0164 0 .0164.0109.0109.0818.0546.4474-.1637.8239-.2128.3655-.4419.4692-.502.491-.0109.0055-.0163 0-.0163-.0164-.0273-.1309-.0819-.371.1473-.7747.1855-.3383.4529-.502.5183-.5347zm-.2291-1.2658c.0109-.0055.0163-.0055.0163.0054.0219.0819.0928.442-.0927.8348-.1801.3874-.3983.5074-.4529.5292-.0109.0055-.0163 0-.0163-.0109-.0382-.1255-.1092-.3601.0763-.7856.1583-.3492.4093-.5347.4693-.5729zm-.4147-1.1786c.0055-.0054.0164-.0054.0164.0055.0273.0764.1473.4147.0163.8239-.1254.3983-.3219.5401-.3764.5729-.0109.0054-.0164 0-.0219-.011-.0545-.12-.1527-.3382-.0218-.7747.1091-.3547.3274-.5675.3874-.6166zm-.4692-1.1785c.0054-.0054.0163-.0054.0163.0055.0328.0764.1746.4146.0819.8348-.0928.4146-.2783.5729-.3274.611-.0109.0055-.0163 0-.0218-.0109-.06-.1145-.1801-.3328-.0818-.7856.0763-.3765.2782-.6057.3328-.6548zm-.6166-1.0257c.0055-.0109.0109-.0055.0219 0 .0436.0709.2346.3819.2018.8129-.0327.4201-.1909.6057-.2346.6493-.0054.0055-.0109.0055-.0218-.0055-.0764-.1091-.2292-.3-.2019-.7638.0273-.3765.191-.6329.2346-.6929zm-.622-1.004c.0055-.0109.011-.0109.0219 0 .0491.0655.2509.3711.24.8075-.0109.4202-.1636.6166-.2073.6602-.0055.0055-.0109.0055-.0218-.0054-.0819-.1037-.2401-.2892-.2346-.753.0109-.3819.1636-.6492.2018-.7093zm-.6547-.9875c.0055-.0109.0109-.0109.0218 0 .0491.0655.2674.3655.2674.7966 0 .4201-.1419.622-.1855.6656-.0055.0055-.0109.0055-.0219-.0054-.0872-.0982-.2509-.2838-.2564-.7475-.0054-.3765.1364-.6493.1746-.7093zm-.7966-.8948c.0055-.0109.0109-.0109.0218 0 .0546.06.3001.3437.3383.7802.0382.4256-.0873.6384-.1255.6875-.0054.0109-.0109.0054-.0218-.0055-.0982-.0927-.2783-.2619-.3274-.7256-.0436-.3929.0819-.6711.1146-.7366zm-.7857-.7857c.0055-.0109.0109-.0109.0219 0 .06.06.3055.3383.3491.7748.0437.4255-.0818.6383-.1145.6929-.0055.0109-.0109.0055-.0219 0-.0982-.0928-.2782-.2564-.3382-.7202-.0437-.3983.0709-.682.1036-.7475zm-.9766-.6329c0-.0109.0109-.0109.0164-.0055.0709.0491.3655.2728.4965.6875.1255.4092.0491.6438.0218.6984-.0055.0109-.0109.0109-.0218 0-.1146-.0709-.3274-.1964-.4693-.6438-.12-.3601-.0654-.6657-.0436-.7366z" fill="#b48b13"/><path d="m24.2777 3.13147.442 1.41859 1.5277.01637-1.1513.96028.3983 1.35857-1.2167-.80751-1.2221.80751.3983-1.35857-1.1513-.96028 1.5277-.01637z" fill="#d59f0f"/></svg>