<svg fill="none" height="48" viewBox="0 0 48 48" width="48" xmlns="http://www.w3.org/2000/svg"><g clip-rule="evenodd" fill-rule="evenodd"><path d="m24.0538 43c-.3564 0-.6909-.1747-.8952-.4677-1.816-2.6044-9.9737-14.3026-10.8986-15.6284-.3465-.4968-.3467-1.044-.0003-1.5408l2.9131-4.1774c3.0978-4.4424 7.8658-11.27969 7.9933-11.46219.2007-.28787.5316-.45977.8849-.45977.3552 0 .6886.17316.892.46326.1473.21032 10.6449 15.2624 10.9051 15.6368.3455.497.3452 1.0439-.0009 1.5398l-.4127.5915c-7.5692 10.8524-9.88 14.1673-10.4857 15.0372-.2038.293-.5384.4677-.895.4677z" fill="#176fc1"/><path d="m35.3733 26.5729c-.1961.2807-9.4114 13.4927-10.8988 15.6293-.2038.2926-.6366.294-.8418-.0004-1.4268-2.0461-9.931-14.2414-10.8988-15.6286-.2045-.2932-.205-.5857-.0001-.8796.6292-.9022 10.7189-15.371 10.9062-15.6394.199-.28519.628-.28289.8296.0046.2015.2876 10.6935 15.3322 10.904 15.6349.2045.2942.2039.5865-.0003.8792" fill="#fff"/><path d="m24.1626 41.5033c-.0599.086-.158.086-.218 0l-10.6106-15.2152c-.0599-.086-.0599-.2267 0-.3126l10.6106-15.215c.06-.086.1581-.086.218 0l10.6105 15.215c.0599.0859.0599.2266 0 .3126z" fill="#1d4692"/><path d="m24.0945 41.0272c-.0225.0323-.0593.0323-.0818 0l-10.3467-14.8367c-.0225-.0323-.0225-.085 0-.1173l10.3467-14.8367c.0225-.0322.0593-.0322.0818 0l10.3465 14.8367c.0226.0323.0226.085 0 .1173z" fill="#176fc1"/><path d="m27.7168 29.8998c-.9428 1.1348-2.3991 1.6775-3.8878 1.409 1.4065-1.2614 2.4042-3.9456 2.4371-6.2085-.0952-.091-.3034-.2221-.3034-.2221s-.0184.1172-.086.0893c-.5449-.2242-1.1726-.6453-1.5941-1.3435-.1283-.2123-.2485-.4676-.3509-.7508.8293-.5238 1.5119-1.2254 1.9796-1.9907 1.2938.5899 2.2421 1.72 2.6941 3.0344.7777 2.2621.2735 4.5841-.8886 5.9829zm-7.0342 1.94c-.3986-.0266-.7572-.2269-.7978-.4982-.0382-.256.1665-.413.4335-.4081.3906.0073 1.0032.4482 1.4877.6804-.3377.1795-.792.2481-1.1234.2259zm2.9668-11.3894c.1631-.0066.3299-.0063.5012.0031.2788.0152.5484.0527.808.1103-.3109.5134-.7156 1.0025-1.2675 1.4111-.089-.4938-.1145-1.0191-.0417-1.5245zm1.6455-2.1015c.3457.0827.3847.5984.1291 1.2264-.1365-.0162-.2741-.0297-.4127-.0398-.3843-.0277-.7568-.0337-1.1174-.0201.3779-.9503 1.0059-1.2607 1.401-1.1665zm6.2496 7.2477c-.0901-3.0079-2.2314-5.1251-5.0653-5.8291.1274-.3166.2418-.6496.2999-.9342.2008-.9819-.1529-1.6158-.8388-1.7354-1.078-.1884-2.4542.7705-2.9984 2.5014-2.7263.3856-4.6169 1.9489-5.281 3.7581-.6542 1.7821-.0007 3.2887 1.1524 3.743 1.1798.4647 2.2744-.1688 2.5965-.9872-.0631-.046-.3041-.2234-.3041-.2234s-.0887.1055-.169.0648c-.669-.3392-1.1596-1.1306-1.0742-2.246.1086-1.4186 1.182-2.727 2.8741-3.1331-.0817.6525-.0842 1.3095-.0423 1.967-.2416.1034-.5025.1948-.7854.2714-.0462.2706-.3304.6963-.3304.6963l.3096.1853c.3058-.0606.6026-.1455.8886-.2511.1883 1.6336.5567 3.2593.5815 4.8163.0152.9582-.1471 2.0414-.6888 2.698-.8763-.3638-1.5036-.8329-2.1351-.9423-.8882-.1539-1.6155.4166-1.5158 1.2613.0729.618.7786 1.1793 1.7022 1.2386.7277.0466 1.5131-.1926 2.0478-.5001.5447.2141 1.2358.4322 1.9174.4721 4.2697.2503 6.9684-3.2287 6.8586-6.8917" fill="#1d4692"/><path d="m27.414 29.6775c-.9428 1.135-2.399 1.6776-3.8877 1.409 1.4063-1.2613 2.4042-3.9456 2.437-6.2085-.6068-.1633-1.4562-.6031-1.9835-1.4762-.1282-.2124-.2483-.4677-.3509-.7509.8294-.5237 1.512-1.2254 1.9796-1.9905 1.2938.5898 2.2423 1.72 2.6941 3.0343.7777 2.2621.2735 4.5842-.8886 5.9828zm-7.0341 1.9402c-.3987-.0267-.7571-.227-.7978-.4984-.0383-.2559.1664-.413.4335-.408.3906.0073 1.0031.4482 1.4876.6803-.3375.1797-.7919.2482-1.1233.2261zm2.9667-11.3895c.1632-.0066.33-.0063.5013.003.2785.0152.5477.0527.8071.1101-.3113.5109-.7164.9945-1.269 1.3985-.0871-.4901-.1114-1.0107-.0394-1.5116zm1.6547-2.1159c.354.0911.434.6002.1595 1.2455-.1494-.0185-.3002-.0336-.4523-.0445-.3841-.0277-.7566-.0336-1.1172-.0202.3808-.9575 1.0163-1.2824 1.41-1.1808zm6.2404 7.2621c-.09-3.0074-2.2307-5.1243-5.0637-5.8288.1295-.3272.2348-.6671.2853-.968.1711-1.0164-.1397-1.5822-.8258-1.702-1.0778-.1882-2.4542.7706-2.9982 2.5015-2.7265.3856-4.6169 1.9489-5.281 3.7581-.6544 1.7821-.0009 3.2887 1.1524 3.7431 1.1796.4646 2.2744-.1689 2.5964-.9873-.8928-.1587-1.6518-1.0388-1.5473-2.4046.1085-1.4185 1.182-2.727 2.8741-3.1332-.0809.646-.0841 1.2964-.0435 1.9472-.2413.1025-.5017.1932-.7842.2696-.0778.4561-.0208.9033-.0208.9033.3057-.0607.6025-.1456.8886-.2512.1884 1.6336.5566 3.2593.5814 4.8164.0153.9583-.1471 2.0415-.6887 2.698-.8763-.3638-1.5036-.8328-2.1351-.9423-.8882-.1539-1.6155.4167-1.5158 1.2613.0729.618.7785 1.1793 1.7022 1.2385.7277.0467 1.5131-.1925 2.0477-.5001.5448.2141 1.2358.4322 1.9175.4722 4.2696.2503 6.9685-3.2286 6.8585-6.8917" fill="#fff"/></g><path d="m22.7484 36.0142-.221-.1664-.282-.7164-.3018.3622v.5206h-.2716l-.2204-.1664.2204-.1086v-1.5157l.0508-.1664.2208.1664v.8136l.7617-.9278.0814-.0522.2208.1664-.581.7017.6413 1.089z" fill="#1d4692"/><path d="m24.3806 36.0142-.2205-.1662.2205-1.1341-.8022 1.3003h-.2465l-.2209-.1664.2209-1.6243.051-.1655.2206.1655v1.2045l.8278-1.3703.221.1658v1.7907z" fill="#1d4692"/><path d="m25.4722 33.9707-.2193-.1666.245-.2733.2204.1682v.2717zm-.2841 2.0435-.2209-.1637.2706-1.7928.2218.1658v1.7907zm-.2751-2.0435-.2187-.1664.2446-.2712.2215.1659v.2717z" fill="#1d4692"/><path d="m26.6593 35.2245h-.4251v.5458h.4251c.181 0 .2942-.1057.2942-.2742 0-.166-.1132-.2716-.2942-.2716zm-.0227-.757h-.4024v.4618h.4024c.1811 0 .2253-.0444.2253-.2053s-.0442-.2565-.2253-.2565zm.0504 1.5467h-.7244l-.2209-.166.2209-1.6247.8444-.0536s.1509.1014.2453.1856c.0942.0843.1477.205.1477.351 0 .181-.0829.3117-.2415.3897.1762.0831.2692.2112.2692.415 0 .3093-.2062.503-.5407.503" fill="#1d4692"/><path d="m22.5274 35.8478-.503-.8826-.3017.3621v.5205h-.2717v-1.7907h.2717v.9004l.7318-.9004h.332l-.581.7018.6413 1.0889z" fill="#fff"/><path d="m24.1597 35.8478v-1.3002l-.8022 1.3002h-.2465v-1.7907h.2716v1.2978l.7997-1.2978h.2491v1.7907z" fill="#fff"/><path d="m25.2513 33.8043v-.2716h.2454v.2716zm-.2842 2.0435v-1.7907h.2716v1.7907zm-.2729-2.0435v-.2716h.2453v.2716z" fill="#fff"/><path d="m26.4384 35.0581h-.4249v.5458h.4249c.1811 0 .2943-.1056.2943-.2741 0-.1661-.1132-.2717-.2943-.2717zm-.0226-.757h-.4023v.5131h.4023c.1811 0 .2917-.0957.2917-.2565 0-.1609-.1106-.2566-.2917-.2566zm.0503 1.5467h-.7244v-1.7907h.6967c.3269 0 .5407.1913.5407.483 0 .1811-.0831.3119-.2414.3897.1761.0831.2691.2113.2691.415 0 .3093-.2062.503-.5407.503" fill="#fff"/><path d="m23.1938 5.00343c-.0662 0-1.1253 0-2.0056 0-.2787-.86326-.5922-1.83602-.6142-1.90638-.04-.12839-.2012-.13041-.2418-.00028-.0196.06325-.3468 1.06962-.619 1.90666-.8803 0-1.9394 0-2.0057 0-.1353 0-.1812.15245-.0744.22992.053.03843.9096.65978 1.6229 1.17709-.2718.83628-.5977 1.8393-.6181 1.9022-.0417.12859.089.21932.1957.14177.0528-.03828.9044-.65817 1.6158-1.17596.7118.51814 1.5654 1.13949 1.6182 1.17785.1068.07761.2376-.01318.1958-.14178-.0205-.0629-.3468-1.06717-.6185-1.90373.7133-.51731 1.5704-1.13901 1.6232-1.17744.1069-.07747.0609-.22992-.0743-.22992" fill="#e4ac21"/><path d="m19.6301 6.28828-1.3326-.96621-.6644-.08863 1.6229 1.17708z" fill="#bf851e"/><path d="m20.9562 5.32196.2319-.31849-.6141-1.90638-.1217.66201z" fill="#bf851e"/><path d="m19.123 7.84978-.2894.60469 1.6158-1.17597.0001-.39373z" fill="#bf851e"/><path d="m23.3195 5.08278c-.0317.01102-.523.1749-.716.2392h.0003l-1.3332.96669.5076 1.56279c.1604.22113.4409.60852.4429.61131.0409-.02908.0631-.08389.0423-.14819-.0204-.0629-.3468-1.06718-.6185-1.90374.7133-.5173 1.5704-1.139 1.6233-1.17743.056-.04052.07-.10161.0513-.15063" fill="#bf851e"/><path d="m30.3995 5.00343c-.0662 0-1.1253 0-2.0056 0-.2787-.86326-.5923-1.83602-.614-1.90638-.0401-.12839-.2015-.13041-.2419-.00028-.0196.06325-.3468 1.06962-.619 1.90666-.8804 0-1.9395 0-2.0058 0-.1353 0-.1812.15245-.0743.22992.0529.03843.9096.65978 1.6229 1.17709-.2718.83628-.5978 1.8393-.6181 1.9022-.0418.12859.089.21932.1956.14177.0529-.03828.9044-.65817 1.6158-1.17596.7118.51814 1.5654 1.13949 1.6184 1.17785.1066.07761.2374-.01318.1955-.14178-.0203-.0629-.3467-1.06717-.6185-1.90373.7134-.51731 1.5705-1.13901 1.6234-1.17744.1067-.07747.0608-.22992-.0744-.22992" fill="#e4ac21"/><path d="m26.8359 6.28828-1.3327-.96621-.6642-.08863 1.6228 1.17708z" fill="#bf851e"/><path d="m28.1619 5.32196.232-.31849-.614-1.90638-.1218.66201z" fill="#bf851e"/><path d="m26.3287 7.84978-.2894.60469 1.6158-1.17597.0003-.39373z" fill="#bf851e"/><path d="m30.5252 5.08278c-.0318.01102-.523.1749-.7159.2392h.0001l-1.333.96669.5076 1.56279c.1602.22113.4409.60852.443.61131.0407-.02908.063-.08389.042-.14819-.0203-.0629-.3467-1.06718-.6185-1.90374.7134-.5173 1.5705-1.139 1.6234-1.17743.0559-.04052.07-.10161.0513-.15063" fill="#bf851e"/></svg>