<svg fill="none" height="48" viewBox="0 0 48 48" width="48" xmlns="http://www.w3.org/2000/svg"><path d="m13.7051 26.5632h.6391v1.3984h-.6391z" stroke="#ff0" stroke-width=".137439"/><path d="m34.4274 39.2201-20.8545.0001-6.44454-19.8337 16.87154-12.25808 16.8717 12.25788z" fill="#24216a"/><path d="m33.3817 37.7785-18.7611.0001-5.79766-17.8428 15.17796-11.0276 15.1781 11.0274z" fill="#fff"/><path clip-rule="evenodd" d="m23.7621 10.2401c.0103 2.1291-1.1437 3.9339-5.3224 6.6335-6.331 4.3742-6.0197 6.2963-6.7925 8.5924l-1.72282-5.1731z" fill="#e01e13" fill-rule="evenodd"/><path clip-rule="evenodd" d="m13.2914 30.4141c-1.1533-3.3089-.6638-5.7804.4493-7.6861 1.0393-1.7793 2.6016-3.108 4.3423-4.3066-1.148 1.4157-1.9099 2.5699-2.4085 3.5458-1.3491 2.6404-1.1024 4.2794-.652 5.6495.075-1.8343.3304-3.626 2.2573-5.0962-1.3343 3.271-.536 5.2641.1938 6.2318z" fill="#e01e13" fill-rule="evenodd"/><path d="m24.0018 27.0952-10.4642 4.3178 1.7639 5.4285h17.4004l1.7639-5.4285z" fill="#e01e13"/><path clip-rule="evenodd" d="m23.2343 22.7057c-.2018 1.8769.5324 2.1663 1.2497 2.5736.0495-.7891.3081-.9953.6673-1.0753 1.7088-.3807 2.1872 1.5176 3.2831 2.1556.6054.3478 1.8383.2005 2.47.0168 2.2014-.6401 2.9867-2.8946 3.1644-4.5921.3746-.2228.8239-.2438.932-1.1862-1.8056-.7406-3.3159-1.6287-4.6706-2.5948.175-.1238.4792-.1107.5401-.413.0174-.0498-.3282-.3282-.7115-.6662-.8681-.7655-2.3316-1.9298-3.0694-2.098-.0165-.7951-.1665-1.5687-1.0485-2.2241.0036.6245-.0922 1.2757-.3389 1.8428l-.6778-.053c.3375-1.2725.3717-2.6425-.3926-3.8675l13.4473 9.7685-3.2883 10.1203-10.5-4.1492c-1.0151-.4402-2.1942-1.4459-1.0563-3.5582z" fill="#24216a" fill-rule="evenodd"/><path clip-rule="evenodd" d="m26.3374 17.622c.7222.3793 1.1264.9031 1.3874 1.578.2831-.1013.6078-.1226.9744-.1377.3725-.1164.5113-.4594.5401-.826-.2101.1147-.4537.1287-.7202.0741-.6422-.6658-1.3885-.7783-2.1817-.6884z" fill="#201e5f" fill-rule="evenodd"/><g fill="#fff"><path d="m24.1059 30.3993c.0706-.7147 1.0581-.6219 1.0581-.6219l-.3724-.461s-.4439-.0601-.6417.4454c-.003.0077-.0068.0177-.011.0294-.0028.0077-.0089.0128-.0173.0104-.0062-.0018-.0106-.007-.0085-.0173.0023-.012.0043-.0183.0063-.0267.1236-.5013.3861-.8792.3861-.8792l-.4919-.664-.4919.664s.2627.3779.3861.8792c.0021.0084.0042.0147.0064.0267.0021.0103-.0022.0156-.0085.0173-.0083.0024-.0145-.0027-.0173-.0104-.0042-.0117-.0081-.0217-.011-.0294-.1977-.5055-.6416-.4454-.6416-.4454l-.3725.461s.9875-.0928 1.058.6219z"/><path d="m16.5444 31.3479v3.3235.9448h2.7854l-.2648-.9448h-1.3133v-3.3235z"/><path d="m28.8032 31.3531c-.4149 0-.749.3074-.749.6891v2.3559l.4101 1.2128h2.2456c.4149 0 .749-.3074.749-.6891v-.8338h-1.1407v.6334h-1.1233v-2.4576h1.1233v.6122h1.1407v-.8338c0-.3817-.3341-.6891-.749-.6891z"/><path d="m20.4999 31.3531c-.4149 0-.749.3074-.749.6891v2.356l.4101 1.2128h2.2456c.4149 0 .749-.3073.749-.689v-2.8798c0-.3817-.3341-.6891-.749-.6891zm.3917.9107h1.1233v2.4578h-1.1233z"/><path d="m24.9162 33.7839 1.2504.2966v.6411h-1.1233v-.3234h-1.1407l.4101 1.2128h2.2456c.4149 0 .7489-.3073.7489-.689v-.958c-.0199-.3359-.2841-.6241-1.3101-.8261l-.9538-.233v-.6411h1.1233v.3551h1.1406v-.5767c0-.3817-.334-.6891-.7489-.6891h-1.9067c-.4149 0-.749.3074-.749.6891v1.0957c.0124.4097.5896.5345 1.0136.646z"/></g></svg>