<svg fill="none" height="48" viewBox="0 0 48 48" width="48" xmlns="http://www.w3.org/2000/svg"><path d="m44.4521 22.3296c-1.166-.5706-3.1938-1.2282-3.1938-1.2282-.087-.023-.262-.0803-.262-.0803s.0886-.1313.1139-.2295c.0701-.2519.0561-.5453-.1066-.6368 0 0 .8848.0488 1.0767-.0258.5443-.2121.753-.9421.5617-1.4589-.0999-.2704-.5258-.4399-.6133-.666-.083-.2143-.1375-.3827-.3653-.4983-.3675-.1857-1.2984-.3484-1.708-.3125-.3456.0303-.4118.4292-.6256.5213-.8546.368-1.2355.1952-1.2271 1.4706 0 0 0 .06.0095.1105-.3092-.1498-1.0823-.5285-1.4403-.6879v-7.7179h-25.2832v7.7174c-.358.1593-1.1312.5381-1.44038.6879.00954-.0505.00954-.1106.00954-.1106.00841-1.2753-.37314-1.1025-1.22713-1.4706-.21322-.092-.27999-.491-.62563-.5213-.4096-.0353-1.33991.1268-1.70799.3126-.22781.1156-.28223.2839-.36528.4982-.08697.2262-.5134.3956-.61328.6661-.19134.5167.01739 1.2467.56166 1.4588.1919.0746 1.07675.0258 1.07675.0258-.16271.0915-.17674.3855-.1066.6369.02525.0976.1139.2295.1139.2295s-.17563.0578-.26203.0802c0 0-2.02782.6582-3.19435 1.2283 0 0-1.39827.657.33554.5313.08416 0 1.38367-.1004 2.73929-.3019l-.00842.0764c-.00168.4382.09371.4359.45786.5611l-.01178.0808c-.45674.0925-1.3646.1829-1.6805.3944-.3462.2317-1.29221.0522-1.86005.8254-.14925.2031-.39782.8198-.25193 1.0206.23959.3277 1.61092.8075 1.78991.8114.42868.0095.47245-.3417.77488-.5499.14533-.1004.31927-.0331.4803-.0752.2424-.0645.37706-.285.59028-.3961.12457-.064.39165-.1257.56166-.0264.753.4635 3.06138-.1246 3.86258-.5981v4.1819c0 1.4886.1891 2.0581.6414 2.8453l.0376.0617c2.5726 3.8475 6.9329 6.0537 11.9626 6.0543 5.0303 0 9.3861-2.2006 11.9509-6.0369l.0387-.06c.4602-.8013.6521-1.3764.6521-2.8644v-4.1814c.8012.4736 3.1096 1.0616 3.8626.5982.17-.0993.4371-.0376.5616.0263.2132.1106.3479.3317.5909.3962.161.0426.3349-.0253.4803.0752.3024.2076.3467.5588.7749.5498.1789-.0039 1.5503-.4836 1.7899-.8113.1464-.2009-.1022-.8181-.252-1.0206-.5672-.7727-1.5138-.5937-1.86-.8254-.3159-.211-1.2238-.3019-1.6805-.3945l-.0118-.0808c.3642-.1257.4595-.1229.4579-.5611l-.0085-.0763c1.3557.2014 2.6552.3019 2.7393.3019 1.7355.1257.3367-.5314.3367-.5314z" fill="#fff"/><path d="m22.7969 25.989c-1.345 0-2.599-.3866-3.6601-1.0521 1.1351 1.4566 2.9043 2.3942 4.894 2.3942 2.3729 0 4.4338-1.3331 5.4763-3.2908l-.0073-.0023c-.1223-.0336-.3047-.1054-.5156-.1885-.2368-.0931-.6683-.2631-.8153-.2805-.0281.0162-.0803.0583-.1195.0903-.0685.0556-.1538.1229-.2593.1897-1.2574 1.3174-3.0288 2.14-4.9932 2.14z" fill="#dadada"/><path d="m42.0573 19.3984c.0747-.1105.0758-.3148.018-.4343-.0668-.1369-.271-.1778-.4001-.2255-.1616.0348.018.1762-.1212.2373l-.3125-.0404c-.1964-.2031.2143-.1751.2373-.2839.0337-.1577-.115-.303-.0173-.4579-.0169-.0376-.0399-.0774-.0814-.0925-.161-.0578-1.1233-.2879-1.2563-.2784l-.0404.0466c.0387.0533.2009.2009.2082.2144.0639.1161-.3681.1992-.44.2143-.3456.0729-1.2703.184-1.1345.7294.0634.257.9825.9096 1.0942 1.1924.0241.0611.1442.1885.0639.2435-.1689.115-1.0195-.0387-1.0655.0931.0477.1779.5538.3126.7182.376.1941.074.3743.1296.5785.0291.2289-.1122.3776-.4152.3361-.666-.0196-.115-.1436-.3967-.2143-.4921-.0668-.0886-.6257-.5313-.4691-.5908.1885.06.446.0062.579.1852.3518.0998.7283.161 1.0886.2261.2311.0421.4943-.0225.6306-.2256zm-7.7011 4.3424c.0292-.064.041-.1448.0062-.2144-.0292-.0286-.0578-.0634-.1044-.0695-.1621.0353-.3243.1099-.5094.0639-.1689 0-.4405-.1509-.5157.0752-.0292.1448-.1105.2665-.1453.4057 0 .0752.0696.1448.1386.1796.1043.023.2317.0807.3243.0634.1739-.1218.1621-.3418.3355-.4686.0932.023.1044.151.2088.1392.1054-.0124.2098-.0758.2614-.1745zm4.2218-2.6922c.0297-.1638-.1549-.1902-.2666-.2261-.2676-.087-.5336-.1711-.804-.248-.1981-.0567-.3978-.1622-.597-.2031-.2514-.0522-.45-.0573-.6257-.2783l.0404-.0236c.2379.0948.62.2991.8692.1335.1178-.0791.2413-.29.1851-.4337-.042-.1083-.175-.1229-.2665-.1627-.3899-.17-.7726-.3793-1.1536-.5695-.8057-.4012-1.6098-.8063-2.4127-1.2137-.3653-.1852-.78-.3984-1.1812-.4859-.3271-.0713-.6991.0191-.9841.1908-.2823.17-.2755.57-.4865.5274-.0303-.0337-.0556-.0752-.0522-.1218-.0853-.1352-.3518.2447-.5673.353-.4814.2418-1.3258 1.1654-1.6732 1.6042-.2194.2766-.3069.6306-.3877.9667l.0466.0635c.1055.0252.2025-.018.2951-.0635.0876.0225.0797.133.1274.1964.3512.473 1.2844.1981 1.795.3704.0073.0314 0 .0594-.0348.0634-.2284.0291-.5314-.0186-.7659-.0247-.5398-.0141-1.0801-.0208-1.6199-.0505l-.064.0348c-.0499.1105-.3468.7468-.3939.7984-.0724.0797-.179.1408-.2558.2267-.2093.234-.3614.5173-.624.6997-.0785.0544-.2368.0847-.2721.1734l.0404.0465c.7979.0651.8787-.772 1.4128-.9606.0292.0056.0404.0371.0342.064-.1324.1324-.2754.3232-.3585.4915-.312.6318-.5342.4394-.8338.73l.0466.0696c.8826-.0258 1.0436-.5224 1.3315-.5622.2457-.0348 1.1665.3967 1.4706.4808.1526.0421.303.0943.4641.0915.0538-.0011.1262-.0297.1728-.0275.1184.0039.1414.2143.4.0926.1555-.0735.1656-.2952.1852-.4461.0236-.1812-.2014-.3361-.1852-.4343.0225-.1391.197.0471.2368-.0752.0241-.0735-.0662-.2216-.11-.2777-.1161-.1487-.4443-.4029-.3995-.6195.0045-.0207.0662-.0662.087-.0634l1.0712.133c.037.0045.2003.3844.2025.4225.0028.0578-.1532.4495-.1852.5269-.0897.2126-.2457.3675-.2435.6138.0028.3019.2065.583.3591.8333.1684.2777.4383.1453.6835.2255.1004.0337.2087.1027.3074.147.3109.1358.6593.2772.9893.3575.1806.0437.4606-.0169.5672-.1852.078-.1234-.1851-.1605-.069-.2957.0617-.0718.1386-.0673.2256-.0578.1857.0208 1.139.1364 1.2389.0292.0337-.0359-.0168-.0842-.046-.0988-.1925-.0926-.4893-.1374-.7008-.1964-.2553-.0723-.5202-.0903-.776-.1683-.2177-.0668-.2037.156-.3591.2548-.234.1498-.8619-.1487-.9382-.4175-.0729-.2581.1622-.5847.3299-.7581.1319-.1369.2929-.1565.4231-.2609.0825-.0662.0236-.1969.023-.2833.1285-.1611.6122.0954.8102.0409.2144-.0594.0545-.3434.2379-.3995.1616.0455.2884.1622.4461.22.1167.0426.3226.0645.3995.1678.0612.0824-.0017.1963-.0174.2833.0567.1072.2368.1408.3473.1566.1785.0258.3721.0151.5539.0347.1806.0191.3624.0707.5403.087l.6026.0578c.1453.0696-.0353.1941.0982.4747-.1431-.0208-.7317-.1964-.799 0 .5196.4842 1.6985.8265 2.397.9264.4276.0611.8798.0471 1.3085.0118.0645-.0051.1218-.0157.1605-.0494.0011.0028.2295-.1902.3524-.1706.1677.0281.3635.3496.7125.4831.238.1341.4635-.0982.6487.0062.2267.1279.3681.7732.7289.6716.0729-.0207.3866-.129.4292-.1711.119-.0976-.0819-.3546-.1852-.5263-.037-.0528-.0623-.092-.106-.1033-.4197-.1071-.2217-.5858-.8215-.6997-.2699-.0505-.3366-.0729-.6076-.1234-.073-.014-.2385.0224-.2469-.0825-.0017 0 .0449-.0505.0449-.0505l.4803-.0112-.0113-.0634c-.7692-.0965-1.5233-.3153-2.2926-.4062-.0578-.0337-.1308-.2116-.1218-.266.023-.1403.2447.1206.3591-.1566.0668-.1604-.0937-.2979.0348-.3765.3378.0433.6756.0859 1.0134.1336-1.9095-.4556-3.8357-.8377-5.7446-1.2905-.4135-.0982-.8371-.1633-1.2445-.2896l.0062-.046c1.6844.2357 3.352.6425 5.0431.822v-.0404c-.9353-.1784-1.8606-.4163-2.797-.5852-1.3955-.2508-2.8022-.4601-4.2038-.675-.9146-.1403-1.8444-.3109-2.7668-.39l-.0292.0634c.0617.0758.1481.1111.2318.1566.0117.0185.0129.0432-.0057.0578-.1178-.0124-.6424.0213-.643-.1038.1953-.1852.243-.2817.5263-.2548.4416.041.8866.1061 1.3265.1616 2.5333.3249 5.0852.6644 7.6023 1.1004 2.6546.4595 4.059.6649 6.2406 1.0846-.7412-.266-4.0831-1.2025-5.7894-1.4965-.078-.0146-.1796-.0017-.2177-.0926zm-.6257 2.9761c.133.0112.2048.0084.3788.0438.2839.0583.5672.0808.8562.1621.0466.0174.0971.0831.1027.1291-.0174.0292-.0589.037-.0819.037l-1.129-.289zm-6.2304-.4635.3125-.735c.0118-.0522.064-.1044.1161-.0982.0696.023.1566.0348.1796.1156l-.2665.5734c-.1858.2435-.0522.5791.0118.822-.0062.0348-.041.0528-.0702.0584-.1846-.1863-.3529-.4466-.2833-.7362zm-2.3791-.5145c-.0713.0533-.1964.0236-.2856.0118-.1077-.0595-.1313-.1841-.1436-.3036 0-.0291.0061-.0594.0359-.0836.1251 0 .2502.0303.3338.1313.0359.0775.1016.1605.0595.2441zm3.7986-3.0019.1555.0718s-2.2921-.3243-3.3986-.4864c-.0466-.0057-.1902-.0197-.1661-.101.0286-.0174.0634-.0292.0982-.023zm.5903-1.0229-.0235.0236c-.5853-.1134-1.1862-.2514-1.7602-.4107-.0443-.0124-.1465-.0208-.1336-.0864.2105-.0404 1.1716.2132 1.4129.2945.1072.0365.1706.0113.2783 0 .0819.0511.165.1027.2261.179zm-20.0335 4.5045c-.0348.0696-.023.151.0061.2144.0517.0982.156.1621.2604.1739s.1156-.1161.2087-.1391c.1734.1273.1622.3473.3356.4685.0925.0174.2199-.0404.3243-.0634.069-.0348.1386-.1044.1386-.1796-.0348-.1386-.1162-.2603-.1454-.4056-.0746-.2262-.3467-.0752-.5156-.0752-.1852.046-.3468-.0286-.5095-.064-.0454.0062-.074.0415-.1032.0701zm7.8745-.1335.0404-.0466c-.0348-.0892-.1931-.1189-.2722-.1733-.2626-.1818-.4146-.4658-.6239-.6997-.0769-.0859-.1841-.1471-.2559-.2267-.0471-.0522-.3434-.6879-.3939-.7985l-.0639-.0348c-.5393.0298-1.0802.0359-1.6199.0505-.234.0062-.537.0539-.7659.0247-.0348-.0039-.0427-.032-.0348-.0634.5106-.1722 1.4437.1027 1.7949-.3703.0483-.064.0404-.1745.128-.1964.0926.0455.1896.0887.2951.0634l.0466-.0634c-.0808-.3361-.1689-.6901-.3877-.9668-.3474-.4388-1.1924-1.3618-1.6732-1.6042-.2161-.1083-.482-.4881-.5673-.3529.0039.0466-.0219.0881-.0522.1218-.211.0426-.2048-.3569-.4865-.5275-.285-.1717-.657-.262-.9841-.1907-.4012.0875-.8164.3013-1.1812.4859-.8029.4073-1.607.8124-2.4127 1.2136-.381.1902-.7637.3995-1.1536.5696-.0915.0398-.2245.0544-.2665.1627-.0562.1436.0673.3551.1851.4337.2491.1655.6313-.0387.8692-.1335l.0404.0235c-.1757.2211-.3743.2262-.6257.2783-.1992.0416-.3983.1465-.597.2032-.2704.0768-.5364.1615-.80403.248-.11222.0359-.29682.0622-.26653.2261-.03871.0909-.13971.078-.21939.092-1.7063.2935-5.04822 1.2305-5.78944 1.4965 2.18157-.4197 3.586-.6251 6.24057-1.0846 2.51712-.436 5.06842-.7755 7.60232-1.1004.4405-.0561.8849-.1212 1.3265-.1616.2839-.0263.331.0702.5263.2548-.0006.1251-.5252.0914-.643.1038-.0185-.0146-.0174-.0393-.0056-.0578.0836-.0449.17-.0803.2317-.1566l-.0292-.0634c-.9224.0786-1.8522.2497-2.7668.39-1.4022.2149-2.8083.4242-4.2037.675-.9365.1689-1.86177.4068-2.79713.5852v.0404c1.69113-.1795 3.35873-.5858 5.04313-.822l.0062.046c-.4073.1263-.831.1914-1.2445.2896-1.9089.4533-3.83513.8349-5.74456 1.2905.33779-.0477.67557-.0898 1.01335-.1336.1285.0786-.03198.2161.03479.3765.11447.2772.3361.0163.35911.1566.00897.0544-.06397.2323-.12176.266-.76927.0909-1.52339.3091-2.29266.4062l-.01122.0634.4803.0112s.04657.0505.04489.0505c-.00842.1049-.17394.0685-.24689.0825-.27101.0505-.33722.0729-.60767.1234-.59982.1139-.40175.5926-.82145.6997-.04321.0113-.06902.0505-.10605.1033-.10268.1711-.30412.4287-.18516.5263.0432.0421.3563.1504.42924.1711.36135.1016.50275-.5437.72887-.6716.18516-.1044.41073.1279.64863-.0062.34901-.1335.54483-.455.7126-.4831.12288-.0196.35181.1734.35293.1706.03872.0337.09595.0443.16048.0494.42868.0353.88149.0499 1.30849-.0118.69857-.0999 1.87744-.4416 2.39704-.9264-.0679-.1964-.6559-.0208-.7996 0 .1336-.2806-.0466-.4051.0982-.4747l.6026-.0578c.1779-.0168.3597-.0684.5404-.087.1818-.019.3759-.0089.5538-.0347.1105-.0163.2906-.0494.3473-.1566-.0157-.087-.0786-.2014-.0174-.2833.0769-.1027.2828-.1246.3995-.1678.1577-.0578.2845-.174.4461-.22.1829.0556.023.3395.2379.3995.1981.0545.6817-.202.8102-.0409-.0005.0864-.0595.2177.023.2833.1296.1044.2907.124.4231.2609.1678.174.4029.5005.3299.7581-.0757.2688-.7042.5673-.9381.4175-.1549-.0988-.1414-.3216-.3591-.2548-.2559.078-.5207.096-.7761.1683-.2115.059-.5089.1033-.7008.1964-.0291.0146-.0796.0629-.046.0988.0993.1077 1.0532-.0084 1.2389-.0292.087-.0095.1644-.014.2256.0578.1161.1352-.147.1723-.069.2957.1066.1678.3866.2284.5673.1852.3299-.0797.6783-.2211.9892-.3575.0987-.0437.207-.1133.3075-.147.2446-.0802.5145.0522.6834-.2255.1526-.2503.3563-.5314.3591-.8333.0028-.2463-.1538-.4012-.2435-.6138-.032-.0774-.188-.4691-.1852-.5269.0022-.0381.1655-.418.2026-.4225l1.0711-.133c.0208-.0028.0825.0427.087.0634.0449.2166-.2834.4708-.3995.6195-.0438.0555-.1341.2042-.11.2777.0398.1223.2143-.0634.2368.0752.0168.0988-.2082.2531-.1852.4343.0191.1509.0298.3726.1852.4461.2586.1223.2817-.0887.4-.0926.0461-.0022.119.0264.1729.0275.161.0022.3114-.0499.464-.0915.3041-.0836 1.2249-.5151 1.4706-.4808.2879.0398.4489.5364 1.3315.5622l.0466-.0696c-.3002-.2901-.5218-.0982-.8344-.73-.083-.1683-.2261-.3591-.3585-.4915-.0062-.0269.0051-.0584.0342-.064.5359.1897.6167 1.0263 1.4146.9612zm-11.4644.6318-.12686.0836-1.12893.289c-.02301 0-.06453-.0084-.08192-.0371.00561-.0465.05611-.1116.10268-.129.28896-.0814.57288-.1044.85624-.1622.17394-.0359.24576-.0331.37879-.0443zm6.2304-.4635c.0696.2901-.0987.5499-.2833.7356-.0292-.0056-.064-.0235-.0702-.0583.064-.243.1975-.5785.0118-.822l-.2665-.5735c.0235-.0808.1105-.0926.1795-.1156.0528-.0056.1044.046.1162.0982zm-.0926-5.0134c.0129.0656-.0892.0746-.1335.0864-.574.1594-1.175.2974-1.7602.4107l-.0235-.0235c.0611-.0763.1442-.128.2255-.1796.1077.0112.1711.0365.2783 0 .2419-.0808 1.203-.3344 1.4134-.294zm1.9162 1.0824c-1.1065.1621-3.3986.4864-3.3986.4864l.1554-.0718 3.3111-.5386c.0348-.0062.0696.0056.0982.023.0241.0808-.1195.0953-.1661.101zm.9847 3.1247c-.0123.1195-.0359.2447-.1436.3036-.0892.0118-.2144.0415-.2856-.0118-.0421-.083.0236-.1666.0595-.2441.083-.101.2081-.1313.3338-.1313.0298.0236.0359.0539.0359.0836zm-9.80297-3.7268c.13523-.546-.78891-.6571-1.13455-.7294-.07182-.0152-.50386-.0982-.4399-.2144.0073-.0134.17002-.1605.20817-.2143l-.0404-.0466c-.13298-.0101-1.09527.2205-1.2563.2783-.04153.0152-.06397.055-.08136.0926.09763.1549-.05106.3002-.0174.4579.02301.1088.43373.0808.23735.2839l-.31254.0404c-.13971-.0612.0404-.202-.12175-.2374-.12906.0477-.3333.0881-.40007.2256-.05779.1195-.05667.3232.01796.4343.13634.2031.3995.2676.63123.2261.36023-.0651.73617-.1262 1.08854-.2261.13298-.179.38997-.1251.57906-.1852.1571.0595-.40231.5022-.46908.5909-.0707.0948-.19471.3765-.21435.492-.04152.2514.10774.5539.3361.6661.20425.1004.38492.0449.5785-.0292.1644-.0628.67052-.1981.71821-.3759-.04601-.1319-.89664.0218-1.06553-.0932-.08024-.0544.03984-.1823.0634-.2435.11222-.2834 1.03131-.9365 1.09471-1.1929zm-4.25932 5.2328c-.02917-.0914-.60038.0101-.6318.1207-.04601.1621.42868.3753.6318-.1207zm-1.27818.9937c.01178.018.07855.0505.10829.0691.1212.065.23622.1806.31702.0763.04208-.0533.26596-.4388.30748-.5847.0174-.0589-.02244-.1425-.16216-.1481h-.02805c-.36359.0364-.47918.3501-.54258.5874zm39.80117-.873c-.032-.1106-.6032-.2121-.6318-.1207.2031.496.6778.2828.6318.1207zm-.0864.4343c.042.1453.2659.5313.3074.5846.0808.1044.1959-.0112.3171-.0763.0297-.0185.0965-.051.1083-.069-.0635-.2373-.179-.551-.5426-.5875h-.0281c-.1397.0051-.179.0892-.1621.1482z" fill="#dd0741"/><path d="m36.0058 28.8653v-3.7173h-.6935v3.7173c0 1.3203-.1532 1.6311-.4601 2.1675-2.3488 3.5125-6.3197 5.4326-10.8219 5.4326-4.5023 0-8.4727-1.9201-10.8209-5.4326-.3075-.5364-.4606-.8472-.4606-2.1675v-3.7246h-.6941v3.7246c0 1.4033.1683 1.8438.5532 2.5137l.0253.0404c2.5659 3.838 6.8269 5.7412 11.3976 5.7412 4.5713 0 8.8317-1.9032 11.3982-5.7412l.0247-.0404c.3838-.6694.5521-1.1098.5521-2.5137zm-17.196-10.4769c.3338-.7434.6974-1.3797.8831-1.69-.5044.4938-.9252 1.0723-1.2383 1.713.0656.0561.1319.1145.1986.1762.0517-.0662.1033-.133.1566-.1992zm10.7293 14.6133 1.1525-.7227-.2597-.4146-.7216.4528-1.0341-3.2516-.2486-.3978-1.1525.7227.2598.4147.7216-.4529 1.0341 3.2511zm-.5678-14.0005c-.606-.4209-1.506-.8675-1.506-.8675-.6402.9017-1.1727 2.016-1.1727 2.016.3154.6588.7872 1.4022 1.0465 1.8618.349-.5118.4921-.9943.7092-1.6861.1582-.5028.3709-.7744.923-1.3242zm-5.331 1.1738s-.7738-1.2322-1.5834-2.1513c0 0-1.7058.7609-2.3342 1.088l-.0281.4657c.0096.0314.2351.3557.33.7081l.1913.6099c.0224.069.0432.1313.0432.1313.0426.1252.1016.2806.1728.4411.0645.1458.1392.2968.2217.4342.0656.11.147.2105.2435.2946.0028.0023.005.0045.0078.0068.0859.0746.1874.1279.2974.1582.2951.0819.6268.1689.9875.2559 0 0 1.0762-1.7165 1.4505-2.4425zm.39-5.2474c-.6992 0-1.3708.1172-1.9981.331l1.18.9314s1.4403-.1363 2.7342.0298c.1846-.3058.28-.5634.3271-.725 1.3669.647 2.4481 1.7956 3.0115 3.2067.1066-.1027.2143-.2003.3204-.2901-1.0078-2.0626-3.1254-3.4838-5.5751-3.4838zm8.0046 16.3443.3468-.344-2.9834-3.0075-.0185-.0191-.3468.3446 2.9834 3.0075zm.2435-3.2881 1.1817.7452-.2037.3237-2.7774-1.7517.2042-.3238.3743.2362.2609-.4135-.2418-.1526c-.1082-.0683-.2335-.1045-.3614-.1044-.2368 0-.4522.1184-.5768.3165-.1998.317-.1044.7378.2127.9387l2.5137 1.5845c.1083.0685.2334.1044.3613.1044.2368 0 .4523-.1184.5774-.3165.1998-.317.1038-.7384-.2138-.9387l-1.4633-.923-.3614.5729.4141.2609zm-4.9994 5.9314-.551-1.8039.3911-.1195c.0582-.0176.1122-.0466.1591-.0852s.0857-.0861.1142-.1398c.0286-.0537.0462-.1126.0519-.1732s-.0007-.1217-.0188-.1798l-.4237-1.387c-.06-.1964-.2373-.3283-.4415-.3283-.046 0-.0915.0068-.1358.0202l-.8591.2626 1.2373 4.0506.0078.0253zm-.6946-2.2724-.4079-1.336.3658-.1117.4079 1.336zm-1.2827 2.6663-.3692-4.247-.487.0427.3692 4.247zm-1.8421-.4158-.8652-.1026.1644-1.3876.6492.0774.0578-.4859-.6492-.0775.1644-1.3876.8652.1027.0578-.4859-.8916-.106c-.2575-.0309-.4836.1543-.5134.4051l-.3933 3.3138c-.0303.2531.1515.4837.4045.514l.8916.106zm.5707-6.562c2.3729 0 4.4338-1.3332 5.4763-3.2909l-.0073-.0022c-.1223-.0337-.3047-.1055-.5156-.1886-.0096-.0039-.0208-.0078-.0303-.0118-.5409.9713-1.3394 1.7799-2.3084 2.3247l-.4943-1.3904-2.6855.0729-1.0515 1.4752s.4399.3304 1.2288.6093c-1.2984-.0135-2.4952-.441-3.4709-1.1536.032-.0275.0634-.0561.0886-.0842 0 0-.7277-1.0476-1.1727-1.8466-.0033.0017-.0078.0034-.0112.0045-.211.0831-.3933.1549-.5157.1886l-.0072.0022c1.043 1.9577 3.104 3.2909 5.4769 3.2909zm-2.8807 6.1945-.8237-.2839 1.2305-3.5669-.4618-.1594-1.3904 4.0293 1.286.4433zm-2.9065-3.1758c.0207.0028.0392.0039.0578.0039.1066 0 .1975-.0471.285-.1492l.8697-1.0095c.04-.0458.0704-.0991.0896-.1568s.0267-.1186.0221-.1793c-.0044-.0605-.0207-.1197-.048-.1739-.0274-.0542-.0652-.1025-.1114-.142l-.68-.5863-2.7831 3.2297.6801.5863c.0841.0724.1913.1123.3018.1123.1347 0 .2626-.059.3507-.1611l.8355-.9696c.1318-.1537.1739-.2811.1302-.4045zm-.3816-.0258-.0118.0134-.9241 1.0723-.3165-.2733.9354-1.0857zm.294-.3687-.2895-.2497.9124-1.0582.2895.2497zm-2.1058-1.6036.2194.3137-1.2681.8876c-.0965.0679-.1677.1818-.2104.266l-.0073.0146.2918.4163.0202-.0404c.0477-.0976.0926-.1902.1863-.2559l1.1497-.8046c.1666-.1167.2379-.2295.2261-.3596.0398.0157.0847.028.1352.028.0746 0 .151-.0275.2323-.0847l1.0914-.7642c.05-.0346.0926-.0788.1254-.1301.0328-.0512.055-.1085.0653-.1684.0214-.1212-.0056-.2441-.0768-.3457l-.5151-.7356-3.4918 2.4447.28.4001zm.3754-.2845.0146-.0101 1.1592-.8113.2396.3428-.0146.0101-1.1592.8114zm18.8872-10.0874.6941.3226v-6.7467h-23.9517v6.7405l.6941-.3254v-5.7199h22.5635z" fill="#001f47"/></svg>