<svg fill="none" height="48" viewBox="0 0 48 48" width="48" xmlns="http://www.w3.org/2000/svg"><path clip-rule="evenodd" d="m10.3028 11.8621v20.5331c0 1.6214.2082 2.2465.7081 3.1136l.0278.0493.0314.0466c2.8952 4.3189 7.7045 6.8973 12.8639 6.8973s9.9689-2.5782 12.8639-6.8973l.0314-.0466.0278-.0493c.499-.8663.7081-1.4914.7081-3.1136v-20.5331h-27.2616" fill="#fff" fill-rule="evenodd"/><path d="m35.9233 28.8767v3.5181c0 1.3999-.1624 1.729-.4891 2.2976-2.4957 3.7236-6.7154 6.1709-11.5008 6.1709-4.7851 0-9.0039-2.4473-11.5008-6.1709-.3267-.5685-.4891-.8977-.4891-2.2976v-18.8919h23.9785zm.7377-4.6517v-11.4593h-25.4557v19.6291c0 1.4878.1786 1.9541.5878 2.6643l.0126.0224.0134.0215c2.7273 4.0679 7.2558 6.4964 12.1138 6.4964 4.8579 0 9.3862-2.4285 12.1137-6.4964l.0135-.0215.0126-.0215c.4083-.7103.5878-1.1766.5878-2.6652v-8.1698" fill="#071c3a"/><path clip-rule="evenodd" d="m36.8377 30.1486v2.2455c0 1.53-.1857 2.0133-.6111 2.7513l-.0153.0269-.017.026c-2.7607 4.1173-7.3429 6.5745-12.259 6.5745s-9.4995-2.4572-12.259-6.5745l-.017-.026-.0153-.0269c-.4254-.7389-.6112-1.2214-.6112-2.7513v-19.8049h25.805zm.4092-5.7997v-12.1686h-26.6228v20.2138c0 1.6205.2127 2.1685.665 2.9549l.0224.0395.026.0376c2.836 4.2303 7.5458 6.7557 12.5983 6.7557 5.0526 0 9.7624-2.5254 12.5983-6.7557l.0261-.0376.0215-.0395c.4523-.7856.6659-1.3335.6659-2.9549v-8.0452" fill="#071c3a" fill-rule="evenodd"/><path d="m21.6153 18.8023c-.4173 0-.7565-.365-.7565-.8161s.3392-.817.7565-.817.7557.3659.7557.817-.3384.8161-.7557.8161zm.7386-4.6052.0036 2.5245c-.2728-.2673-.6372-.4287-1.0347-.4287-.8508 0-1.5401.7444-1.5401 1.6627s.6893 1.6618 1.5401 1.6618c.402 0 .7655-.1686 1.0401-.4404v.4099h1.0231l-.0009-5.3899zm4.2655 4.475h-.9504v-3.3971h.6632c.2907 0 .5268.2484.5268.5551 0 .3058-.236.5543-.5268.5543h-.3455v.9425h.6327c.3527 0 .6201.2995.6201.6717-.0126.3838-.236.6484-.6201.6735zm.8328-1.9424c.271-.2664.437-.6242.437-1.0179 0-.356-.1301-.6834-.3572-.9408-.2369-.2744-.6569-.3964-1.2241-.3964h-1.6979v5.2113h2.1933c.8409-.0144 1.5176-.687 1.5176-1.5066 0-.5964-.1992-1.0215-.8687-1.3497zm5.0606 2.8598h.9934v-5.3519h-.9934zm-1.6693-1.3236c0 .3129-.2611.5668-.5833.5668-.3213 0-.5825-.2539-.5825-.5668v-1.8806h-1.0114v2.0806c0 .7039.7117 1.2752 1.5912 1.2752.8786 0 1.5912-.5713 1.5912-1.2752v-2.0806h-1.0052zm-14.7583-2.3603c0-.8511-.6704-1.5407-1.4969-1.5407-.0261 0-.1409.0009-.1661.0018h-1.7419v5.2158h1.0572v-4.3163l.6309-.0054c.3904 0 .6865.3058.6865.6824 0 .3767-.3168.6825-.7062.6825l-.2459.0063v1.2421l1.0563 1.7084h1.2456l-1.4601-2.1802c.6551-.1641 1.1406-.7721 1.1406-1.4967zm1.1595 1.6698c0-.3516.2791-.6367.6228-.6367s.6228.2851.6228.6367zm.6138-1.3658c-.9306 0-1.6854.7802-1.6854 1.7424 0 .9632.7548 1.7443 1.6854 1.7443.7108 0 1.2654-.3282 1.5508-.843l-.8283-.3901c-.105.2323-.3518.3964-.639.3964-.3832 0-.6937-.2914-.6937-.6502 0-.0233-.009-.0134-.0063-.0358l2.2526.0009c.0072-.0709.0099-.1444.0099-.2189.0152-1.1272-.7153-1.746-1.646-1.746zm16.3344-1.9721v5.352h.9935v-5.352z" fill="#e31147"/><path clip-rule="evenodd" d="m31.0183 26.3925c0 3.9316-3.1886 7.1179-7.1221 7.1179-3.9344 0-7.123-3.1863-7.123-7.1179 0-3.9306 3.1886-7.1178 7.123-7.1178 3.9335 0 7.1221 3.1872 7.1221 7.1178" fill="#fad105" fill-rule="evenodd"/><path d="m30.0901 28.7023c-.0718-.1382-.3204-.4431-.2881-.6359.1831.0225.4613.0242.5627.0305-.0314.0583-.2396.5345-.2746.6054zm12.6996 2.1146c-.0134-.0556-.0359-.1148-.0529-.1614l-.0162-.044c-.0134-.035-.026-.069-.0386-.1067-.0062-.017-.0116-.0332-.0143-.0475-.0019-.0108-.0027-.0206-.0019-.0314.018-.2018-.0332-.3067-.1121-.4439-.0611-.1076-.1481-.1498-.2056-.1516-.0143.0413-.0547.0682-.0987.0682-.0063 0-.0125-.001-.0179-.0019-.0575-.0089-.0969-.0645-.0907-.1219.0019-.0144.0036-.0287.0045-.0449.0019-.0538-.0099-.1022-.0368-.1524-.0682-.1265-.5582-.5291-.744-.5291-.1498 0-.3087.0825-.4226.2215-.0207.0251-.0512.0385-.0835.0385h-.0099c-.0359-.0036-.0673-.0242-.0843-.0556-.0162-.0305-.0306-.0627-.0431-.0977-.0332-.0879-.053-.1785-.0718-.2655l-.0144-.0663c-.052-.226-.1283-.4547-.4308-.5426-.0251-.0072-.0565-.0134-.096-.0161-.0323-.0036-.0682-.0045-.1041-.0063h-.0278c-.061-.0018-.1247-.0027-.1867-.0126-.1238-.0179-.2064-.0583-.2064-.1973 0-.0116.0019-.0233.0054-.0349l.0332-.096c.0251-.0699.0601-.1776.088-.3049.052-.2377.0565-.4556.0116-.6475-.0071-.0349.0027-.0708.0269-.0968.0198-.0225.0485-.035.0781-.035.0054 0 .0108.0009.0162.0018.1247.0189.2252.0207.2531.0207.6461 0 1.671-.4215 1.671-1.5524 0-.6493-.5268-1.2672-.9683-1.6707-.0288-.0269-.0413-.0673-.0315-.1049.009-.0386.0386-.0682.0772-.0781.6273-.1641.9738-.582.9738-1.1757v-.0403c0-.0924 0-.1982-.018-.3103-.026-.1579-.0843-.304-.1777-.4466-.0099-.0153-.026-.0314-.0601-.0314-.0135 0-.0233.0027-.0269.0036-.0252.0063-.0512.0233-.07.035-.0584.0385-.1427.1103-.21.1686-.0772.0654-.1688.1138-.2989.1578-.0781.026-.1597.0475-.2468.0708-.0458.0117-.0924.0242-.1409.0377-.2997.0834-.6264.2054-.9899.5246-.166.1471-.2818.3901-.2925.6206-.0099.1937.0619.3946.2208.6125.1373.1901.3194.3686.5106.5507l.0682.0645c.07.0664.1382.1319.2037.1973.0996.0987.1741.1803.236.2547.1508.1865.2217.339.2217.4816 0 .3031-.2172.5076-.5465.5076-.3644-.0027-.6444-.1426-1.0339-.4-.0592-.0395-.1202-.0798-.1831-.1229-.1292-.0869-.2629-.1766-.4119-.2699-.2692-.1686-.5187-.3022-.7844-.4206-.14-.0628-.2791-.1112-.4361-.1533-.1131-.0305-.2199-.0529-.324-.0745l-.0503-.0098c-.2378-.0503-.437-.0996-.6488-.2386-.0601-.0403-.123-.0825-.1867-.1264-.1104-.0754-.2252-.1534-.3419-.226-.2253-.1399-.4065-.2287-.5717-.2789-.0511-.0153-.1041-.026-.1723-.0368-.0287-.0045-.0583-.0081-.087-.0117l-.0691-.0089c-.1059-.0144-.1966-.0359-.2926-.0906-.0601-.0359-.1176-.0735-.1822-.1211-.0458-.0331-.0888-.0681-.1337-.1031l-.0305-.0242c-.1131-.0879-.2396-.183-.4326-.2879-.2916-.1578-.5842-.2358-.8346-.2968l-.0494-.0117c-.0968-.0233-.1812-.043-.253-.0672-.0413-.0135-.0736-.0261-.0969-.0386-.0153-.0081-.0287-.0179-.035-.0215-.0072-.0063-.0135-.0126-.0197-.0198-.6238-.7838-1.3713-.8447-1.5858-.8447-.0494 0-.0951.0026-.1382.0071-.2504.0269-.5492.2475-.8086.4592-.0942.0771-.1894.1587-.2863.2412-.1974.1677-.4002.3417-.6004.4834-1.0329.7345-1.4072 1.0286-1.8963 1.5622-.6614.7228-.8696 1.6394-1.0527 2.4483l-.0134.0583c-.0889.3928-.1804.799-.3159 1.1712-.1589.4358-.3527.7658-.6121 1.0367-.1256.1309-.2306.2313-.3213.3067-.061.0502-.1068.0816-.1462.1094l-.027.0188c-.1086.0771-.1516.1767-.1202.278.0404.1291.2064.2628.4864.2673.0314.0009.0619.0161.0817.0421.0206.0251.0278.0583.0206.0897-.0117.0484-.0027.0897.0278.1291.0763.0987.2585.1543.3617.157h.044c.4944 0 .9189-.1812 1.2636-.5381.0215-.0225.0493-.0332.0771-.0332.0261 0 .0521.0099.0727.0278.1364.1264.3132.1901.5385.1946h.0242c.105 0 .21-.0117.3061-.0224.0484-.0054.0951-.0099.1391-.0135.0242-.0009.0484-.0027.07-.0027.0161 0 .0314 0 .0457.0019.0584.0044.1329.0224.2361.0583.0709.0242.1471.0529.2243.0825l.0691.0269c.1508.0574.3787.1444.552.1444.0099 0 .0197 0 .0287-.001.3895-.0242.5349-.3138.5869-.4833.0144-.0458.0557-.0763.1032-.0763h.0036c.0485.0019.0898.035.1005.0825.0099.0413.0207.0807.0323.1193.0611.2054.1418.3426.2612.4457.0368.0323.0834.052.1516.0628.0575.0099.14.0143.2612.0161.0233 0 .0458.0072.0637.0215.0135.0099.0314.0269.0592.0547.0252.0243.0512.0512.0754.0727.0225.0188.0557.0448.0961.0583.5456.1856 1.2564.3865 1.6127.3919h.0125c.4864 0 .6525-.4655.7009-.6664.0099-.0412.0422-.0726.0835-.0798.4523-.0897.7009-.7694.7-.8869-.0027-.2188-.087-.3058-.3042-.3211l-.7898-.0009c-.017 0-.0341.0027-.052.0081-.0099.0027-.0198.0036-.0296.0036-.0359 0-.0709-.0179-.0907-.0493-.0287-.0449-.0601-.0664-.1131-.079-.0394-.0089-.07-.0403-.0798-.0798-.009-.0394.0044-.0807.0359-.1067.0161-.0134.0314-.0278.0466-.0412.0207-.0189.0458-.0287.0736-.0287h.0045c.1077.0044.3168.0125.516.0125.0889 0 .175-.0018.2486-.0062.1589-.0081.2917-.0243.4317-.0404.2199-.0251.4469-.0511.7879-.0511l.7395.0403c.1589 0 .3025-.0206.429-.0609.0099-.0036.0216-.0054.0323-.0054.0207 0 .0404.0063.0584.017.026.0171.0439.0458.0484.0771.0476.3731.1705.7031.3554.9533.0476.0655.1077.1211.1894.1767.0422.0287.0861.0556.131.0825.026.0153.0521.0314.0772.0475.1956.122.4379.2736.7413.2736.0808 0 .1651-.0108.2486-.0323.0906-.0233.1821-.035.2773-.035.0475 0 .0951.0036.1391.0081.1202.0134.227.0403.3141.0619l.0224.0053c.1409.035.2737.0906.4066.1695.1094.0664.2019.1355.2907.2036l.0243.0179c.1768.1346.3607.2736.6165.2736.0099 0 .0197-.001.0305-.001.0171-.0009.0368-.0062.0458-.008.0134-.0045.0305-.0099.0493-.0162.035-.0125.0763-.0296.1176-.0457.0404-.0153.0853-.0332.1373-.044.0063-.0009.0135-.0018.0206-.0018.035 0 .0683.017.0889.0466.0135.0198.026.0422.0413.0646.0251.0413.0511.0843.0852.1274.0987.1273.2782.2977.6983.3085.0385.0009.0753.0009.1103.0009.219 0 .3536-.0171.4138-.0269.0062-.0009.0116-.0009.0179-.0009.0215 0 .0431.0062.061.0188.0449.0314.0925.0457.1454.0457.1131 0 .28-.0341.4164-.0834.0808-.0305.1472-.0645.1975-.1013.0637-.0475.1014-.1005.1104-.157.0062-.0421.0018-.0932-.0135-.1551zm-24.709-2.5514c-.0736.0897-.1831.1175-.2818.2941-.2019-.078-.2369-.3426-.2737-.4565.1606-.0296.5394-.1013.7377-.1318-.0817.1031-.1409.1731-.1822.2942zm4.7635.8313c-.2019-.1148-.323-.2905-.4047-.4313-.0359-.061-.0682-.1229-.1005-.183l-.0377-.0708c-.0404-.0754-.0889-.1615-.1463-.2359-.0224-.0278-.0493-.0574-.0772-.087l-.0816-.0843c-.0252-.0269-.0494-.0538-.0691-.0789-.0198-.0251-.0332-.0466-.0404-.0646-.3554-.9093-.4389-1.425-.5672-2.3316-.0664-.4663-.3518-.8439-.814-1.4098-.0583-.0708-.1221-.1542-.1912-.2421-.0475-.061-.096-.1246-.1462-.1874-.1517-.1919-.2756-.3336-.3734-.4296-.166-.139-.3132-.2636-.4451-.3757-.1885-.1606-.3482-.296-.4954-.4171-.2782-.2277-.4918-.3892-.7386-.5551-.3437-.2322-.7117-.3497-1.0931-.3497-.3894 0-.6757.1255-.7735.1919-.3276.2233-.5753.3614-.8535.4771-.2019.0834-.411.1515-.6758.2385-.0852.0278-.1759.0574-.2746.0906-.3015.1005-.5151.2753-.6668.4161-.0368.035-.0718.0682-.105.1005-.0368.0367-.0727.0708-.1059.1013-.0682.0619-.1166.096-.1597.1112-.0458.0162-.1194.0278-.2253.035-.0556.0036-.1131.0063-.1687.009-.0413.0017-.0817.0035-.1194.0053-.3455.0207-.6237.2153-.8023.3597-.0924.0753-.1795.1542-.2629.2304l-.0395.0368c-.1059.0951-.1804.1596-.2522.2054-.245.1587-.4774.1811-.7323.2062-.131.0135-.2656.0269-.411.0565-.1724.0359-.3357.0906-.49903.1668-.18308.0861-.36796.1964-.5995.357-.10051.0699-.19833.1408-.29527.2116-.08615.0628-.17141.1247-.25667.1847-.38232.2673-.71078.4457-1.06615.4457-.35089 0-.60039-.2053-.63449-.5228-.02962-.2807.11308-.5632.40385-.7981l.15974-.1283c.11936-.095.23064-.1847.33205-.2708.16872-.1444.2827-.261.37155-.3776.21807-.286.27371-.5811.17948-.9568-.08436-.3363-.34372-.5659-.79243-.7004-.16065-.0485-.32399-.0781-.47654-.1023l-.05295-.0089c-.04667-.0072-.08974-.0144-.12654-.0207-.04936-.0089-.08346-.0179-.1032-.026-.24321-.1085-.7736-.4627-.87949-.5345l-.04308-.0287-.02962.0431c-.09692.139-.1732.2484-.23153.7309-.06372.5327.37602 1.1828 1.13168 1.3021.04217.0063.07628.0377.08705.0789.01167.0413-.00359.0843-.0368.1113-.80052.6286-.97104.8986-1.01322 1.6043-.02513.4386.12744.8681.42089 1.1793.32128.3399.78617.5201 1.34528.5201.14897 0 .30691-.0134.46757-.0385.00539-.0009.01167-.0009.01705-.0009.02334 0 .04757.008.06641.0233.02334.0179.0377.0457.04039.0753.0368.4914.12654.8914.23783 1.0699.02693.043.01975.1004-.01884.1354-.03411.0314-.08795.0628-.15706.0888-.17051.0673-.42987.1085-.68744.1085-.16064 0-.28091.1103-.37692.348-.03141.0771-.05744.1587-.08256.2385l-.00629.0224c-.01346.0404-.02513.0781-.03769.1104-.01077.0313-.02243.0591-.035.0816-.0323.0574-.07987.1139-.14538.173-.02064.0171-.04577.0261-.0718.0261-.00538 0-.01256 0-.01795-.001-.0323-.0062-.06013-.0251-.07538-.0538-.07898-.1426-.20372-.2331-.36975-.269h-.00359l-.01705-.0009c-.245 0-.6695.208-.82656.5972-.01436.0359-.04756.0619-.08705.0664l-.01974.0027c-.19565.0206-.31859.1112-.3886.2852-.02871.0735-.04666.156-.06012.2287l-.01077.0529c-.01077.06-.02244.121-.03859.1802-.01167.0476-.02872.0888-.05385.1354-.01257.0225-.02513.044-.03769.0637-.00898.0144-.01795.0296-.02603.0431-.04308.0798-.06551.1614-.03051.3013.01615.0637.06641.1184.14987.1641.06192.0332.1418.0628.23783.0861.17052.0403.33924.0538.37244.0538.02334 0 .04667-.0063.06911-.0188.01615-.0099.0323-.0215.05025-.035.01885-.0153.04577-.0242.0709-.0242.00538 0 .01077 0 .01615.0009l.07988.0152c.06551.0126.14718.0287.22795.0458l.01256.0018c.07808.0162.15436.0314.21628.0431.03321.0062.06372.0116.08526.0143.02513.0036.04487.0054.05654.0054h.0009c.33745-.0153.48012-.1471.57526-.2735.02602-.035.05025-.0727.07359-.1121l.03859-.0646.02871-.0493c.02693-.0467.05475-.0906.08526-.1319.02064-.0278.05295-.043.08615-.043.00988 0 .01885 0 .02782.0027.03859.0107.07808.0179.11129.0242.07807.0126.14987.0197.18038.0215.02244.0018.04398.0027.06552.0027.31948 0 .55731-.1776.75476-.3453l.06551-.0547c.02962-.026.05923-.052.08885-.0771.03949-.0323.09243-.0744.14628-.1103.09513-.0637.1768-.0933.25578-.0933l.01974.0009c.07628.0045.36525.0252.85527.1032.02154.0027.04218.0045.06462.0045.1095 0 .2504-.0377.4182-.113.1203-.0539.2585-.1292.3994-.2162.0296-.0188.0655-.0358.1086-.0556l.0125-.0053c.0404-.018.0826-.0377.1266-.0601.0807-.0413.1983-.1094.2934-.2278.0557-.07.131-.2179.2046-.3668l.0799-.1632c.044-.0906.0906-.1865.1382-.2816.0189-.0368.0557-.0592.0969-.0592h.0297c.1525 0 .3347-.0233.4926-.0466.07-.0099.1382-.0207.2038-.0314.1453-.0225.271-.0422.3643-.0458.0233 0 .0853.0036.1714.0099l.1939.0126c.245.0152.4442.0224.6093.0224.0987 0 .1858-.0027.2585-.0081.131-.009.2513-.0296.3473-.0583.0269-.0081.0565-.0179.0861-.0314.0135-.0053.0288-.008.0431-.008.0269 0 .0548.0098.0745.0295.0539.053.1104.105.1678.1561.0332.0278.0449.0735.0314.1148-.0134.0403-.0502.069-.0933.0726-.0215.0009-.0431.0036-.0637.0063-.0682.0099-.1921.0368-.2549.1175-.0206.0269-.052.0421-.0843.0421-.0153 0-.0297-.0036-.0431-.009-.0153-.0071-.0296-.0125-.0458-.0161-.0332-.0099-.0646-.0108-.0915-.0117h-.0503l-.0547.001h-.0296c-.0979 0-.3258 0-.5232.0322-.1212.0198-.2172.0485-.2854.087-.0647.0368-.14.1032-.1338.2126.0117.2017.2962.7479.49.9416.0377.0377.1652.078.307.078.0143 0 .0296-.0009.0448-.0018h.0081c.0395 0 .0763.0224.0951.0583.1984.391.5421.6529.8544.6529h.0207c.2988-.0117 1.1056-.3023 1.671-.5677.0072-.0036.0143-.0063.0224-.0081.018-.0036.0395-.0071.061-.0098.0341-.0045.0709-.009.1113-.0135l.0575-.0072c.1247-.0143.2665-.0367.3697-.0861.0951-.0448.2333-.2224.3527-.4528.0189-.0359.0557-.0583.0951-.0583.0036 0 .0072.0009.0108.0009.0431.0036.0799.0332.0925.0753.0143.0466.0305.087.0502.1247.096.1811.2684.2735.5116.2735.0134 0 .026-.0009.0394-.0009.167-.0063.3518-.0628.5107-.1148l.0906-.0296c.1374-.0457.2666-.0888.3868-.1103.0431-.0081.0916-.0117.149-.0117.0251 0 .053.0009.0808.0019.0511.0026.1023.0071.1543.0107.0342.0036.0691.0054.1041.0081.0494.0036.1006.0063.1544.0063.1481 0 .263-.0215.3671-.0718.1507-.0619.2674-.1462.3455-.2018l.0278-.0206c.0189-.0134.0413-.0206.0637-.0206.0252 0 .0503.009.0709.0278.2109.1874.6668.5022 1.3372.5022.0224 0 .0458 0 .0682-.0009.1598-.0045.2845-.0574.3527-.148.0449-.0609.0592-.1336.0404-.2062-.0072-.0278-.0018-.0592.0135-.0843.0161-.0251.0421-.0431.0718-.0485.1103-.0197.1992-.0582.2647-.1165.0592-.0521.0978-.1283.0987-.1946 0-.0449-.0161-.0826-.0502-.1139-.0727-.0682-.1149-.0933-.3276-.2117" fill="#fff"/><path d="m20.3085 22.1258c0-1.9694 1.5974-3.5656 3.5681-3.5656 1.9708 0 3.5673 1.5963 3.5673 3.5656 0 1.9684-1.5966 3.5647-3.5673 3.5647s-3.5681-1.5963-3.5681-3.5647z" fill="#fff"/><path d="m21.1951 24.0484c1.0401.7506 2.5065.8699 3.6525.2547 1.2456-.6439 1.9994-1.9702 1.8846-3.4005-.0216-.2072-.0548-.409-.1095-.6054.3518.5283.5537 1.1542.5537 1.8286 0 1.8205-1.4772 3.2975-3.2998 3.2975-1.1048 0-2.0821-.5426-2.6816-1.3748" fill="#d1d1d1"/><path clip-rule="evenodd" d="m22.9039 22.9489c-.7718-.1856-1.2986-.3721-1.2986-.3721-.0834-.7964-.0125-1.4896-.0125-1.4896.3338-.174 1.2393-.5785 1.2393-.5785.4308.4888.8427 1.1435.8427 1.1435-.1992.3847-.7709 1.2967-.7709 1.2967zm-1.2726-3.2409c-.0771.1264-.3042.5075-.5079.9613-.1929.2413-.3608.4861-.4335.5937.1634-.6045.4954-1.1407.9415-1.555zm3.4632 1.9182s.289-.6035.6363-1.0914c0 0 .6686.3148.9827.5713 0 0 .1158.3596.0395 1.4124 0 0-.3994.2314-.9773.3731 0 0-.3922-.6619-.6812-1.2654zm-1.4969 2.4726 1.4269-.0386.2755.7766c-.5393.3211-1.1882.4888-1.1882.4888-.6821-.148-1.0733-.4439-1.0733-.4439zm.2791-5.2714c.4352 0 .8508.0843 1.2313.2367-.0135.0619-.0601.2359-.193.4565-.6883-.0897-1.4529-.0197-1.4529-.0197l-.6354-.5031c.3303-.1103.683-.1704 1.05-.1704zm-2.1153 5.8302c-.5465-.4565-.9432-1.0861-1.1047-1.8053.1768.183.5178.5336.5178.5336.2064.4242.7197 1.1623.7197 1.1623-.0368.0412-.0951.0834-.1328.1094" fill="#071c3a" fill-rule="evenodd"/><path clip-rule="evenodd" d="m18.1151 38.4802 1.3525.6519.6524-1.3506-.4505-.2179-.4353.9004-.4505-.217 1.8811-3.8958-.4514-.2179zm3.4237-2.1721.4927.0879.1777-.9847.4792.0861-1.6504 3.5925-.088.4923 1.4781.2655.2657-1.4771-.4927-.0888-.1768.9856-.4801-.087 1.6504-3.5917.0888-.4924-1.479-.2663zm-3.1025-2.7092.394.3094-1.0294 1.3066-.394-.3094zm-3.0719 3.0912.394.3095 1.3389-1.7004.394.3094-1.339 1.7004.3931.3093 2.5488-3.2357c.2549-.3246.1983-.799-.1257-1.0546-.3248-.2547-.7996-.1982-1.0554.1264zm9.4232 3.2204.9944-.1193c.2764-.0323.4711-.2798.4379-.556l-.1732-1.4564c-.0359-.296-.149-.3848-.2755-.417.1131-.0817.2037-.1812.1768-.409l-.1813-1.5174c-.0332-.2753-.2809-.4708-.5564-.4376l-.9944.1184zm-.0152-4.3568.4971-.0592.1966 1.6519-.4963.0592zm.2566 2.1488.4972-.0601.1966 1.6519-.4972.0592zm2.7363-3.5468-.4649.1856 1.6082 4.0177-.4648.1865-1.6082-4.0177-.4649.1857 1.5301 3.823c.1535.3829.5923.5712.9765.4179.3832-.1534.5707-.5919.4182-.9758zm3.4542 3.5064.4056-.2924-1.2671-1.7559.4065-.2924 1.0563 1.4645c.0727.0987.1947.1767.2979.2278l.4174-.3013c-.1257-.0592-.2298-.1094-.3079-.2188l-.9432-1.3058c-.1741-.2412-.3159-.2646-.4415-.2314.0583-.1264.0897-.2564-.0449-.443l-.8947-1.2393c-.1625-.2251-.4739-.2754-.6991-.1139l-.8122.5856zm-2.1278-3.8024.4056-.2932.9746 1.3488-.4065.2932zm4.1407.9569c.324.2556.7987.1982 1.0545-.1255.2548-.3238.1983-.7991-.1257-1.0547l-1.5364-1.2079-.4442.5631.393.3103.1346-.1703 1.3076 1.0286-.3096.3928-3.0101-2.3668.3105-.3928.595.4682.3096-.3937-.4299-.339c-.3248-.2547-.7996-.1973-1.0554.1264-.2548.3238-.1983.7982.1257 1.0538zm-15.6425-2.9863c.1338.2744.062.6448-.1435.8609l-.5268.4242-.3079-.3973c.1867-.1731.4048-.3193.604-.4852l-.3006-.3982-1.3282 1.0197c.1579.2878.5061.5219.3724.8905l-.0269.1255-1.4189 1.0932c-.1848.1032-.4379.1112-.638.0305-.2379-.0923-.4218-.3363-.4613-.5766-.0449-.2852.0556-.5542.2746-.7453.1472-.1165.3006-.2268.4487-.3497.1113.1282.2091.2691.3069.4099-.1929.1605-.3976.3075-.5968.4672l.2944.4035c.4433-.3255.8857-.6815 1.3354-1.0259-.184-.3004-.5816-.5982-.3339-.9847l.1104-.1291 1.2896-.9829c.2046-.1282.5196-.1148.7261.0027.131.078.2602.2143.3203.347" fill="#071c3a" fill-rule="evenodd"/><g fill="#e31147"><path d="m20.9375 27.3019c-.0018.0054-.0188.0538-.0188.0538-.0009.0036-.0162.0539-.0162.0539-.0179.0493-.0466.0762-.0888.086-.0251.0072-.0494.0036-.0682-.0107-.0189-.0144-.0305-.0368-.0305-.0628 0-.0009-.0036-.0556-.0036-.0556l-.0189-.1919c-.0152-.0888-.0413-.157-.0825-.2143-.0018-.0019-.0844-.0978-.0844-.0978-.0027-.0036-.0951-.1076-.0951-.1076-.0727-.0735-.1391-.1085-.2073-.1103-.053.0161-.1014.052-.1535.1085l-.0655.0807-.0583.0789c-.0216.0359-.0691.0153-.0691.0153s-.0045-.0027-.009-.0045c-.0009-.0045-.0036-.009-.0036-.009-.0144-.0368-.0198-.0735-.0198-.1067 0-.0601.018-.113.0359-.1569l.0503-.1032.0583-.1228.0072-.0117c.018-.0161.035-.0466.0539-.0969l.0152-.0421.0341-.087c.0512-.1103.1284-.1399.2405-.0924.0871.0467.1409.1211.1813.1866l.0278.0457.0359.0583.0727.0942c.2011.2251.298.4367.298.6564 0 .0547-.0054.1103-.018.1659zm-.7619 1.6941s-.0027.0018-.0018.0036c-.0009-.001-.0054.0009-.0054.0009-.1157.0359-.2468.0511-.3886.0439l-.0071-.0018-.0261-.0108c-.0009-.0009-.0278-.0179-.0278-.0179-.0134-.0108-.0341-.0341-.0224-.07.0538-.1614.2136-.347.4155-.3892h.0179.0288l.0448.0063c.0216.0063.0593.0242.0691.0771.0027.0296.0054.0628.0054.0969 0 .0959-.0197.1991-.1023.2609zm-2.371-4.0992c-.008-.0027-.0152-.0044-.0152-.0044s-.0009.0026-.0018.0062c-.0027.0018-.0045.0045-.0045.0045-.0179.0171-.0494.0296-.0808.009 0 0-.0045-.0027-.008-.0054-.0009-.0054-.0018-.0108-.0018-.0108-.0485-.2475-.1041-.5102-.2047-.7533l-.0574-.0986-.0224-.0314-.0494-.0717c-.0395-.0628-.0772-.1471-.0251-.2475l.0063-.0081c.0448-.0449.1247-.0493.1795-.0287l.0071.0036c.1059.0735.175.1946.2244.2825.0628.1461.0951.33.0951.5192 0 .1444-.0188.2924-.0565.4305 0 0 .0072.0018.0152.0045zm4.883 4.379c-.3733-.2179-.5223-.6277-.7529-.9515-.0799-.1183-.2235-.1937-.298-.3111-.2674-.7274-.498-1.4546-.5662-2.2878-.0566-.2053-.0997-.417-.2118-.6098-.3357-.547-.7709-1.0447-1.1945-1.5478-.0368-.0377-.0377-.0404-.1185-.1184l-1.4736-1.2241c-.1804-.1372-.3868-.2242-.5914-.3175-.3114-.1184-.7341-.0933-1.0383.0377-.3177.1677-.604.4098-.9406.5219-.4846.2179-1.032.261-1.4493.634-.2423.2117-.4479.5408-.8086.4852-.4048-.0188-.7655.13-1.0698.3793-.2737.2484-.5348.5408-.8902.6089-.3105.131-.6902.0682-1.0078.1866-.50351.1246-.90198.5219-1.33096.8268-.42898.2484-.83999.5157-1.37489.5031-.3482-.0242-.68475-.2672-.79694-.6026-.105-.3856.01257-.7829.3177-1.0439.31769-.3793.82115-.6035 1.06973-1.0385.13103-.2304.11218-.6035-.06192-.8205-.32936-.3417-.80231-.3543-1.23219-.4601-.27282-.0753-.48462-.2861-.72783-.4161-.09334.1426-.12385.2977-.11129.4717.04936.3919.34821.7461.72154.8825.21718.0932.46666.0251.69013.0753.06193.0242.12475.087.13103.1551-.01257.0619-.01885.1247-.07449.1677-.3491.2924-.71526.5722-1.00782.9327-.31142.3354-.3491.9264-.18667 1.3488.18039.4852.68386.8026 1.16936.8645.35449.0565.67218-.0368.99525-.1058.04398 0 .06192.0439.08077.069.03141.2852-.01256.5408.05026.8018.05564.2421.13641.4107.22346.6466.01257.0807 0 .1677-.05564.2295-.18039.1372-.36706.2305-.56628.3175l-.48552.0314-.09333.0439c-.18039.2108-.18667.4287-.29796.6645-.14987.2493-.4236.3668-.65335.5103-.07448.1175-.15615.2422-.26115.3354-.08166.0745-.18128.0933-.28628.1058-.16872.1929-.20552.4601-.24948.7211.27372.0251.56.1739.82745.0251.23064-.1058.28001-.3857.45501-.5534.13641-.1488.34193-.0376.50346-.0062.24231.0125.41641-.1615.62192-.2431.14269-.0923.26115-.2538.41104-.3479.28628-.1363.68386-.0619.98269-.0063.23601.0628.48549.0251.69099-.0681.1921-.1175.3725-.2673.5905-.3166.193-.0995.2863-.3175.3671-.4977.0619-.1677.2244-.2987.2118-.4915-.0502-.043-.1059-.1372-.1804-.1309-.0933.1309-.1624.2681-.2674.3928-.4505.6125-.8041.6708-1.71774.6708-.67756-.0242-1.28783.1802-1.75449.7085-.03051.0188-.07449.0062-.09962-.018-.01795-.0744.04398-.1982.07449-.2547.41731-.5901 1.06436-.7264 1.74822-.7398.37334-.0242.72874-.087 1.04554-.2484.3545-.1803.5977-.461.7467-.8089.0807-.3919.1121-.8143.2118-1.1883.0125-.0368.105-.0645.1364-.052.0368.0063.1113.0395.1113.0834-.0683.3856-.1921.8394-.0422 1.2125.2979.3919.8516.1802 1.2564.1614.4236-.0368.7628-.0045 1.1676.0206.1992-.0063.3464.0422.5016-.0816.0431-.0691.0611-.1614.0485-.2359-.0126-.1121-.1059-.1793 0-.2726.0305-.0251.1238-.009.1481.0224.0565.1561.0816.3229.1813.4601.1992.2556.4909.4538.7646.5973.2611.1802.4792.4349.4981.7524 0 .1614-.1499.2735-.2738.3479-.2118.1058-.4424.1928-.691.1686-.3293-.1623-.4164-.5103-.6345-.765-.1113-.1246-.28-.1497-.4478-.1372-.1804.0189-.3608.0251-.5223.0816-.044.0368-.0565.0924-.0502.1489.1121.2054.2369.4036.3607.6089.1436.087.3428-.0493.4667.1058.1059.1615.1741.3543.3365.4789.1553.1363.3922.1982.5968.1121.4604-.1435.9208-.2932 1.3498-.5228h.1436c.1741-.0188.367-.0063.4918-.1363.1364-.1991.2485-.3856.3544-.5973.1051-.1426.0557-.3605.0126-.5156-.2118-.261-.3302-.5534-.4424-.8529-.105-.0305-.1984-.0924-.3168-.087-.0557.0251-.1373.0126-.1687.0745l.4917.9712c.0315.0735.0691.1793.0503.2798-.0691.2045-.1741.4035-.3428.5533-.0305.018-.0682.0368-.0925-.0062.0557-.2117.1553-.4422.1427-.6843l-.4792-.8645c-.0556-.1184-.1552-.2242-.149-.3614 0-.0619.0557-.1049.1059-.1301.2109-.0681.4667-.0556.6282-.2233.2118-.33.2558-.6528.3115-1.0447.0125-.0251.0628-.0727.0996-.0727.0377-.0125.0799.0413.0987.0601.0628.4287-.0251.8636-.2737 1.1999-.0126.044-.0305.0996.0188.1301.236.0753.4856 0 .6848-.1049.2549.0062.4909-.0565.7215-.0933.0243.0125.0494.0368.0494.0619-.1553.1739-.2423.3667-.2863.5909-.1867.1929-.4541.3606-.473.6404.0315.1372.1499.0062.2307.0188.0377.0063.0619.0368.0619.0744l-.1867.2736c-.0996.1623.0189.3479.0189.5039.044.1238.1929.1866.3231.1866.2809-.0126.5294-.1184.778-.2054.2737-.1184.6157-.1121.9145-.0628.2926-.0179.5107-.2107.7279-.4035.1184 0 .2243.0807.3051.1677.3356.3605.7718.5156 1.2627.504l.044-.0251c.0305-.0314.0179-.087-.0189-.1121l-.2925-.1489c-.2056-.1309-.4604-.3049-.5286-.5345-.0629-.2054-.1741-.4296-.2989-.6277-.0431-.1005-.1427-.1812-.1867-.2807.0126-.0126.0252-.0314.044-.0251.3231.1121.516.4295.665.7156.2369.33.5789.6089 1.0267.5345l.0377-.0305c.0188-.0251.0126-.0565 0-.0753l-.2244-.1112"/><path d="m6.17018 29.9649c.19295-.1121.31769-.3228.41731-.5031-.01885-.069-.08795-.1184-.14359-.1686-.0368-.0305-.09334-.0053-.13731.0063-.13642.1184-.2791.2116-.42898.3049-.06193.0439-.0368.1372-.04936.2054 0 .0618.07449.1058.11218.1426.0682.0313.15525.0376.22974.0125"/><path d="m5.51684 29.9834c-.09961.0493-.20551.1435-.22974.2547-.03141.1991.01256.3856-.14359.5291-.00629.0368-.04308.0798-.00629.1175.13731.0439.26745.0995.43526.1184.07538-.2431.13102-.5103.21807-.7211v-.0627c-.07448-.0924-.14897-.2117-.27371-.2359"/><path d="m14.9542 29.3245c.1248.1372.1185.3479.2621.4538.1858.0314.3536-.0431.4972-.1552.0816-.0681-.0368-.1551-.0494-.2367-.0808-.1175-.0251-.3543-.2243-.3605-.1993.0314-.3976.0376-.5968.0376l-.0566.0368c-.0368.1193.1364.1193.1678.2242"/><path d="m42.4274 30.6239c-.0305-.1426.0063-.3416-.0871-.4726-.0807-.0619-.1552-.1551-.2611-.13-.0871.0744-.2181.1614-.1993.2914.0745.2242.1248.3857.1679.6161.0251.0431 0 .1301.0691.1301l.3975-.1301c.0691-.1121-.0619-.1991-.087-.3049"/><path d="m31.0068 23.425-.0269.0521-.0288.0466c-.0009 0-.1965.182-.1965.182l-.21.1964c-.1579.1534-.2683.2825-.3482.4072-.0664.0914-.1167.1982-.166.3013-.0144.0305-.0521.0314-.0727.0242 0 0-.0054-.0018-.0117-.0036-.0018-.0054-.0036-.0116-.0036-.0116-.0134-.0395-.0197-.0807-.0197-.1265 0-.035.0036-.0717.0117-.1121l.0386-.1551.0188-.07c.1202-.3165.3868-.6484.7323-.9066.044-.0287.1265-.0485.1894-.0287.0386.0116.0655.0367.0816.0735.0144.026.0225.0511.0225.0771 0 .0171-.0036.035-.0108.0538 0 0 .0081.0027.0153.0054-.0072-.0027-.0153-.0054-.0153-.0054zm-2.538 3.5351-.0171.0592c-.0143.0206-.0323.0439-.0565.0583-.0188.0117-.0494.0215-.0817.0009-.0332-.0134-.0583-.0341-.0807-.0637-.001 0-.027-.0403-.027-.0403l-.0224-.0395c-.0278-.0484-.0547-.0843-.1194-.0789-.0583-.0036-.1005.0206-.1373.0457l-.0404.0305-.0233.0171-.0655.0439c-.0027.0018-.0888.0762-.0888.0762l-.0386.0323-.1257.1166c-.0906.0942-.14.1802-.1552.2699l-.0171.0655-.0054.0287-.008.0395c-.0081.043-.0243.0914-.0682.1192-.0297.0081-.0665.0027-.0943-.0179-.0233-.017-.0359-.0404-.0359-.0646-.0251-.3004.0799-.5811.289-.7712.1059-.087.1947-.1919.2683-.2825l.0817-.1032.1633-.2026.0189-.009c.1184-.0233.192.0825.2181.1291.1032.1328.1866.2825.2647.4718.0045.0134.0063.0278.0063.043 0 .0081-.001.017-.0019.026zm-.1427 2.1523-.0036.0081c-.0413.0278-.0915.0404-.1615.0368l-.1185-.0135-.0395-.0062-.009-.0027c-.1193-.0664-.148-.2018-.1615-.3381 0-.0458.0153-.0816.0458-.1059 0 0 .0036-.0035.0071-.0053h.0081c.1643 0 .2881.0484.3671.1453l.0044.0071.0243.0475.0368.0772s.0081-.0027.0152-.0054c-.0071.0027-.0152.0054-.0152.0054.0116.0287.017.0556.017.0798s-.0054.0475-.017.0699zm13.2551 1.1892c-.3176.0179-.4738-.3238-.6596-.5228-.1561-.1803-.4604-.2861-.4541-.5534-.0565-.1058-.0691-.2735-.1185-.4107-.0439-.1112-.087-.2726-.2369-.2978-.2674-.0439-.5905.0314-.7583-.2179-.1741-.1865.0179-.4044.0493-.5847.0745-.2305.0808-.5345.044-.7713-.0062-.1363-.0996-.2484-.0754-.3847.0629-.1184.2118-.0314.3052-.0188.3482.0995.7592.0502 1.076-.087.4361-.2116.7844-.6529.7655-1.1569-.0619-.6528-.5286-1.1873-1.0329-1.6097-.0925-.0807-.2109-.1686-.2424-.2861-.0125-.2547.2738-.1309.4165-.1928.175-.0439.349-.087.4917-.1865.3797-.2547.4604-.7022.3859-1.1372-.0125-.0376-.0125-.0941-.0682-.0941-.0691.0565-.1373.1372-.2243.1865-.2423.1435-.5663.1184-.8212.243-.3177.1363-.7089.3292-.8463.6897-.0377.1802.0063.3668.0871.5165.3859.6089 1.2008 1.0071 1.3318 1.7407.0494.2977-.0996.5157-.3303.6834-.3482.2116-.8705.1372-1.2187-.0494-.6722-.3362-1.2573-.8958-1.9789-1.1254-.4541-.2054-1.0141-.1552-1.4179-.4726-.3051-.1991-.5852-.4601-.9271-.5471-.2369-.0807-.5043-.0681-.7215-.1865-.2244-.1991-.4604-.3856-.7225-.5157-.3598-.1811-.7583-.2735-1.1568-.3605-.236-.0565-.323-.3174-.516-.4484-.3303-.26-.6973-.4475-1.1451-.4098-.1867.0125-.3294.1363-.473.2609-.9513.8332-2.0408 1.4053-2.9113 2.356-.5852.6035-.7404 1.3685-.9585 2.1084-.3105 1.1183-.4415 2.3504-1.5678 3.0401-.0189.0313-.0189.0869.0188.112.2989.0745.5914-.0439.7907-.2484.192-.3049.3984-.5972.6587-.877l.0628-.0305c.0305.0054.0682.0242.0557.0681-.0745.2485-.2989.4287-.3734.678-.0996.2978-.3859.5273-.6282.739l-.0063.0377c0 .0304.0314.0627.0619.0681.5475.0251.9397-.3668 1.3067-.7336.0377-.0367.0871-.0305.1373-.0188.1616.1247.3106.3112.5223.3551.2244-.0313.4604-.0627.6974-.0439.3293.0996.6461.2367.9764.348.1678-.0054.2916-.1677.3796-.3041.0682-.1614-.0314-.3237-.0189-.4788.0808-.0503.1741.0125.2612-.0126.0368-.0251.0682-.069.0682-.1121-.0619-.2852-.3168-.4968-.3985-.765-.1238-.3416-.5286-.547-.6031-.9138.0189-.0251.0494-.0619.0817-.0377.2666.1929.5035.4475.8328.4978.2495.0251.5044.0493.753.0305.0377-.0126.0682-.0556.0556-.0987-.105-.2242-.2046-.4484-.2674-.6905-.0871-.3049-.149-.7273-.0494-1.0627.0189-.0251.0996-.0736.1364-.061.0503.0126.1113.0726.1176.1166.0377.5291-.0171 1.0134.2997 1.4295.1365.2179.3734.2609.5412.4296.0628.0869.0745.2295.0314.3291l-.3796.5605c-.0871.1246-.1741.2609-.2055.3973-.0314.156-.0126.3049 0 .4546-.0252.0117-.0368-.0251-.062-.0376-.0996-.2054-.2117-.4663-.1058-.7085l.4783-.7407.0197-.0556c-.1059-.0565-.2243-.1121-.3365-.1373-.0557.0252-.0934.0808-.131.131l-.4658.8457c-.0314.0995-.0628.1739-.0377.2798.0251.1246.0556.2493.1122.3542.0368.174.0682.2924.149.4484.1184.13.28.0117.4298.0493.149.0377.2047.217.3545.261.3357.1121.6964.174 1.0321.3049.175.0556.4236.1238.5788-.0188.2181-.1184.2738-.348.3115-.5659.0682-.0933.2046-.0556.3042-.087.1875-.1246.2486-.3479.3859-.5156l.0251-.087c-.0188-.0565-.0682-.0879-.1184-.1059h-.6345c-.2926.0368-.3168.3606-.4416.5596-.0691.1238-.2055.1731-.3482.1615-.2988-.0807-.6659-.1247-.8032-.4475-.0188-.0807-.0188-.1803.044-.2368.1552-.1802.3419-.3856.5348-.5345.2738-.0556.5412-.2609.6848-.504.0745-.1058.0619-.2609.1867-.3416.0368-.0072.1202-.009.1454.0278.0565.1802-.0458.3094-.1015.4654.6785.0682 1.2044-.1273 1.8631-.1031.2801 0 .5313.0323.805.0134.2738-.0116.5726-.1246.6597-.4107.1247-.3659-.0485-.7829-.1113-1.1309l.0754-.0592c.0439-.0251.1166.009.148.0341.1176.3291.1984.7282.2486 1.0878.0503.3175.1867.5238.3608.791.3168.4726.8777.6592 1.4314.5408.6713-.0493 1.2502.304 1.6603.8268v.0305c-.0126.0251-.0368.0565-.0682.0502-.3545-.2735-.709-.5658-1.1631-.6223-.4595-.0834-.8714.156-1.3506-.0368-.5771-.1901-.8194-.5452-1.0635-1.1129h-.0503c-.0368.0062-.061.043-.0682.0807l.0629.3856c.0744.3103.1741.678.5097.8206.2612.1551.5169.3793.84.2923.5663-.1246 1.1389.0368 1.5741.3543.1427.0807.2549.2295.4102.286.1687.0682.3733.0305.5106-.0807.3168-.1058.3922.2915.6094.435.1929.1865.5779.1094.8337.1094l-.0063-.0287c-.0305-.2547-.0996-.4538-.1983-.6771"/><path d="m32.5783 29.1386c-.1678.0313-.3608-.0063-.5286.0188-.0745.1121-.1427.2484-.1239.3982.018.1551.1921.1677.3043.2107.1059.0126.2611.0502.3177-.0619.0619-.1614.1175-.3354.1426-.5103-.0116-.0493-.0619-.0681-.1121-.0556"/><path d="m41.4188 29.3315c-.1238-.1059-.2548.0502-.3167.1426.043.1497.1678.2735.2611.4107.0494.0744.1301.1238.2181.1309.0861 0 .1552-.0439.2172-.0941.0439-.0556.0933-.1238.0745-.2045-.1176-.1614-.3052-.2619-.4542-.3856"/></g><path d="m27.8754 6.25425h-2.8889l-.9324-2.79881-.9324 2.79881h-2.8879l2.3684 1.66087-.8822 2.76488 2.3342-1.70128 2.3343 1.70128-.8822-2.76488 2.3693-1.66087" fill="#fff"/><path d="m24.0536 8.58861 1.7401 1.26896-.6587-2.06801 1.741-1.22054h-2.118l-.7045-2.11553-.7044 2.11553h-2.118l1.741 1.22054-.6587 2.06801 1.7401-1.26896" fill="#fad105"/><path d="m24.0536 8.58861 1.7401 1.26896-.6587-2.06801 1.741-1.22054h-2.118l-.7045-2.11553-.7044 2.11553h-2.118l1.741 1.22054-.6587 2.06801 1.7401-1.26896" fill="#fad105"/></svg>