<svg fill="none" height="48" viewBox="0 0 48 48" width="48" xmlns="http://www.w3.org/2000/svg"><g clip-rule="evenodd" fill-rule="evenodd"><path d="m30.9503 7.92137c-1.7514-.05326-3.5191-.42606-5.2848-1.09998-.6022-.23351-1.2044-.4998-1.8067-.79681v-.02458c-.0102 0-.0184.0041-.0245.01024-.0082-.00614-.0185-.01024-.0246-.01024v.02458c-.635.31135-1.268.58788-1.903.82549-1.7575.66572-3.5088 1.02418-5.252 1.07334-2.583.0676-5.1393-.5551-7.6547-1.92341v.01434 5.67396c.41787 9.9571 3.1217 17.6262 7.6547 23.4702 1.5445 1.9951 3.3 3.7771 5.252 5.3646.6166.4998 1.2475.9812 1.903 1.4421v.0348c.0041-.0041.0143-.0102.0246-.0143.004.0041.0143.0102.0245.0143v-.0348c.6166-.4425 1.2188-.8972 1.8067-1.3683 1.9603-1.5875 3.7321-3.3696 5.2868-5.3647 4.5638-5.8542 7.2901-13.5438 7.7142-23.5439v-5.67396c0-.0041 0-.01024 0-.01434-2.54 1.37855-5.1128 1.9992-7.7162 1.92137z" fill="#f7942a"/><path d="m9.97504 12.0284c2.27576-1.0734 4.50026-1.6162 6.67976-1.6019 1.7861.0144 3.5395.3974 5.252 1.1697.4813.213.9565.4608 1.4277.7333v4.3056c-.5101.0533-.9894.209-1.4277.4363-1.0201.5429-1.776 1.5199-2.0341 2.6752h-8.9595c-.5162-2.5092-.8214-5.0963-.93816-7.7182z" fill="#fff"/><path d="m23.7667 17.311h.0676c.6739.0144 1.3109.2335 1.8292.6064.8357.596 1.3826 1.5731 1.3826 2.6792 0 1.102-.5489 2.0832-1.3826 2.6793-.5203.3687-1.1553.5919-1.8292.6063-.0246 0-.043 0-.0676 0-.6903 0-1.3294-.213-1.8599-.5817-.8583-.592-1.4277-1.5834-1.4277-2.7039 0-1.1204.5674-2.1159 1.4277-2.7079.5305-.3646 1.1716-.5777 1.8599-.5777z" fill="#000"/><path d="m36.7472 19.7466h-9.0927c-.2479-1.1409-.9894-2.1057-1.991-2.6505-.422-.2336-.8931-.3892-1.3827-.4507v-4.2667c.422-.3011.889-.5777 1.3827-.8214 1.5096-.7436 3.3101-1.184 5.2868-1.1942 2.0832-.0103 4.3589.465 6.6756 1.5916-.1208 2.6239-.3646 5.2827-.8787 7.7919z" fill="#fff"/><path d="m37.7181 11.252c-2.2962-1.102-4.572-1.58745-6.7678-1.55877-1.8353.02458-3.6072.41177-5.2868 1.09797-.6268.258-1.2331.5592-1.8292.893-.0103.0041-.0184.0103-.0246.0144v.0184h-.0041c-.6268-.3441-1.2577-.6452-1.8988-.8972-1.7227-.6841-3.4863-1.03439-5.252-1.04463-2.243-.01025-4.4941.52843-6.70433 1.64073-.04916-1.3109-.05325-2.53792-.01434-3.86321l.02868.01434c2.23269.93201 4.46539 1.36831 6.68999 1.32939 1.7575-.03482 3.5088-.36461 5.252-.98936.6452-.22737 1.2863-.49571 1.9275-.80501.6022.29087 1.2085.54896 1.8292.77223 1.7186.61656 3.5006.97093 5.2868 1.02419 2.286.07374 4.5883-.35437 6.7719-1.34373.0348 1.23721.0348 2.47036-.0041 3.69726z" fill="#eb2626"/><path d="m13.5105 20.6786h-2.3945c.5694 2.5072 1.358 4.9345 2.3925 7.2451v-7.2451z" fill="#fff"/><path d="m18.0477 20.6786h-2.2655v11.4852s.0061.0778.8746 1.3109c.4404.6227.9033 1.2311 1.3929 1.8272v-14.6233z" fill="#fff"/><path d="m22.6503 24.4128c-.2581-.0758-.508-.1762-.7435-.3011-.6617-.3483-1.2127-.8767-1.5875-1.522v15.1968c.508.4998 1.0364.9853 1.5875 1.4564.2437.2069.4916.4117.7435.6125z" fill="#fff"/><path d="m27.2468 22.5241.0021-.002c-.3687.6616-.9197 1.2106-1.5834 1.5711-.2356.127-.4875.2315-.7477.3113v15.5287c.252-.2028.5019-.4076.7477-.6166.549-.467 1.0754-.9463 1.5834-1.4379v-15.3546z" fill="#fff"/><path d="m36.5485 20.6786h-2.4949v7.4622c-.0799.1741 1.7022-3.556 2.4949-7.4622z" fill="#fff"/><path d="m31.786 20.6786h-2.2717v14.7421c-.2622.3154.7497-.8993 1.4359-1.8681.2889-.4077.5674-.8214.8358-1.2414z" fill="#fff"/><path d="m15.7821 20.6786v11.4852c-.8582-1.3601-1.6161-2.7715-2.2716-4.2381v-7.2471z" fill="#eb2626"/><path d="m20.3213 22.5815v15.203c-.8111-.7968-1.567-1.6223-2.2716-2.4806v-14.6253h1.737c.0143.6944.2089 1.3417.5346 1.9029z" fill="#eb2626"/><path d="m24.9178 24.4025v15.5286c-.3543.2827-.7128.5633-1.0815.8357-.4076-.297-.8009-.6022-1.184-.9074v-15.4467c.3544.1065.7334.1598 1.1164.1598.4015 0 .7804-.0574 1.1491-.17z" fill="#eb2626"/><path d="m29.5144 20.6786v14.7421c-.7047.85-1.4564 1.6694-2.2676 2.456v-15.3525c.3052-.549.4855-1.1758.4998-1.8456z" fill="#eb2626"/><path d="m34.0536 20.6786v7.4622c-.6555 1.442-1.4073 2.8349-2.2676 4.1746v-11.6368z" fill="#eb2626"/><path d="m34.2891 16.5921v.0492c-.0185 1.6141-.8788 2.5584-2.4888 2.7305h-.4424c-.5306-.0185-1.6367-.166-1.7903-.4199-.0205-.0349-.0225-.0697-.0062-.1066.1004-.1515.5572-.0041.889.1025l.0799.0266c.2356.0758.5981.0532.8378.0389h.0123c0-.0143 0-1.4871 0-1.5014-.0123 0-.3236-.0144-.3236-.0144l-.3155-.0737c-1.3929-.3913-1.8845-1.2864-1.8845-2.0136 0-.0184 0-.0348 0-.0512.0287-.8992.762-1.6551 1.8272-1.8865-.0164-.0144-.0963-.0861-.0963-.0861-.1762-.1536-.34-.297-.4384-.5243-.0983-.2274-.1475-.4425-.1475-.6432 0-.2028.0513-.3913.1537-.5551.2232-.3626.68-.5879 1.2474-.6186l.3995.0573c.2232.0328 1.0692.4855 1.1184.8255.0143.0942-.0389.17-.1557.2233l-.0041.002-.0041-.0041c-.2642-.3052-.8501-.6821-1.2659-.7312l-.2335.0143c-.2745.0143-.5408.2151-.6637.4998-.0614.1393-.0901.2683-.0901.3851 0 .467.4322.7743.8624 1.0303 0-.0246 0-.8685 0-.8685l2.0033.0041.0164.0246c.0327.0451.0512.0717.0512.1188 0 .0348-.0123.0799-.039.1516l-.002.0041s-1.4011 0-1.4154 0v.6124c.4015 0 .8296.039 1.2741.1188l.0839.0758.0287.0922c-.086.2315-.4097.1454-.6698.0758l-.1966-.0471-.2725-.0103s-.1352-.0204-.1741-.0245c.0225.0184.0615.0512.0615.0512 1.3416.6718 2.1733 1.3867 2.1733 2.8656zm-2.9087.5592c0-.0163 0-3.2692 0-3.2814-.5326-.1291-1.057.0348-1.44.4526-.3011.3298-.467.7702-.467 1.1963 0 .168.0266.3339.0799.4875.1986.5776.7435.9689 1.5362 1.102-.002 0 .2766.041.2909.043zm.5879-1.5157c.2806.088.3707.0819.6657.0122.17-.0409.2335.0082.256.0431.0308.0471.0226.1147-.0245.1802-.1086.1536-.3831.2643-.7518.1659 0 0-.1454-.0368-.1598-.0409v1.2024c.0123 0 .252-.0062.252-.0062.3892-.0164.9771-.0389 1.0774.0594l.0144.0369c-.0021.0532-.0246.1003-.0656.1393-.1966.1823-.7947.1577-1.1143.1454 0 0-.1352-.0041-.1495-.0041v1.4441c1.4871-.3195 1.8558-1.3355 1.8558-2.2593 0-.1352-.0082-.2663-.0205-.3954-.1045-.9791-.7743-1.7821-1.8353-2.2081z" fill="#000"/><g fill="#a16b34"><path d="m25.4688 19.5397c-.0041-.002-.0082-.0041-.0061-.002-.1434-.0963-.2786-.1291-.3995-.0963-.1556.041-.297.1925-.4199.4465.3093.4568.465.9198.465 1.3868 0 .2151-.0328.4281-.0983.6432-.1864.6206-.6452 1.2556-1.3622 1.8865.0451.0021.1229.0041.1229.0041.4179 0 .8214-.0799 1.1983-.2355.6924-.9054 1.0385-1.7432 1.0385-2.5072-.0041-.547-.1823-1.057-.5387-1.5261z"/><path d="m26.9477 20.7524c0-.2049-.0245-.4077-.0757-.6084-.0922-.3544-.2622-.6719-.5039-.9423-.168-.129-.3175-.1761-.4445-.1392-.1414.0389-.2622.1843-.3605.4301.3625.4834.5448 1.0078.5448 1.5691 0 .7435-.3195 1.5547-.9545 2.4252 1.0877-.5223 1.7943-1.6366 1.7943-2.7345z"/><path d="m23.9039 20.2443c.1557-.3134.3748-.4506.6514-.4076.1352-.2806.2949-.4486.4732-.4998.1392-.0389.2908-.0061.4506.0922.1126-.2704.254-.4322.4199-.4773.1557-.041.3359.0164.5346.17l.0062.0062c.1946.2171.3441.4588.4465.721-.0307-.1372-.0696-.2683-.1167-.3912-.0123-.0021-.0267-.0062-.0369-.0287-.1967-.3646-.4855-.6412-.8378-.7989-.2519-.1167-.5285-.1679-.8214-.1536-.2847.0143-.5633.0942-.8091.2315-.3851.2068-.6862.5346-.8705.9443-.0082.0655-.0144.127-.0144.1802 0 .125.0246.2171.0738.2765.0778.0922.2212.1352.4506.1352z"/><path d="m25.9379 18.538c.2171.0963.4158.2437.5879.426-.2069-.3441-.4752-.6554-.7927-.9033-.6022-.3769-1.1655-.4772-1.6735-.2949-.4875.172-.9484.6001-1.3683 1.272-.0267.0655-.039.127-.039.1823 0 .0573.0144.1065.041.1516.0799.1331.2827.2212.6022.2601.0021-.0061.0041-.0123.0041-.0123l-.0041.0123.0021-.0164c.1925-.4281.5121-.7722.9197-.9975.2704-.1475.5592-.2294.8562-.2438.3052-.0123.6043.043.8644.1639z"/><path d="m21.9928 18.6301c.0614.1987.2683.3175.6104.3564.4261-.6882.9033-1.1327 1.4175-1.3171.3113-.1085.6309-.1167.9648-.0368-.3933-.1639-.801-.252-1.2229-.252-.2868 0-.5797.041-.8685.1209l.0082-.0041s-.0267.0143-.0185.0123c-.4527.2232-.7456.5899-.891 1.1204z"/><path d="m21.3394 19.2099c0 .2191.0389.4281.1167.6247.1905.465.592.8439 1.1942 1.1266.1782.0799.3298.1414.4834.1782.1455.0348.2868.0471.4384.0389 0 0 .0594-.0184.0553-.0163.1577-.1434.2294-.2438.2581-.3606.0123-.0471.0184-.0962.0184-.1495 0-.0901-.0164-.1925-.041-.3052-.2417-.0061-.3973-.0594-.4895-.1659-.0676-.084-.1004-.1967-.1004-.3523 0-.0267.0021-.0553.0041-.0861-.3462-.045-.5735-.1454-.6719-.297-.0409-.0614-.0614-.1331-.0614-.213 0-.0451.0102-.0942.0225-.1454-.3789-.0472-.6083-.1946-.678-.4466v-.0246c.1065-.4055.3052-.7251.5858-.9606-.3502.1556-.6636.3625-.9299.6206-.1352.3298-.2048.6411-.2048.9341z"/><path d="m23.7073 21.9014c.0163-.0471.0245-.0983.0245-.1556 0-.0574-.0082-.1209-.0245-.1905-.0205-.0881-.0574-.1844-.1106-.2786-.1721.0123-.3298 0-.4835-.0389-.1782-.043-.3482-.1147-.5039-.1864-.6186-.2888-1.0508-.6985-1.2454-1.184-.0839-.2069-.127-.4301-.127-.6637 0-.2335.0451-.4793.1291-.7353-.3196.3666-.5592.7947-.6883 1.2474.0021.0103.0041.0226.0041.0205.1127.8501.4097 1.483.8829 1.8825.4383.3728 1.0549.5551 1.8251.5448.0553-.0102.1003-.0327.1352-.0512.086-.043.1495-.1188.1823-.211z"/><path d="m21.493 21.7027c-.4465-.3789-.7394-.9586-.8767-1.7165-.0389.2089-.0614.4138-.0614.6125 0 .299.043.6022.1311.9033.2355.6063.5346 1.061.8931 1.3519.383.3052.8377.4261 1.3519.3605.0881-.0082.172-.0307.256-.0717.0922-.0491.1598-.1147.2008-.1966.0348-.0696.0512-.1454.0512-.2315 0-.0266-.0021-.0512-.0041-.0799-.0144-.1126-.0533-.2335-.1168-.3584-.7722-.0041-1.3703-.1905-1.8251-.5736z"/><path d="m22.9432 23.3127c-.4465.0594-.8501-.0204-1.2044-.2314.4998.4097 1.1163.6616 1.7595.7169.7456-.6432 1.2188-1.2864 1.4072-1.9091.0635-.2068.0963-.4137.0963-.6206 0-.4486-.1495-.8931-.4486-1.3294-.2458-.0389-.4363.0881-.5756.383 0 0-.0041.0082-.0082.0164.0246.1168.041.2192.041.3155 0 .0614-.0061.1208-.0225.1761-.0328.1373-.1188.2581-.2929.4118.0491.1024.088.2007.1126.2929.0185.0696.0266.1393.0266.2028 0 .0696-.0102.1372-.0327.2007-.041.1147-.1168.2069-.2274.2724-.0451.0226-.0963.041-.1495.0553.0573.1291.0962.2499.1106.3605.0041.0328.0061.0635.0061.0963 0 .0942-.0205.1864-.0614.2745-.0574.1024-.1393.1823-.2458.2356-.0861.0409-.1844.0696-.2909.0798z"/></g><path d="m21.5687 16.2808c-.0819-.2868-.2232-.5633-.4178-.844.0184-.0921.0143-.1741.0102-.2663 0-.0389-.0041-.0778-.0041-.1208 0-.0246 0-.0492 0-.0738.0041-.0778.0041-.1495-.0143-.2191.2376-.4077.3052-.7723.2478-1.2618-.0737.043-.1413.0881-.1946.1557-.0143-.0779-.0245-.1557-.0389-.2377-.0041-.0286-.043-.0389-.0635-.0143-.0635.0778-.127.1495-.1946.2274-.1946.2232-.3728.4568-.3584.7825v.0532.0041l-.0185.0287c-.1884.2417-.2724.51-.3584.7825-.0287.0962-.0574.1946-.0922.2908v-2.0197l-.0103-.0102c-.0491-.043-.088-.0778-.1208-.1127-.1065-.0921-.1946-.1352-.1987-.3687-.0041-.1065.0676-.1741.1127-.2048.0348-.0287.0819-.0246.1556.0184.0103.039.0185.0676.0144.0922-.0103.1209-.127.1495.0676.2909.0573.0389.127.0348.2048-.0738.0348-.0491.0574-.1024.0635-.1659.0102-.0881-.0041-.1802-.043-.2663-.0389-.0881-.0963-.1659-.17-.2232-.0492-.0349-.1065-.0635-.17-.0676h-.0103c-.1741.0184-.2908.0737-.3687.1556-.0819.082-.1208.1946-.1495.336-.0246.1454.0041.2806.0737.4117.0574.1208.1496.2376.252.3359v3.1791c-.0041.0041-.0144.0041-.0185.0102-.1024.0676-.1065.2806-.1741.3974-.0819.1311-.2622.1557-.3687.2581-.1516.1393-.3482.4404-.3441.4322v-7.3372c-.1352-.0246-.2765-.0492-.4117-.0676v.1454h-.1352-.17c-.0533-.2622-.4712-.2478-.5244-.0635h-.2049c-.131-.2909-.4752-.2233-.5735 0h-.1557-.1065c-.127-.2519-.4568-.2335-.5776 0h-.2192c-.0102-.1659-.2089-.1843-.3503-.127-.0962.043-.1659.1168-.1454.2048h-.0963-.1843v-.2048c-.1414.0143-.2807.0348-.422.0533v2.1938c-.2048-.5285-.3646-1.0734-.4998-1.6223-.0041-.039-.0737-.0185-.0676.0143l.5674 2.6117v5.2233h4.0394c.002-.0225 0 .0491 0 .1065 0 .0922.3011.0778.34.0737.0287-.0041.0553-.0061.0819-.0082l-.0102.5777h.8398c.0164-.0635.0308-.1229.0471-.1864 0 .002-.002.0041-.002.0061.002-.0061.0041-.0143.0061-.0205-.002.0041-.002.0103-.0041.0144.0021-.0062.0062-.0144.0062-.0225.1823-.6432.5182-1.2311.9709-1.7002.2274-.2376.4896-.4506.7723-.6268.004-.3421-.0246-.6432-.1107-.9299zm-3.0787-.0041c-.0573-.0738-.7578-.9177-1.0446-1.2721.3584-.2273.6596-.4895.8644-.8582.0287-.0533.0573-.1127.0819-.1741.0389-.0103.0676-.0246.0963-.0492v2.3536zm0-2.835c-.0491-.0389-.1106-.0573-.1802-.0573-.1127 0-.2089.0573-.2622.1454l-.2581.1209c-.0287-.1066-.0819-.2131-.1495-.3257-.0676-.1025-.1557-.2049-.2622-.3011.1024-.1701.1126-.3401.0635-.5203-.0533-.1741-.17-.3585-.3155-.5592.0246-.0389.0431-.0779.0574-.1209.0143-.0491.0184-.1065.0041-.1843-.0103-.0676-.0676-.1455-.1352-.2335-.0963-.127-.2192-.2807-.252-.4712-.004-.0348-.0573-.0348-.0675-.0041-.0103.0533-.0246.1024-.0492.1455-.0533.1065-.127.1884-.1946.2663-.0922.1024-.1659.1884-.1741.2908-.0041.0533.0041.1127.0246.17.0143.0492.0348.0922.0573.1414-.0184.0246-.0389.0532-.0532.0778-.2049.297-.4179.6125-.2192.9996-.0881.0778-.17.17-.2479.2724-.0778.1025-.1556.2131-.2232.336l-.1987-.1065c-.0103-.0144-.0144-.0246-.0246-.039-.0635-.0737-.1557-.1065-.2417-.1024-.1024.0041-.2089.0574-.2581.1659v-2.6362c.0881.0635.1802.1024.2581.0922.043-.0041.0881-.0246.1167-.0574.039.0492.0779.0922.127.1352.0738.0738.1557.1352.2438.2048.0635-.2806.0922-.4281.2417-.4506.1557-.0246.3114.213.4035.3892.0922-.2233.1946-.3892.3114-.4896h.0532.1311c.1455.1209.2335.297.2725.4998.1311-.2273.2376-.4465.4178-.4281.1741.0205.2233.2581.2417.4814.1066-.1352.2233-.2622.3503-.3728.0819.0635.1454.0922.213.0922.0574 0 .1127-.0287.1803-.0779v2.5113z" fill="#000"/><path d="m17.3696 15.019c.3114.3831.6268.7661.9423 1.1451.0491.0573.0962.1167.1454.1802v.6022l-.1454-.1024-1.5445-1.0344c-.0102-.0041-.0287-.0041-.0389 0l-1.8149 1.2618v-1.7718l.2274 1.0631c.0041.0184.0287.0286.0492.0245.0041 0 .0143-.0041.0143-.0143.0737-.1065.1454-.213.2274-.3195.1987-.2766.4363-.549.7046-.8194 0-.0041 0-.0041 0-.0041.0041 0 .0041-.0041.0041-.0041.0041-.0143.0041-.0287-.0041-.043-.2192-.1803-.4117-.3892-.5879-.6125h2.3495c-.1495.1496-.3257.2807-.5203.4036-.0184.0061-.0184.0307-.0082.045z" fill="#a16b34"/><path d="m14.3196 12.2332c.1557.4895.3442.9709.5777 1.4318v.0041c-.0041.1024.0532.2232.1495.2765.0492.0778.0922.1557.1413.2274.0779.1208.1557.2376.2418.3543.1843.2479.3891.4814.6309.6801-.0103.0041-.5121.5469-.8686 1.059l-.0041-.0144z" fill="#fff"/><path d="m18.4901 17.5241h-3.6113v-.3503c.0184-.0041 1.8538-1.2864 1.8681-1.2966.1352.0819 1.7329 1.1594 1.7432 1.1655z" fill="#a16b34"/><path d="m18.3098 13.9168c-.1126-.0041-.2192-.0737-.2335-.1986v-.0041c0-.0041 0-.0041 0-.0041 0-.0041 0-.0041 0-.0103-.0143-.1598.1127-.2417.2335-.2417.1168 0 .2274.0737.2274.2274.002.1597-.1147.2314-.2274.2314z" fill="#000"/><path d="m18.3098 13.9846c-.1946 0-.3359-.1741-.297-.3646l-.2335.1065c-.0062.0041-.0123.0041-.0185.0021v.299c0 .0144-.0184.0348-.0348.0348h-.4363c-.0143 0-.0348-.0184-.0348-.0348v-.2089h-1.0242v.2089c0 .0144-.0184.0348-.0348.0348h-.4363c-.0144 0-.0348-.0184-.0348-.0348v-.3851c-.0103.0164-.0205.0328-.0287.0512-.0103.0144-.0348.0246-.0492.0144l-.1557-.082c.0205.0922-.0041.1844-.0635.252s-.1454.1065-.2417.1065c-.0102 0-.0143 0-.0245 0 0 0 0 0 0-.0041 0 0 0 0-.0041 0h-.0041c-.0041 0-.0041 0-.0041 0 .0143.0184.0246.043.0389.0635.0778.127.1557.2479.2417.3687.0184.0287.0389.0574.0635.0881h2.4703c.1352-.1495.252-.3155.3441-.5039 0-.0041 0-.0041.0041-.0102-.002-.0021-.002-.0021-.002-.0021z" fill="#a16b34"/><path d="m16.3987 12.0631c-.1864.2827-.3912.5777-.2028.9341.0021 0 .0021-.0021.0041-.0021.0144 0 .0348.0144.0348.0349v.3932h1.0386v-.3932c0-.0205.0225-.0349.045-.0369.0922-.1495.1045-.3052.0574-.467-.0492-.1741-.1659-.3544-.3155-.5531-.0102-.0102-.0102-.0287-.0041-.0389.0287-.0492.0533-.0819.0635-.127.0144-.0389.0144-.0881.0041-.1557-.0041-.0491-.0573-.1208-.127-.2048-.0778-.1024-.1741-.2274-.2273-.379-.0246.0533-.0533.1024-.082.1455-.043.0676-.0962.1208-.1454.1802-.0778.0881-.1454.1659-.1557.2479-.0041.0491.0041.0921.0205.1413.0184.0492.0389.1024.0635.1557.0041.0041.0041.0246 0 .0348-.0287.0266-.0492.0553-.0717.0901z" fill="#a16b34"/><path d="m17.005 12.098c-.0635-.1024-.1557-.1598-.2581-.1598s-.1946.0574-.2581.1598c-.0635.0922-.1024.2233-.1024.3646s.0389.2724.1024.3687.1557.1598.2581.1598.1946-.0635.2581-.1598.1024-.2274.1024-.3687-.0389-.2724-.1024-.3646z" fill="#000"/><path d="m16.9456 12.7902c-.0532.0779-.1208.127-.1987.127-.0778 0-.1454-.0491-.1987-.127-.0573-.0819-.0921-.1987-.0921-.3298 0-.127.0348-.2437.0921-.3256.0533-.082.1209-.1311.1987-.1311.0779 0 .1455.0491.1987.1311.0533.0819.0881.1986.0881.3256 0 .1311-.0328.2479-.0881.3298z" fill="#fff"/><path d="m15.1983 13.4519c-.127 0-.2274.1024-.2274.2335 0 .127.1025.2335.2274.2335.1311 0 .2335-.1065.2335-.2335 0-.1311-.1024-.2335-.2335-.2335z" fill="#fff"/><path d="m18.3098 13.4519c-.1311 0-.2335.1024-.2335.2335 0 .127.1024.2335.2335.2335.127 0 .2274-.1065.2274-.2335.002-.1311-.1004-.2335-.2274-.2335z" fill="#fff"/><path d="m20.8969 14.4761c-.088-.043-.1843-.0635-.2908-.0573 0-.0041 0-.0041 0-.0103-.0103-.2724.127-.4813.2908-.6739.0676-.0819.1352-.1557.1987-.2335.043.3114.1741.8685.0103 1.1799-.0574-.0984-.1311-.1619-.209-.2049z" fill="#a16b34"/><path d="m18.6888 19.0871.0676.0246c.043.0184.1208.0102.1987 0 .088-.0103.1741-.0246.2335.004.0778.0431.1311.082.17.1168.0819.0635.1311.0963.3298.0635.0102 0 .0246.0041.0348.0143.043.0635.0676.0963.0922.1168.0184.0184.0491.0348.0922.0574.1311-.4671.3502-.8931.6309-1.2762.2908-.3892.6513-.7271 1.0631-.9893.0143-.3401-.0144-.635-.0963-.9177-.0779-.2622-.1987-.5039-.3687-.762-.0492.3052-.1168.5531-.2622.7477-.1557.213-.3974.3687-.7907.4752-.0041 0-.0102 0-.0143.0041v.7128c0 .0041-.0041.0184-.0103.0246-.0389.043-.0737.0963-.1126.1659-.0389.0737-.0779.1557-.1168.2581-.0102.0287-.0635.0184-.0635-.0143v-.9525c-.0041 0-.0041 0-.0041 0-.0102.0348-.0184.0635-.0287.0962-.0245.0922-.0532.1803-.1024.2622-.0573.0922-.1454.1352-.2335.1844-.0532.0287-.1065.0532-.1495.0922-.2192.1987-.3585.4281-.4425.68-.0819.2479-.1167.5203-.1167.8112z" fill="#a16b34"/><path d="m20.5732 14.8448c-.0245-.0041-.043.0041-.0635.0246-.0245.0204-.0389.0532-.043.088-.0041.039 0 .0738.0144.0963.0143.0246.0348.043.0532.043.0246.0041.043-.0041.0635-.0246.0246-.0184.0389-.0532.043-.088.0041-.039 0-.0738-.0143-.0963-.0103-.0246-.0287-.0389-.0533-.043z" fill="#fff"/><path d="m19.9956 13.5769c-.0389-.039-.0738-.0676-.1024-.0963-.1209-.1065-.1803-.1598-.2274-.4179l.0041-.0143c.0389-.1209.0778-.2089.1352-.252.1413-.1065.297.0185.2806.1741 0 .0349-.0143.0635-.0348.1066.0184.0491.043.0962.0778.1208.0246.0185.0574.0103.1065-.0532.0246-.039.0431-.082.0492-.1311.0102-.0779-.0041-.1598-.0389-.2376-.0348-.0738-.0819-.1455-.1454-.1885-.0431-.0287-.0881-.0533-.1352-.0573-.1557.0184-.2581.0635-.3257.1351-.0676.0676-.1065.1701-.1311.3012-.0246.127.0041.2519.0635.3687.0635.1167.1495.2273.2519.3256l.0103.0144v4.068c.0143-.0389.0348-.0737.0491-.1024.0389-.0676.0779-.127.1106-.17v-3.8939z" fill="#fff"/><path d="m14.5347 18.9068c-.0287-.1803-.0635-.3585-.0881-.5428-.0246-.2438-.0348-.4896-.043-.7375-.0102-.1884-.0143-.3789-.0348-.5674 0-.004-.0041-.0184-.0103-.0245-.0635-.0635-.1208-.127-.1843-.1946-.1496-.17-.3052-.3401-.4957-.4466v-2.6936c.0962-.0962.1884-.213.2519-.3359.0635-.1311.0963-.2663.0676-.4117-.0246-.1414-.0676-.252-.1454-.336-.0738-.0737-.17-.1208-.3052-.1454-.0185-.0041-.043-.0102-.0676-.0102 0 0 0 0-.0041 0s-.0041 0-.0041 0h-.0062c-.0635.0102-.1167.0348-.1659.0676-.0102.0102-.0246.0184-.0348.0348-.0573.0492-.1024.1167-.1352.1884-.0348.0881-.0532.1803-.043.2663.0102.0635.0287.1168.0635.1659.043.0574.0819.082.1168.0922.0348.0041.0635 0 .088-.0184.0492-.0389.082-.1065.1065-.17 0-.0041 0-.0246 0-.0287-.0245-.043-.0348-.0676-.0389-.0922 0-.0246.0041-.0532.0185-.0922.0102-.0041.0143-.0102.0245-.0143 0 0 .0041 0 .0041-.0041h.0041c.0287-.0143.0533-.0184.0738-.0184.0184 0 .0348.0041.0491.0184.0431.0287.0779.1024.1127.2048-.0389.1946-.0819.2581-.1598.3298-.0143.0144-.0286.0287-.043.0389-.0102.0103-.0184.0185-.0287.0246 0 .0041-.0041.0041-.0041.0103 0 0-.0041 0-.0041.0041-.0245.0184-.0491.043-.0778.0737-.0041.0041-.0102.0184-.0102.0246v1.8538h-.1127v-.0185c-.0184-.1413-.0574-.2765-.1168-.4076-.0819-.1885-.1986-.3585-.34-.51l-.0184-.0738c0-.0532 0-.1024-.0041-.1557-.0041-.1065-.0041-.2089-.0144-.3113-.0184-.1659-.0491-.3257-.127-.4855l-.0778-.1659c-.0102-.0246-.0492-.0246-.0573 0-.0103.0143-.0185.0287-.0287.043-.0185.0348-.0389.0676-.0635.1024-.0144.0246-.0287.0492-.043.0738-.0103-.0246-.0185-.0492-.0349-.0738-.0184-.043-.0389-.088-.0635-.1311-.0102-.0184-.0348-.0245-.0491-.0143-.1987.1413-.2909.3831-.3155.6514-.0348.34.039.7231.1414.9668-.0103.1065-.0574.1454-.1168.1946-.043.0348-.0922.0737-.1352.1413-.0491.0779-.0676.1701-.0819.2581-.0041.0185-.0103.039-.0144.0574v.0102c.0103.0881.039.1557.082.2192.0389.0492.0819.0922.1352.1311l-.0779.1741c-.0389.1209-.0819.2417-.127.3585-.1024.2908-.2048.5776-.2581.889-.0962.5674-.1311 1.145-.1454 1.7226 0 0 .0041.0185.0103.0185l.0532.0676.0041.0041c.0963.0737.1352.0737.0881.0532l-.0635.5387h2.0627.0041.8644c0-.004 0-.0102-.0041-.0102l-.1331-.3216.3789.0348c.0184 0 .0389-.0184.0348-.0389-.0205-.17-.0491-.3359-.0819-.5059z" fill="#000"/><path d="m13.447 15.4511v-1.8742c.0041-.0041.0102-.0103.0184-.0144v-.0041l.0041-.0041.0041-.0041c.0287-.0245.0533-.0491.0738-.0635 0-.0041 0-.0041.0041-.0041.1208-.1065.1802-.1597.2232-.4178v-.0144c-.0389-.1208-.0819-.2089-.1351-.2519-.0287-.0184-.0574-.0287-.0922-.0287-.0246 0-.043 0-.0738.0103l-.0041.004h-.0041c-.0245.0103-.0491.0246-.0737.039-.0041.0041-.0143.0143-.0143.0184-.0185.0574-.0287.0922-.0246.1311.0041.0348.0143.0635.0389.1065-.0246.0492-.0492.0963-.0778.1209-.0144.0102-.0287.0102-.0492 0-.0184-.0041-.0389-.0246-.0574-.0533-.0286-.0389-.043-.0819-.0491-.1311-.0103-.0778.0041-.1598.0348-.2376.0184-.0389.043-.0778.0737-.1168.0246-.0286.0492-.0532.0779-.0737.0348-.0287.0778-.0492.1208-.0533v-.004h.0041.0041.0041c.0246.004.043.004.0676.0102.1168.0246.1987.0676.2581.127.0676.0676.1024.17.127.3011.0246.127-.0041.252-.0635.3687-.0573.1168-.1495.2274-.2478.3257-.0041.0041-.0103.0184-.0103.0287v2.6649c-.0246-.0102-.043-.0143-.0635-.0246h-.0041s0 0 0-.0041c-.0041 0-.0041 0-.0041 0-.0041 0-.0041 0-.0041 0-.0041 0-.0041 0-.0041 0 0-.0041 0-.0041 0-.0041h-.0041-.0041c-.0041-.0041-.0143-.0041-.0245-.0102-.0041 0-.0103-.0041-.0144-.0041 0 0 0 0-.0041 0h-.0041-.0082c-.0041 0-.0041 0-.0041 0h-.0041v.0041s-.004 0-.0102 0z" fill="#fff"/><path d="m12.771 14.8633c.0143.0041.0246.0102.0389.0184.0246.0144.043.043.0533.0779.0102.0348.0041.0675-.0041.0962-.0144.0246-.0348.043-.0574.0492-.0102.0041-.0184.0041-.0286.0041-.0144-.0041-.0287-.0103-.0431-.0185-.0245-.0184-.043-.043-.0491-.0819-.0103-.0348-.0103-.0676.0041-.0922.0102-.0245.0287-.043.0532-.0532z" fill="#fff"/><path d="m12.4761 13.4765c.0041-.0041.0041-.0041.0041-.0103.0184-.0287.0348-.0532.0533-.0819l.0491.1024c.1168.2478.127.5039.1352.7722l.0103.17c-.0963-.0389-.1803-.0102-.2479.0431-.0574.0491-.1127.1167-.1516.1741-.0041.0041-.0041.0041-.0041.0102-.0041 0-.0041.0041-.0041.0041-.0041.0041-.0041.0041-.0041.0041-.0041.0041-.0041.0041-.0102.0102-.1516-.553-.0492-.8357.17-1.1982z" fill="#a16b34"/><path d="m12.7711 19.2611c-.0963-.0102-1.268-.1065-1.3438-.1597l-.0389-.0533c.0144-.5633.0492-1.1368.1414-1.694.0532-.3052.1556-.592.2581-.8788.0389-.1167.0819-.2335.1208-.3584l.0738-.1659h.004.0041s.0041 0 .0041-.0041h.0041c.0963-.0574.1414-.0963.1701-.1209.0184-.0143.0286-.0246.043-.0287.0532-.0143.17.0041.2663.0246.0491.0103.088.0185.1167.0246.0574.0205.1168.0348.1741.043.1455.0287.297.0144.4117-.0963.0431-.0389.0676-.088.082-.1351.0143-.0533.0143-.1127.0102-.1701h.1024v.8501c-.0389.0184-.0778.0348-.1126.0533-.1844.0962-.3503.213-.4957.3584-.1065.0963-.2049.209-.2909.3298-.3195.4322-.5387.9709-.7087 1.5199 0 .0102 0 .0143-.0041.0246 0 .0041-.0041.0143-.0041.0184v.0041c-.0041.0041-.0041.0144-.0041.0184-.0041.0103-.0041.0144-.0041.0246-.0041.0144.0102.0389.0246.0389.0348.0041.0676.0103.1065.0144.1946.0287.3728.0573.5776.0676.0041 0 .0144-.0041.0185-.0103.0041 0 .0102-.0041.0102-.0041.1024-.1351.1946-.2806.2806-.4322 0-.0041 0 .209 0 .209.0041.2335.0144.4609.0246.6882-.0082 0-.0164 0-.0225 0z" fill="#a16b34"/><path d="m14.1557 19.339c-.0246 0-.043.0245-.0348.0491l.1311.3257h-.2131l.1311-1.2823c0-.0143.0041-.0348-.0286-.0348-.0349-.0041-.039.0103-.039.0287l-.1311 1.2823v.0041h-.1802l.1311-1.0386c0-.0143.0041-.0348-.0287-.0348-.0348-.0041-.0389.0103-.0389.0287l-.1311 1.0426h-.8439c0-.1352-.0041-.2724-.0103-.4076 0-.0041 0-.0041 0-.0041-.0102-.2438-.0246-.4814-.0287-.7231 0-.0041 0-.1843 0-.1884l.1168-.3401c.0041-.004.0041-.0102.0102-.0143v-.0041s0 0 0-.0041h.0041s0 0 0-.0041 0-.0041 0-.0041h.0041v-.0041-.0041h.0041s0 0 0-.0041c0 0 0 0 0-.0041s0-.0041 0-.0041h.0041l.2807-.4465.0676-.1127c.0041-.0041.0041-.0102.0041-.0143.0143-.0881-.0246-.0635-.0738-.0143-.0532.0573-.1167.1454-.1352.1741 0 0 0 .0041-.0041.0041 0 .0041 0 .0041-.0041.0102 0 0 0 .0041-.0041.0041 0 .0041 0 .0041-.0041.0102 0 0 0 .0041-.0041.0041 0 .0041 0 .0103-.0041.0103 0 .0041 0 .0041-.0041.0102l-.0041.0041c0 .0041-.0041.0103-.0041.0103 0 .0041-.004.0041-.004.0102 0 0-.0041.0041-.0041.0102-.0041 0-.0041.0041-.0041.0041-.0041.0041-.0041.0103-.0041.0103-.0041.0041-.0041.0041-.0041.0102-.0041.0041-.0041.0041-.0103.0103 0 .0041 0 .0041-.0041.0102-.0491.0881-.0881.1885-.1413.2765l-.0041.0041c-.0103.0287-.0246.0492-.0389.0779v.0041c-.0041 0-.0041 0-.0041 0-.0287.0532-.0574.1024-.0881.1495-.0922.1598-.1844.3195-.2909.4711-.0102.0144-.0184.0287-.0348.043-.1987-.0102-.4035-.0348-.6022-.0676-.0041 0-.0041 0-.0041 0h-.0041c-.0041 0-.0041 0-.0041 0 0-.0041 0-.0041 0-.0041h-.0041c.1557-.5202.3503-.9996.6555-1.4563.0041-.0041.0102-.0144.0143-.0185.082-.1208.1741-.2376.2765-.34.1496-.1598.3155-.297.4957-.3892.0492-.0246.1025-.0491.1557-.0676l.0389-.0143h.0041.0041.0041.0103c.0246.0102.043.0184.0635.0246.2273.0962.4035.2908.5776.4854.0574.0635.1168.127.1741.1844.0144.1884.0246.3728.0287.5592.0102.2437.0184.4895.0492.7435.0245.1844.0573.3646.088.549.0287.1516.0574.3011.0779.4568z" fill="#a16b34"/><path d="m13.0721 19.1546c.0103-.0246.0144-.0492.0246-.0738.0185-.0491.0348-.0921.0389-.1413.0041-.0491 0-.0881-.0041-.127-.004-.0635-.0143-.1208.0144-.2192l.0041-.0102.4219-.4998c.0103-.0246-.0102-.0676-.0286-.1106-.0185-.043-.0349-.0881-.0349-.1311-.004-.0676.0185-.1598.039-.2274.0102-.0348.0184-.0635.0184-.0778.0041-.0143.0041-.0348.0389-.0287.0348.0041.0348.0184.0287.0389 0 .0185-.0102.0533-.0184.0881-.0185.0635-.039.1454-.039.2089 0 .0287.0144.0635.0287.1025.0287.0635.0574.127.0246.1802v.0041l-.422.4957c-.0184.0779-.0143.127-.0102.1803.0041.043.0102.088.0041.1413-.0041.0574-.0184.1065-.0389.1598-.0103.0246-.0185.0491-.0246.0676-.0041.0184-.0102.0348-.043.0246-.0307-.0103-.0267-.0246-.0226-.0451z" fill="#000"/></g></svg>