<svg fill="none" height="48" viewBox="0 0 48 48" width="48" xmlns="http://www.w3.org/2000/svg"><path d="m24.1103 6.87032c-15.38707 6.42808-15.35435 27.84478 0 34.25898 15.3876-6.4277 15.3545-27.8446 0-34.25898z" fill="#fff"/><path d="m24.1103 6.87034c-15.38716 6.42806-15.35444 27.84496 0 34.25896 15.3875-6.4277 15.3544-27.8446 0-34.25896zm0-1.84216c16.1212 7.42752 16.0982 30.52662 0 37.94372-16.09818-7.4171-16.12072-30.5162 0-37.94372z" fill="#181a18"/><path d="m33.416 29.9152c-1.2117 3.9932-4.2731 6.8316-9.3057 8.9045-4.2006-1.7306-7.9421-4.4089-9.3156-8.936 6.3621 1.9033 12.4584 2.1031 18.6213.0315z" fill="#181a18"/><path d="m32.5887 16.4133c1.3049 2.8826 1.9349 5.5493 1.8899 7.9995-5.6203 2.4527-15.1254 2.4483-20.7361 0-.0451-2.4502.585-5.1169 1.8901-7.9995.0506 4.5857 3.8271 8.2898 8.4781 8.2898 4.6506 0 8.4273-3.7041 8.478-8.2898z" fill="#f0612c"/><path d="m24.1106 9.34006c4.9742 2.77104 5.9046 10.16754 1.1809 13.56434 2.0679-4.3594 1.6744-7.9367-1.1809-10.7318-2.8552 2.7951-3.249 6.3724-1.181 10.7318-4.7235-3.3968-3.7934-10.7933 1.181-13.56434z" fill="#181a18"/><path d="m24.1107 23.7446c2.3902-3.392 2.1708-8.1055 0-10.4385-2.1712 2.333-2.3902 7.0465 0 10.4385zm-.1124.1605c-3.8828-.0603-7.013-3.2241-7.013-7.1177 0-3.1599 2.062-5.8393 4.9143-6.7689-1.7206 1.3417-2.8654 3.7207-2.8654 6.432 0 3.7061 2.1382 6.7919 4.9641 7.4546zm.2247 0c3.8828-.0603 7.0128-3.2241 7.0128-7.1177 0-3.1599-2.0621-5.8393-4.9144-6.7689 1.7206 1.3417 2.8653 3.7207 2.8653 6.432 0 3.7061-2.138 6.7919-4.9637 7.4546z" fill="#f0612c"/><path d="m25.8609 33.5685c0-.1019-.0189-.1801-.0571-.2346-.035-.0512-.0827-.077-.1432-.077-.078 0-.1299.034-.1555.1016-.0121.0316-.018.0755-.018.1312 0 .1442.027.2465.0818.3066.0309.0339.0698.0508.1166.0508.117 0 .1754-.0925.1754-.2786zm.2379-.1086c0 .1892-.0673.3307-.2012.4252-.0634.0439-.1422.066-.237.066-.1342 0-.2388-.0489-.3146-.1463-.0775-.0983-.1165-.2373-.1165-.4168 0-.1735.0316-.3172.0939-.4314.0663-.1212.1533-.217.2605-.2879.1101-.0725.234-.1096.3699-.1096l.0777.0643-.0306.0335c-.0236-.004-.0458-.0055-.0671-.0055-.1012 0-.1899.0367-.2663.1113-.0339.0331-.0641.0757-.0896.1267-.042.0858-.0702.2026-.0849.3522.0879-.0827.1411-.127.1587-.1341.0423-.018.0913-.027.1471-.027.0851 0 .155.0317.2103.0947.0597.0685.0897.1635.0897.2847zm-1.0331-.0096c0 .14-.0579.2585-.175.3553-.1166.0967-.2533.1455-.4107.1455-.0834 0-.1635-.0184-.2405-.0542-.0119-.1146-.0279-.2108-.0479-.29l.0063-.0142.049-.0144.0121.0049c.065.166.1696.2493.3128.2493.0741 0 .1338-.0238.1791-.0725.0451-.0484.0675-.1141.0675-.1982 0-.0834-.0245-.1481-.0742-.1935-.0467-.0433-.1094-.0651-.1885-.0651-.0359 0-.0752.0063-.1169.018l-.0122-.0128c.0148-.0469.0272-.0964.0376-.1501h.0807c.0586 0 .1092-.0209.1521-.0628.0428-.0414.0643-.0913.0643-.1488 0-.0548-.0189-.0988-.0571-.1332-.0376-.0343-.0847-.0508-.1413-.0508-.0896 0-.1502.0227-.1827.0689-.015.0214-.0293.0529-.043.0933l-.0111.0326-.0137.0088-.0505-.004-.0098-.0129.0347-.1603c.0098-.0454.0167-.0898.0215-.1334.0857-.0641.1928-.0966.3226-.0966.1098 0 .1974.0271.262.0811.0622.0525.0931.1212.0931.206 0 .122-.073.2214-.2192.2973.0738 0 .1406.0252.2003.0753.0659.0541.0986.1319.0986.2315zm-1.2593-.4298c0-.1214-.018-.2115-.0533-.27-.0356-.0586-.0839-.0876-.145-.0876-.0759 0-.1272.041-.154.1234-.0144.044-.0215.0953-.0215.1555 0 .1019.0186.18.0562.2345.0353.0512.0836.077.1438.077.0778 0 .1297-.0345.1558-.1034.0118-.0316.018-.0749.018-.1294zm.2575.1015c0 .1744-.0314.3184-.0941.4326-.0657.1207-.1526.2159-.2611.287-.1117.0729-.2343.1095-.368.1095l-.0778-.0645.0235-.0385c.02.0075.0442.011.0733.011.1023 0 .1921-.0378.2693-.114.0304-.0304.0591-.0709.0852-.1224.0422-.0808.0713-.1988.0869-.3538-.0976.0899-.1522.1357-.1633.1371-.0436.0158-.0905.0236-.1402.0236-.0875 0-.1589-.0323-.214-.0966-.0596-.0689-.0886-.1631-.0886-.283 0-.1919.0672-.3336.2019-.4256.064-.0434.1425-.0653.2357-.0653.1764 0 .3016.0822.376.2458.0367.0807.0553.1862.0553.3171zm-1.0212.7824-.0108.0118c-.0919-.0057-.2043-.0085-.3373-.0085-.1297 0-.2659.0028-.4094.0085l-.0108-.0105v-.0603l.0117-.0098c.0337-.004.0664-.0069.0978-.0099.0565-.0044.0928-.0102.1084-.0167.0115-.0053.0206-.0176.0288-.0361.0124-.0311.0186-.1562.0186-.375v-.2451c0-.0738-.0013-.1668-.0042-.28l-.0016-.074c0-.0328-.0069-.0494-.021-.0494-.0055 0-.0251.0076-.0581.023-.0898.0411-.1674.0777-.2317.1091l-.0118-.0067c-.0039-.0377-.0112-.0793-.0209-.1254l.001-.0077c.1817-.0513.3846-.12.6087-.2061l.0207.015c-.0027.0385-.0059.0961-.0108.1724-.002.0289-.0039.1065-.0059.2325l-.0029.3872c0 .2774.0045.4263.0141.4465.0062.0151.0159.0246.029.0274.0239.0068.0856.0131.1856.0179l.0128.0098z" fill="#fff"/><path d="m25.1695 37.1143-.8048-.8392.5745-.5994.5381.5205.066-.5949-.2765-.2676.0775-.0806c.06-.0624.0575-.1621-.0048-.2221l-.038-.0365c-.0626-.0599-.1628-.0578-.2225.0048l-.0759.0793-.4209-.4072-.3297.3403.4226.4087-.5648.5893-.565-.589.423-.409-.3298-.3403-.4209.4072-.0759-.0793c-.0601-.0626-.16-.0647-.2225-.0048l-.0382.0365c-.0624.06-.0647.1597-.0049.2221l.0775.0806-.4178.4044.3297.3403.4161-.4024.5743.5991-.8047.8392c-.0601.0626-.0578.1626.0047.2223l.0382.0366c.0623.06.1623.0575.2225-.0049l.7937-.8279.7938.8279c.0599.0624.1599.0649.2225.0049l.0381-.0366c.0623-.0597.0647-.1597.0048-.2223" fill="#fff"/><g fill="#222324"><path d="m32.2838 27.6456.7304-.1649c.1899-.0432.3382-.1231.4432-.2393.1062-.1171.1626-.2531.1707-.4095.0076-.1412-.0322-.2508-.1192-.3312-.0877-.0795-.2531-.0917-.4954-.0368l-.6749.1521zm-.1012 1.8922-.6174.1398.1837-3.4361 1.4026-.3165c.3999-.0899.6908-.0557.8735.1027.1817.1582.2656.3755.251.6504-.0167.3143-.135.5922-.3543.8336-.2193.2423-.4899.3989-.811.4714l-.8552.1935z"/><path d="m30.1756 28.6746-.3688-1.4513-.6834 1.6238zm1.0235 1.128-.6947.1139-.2053-.7734-1.3882.2274-.3664.8669-.5552.0907 1.5501-3.6419.8007-.1312z"/><path d="m27.2601 30.3756-.7065.0348.1746-2.8961-.9701.0474.032-.529 2.6463-.1304-.0321.5297-.9698.0478z"/><path d="m25.5059 30.5081h-.7664l-.8052-1.3501-.8546 1.3501h-.6115l1.1533-1.7845-.9902-1.6413h.7634l.6726 1.1393.7124-1.1393h.614l-1.014 1.5633z"/><path d="m21.1761 29.003-.6336-1.6336-.4308 1.5433zm1.2134 1.4616-.703-.0597-.3496-.873-1.404-.1193-.2284.8234-.5611-.0476.9696-3.4584.8098.0689z"/><path d="m14.6926 29.2548-.409-3.6056.6409.1351.3455 3.0459 1.1012.232-.3454-3.0452.6409.1351.3454 3.0454 1.1013.2324-.3455-3.0457.6409.135.4089 3.6054z"/></g></svg>