<svg fill="none" height="48" viewBox="0 0 48 48" width="48" xmlns="http://www.w3.org/2000/svg" xmlns:xlink="http://www.w3.org/1999/xlink"><linearGradient id="a" gradientUnits="userSpaceOnUse" x1="24.0216" x2="24.0216" y1="9.24764" y2="3.37527"><stop offset="0" stop-color="#725a1d"/><stop offset=".346321" stop-color="#f8e365"/><stop offset=".667998" stop-color="#f8e365"/><stop offset="1" stop-color="#725a1d"/></linearGradient><path d="m23.9057 3 .8897 2.38699 2.5431.10774-1.9942 1.58138.6808 2.45246-2.1194-1.40235-2.1136 1.40235.6749-2.45246-1.9884-1.58138 2.5432-.10774z" fill="#76664f"/><path d="m23.9061 3.35803.8059 2.14812 2.2861.10195-1.791 1.42589.6092 2.20796-1.9103-1.2651-1.9106 1.2651.6147-2.20796-1.7969-1.42589 2.2927-.10195z" fill="url(#a)"/><g clip-rule="evenodd" fill-rule="evenodd"><path d="m16.1564 42.946c.7222-.1674 1.2654-.5312 1.6957-1.1338.4055-.6324.5547-1.331.4055-2.0703l5.6957-4.0579 5.6658 4.0338c-.0356.2984-.0182.5843.0357.8769.2927 1.2888 1.3258 2.1309 2.6451 2.1607l.2744-.0124c1.2596-.1608 2.1733-1.0319 2.3997-2.2792.0837-.6623-.0298-1.2358-.364-1.8085-.4892-.77-1.2297-1.2292-2.1435-1.3004l-1.9038-6.6305 5.3549-4.2485c.2927.1549.597.2503.9196.3041 1.3433.1674 2.5249-.5967 2.9552-1.8739.1965-.6863.1493-1.3245-.1434-1.9693-.34-.6564-.8243-1.0973-1.5108-1.3659-.7338-.2511-1.4387-.2088-2.1368.1252-.5315.2801-.9495.6804-1.2181 1.2233l-6.7347-.179-2.2205-6.5045c.2628-.2512.4593-.5496.6086-.8836.4478-1.0915.1915-2.2436-.6683-3.0608l-.1974-.1616c-1.0025-.7161-2.2205-.7161-3.2297 0l-.1965.1616c-1.0987 1.0443-1.1882 2.6431-.2098 3.7894.0481.053.0962.1069.1501.155l-2.2214 6.5045-6.7338.179c-.1915-.3879-.4602-.6987-.8002-.9672-1.0091-.7219-2.2388-.7277-3.2479-.0058l-.19735.1616c-.92537.8827-1.14594 2.1417-.56053 3.2821.36982.6382.87728 1.0559 1.57546 1.2946.71062.2031 1.43942.1492 2.09622-.2088l5.3549 4.2485-1.976 6.8808c-.8715.0712-1.6061.5669-2.0721 1.2946-.3342.5735-.4478 1.1462-.364 1.8085l.0538.2685c.3525 1.2175 1.3491 1.9933 2.6211 2.0231.1849 0 .3582-.0182.5431-.0539" fill="#302c2a"/><path d="m23.2549 15.8599-2.6808 7.8414-8.1609.2146c-.0953-.8536-.83-1.5275-1.7131-1.5275-.94357 0-1.71969.7758-1.71969 1.7124 0 .949.77612 1.7189 1.71969 1.7189.5191 0 .9851-.2329 1.301-.5967l6.4776 5.1378-2.3756 8.2948c-.1559-.0481-.3225-.0713-.49-.0713-.9494 0-1.7198.7691-1.7198 1.7123 0 .949.7704 1.719 1.7198 1.719.9436 0 1.7197-.77 1.7197-1.719 0-.334-.102-.6506-.2686-.9133l6.8888-4.9049 6.8002 4.8336c-.107.2271-.1733.4774-.1733.7401 0 .949.777 1.7182 1.7197 1.7182.9495 0 1.7198-.7692 1.7198-1.7182 0-.9432-.7703-1.7131-1.7198-1.7131-.1907 0-.3764.0298-.5489.0895l-2.3167-8.0677 6.4776-5.1378c.3167.3638.7819.5967 1.3018.5967.9428 0 1.7189-.7699 1.7189-1.7189 0-.9366-.7761-1.7124-1.7189-1.7124-.8839 0-1.6186.6739-1.7081 1.5275l-8.1667-.2146-2.6808-7.8414c.5971-.2686 1.015-.8711 1.015-1.5698 0-.9424-.7703-1.7181-1.7198-1.7181-.9369 0-1.7131.7757-1.7131 1.7181 0 .6987.4179 1.3012 1.015 1.5698" fill="#000"/><path d="m23.2549 15.8599-2.6808 7.8414-8.1609.2146c-.0953-.8536-.83-1.5275-1.7131-1.5275-.94357 0-1.71969.7758-1.71969 1.7124 0 .949.77612 1.7189 1.71969 1.7189.5191 0 .9851-.2329 1.301-.5967l6.4776 5.1378-2.3756 8.2948c-.1559-.0481-.3225-.0713-.49-.0713-.9494 0-1.7198.7691-1.7198 1.7123 0 .949.7704 1.719 1.7198 1.719.9436 0 1.7197-.77 1.7197-1.719 0-.334-.102-.6506-.2686-.9133l6.8888-4.9049 6.8002 4.8336c-.107.2271-.1733.4774-.1733.7401 0 .949.777 1.7182 1.7197 1.7182.9495 0 1.7198-.7692 1.7198-1.7182 0-.9432-.7703-1.7131-1.7198-1.7131-.1907 0-.3764.0298-.5489.0895l-2.3167-8.0677 6.4776-5.1378c.3167.3638.7819.5967 1.3018.5967.9428 0 1.7189-.7699 1.7189-1.7189 0-.9366-.7761-1.7124-1.7189-1.7124-.8839 0-1.6186.6739-1.7081 1.5275l-8.1667-.2146-2.6808-7.8414c.5971-.2686 1.015-.8711 1.015-1.5698 0-.9424-.7703-1.7181-1.7198-1.7181-.9369 0-1.7131.7757-1.7131 1.7181 0 .6987.4179 1.3012 1.015 1.5698" fill="#fdcb00"/><path d="m23.6608 15.6808-.0953.2802-2.6808 7.8472-.0713.2155-.233.0058-8.1609.2146-.2985.0116-.0364-.3041c-.0357-.3457-.209-.6565-.4536-.8769-.2504-.2213-.573-.3581-.9312-.3581-.76449 0-1.39135.6208-1.39135 1.3841 0 .3821.16169.7344.4121.9847.25042.2511.59705.4061.97925.4061.209 0 .4055-.0423.5788-.1252.1857-.0837.3466-.203.4718-.3522l.209-.2387.2446.1906 6.4834 5.1378.1675.1376-.0597.2089-2.3765 8.2948-.0953.3166-.3159-.0962c-.0664-.0174-.1261-.0298-.1916-.0414s-.131-.0116-.2031-.0116c-.3815 0-.7339.155-.9851.4053-.2504.2511-.4055.5967-.4055.9788 0 .3879.1551.7343.4055.9846.257.2503.6036.4062.9851.4062.3822 0 .7288-.1559.9792-.4062.2571-.2503.4121-.5967.4121-.9846 0-.1309-.0182-.2627-.0539-.3821-.0356-.1251-.0895-.2445-.1608-.358l-.1675-.2628.2512-.179 6.8889-4.9049.1916-.1376v.8056l-6.466 4.6074c.0356.0771.0655.1608.0895.2445.0539.1848.0838.3763.0838.5669 0 .5669-.2331 1.08-.6029 1.4504-.3706.3697-.8839.5968-1.4452.5968-.5672 0-1.0747-.2271-1.4445-.5968-.3764-.3704-.6028-.8835-.6028-1.4504 0-.5611.2264-1.0741.6028-1.4438.3698-.3705.8773-.5967 1.4445-.5967.0837 0 .1733.0058.257.0116l2.2388-7.7876-6.0837-4.8154c-.1435.1194-.3043.2205-.4718.2984-.2621.1193-.549.1848-.8533.1848-.5613 0-1.0746-.2271-1.44525-.5967-.36982-.3763-.60282-.8835-.60282-1.4505 0-1.1213.92537-2.0405 2.04807-2.0405.5249 0 1.0025.2031 1.3674.5246.2918.2628.5074.6092.6144.9971l7.6542-.2031 2.5191-7.364c-.2446-.1608-.4536-.3696-.6153-.6141-.2023-.3224-.3283-.7045-.3283-1.1106 0-1.1272.9195-2.0464 2.0423-2.0464v.6564c-.7588 0-1.3856.6266-1.3856 1.39 0 .2809.0837.537.2214.7525.1492.2263.3582.4053.6028.5189zm.2927 18.3914.1907.1376 6.7944 4.8394.2272.155-.1202.2512c-.0415.0953-.0771.1906-.1012.2925-.024.0953-.0356.1965-.0356.3042 0 .3821.1608.7335.4121.9846.2504.2503.597.4053.9784.4053.3823 0 .7347-.155.9851-.4053.2512-.2511.4063-.6025.4063-.9846s-.1551-.7285-.4063-.9788c-.2504-.2503-.6028-.4061-.9851-.4061-.0771 0-.1551.0066-.2264.0124-.0721.0174-.1492.0356-.2214.0597l-.3217.1069-.0962-.3282-2.3159-8.0677-.0597-.2089.1733-.1376 6.4776-5.1378.2446-.1906.209.2387c.1252.1492.2927.2685.4718.3522.1725.0829.3698.1252.5788.1252.3822 0 .728-.155.9792-.4061.2563-.2503.4121-.6026.4121-.9847 0-.382-.1558-.7277-.4121-.9722-.2512-.2511-.597-.4119-.9792-.4119-.3582 0-.6808.1368-.9254.3581-.2504.2204-.4237.5312-.4594.8769l-.0298.3041-.3043-.0116-8.1617-.2146-.2264-.0058-.0779-.2155-2.6808-7.8473-.0954-.2801.2687-.1193c.2504-.1136.4594-.2926.6028-.5189.1377-.2155.2206-.4716.2206-.7525 0-.3813-.1551-.7277-.4055-.978-.257-.2512-.6028-.412-.9851-.412v-.6564c.5672 0 1.0747.2329 1.4445.6026.3706.3696.6028.8835.6028 1.4438 0 .4061-.1194.7882-.3284 1.1106-.1608.2445-.3698.4533-.6144.6141l2.5191 7.364 7.6542.2031c.107-.3879.3217-.7343.6144-.9971.364-.3215.8417-.5246 1.3674-.5246.5613 0 1.0746.2329 1.4444.6025.3707.3697.6037.8769.6037 1.438 0 .5669-.233 1.0742-.6037 1.4505-.3698.3696-.8831.5967-1.4444.5967-.3043 0-.5912-.0655-.8475-.1848-.1733-.0779-.335-.179-.4776-.2984l-6.0779 4.8154 2.1675 7.5547c.1069-.0174.2147-.0241.3217-.0241.5672 0 1.0746.2271 1.4511.5968.3698.3705.597.8835.597 1.4446 0 .5669-.2272 1.08-.597 1.4496-.3765.3705-.8839.5967-1.4511.5967-.5605 0-1.0746-.2262-1.4444-.5967-.3699-.3696-.6029-.8827-.6029-1.4496 0-.1492.0183-.3042.0539-.4476.0116-.0596.0299-.1193.0473-.1732l-6.3997-4.5535z" fill="#fff"/><path d="m24.2042 25.0974c3.325 0 6.0182 2.7268 6.0182 6.0926s-2.6932 6.0993-6.0182 6.0993c-3.3193 0-6.0116-2.7335-6.0116-6.0993s2.6923-6.0926 6.0116-6.0926" fill="#e8e8e8"/><path d="m24.2041 37.3306c-1.6658 0-3.1824-.6862-4.2803-1.8018-1.0986-1.1106-1.7794-2.6439-1.7794-4.3389 0-1.6883.6808-3.2224 1.7794-4.338 1.0979-1.1098 2.6145-1.8026 4.2803-1.8026v.0895c-1.6418 0-3.1343.6804-4.2147 1.7786-1.0805 1.0982-1.7496 2.6075-1.7496 4.2725 0 1.6651.6691 3.181 1.7496 4.2792 1.0804 1.0916 2.5729 1.772 4.2147 1.772zm0-12.2813c1.6717 0 3.1824.6928 4.2803 1.8026 1.0986 1.1156 1.7794 2.6497 1.7794 4.338 0 1.695-.6808 3.2283-1.7794 4.3389-1.0979 1.1156-2.6086 1.8018-4.2803 1.8018v-.0895c1.6418 0 3.1343-.6804 4.2206-1.772 1.0812-1.0982 1.7496-2.6141 1.7496-4.2792 0-1.665-.6684-3.1743-1.7496-4.2725-1.0863-1.0982-2.5788-1.7786-4.2206-1.7786z" fill="#302c2a"/><path d="m24.0847 31.5304.3938 1.2175 1.272.0473-1.0149.7583.3524 1.2532-1.0216-.7517-1.0505.7219.3822-1.2234-.9967-.7998 1.2538-.0058z" fill="#302c2a"/><path d="m19.7505 33.0999.8358.9191.7704-.2329-.1791.9192 1.0688.8594c-.3947-.1135-.8002-.1259-1.1708-.3348l.0539.6448-.8118-.9548-.8358-.4716.4179-.1434z" fill="#302c2a"/><path d="m22.1982 36.2566c1.2654.9548 2.6269.9664 4.107.0415-.4113-.2503-.6924-.6084-.7819-1.1214-.913.1964-1.8143.1848-2.7222-.0423-.0415.3763-.2446.7526-.6029 1.1222" fill="#302c2a"/><path d="m21.6131 33.2668.8242-1.4263-3.0273.6025z" fill="#302c2a"/><path d="m26.6461 33.3505-.8243-1.4264 3.0332.6026z" fill="#302c2a"/><path d="m22.2578 26.1357c1.2654-.949 2.3466-.9009 3.8267.0241-.364.3398-.4536.7036-.6028 1.104-.9071-.2031-1.8151-.1915-2.7222.0414-.0423-.3755-.1435-.7932-.5017-1.1695" fill="#302c2a"/><path d="m20.6578 26.6729.2032.4293 1.1044-.4475-.9137.9191.9792 2.3273c-.3167-.2503-.6923-.4177-.9552-.7517l-.1907.6208-.7761-1.1935-.4121-.9134.4179-.0356z" fill="#302c2a"/><path d="m27.6311 26.6549-.209.4235-1.0987-.4417.9138.9191-.9851 2.3273c.3226-.2503.6982-.4177.9553-.7575l.1965.6208.7703-1.1935.4121-.9076-.4179-.0356z" fill="#302c2a"/><path d="m15.2908 28.4691c.0779-.1012.1608-.1973.2686-.2628.1078-.0654.2272-.0895.3466-.1193.2322-.0597.4652-.0539.6982 0l.233.0779.1609.1434.1616-.2155.0772-.0058h.2089v.1019l15.5581-.0124-.0058 5.7113c-6.0896-2.1847-12.0539-1.9874-17.9345 0l-.0233-4.6372c.0058-.1906.0896-.5669.2505-.7815" fill="#302c2a"/><path d="m21.1235 28.2662h2.1252c.0058.1733.0125.3523.0183.5313l.0174.5371h-.1368c-.0299-.2743-.1136-.4534-.2513-.5553-.1426-.1011-.2918-.155-.4477-.155-.0597.0058-.1194.0058-.1791.0058v.6987.6979c.0895 0 .1675-.0299.2214-.0838.0597-.0596.1011-.1309.1252-.2329.024-.0953.0356-.2204.0414-.3638h.1493v.8479.8412c-.0531.0058-.1012.0058-.1493.0116-.0058-.2146-.0414-.3821-.0953-.4948-.0597-.1135-.1551-.1674-.2927-.1674v.5785.5794c0 .1549.0182.2503.0539.2983.0356.0415.0895.0597.1617.0597.1127-.0124.2321-.0481.3457-.1135.1136-.0713.209-.1675.2985-.2868.0838-.1194.1493-.2686.1849-.4351.0539.024.102.0472.1493.0712-.0298.1733-.0597.3523-.0895.5255-.0299.1732-.0598.3456-.0896.5246-.7222.0365-1.4444.0896-2.1609.1675v-.1907c.0241 0 .0481-.0066.0713-.0066.0664-.0058.1136-.0597.1319-.1492.024-.0895.0298-.2146.0298-.3696v-1.3427-1.3369c0-.155-.0058-.2801-.0298-.3696-.0183-.0896-.0655-.1318-.1319-.1318h-.0713zm-2.1252 1.9577c.2388-.024.4776-.0423.7164-.0597v-.5851-.5785c0-.1732-.0124-.305-.0356-.3945-.0241-.0895-.0663-.1368-.1376-.1368-.0241 0-.0481.0058-.0656.0058v-.203c.4594 0 .9196 0 1.3848-.0059v.1907h-.0655c-.0713 0-.1136.048-.1377.1318-.0232.0895-.0356.2146-.0356.382v1.3726 1.3658c0 .1492.0124.2752.0298.3647.0241.0895.0655.131.1319.1252.0232-.0058.0472-.0058.0771-.0125v.1915c-.4652.0655-.9254.1368-1.3848.2089v-.1973c.0175-.0058.0415-.0058.0597-.0116.0714-.0124.1194-.0655.1435-.1616.0232-.0895.0356-.2205.0356-.3937v-.6382-.639c-.2388.024-.4776.0481-.7164.0721v.6564.6564c0 .1194.0058.2147.0116.2926.0058.0713.0241.131.0481.1724.0299.0423.0655.0597.107.0481.024 0 .0481-.0058.0663-.0116v.2022c-.4602.0837-.9195.179-1.3797.2868v-.2147c.024-.0058.0423-.0124.0663-.0182.0713-.0116.1128-.0713.1368-.1732.0241-.0954.0299-.2387.0299-.4294v-1.5101-1.515c0-.1915-.0116-.3349-.0299-.4244-.0174-.0953-.0655-.1426-.131-.1426-.024 0-.0481 0-.0721.0059v-.2147c.4602-.0066.9195-.0066 1.3797-.0124v.203h-.0597c-.0663 0-.1136.0481-.1376.131-.0241.0895-.0357.2271-.0357.4177v.5967zm6.1194-1.9577v.412c-.0837-.0357-.1791-.0597-.2985-.0597v.7103.7037c.107 0 .209-.0241.2985-.0713v1.1636c-.0953-.2511-.1915-.4956-.2869-.7401h-.0116v.5669.5611c0 .1069.0058.1906.0116.2627.0058.0655.0241.1252.0481.1608.0299.0415.0655.0655.1136.0655h.0655v.179c-.466-.0058-.9253-.0116-1.3789-.0058v-.179h.0597c.0597 0 .107-.0414.131-.1193.0241-.0779.0415-.1973.0415-.3697v-1.2896-1.2888c0-.1666-.0174-.2926-.0415-.3697-.024-.0779-.0713-.1135-.131-.1135h-.0597v-.1849c.4776 0 .9552 0 1.4386.0059zm-7.7968 1.5756c-.0481 0-.0962.0058-.1435.0116-.0356-.3099-.1136-.5967-.233-.8528-.1194-.257-.3043-.3821-.5555-.3763-.107 0-.209.0481-.2919.1376-.0895.0953-.1318.2263-.1318.3995 0 .1434.024.2685.0837.3638.0539.102.1252.179.209.2387.0895.0597.1973.1252.3225.1848.1252.0664.2206.1136.2803.1559.2147.1425.3764.334.49.5785.107.2445.1609.5428.1609.8893 0 .3821-.0597.7037-.1733.9606-.1194.2627-.2562.4592-.4237.6025-.1675.1376-.3342.2329-.5075.281-.1791.053-.3764.0472-.5854-.0182-.0713-.0241-.131-.0539-.1791-.0655-.0473-.0124-.0895-.0182-.1252-.0058-.0539.0174-.0895.0597-.1194.1251-.024.0655-.0357.1492-.0357.2387-.048.0174-.1011.0357-.1492.0473v-1.0079-1.0028c.0481-.0116.1012-.0241.1492-.0299.0357.2868.1078.5429.2148.7576.1078.2155.2388.3647.3881.46.1434.0953.2869.1251.4179.0895.1078-.0241.2031-.1078.2869-.2387.0771-.1318.1194-.3108.1194-.5313 0-.1492-.0241-.2627-.0722-.3398-.0414-.0779-.1011-.1376-.1666-.1732-.0655-.0357-.209-.1136-.442-.2147-.1733-.0837-.3341-.1674-.466-.281-.1368-.1135-.2446-.2801-.3342-.5014-.0895-.2204-.1368-.5072-.1368-.8653 0-.3398.0473-.644.1427-.9009.0961-.2627.233-.4591.4063-.5967.1791-.1368.3822-.2031.6086-.2031.1559 0 .3109.0539.466.1674.0481.0357.0895.0655.1194.0837.0298.0241.0539.0415.0713.0473.0182.0124.0423.0182.0597.0182.0365 0 .0663-.0182.0895-.0597.0299-.0356.0423-.0895.0423-.1549v-.0597h.1435v.8172zm13.3665-1.5573c.723.0058 1.4453.0116 2.1675.0174 0 .2445.0116.4956.0182.7401.0058.2445.0116.4957.0174.7402-.0472-.0059-.0953-.0125-.1434-.0125-.0415-.6498-.2919-.9904-.7695-1.0078-.0481 0-.0962 0-.1435-.0066v.8951.8893c.1609.0298.2745-.0298.34-.1666.0655-.1376.102-.3522.1078-.6448.0415.0058.0896.0058.131.0116v1.1703 1.1636c-.0414-.0124-.0895-.024-.131-.0298 0-.3166-.0298-.5611-.0953-.7401-.0722-.1733-.1858-.2744-.3525-.3042v.7517.7518c0 .1848.0117.3282.0299.4235.0174.1019.0356.1674.0655.1972.024.0357.0655.0597.1136.0713.024.0124.0539.0182.0837.0298v.2387c-.4842-.1607-.9618-.3041-1.4394-.4417v-.2205c.0182.0058.0365.0116.0597.0183.0597.0174.1078-.0183.1376-.0962.0299-.0771.0423-.2262.0423-.4475v-1.5872-1.5872c0-.1906-.0124-.3398-.0365-.4418-.024-.1011-.0713-.1549-.1368-.1549h-.0663zm-2.4113-.0124c.7222 0 1.4445.0058 2.1609.0124.0058.2146.0116.4235.0182.6382.0058.2088.0116.4235.0232.6382-.0472-.0058-.1011-.0058-.1426-.0116-.0365-.5612-.2985-.8471-.7703-.8653h-.1435v.7815.7816c.1551.0124.2687-.0414.3342-.1608.0721-.1193.1078-.31.1136-.5669.0415.0058.0896.0116.131.0116v1.0145 1.0145c-.0414-.0116-.0895-.0174-.131-.0299 0-.2685-.0357-.4832-.1012-.6324-.0663-.1491-.1791-.2329-.3466-.2503v.6565.6622c0 .1608.0058.2867.0241.3696.0174.0837.0414.1376.0713.1675.024.024.0597.0414.1078.048.0298.0058.0539.0116.0837.0174v.2089c-.4776-.1011-.9552-.1964-1.4328-.2744v-.1972c.0174 0 .0357.0066.0597.0066.0597.0116.107-.0182.1368-.0961.0241-.0713.0423-.2089.0423-.3995v-1.4082-1.4081c0-.1732-.0124-.305-.0365-.3945-.0232-.0895-.0713-.1368-.1368-.1368h-.0655zm-1.6484 4.0106v-.1857c.024.0067.0423.0067.0663.0067.0713.0116.1252-.0241.1426-.1078.0183-.0837.0307-.2088.0307-.3696v-1.3369-1.3369c0-.1674-.0124-.2868-.0307-.3763-.0174-.0829-.0713-.1251-.1426-.1251h-.0663v-.1849c.4602 0 .9195.0001 1.3856.0059v.1914h-.0597c-.0539 0-.0954.0174-.1195.0655-.024.0414-.0422.1011-.048.1732-.0117.0713-.0117.1608-.0117.2743v1.3726 1.3667c0 .1127 0 .2022.0117.2743.0058.0771.024.1368.048.1848.0241.0481.0656.0779.1195.0837.0174 0 .0414.0059.0597.0059v.1972c-.4602-.0721-.9254-.126-1.3856-.179zm-1.51-1.1579v-1.1636c.0415-.0183.078-.0423.1136-.0721.1252-.0953.1907-.2918.1907-.5901 0-.3167-.1011-.5255-.3043-.6208v-.4119h.1907c.2148 0 .3939.0356.5316.1135.1376.0713.2446.1666.3101.2743.0663.1136.1078.2271.1318.334.0241.1078.0357.2147.0357.3042 0 .2271-.0539.4302-.1551.6092-.102.179-.2628.2926-.4718.3522.1012.2562.209.5189.3101.7758.102.2619.209.5247.311.7874.0655.1608.131.2503.2089.2685v.1849c-.3283-.0241-.6567-.0473-.9851-.0655-.1194-.31-.233-.615-.3524-.9134z" fill="#fff"/><path d="m16.3415 31.6617v-.0953c-.0597-.0298-.131-.0597-.2148-.0953-.0895-.0423-.1675-.0837-.2446-.1318-.0779-.0414-.1492-.0895-.2156-.1434-.0655-.053-.1194-.1193-.1724-.2022-.0539-.0779-.1078-.1732-.1493-.281-.0423-.1069-.0779-.2329-.0962-.3754-.0232-.1434-.0356-.2984-.0356-.4774 0-.1674.0124-.3282.0356-.4774.0241-.1492.0597-.2868.1078-.4119.0415-.1252.1012-.2387.1675-.3341.0655-.0961.1368-.179.2206-.2453.0837-.0655.1733-.1127.2744-.1425.0954-.0365.2032-.0481.311-.0481h.0116v-.0837h-.0116c-.1194 0-.233.0182-.3408.0539-.1012.0356-.2032.0837-.2927.1549-.0896.0722-.1725.1617-.2446.2628-.0655.1011-.1252.2204-.1733.3522-.0473.131-.0829.2744-.107.4294-.0298.1549-.0356.3166-.0356.4898 0 .179.0058.3456.0298.489.0232.1492.0597.2801.1012.3937.0481.1135.1011.2146.155.2983.0597.0837.1252.1617.1916.2147.0713.0597.1426.1077.2263.1558.078.0473.1675.0895.2571.131.0953.048.1791.0837.2446.1135zm0 1.8143c-.0713.0116-.1434.0174-.2206.0174-.102-.0058-.2031-.0232-.3109-.0597-.0415-.0116-.0771-.0232-.107-.0356-.024-.0116-.0481-.0174-.0721-.0241-.0174-.0116-.0357-.0116-.0539-.0116-.0174 0-.0357 0-.0473.0058-.0182 0-.0356.0125-.0539.0299-.0116.0182-.024.0422-.0356.0655-.0125.0364-.0241.0663-.0299.1077-.0058.0356-.0058.0779-.0058.1194v.0298l-.0298.0116c-.0125.0066-.0241.0066-.0423.0124-.0357.0116-.0713.0241-.107.0357l-.0539.0116v-2.1002l.0299-.0058c.0174-.0059.0472-.0125.0771-.0183.0597-.0116.0721-.0116.0779-.0116l.0415-.0124.0066.048c.0174.1434.0415.2744.0771.3995.0357.126.078.2387.1319.3465.053.1011.1127.1906.1724.2685.0664.0713.1319.131.1974.1732.0713.0473.1376.0771.2031.0895.0539.0117.107.0117.1551.0059v.0837c-.0539.0058-.1136.0058-.1733-.0125-.0771-.0116-.1493-.0472-.2264-.0953-.0779-.0472-.1492-.1135-.2156-.1964-.0655-.0779-.131-.1732-.1849-.281-.0539-.1069-.1011-.2262-.1368-.358-.0365-.1194-.0597-.2387-.0779-.3697-.0183 0-.0241.0058-.0299.0058-.0116 0-.0298.0058-.0414.0058v1.9278l.053-.0182c.0067 0 .0125-.0058.0125-.0058 0-.0356.0058-.0713.0116-.1011.0058-.0481.0182-.0837.0298-.1194.0125-.0422.0357-.0721.0539-.0961.0299-.0298.0539-.0472.0896-.0597.024-.0058.0481-.0058.0713-.0058.024 0 .0539.0058.0779.0125.0241.0058.0481.0174.078.0298.0298.0116.0655.0232.1011.0356.1012.0299.1974.0473.2927.0539.0714 0 .1435-.0066.2148-.0182zm0-4.8096c-.0298.0058-.0597.0174-.0896.0298-.048.0232-.0895.0531-.1252.0953-.0422.0415-.0721.0953-.0895.155-.0183.0597-.0299.131-.0299.2147 0 .0655.0058.1318.0175.1914.0124.0531.0298.107.0597.155.024.0473.0539.0895.0895.1252.0299.0356.0721.0713.1078.1011.0182.0124.0415.024.0597.0365v.0953c-.0357-.0183-.0713-.0423-.1078-.0655-.0414-.0298-.0829-.0721-.1194-.1135-.0415-.0423-.0713-.0896-.1012-.1376-.0298-.0539-.0539-.1136-.0655-.1791-.0182-.0654-.024-.1367-.024-.2088 0-.0895.0116-.1732.0356-.2387.0241-.0713.0597-.1368.1078-.1848.0415-.0539.0954-.0895.1493-.1136.0415-.024.0837-.0356.1252-.0414zm3.0149 1.4852v.0837c-.1194.0058-.2388.0183-.3582.0299h-.0414v-1.2408c0-.0961 0-.179.0058-.2511.0058-.0713.0174-.131.0298-.179.0174-.0473.0357-.0895.0655-.1136.0299-.0298.0713-.0414.1136-.0472h.0174v-.1616l-.0356.0422c-.4179.0058-.8417.0058-1.2596.0116v.1318c.0116 0 .0183-.0066.0299-.0066.0414 0 .0837.0182.1136.0481.024.0298.0473.0712.0597.1251.0116.0539.0174.1136.024.1915.0058.0654.0058.1492.0058.2445v3.0251c0 .0953 0 .1791-.0058.2512-.0066.077-.0124.1367-.024.1906-.0125.0539-.0357.1011-.0597.1376-.0299.0356-.0655.0597-.1078.0655-.0058 0-.0174.0058-.0357.0058v.1309c.2148-.0472.4238-.0953.6385-.1367.2214-.0481.442-.0896.6567-.1318v-.1194c-.0058.0067-.0116.0067-.0116.0067-.0356.0058-.0597 0-.0895-.0125-.0241-.0058-.0481-.0298-.0597-.0538-.0183-.0232-.0299-.0531-.0415-.0896-.0066-.0298-.0124-.0654-.0182-.1069-.0058-.0356-.0058-.0837-.0116-.1318v-.1607-1.3485l.0356-.0058c.1136-.0125.2264-.0183.3582-.0365h.0058v.0837c-.0953.0124-.2089.024-.3225.0298v1.2772c0 .0597.0058.1136.0058.1608.0066.0481.0066.0896.0124.126 0 .0357.0058.0655.0174.0953.0067.0241.0125.0473.0241.0655.0124.0116.0182.0182.0298.024.0125.0059.0241.0059.0357 0h.024c.0125-.0058.0299-.0058.0423-.0058l.0473-.0124v.2868l-.0299.0058c-.233.0414-.4651.0837-.6923.1309-.2272.0481-.4594.0962-.6866.1492l-.0539.0125v-.2628l.0539-.048c.0116 0 .024 0 .0481-.0059.0232-.0058.0414-.0174.0597-.0414.0174-.024.0356-.0597.0414-.1019.0116-.0473.0183-.107.0241-.1791.0058-.0712.0116-.1491.0116-.2445v-3.0251c0-.0895-.0058-.1733-.0116-.2387-.0058-.0721-.0125-.1318-.0241-.1791-.0058-.0356-.0182-.0654-.0356-.0837-.0125-.0182-.0357-.024-.0539-.024h-.0357-.0356l-.0423.0058v-.2984h.0423c.4353-.0058.8657-.0058 1.4204.0299v.2453h-.0415-.0298-.0299c-.024 0-.0423.0058-.0539.0232-.0182.0182-.0356.0423-.0481.0779-.0116.0414-.0174.0953-.0232.1608-.0066.0663-.0124.1492-.0124.2453v1.1512c.1078-.0058.2147-.0174.3167-.024zm-3.0149 2.823c.0116 0 .0182-.0058.0299-.0058.048-.0125.0953-.0357.1376-.0721.0415-.0415.0829-.0896.1252-.155.0357-.0597.0655-.1368.0838-.2205.0232-.0837.0298-.179.0298-.2868 0-.0712-.0066-.1367-.0124-.1906-.0116-.0481-.0299-.0953-.0473-.1318-.0241-.0356-.0481-.0655-.0779-.0953-.0241-.024-.0539-.0472-.078-.0597-.0415-.024-.1012-.0538-.1907-.0953v-.0953l.0357.0174c.0895.0423.155.0779.1915.102.0356.0174.0713.0414.1012.077.0298.0299.0597.0663.0837.1078.0299.0481.0473.1011.0597.1608.0116.0596.0174.1259.0174.203 0 .1136-.0116.2147-.0298.3042-.0232.0961-.0531.179-.0954.2453-.0473.0713-.0953.131-.1434.1724-.0531.0481-.1128.0779-.1725.0895-.0183.0067-.0299.0067-.0481.0125zm0-3.2042v.0953c.0116.0116.0299.0174.0415.0298.0539.0299.1136.0597.1791.0953.0663.0299.1194.0597.1617.0837.0472.0241.0895.0473.1194.0655.1011.0655.1907.1492.2686.2387.0838.0953.1493.2031.1965.3224.0539.1194.0962.2503.1194.3937.0299.1492.0423.3042.0423.4774 0 .1906-.0182.3639-.0423.5188-.0298.1559-.0713.2984-.131.4244-.0539.131-.1194.2445-.1849.3398-.0721.0953-.1434.179-.2214.2503-.0829.0663-.1666.126-.2446.1674-.0837.0481-.1667.0837-.2446.1078-.024 0-.0415.0058-.0597.0116v.0837c.0241-.0058.0539-.0124.0779-.0182.0896-.0241.1792-.0597.2621-.1136.0895-.0472.1733-.1069.257-.179.0896-.0713.1675-.1608.2388-.2619.0713-.102.1377-.2213.1974-.3523.0597-.1317.1011-.2809.131-.4417.0298-.1608.0481-.3398.0481-.5371 0-.1732-.0183-.3398-.0423-.489-.0299-.1558-.0713-.2926-.1252-.4177-.0539-.126-.1252-.2387-.209-.3349-.0837-.1011-.1791-.1848-.2927-.2619-.0298-.0182-.0713-.0422-.1194-.0663-.0472-.0298-.1069-.0596-.1666-.0895-.0664-.0298-.1194-.0597-.1733-.0895-.0299-.0174-.0597-.0356-.0838-.053zm1.0207.1069-.0356.0058c-.0415 0-.0655 0-.0713.0066h-.0067c-.0655.0058-.0597 0-.0713.0058h-.0356l-.0058-.0356c-.0183-.1558-.0481-.305-.0838-.4418-.0356-.1376-.0837-.2743-.1434-.4003-.0597-.1193-.131-.2147-.2148-.2743-.0837-.0539-.1849-.0837-.3043-.0837-.0124 0-.0299.0066-.0481.0066v-.0837h.0481c.131-.0058.2504.0298.3516.0953.0962.0713.1791.1732.2388.31.0597.1259.1136.2627.1492.4061.0365.1309.0664.2685.0838.4119h.0298c.0183 0 .0299-.0058.0423-.0058v-1.564h-.0663v.0241c0 .0356-.0058.0712-.0116.1011-.0058.0298-.0183.0539-.0357.0779-.0182.024-.0356.0414-.0539.0539-.024.0116-.0481.024-.0713.024-.0124 0-.0298-.0066-.0423-.0066-.0116-.0058-.024-.0116-.0356-.0174l-.0357-.0183c-.0124-.0058-.0298-.0174-.0423-.0298l-.0414-.0298c-.0357-.0241-.0713-.0539-.078-.0539-.0771-.0531-.1492-.0953-.2205-.1252-.0714-.024-.1377-.0356-.209-.0356v-.0837c.0779 0 .1551.0182.233.0423.0838.0298.1609.077.2446.1309.0539.0414.0713.0539.078.0597.0298.0182.0232.0182.0414.0298.0116.0116.0241.0183.0357.0241.0124.0116.024.0174.0298.0174.0058.0066.0125.0066.0183.0124h.024c.0116 0 .0174-.0058.0299-.0058.0058-.0066.0174-.0182.0298-.0365.0058-.0116.0174-.0298.0174-.053.0058-.0183.0125-.0481.0125-.0779v-.1011h.0414.1435.0414zm3.7969 2.2436.0066-.0058zm-1.8027-1.4977v-.0837c.1136-.0116.233-.0232.3524-.0356h.0473v1.3186c0 .0837-.0058.1616-.0116.2271-.0058.0713-.0182.131-.0299.179-.0116.0539-.0298.0953-.0597.1252-.0298.0356-.0655.0539-.1136.0655-.0116 0-.0174 0-.024.0066v.1127c.2156-.0356.4303-.0655.6451-.1011.2148-.0298.4295-.0597.6567-.0953v-.1078c-.0116 0-.024.0058-.0298.0058-.0481.0067-.0838-.0058-.1136-.0356-.0299-.0298-.0473-.0655-.0597-.1194-.0116-.0472-.0241-.1069-.0299-.1665-.0058-.0597-.0058-.1318-.0058-.2089v-2.7392c0-.0779.0058-.155.0116-.2147.0067-.0721.0125-.1318.0241-.1732.0124-.0539.0356-.0895.0655-.1194.0298-.0298.0663-.048.1136-.048h.024v-.107c-.2147 0-.4237.0058-.6384.0058h-.6634v.1194h.0241c.048-.0058.0837.0116.1136.0414.0298.0299.048.0655.0655.1194.0124.0539.0182.1077.024.1732s.0116.1434.0116.2329v1.1993l-.0414.0058c-.1136.0058-.233.0182-.3583.0298v-.0837c.1012-.0116.209-.0174.3168-.0298v-1.1214c0-.0837-.0066-.155-.0124-.2213-.0058-.0655-.0117-.1193-.0241-.1608-.0058-.0414-.0174-.0655-.0356-.0837-.0175-.0174-.0357-.024-.0597-.024h-.0357-.0299l-.0414.0066v-.2868h.0414.7049c.2263 0 .4535 0 .6799-.0058h.0423v.2744h-.0423-.0232-.0423c-.0241 0-.0415.0058-.0597.024-.0174.0174-.0299.0414-.0357.0771-.0116.0422-.024.0961-.0298.1616-.0058.0597-.0058.131-.0058.2089v2.7392c0 .0713 0 .1425.0058.2022s.0116.1078.024.1558c.0058.0357.0174.0597.0357.0771.0116.0124.0298.0183.0481.0124.0174 0 .0356-.0066.053-.0066h.0241l.0481-.0058v.2686l-.0357.0058c-.2272.0298-.4602.0663-.6932.1019-.2388.0356-.471.0713-.6923.1069l-.0473.0066v-.2809l.0356-.0058h.0175c.0182-.0058.0298-.0058.0422-.0116.0241 0 .0473-.0125.0655-.0365.0183-.0174.0299-.053.0415-.0895.0124-.0473.0183-.1011.0241-.1666s.0124-.1434.0124-.2213v-1.2291c-.102.0058-.209.0182-.3168.0298zm1.8093 1.4919v.0837h-.0066v.1077h.0066v.0829h-.0423l-.0414.0066v-.2685l.0356-.0066h.0415zm0-3.8905v.0837h-.0066v.107h.0066v.0837h-.0423-.0414v-.2744h.0414zm0 3.9742h.0058.0299c.0414-.0058.0771-.024.1069-.0597.0299-.0298.0481-.0655.0598-.1193.0124-.0481.0182-.1078.024-.1675.0058-.0654.0058-.1367.0058-.2146v-2.6796c0-.0829 0-.1492-.0058-.2146-.0058-.0597-.0116-.1136-.024-.1608-.0117-.0539-.0299-.0953-.0598-.1194-.0298-.0356-.0655-.048-.1127-.048h-.0241-.0058v.0837h.0058.0241c.0232 0 .0414.0058.053.0182.0183.0174.0299.0472.0423.0829.0058.0422.0116.0895.0174.1558.0067.0597.0125.1251.0125.2022v2.6796c0 .0779-.0058.1434-.0125.2088-.0058.0597-.0116.1136-.0174.155-.0124.0365-.024.0663-.0423.0837-.0116.0183-.0356.0299-.053.0299h-.0299zm0 .1906v-.0829c.3458-.0364.6924-.0663 1.0324-.0961.3524-.0232.699-.0472 1.0505-.0655.0183-.0771.0299-.155.0423-.2329.0174-.0895.0299-.179.0415-.2561.024-.1251.0423-.2329.0597-.3464.0124-.0539.0182-.1069.0298-.1492-.0174-.0116-.0356-.0174-.0472-.0241-.0125-.0058-.0241-.0058-.0299-.0116-.0182.0655-.0423.131-.0663.1907-.0357.0779-.0713.1434-.1194.203-.0415.0655-.0896.1194-.1426.1733-.0481.048-.1078.0895-.1675.1251s-.1194.0655-.1791.0837c-.0597.0241-.1252.0357-.1849.0357-.0423.0058-.078 0-.1078-.0117-.0357-.0124-.0597-.0298-.0838-.0596-.0232-.0241-.0414-.0655-.053-.1252-.0067-.0539-.0125-.1193-.0125-.1972v-1.1935h.0423c.0713-.0058.1368.0116.1965.0414.0539.0298.0954.0779.1319.1434.0298.0597.053.1318.0713.2213.0116.0713.024.155.0298.2445h.0299.0356v-1.6112h-.024-.0415c-.0058.0596-.0058.1135-.0182.1666-.0058.0596-.0174.1135-.0299.1674-.0116.0539-.0298.0953-.0472.1376-.0241.0414-.0539.077-.0838.1127-.0298.0298-.0655.0539-.1136.0721-.0414.0174-.0837.024-.1368.024l-.0423.0058v-1.486h.0423.1012.0779c.0829 0 .1609.0116.2388.0356.0829.0298.1551.0655.2322.1194.0721.0538.1376.1317.1791.2329.0423.0837.0663.1906.0837.3166h.0357.024c0-.0481 0-.0895-.0058-.1376-.0058-.1194-.0116-.2329-.0116-.3581-.0066-.0837-.0066-.1732-.0124-.2627 0-.0771-.0058-.1492-.0058-.2329-.34 0-.6808.0066-1.0207.0066h-1.0208v-.0837h1.0208 1.0621.0365l.0058.0357c0 .0895.0058.179.0058.2743.0058.0837.0058.1732.0116.2627 0 .1136.0067.2387.0125.3581 0 .0539.0058.1135.0058.1732v.0414h-.0415c-.0182 0-.0423 0-.0663.0058h-.0713-.0357l-.0058-.0414c-.0124-.1251-.0423-.2387-.0779-.3282-.0415-.0837-.0954-.1492-.1551-.1973-.0721-.0472-.1376-.0828-.2089-.1069-.0722-.024-.1435-.0356-.2148-.0356h-.0779-.0597v1.3186c.024-.0058.0481-.0124.0655-.0182.0356-.0116.0655-.0298.0895-.0539.0241-.0232.0423-.053.0597-.0895.0241-.0356.0357-.0771.0481-.1193.0116-.0473.0241-.1012.0299-.1608.0058-.0597.0116-.1252.0174-.1973v-.0414h.0365.0771.0655.0423v1.772h-.0357c-.024.0066-.0481.0066-.0721.0066-.0241 0-.0473 0-.0713.0058h-.0423v-.0423c-.0058-.1069-.0174-.1964-.0357-.2743-.0116-.0837-.0356-.1492-.0655-.2031-.024-.0472-.0539-.0828-.0953-.1069-.0357-.0182-.0722-.0298-.1136-.0356v1.1156c0 .0712 0 .1375.0116.1848.0066.0423.0182.0721.0298.0837.0183.0182.0299.0298.0539.0356.0183.0125.0423.0125.0722.0125.0597-.0067.1127-.0183.1666-.0365.0539-.0174.1078-.0414.1617-.0713.0531-.0356.107-.0779.1551-.1193.0472-.0481.0895-.1011.131-.155.0423-.0597.0779-.1252.1078-.1915.0298-.0712.0539-.1492.0713-.2262l.0124-.0539.0473.024c.024.0116.0481.0241.0779.0357.0299.0116.0539.024.0713.0356l.0299.0124-.0058.0299c-.0116.0654-.0182.1251-.0299.179-.024.1193-.0414.2387-.0597.3456-.0182.0895-.0298.1732-.0414.2569-.0183.0896-.0365.1849-.0481.2686l-.0058.0298-.0299.0058c-.364.0183-.7222.0415-1.087.0655-.3458.0298-.6982.0597-1.0382.0953zm3.9337-3.7653c-.0829-.0298-.1725-.0414-.2803-.0414h-.0414v1.4918h.0414c.078 0 .1551-.0124.233-.0422.0116 0 .0299-.0058.0473-.0174v-.0896c-.0232.0117-.0531.0241-.0771.0357-.0539.0116-.1078.024-.1617.0298v-1.3311c.0895.0067.1675.0241.2388.0539zm0-.3995v.0771h-.6086-.7703v.1019h.0182c.0357 0 .0779.0116.107.0357.024.0298.0481.0597.0663.1077.0116.0415.0232.0953.0298.1608.0059.0655.0117.1376.0117.2205v2.5784c0 .0837-.0058.1608-.0117.2205-.0066.0655-.0182.1193-.0298.1616-.0182.0472-.0423.0829-.0663.1069-.0291.0241-.0713.0423-.107.0423h-.0182v.0953h.6451c.2147 0 .4295.0058.6509.0058v-.0953h-.0241c-.0298 0-.0597-.0124-.0837-.024-.0241-.0117-.0481-.0299-.0597-.0597-.0183-.0241-.0299-.0539-.0357-.0837-.0116-.0299-.0182-.0597-.024-.0953 0-.0415-.0058-.078-.0058-.1252-.0058-.0423-.0058-.0895-.0058-.1434v-1.1752l.0472.0058h.0058.0299l.0124.0298c.0539.1492.1136.2984.1733.4476l.0531.1309v.2271l-.131-.3282c-.0357-.0953-.0713-.1848-.1078-.281v.9432.1434c.0066.0414.0066.0771.0124.1136 0 .0298.0058.0596.0174.0828.0067.0241.0125.0481.0241.0663.0124.0116.024.0232.0356.0299.0125.0058.0241.0116.0423.0116h.0357.0298l.0415.0058v.2569h-.0415c-.233-.0058-.466-.0058-.6923-.0058-.233-.0066-.4602-.0066-.6866 0h-.0423v-.2627h.0423.0356.0241c.024 0 .0357-.0058.0539-.0183.0174-.0174.0298-.0414.0415-.0712.0116-.0357.0182-.0838.024-.1434.0058-.0597.0116-.131.0116-.2147v-2.5784c0-.0829-.0058-.155-.0116-.2089-.0058-.0596-.0124-.1127-.024-.1492-.0117-.0298-.0241-.053-.0415-.0654-.0182-.0116-.0299-.0174-.0539-.0174h-.102v-.2628h.0423.8118zm0 1.7903c.0539-.0241.1078-.0539.1617-.0954.0655-.0538.1194-.1317.1492-.2387.0357-.1019.0473-.2271.0473-.382 0-.2329-.0531-.412-.1551-.5313-.0597-.0655-.1252-.1136-.2031-.1434v.0895c.0539.0241.102.0597.1376.1078.0954.1011.1435.2627.1435.4774 0 .1433-.0183.2627-.0481.358-.0298.0895-.0713.155-.1252.1964-.0357.0299-.0713.0539-.1078.0721zm0 1.1636v-.2271l.1202.3224c.0829.2031.1426.3697.2082.5313.0539.1368.1136.2926.1376.358.1551.0116.3167.0241.466.0299.1493.0116.3043.024.4478.0356v-.1135c-.0365-.0174-.0664-.0415-.102-.0837-.0357-.0473-.0713-.1127-.1012-.1965-.0356-.0837-.0655-.1674-.102-.2445-.0655-.1732-.131-.3464-.2147-.5437-.0539-.1367-.1136-.2917-.1733-.4475-.0473-.1127-.0896-.2205-.1311-.334l-.0182-.0415.0423-.0124c.1012-.0232.1907-.0655.2628-.1194.0772-.0596.1369-.1251.185-.2088.0472-.0895.0837-.179.1069-.2802.0299-.0953.0423-.1972.0423-.3099 0-.0481-.0058-.0962-.0124-.1434-.0058-.0481-.0116-.102-.0232-.155-.0067-.0481-.0241-.1019-.0481-.1558-.0183-.0531-.0481-.1069-.078-.1608-.0298-.0539-.0713-.1011-.1194-.1434-.0473-.0472-.107-.0837-.1725-.1193-.0663-.0357-.1434-.0655-.2272-.0838-.0837-.0174-.1791-.0298-.2869-.0298h-.2089v-.0771h.2089c.1136 0 .209.0058.3052.0299.0895.0174.1725.0472.2504.0837.0713.0414.131.0829.1849.1367.0539.0481.102.102.1377.1616.0356.0597.0597.1128.0837.1724.0232.0539.0415.1136.0531.1733.0124.0538.0182.1077.024.155.0058.0596.0058.1077.0058.1558 0 .1193-.0116.2262-.0356.334-.0299.1011-.0655.203-.1194.2926-.0539.0953-.1252.1723-.209.2387-.0713.0472-.1492.0895-.2446.1193.0415.0953.0779.1906.1136.2917.0597.1434.1194.2868.1791.4476.0655.1616.1368.3522.2148.5437.0298.0771.0655.1608.0953.2445.0299.0771.0655.131.0954.1732.0307.0415.0597.0597.0895.0713l.0299.0058v.2627l-.0415-.0058c-.1675-.0124-.3341-.024-.4958-.0356-.1667-.0124-.3284-.024-.4893-.0298l-.0298-.0067-.0058-.0232c-.0838-.2155-.1136-.2867-.1493-.3821-.0721-.1914-.1492-.382-.2031-.5312zm2.2214-2.9481v.0779h-.6509v.1011h.024c.0473 0 .0896.0183.1194.0415.0299.0298.0539.0663.0655.1193.0058.0423.0183.0962.0183.1617.0058.0654.0116.1367.0116.2204v2.6738c0 .0837-.0058.155-.0116.2146 0 .0655-.0125.1194-.0183.1608-.0116.0539-.0356.0895-.0655.1136-.0356.024-.0779.0356-.1252.0298l-.0182-.0472v.1492c.2147.0232.4361.0472.6509.077v.0837l-.0058-.0058c-.233-.024-.466-.0538-.6932-.0779l-.0357-.0058v-.2204l.1136-.0299c.0241 0 .0481-.0066.0597-.0182.0183-.0116.0299-.0298.0357-.0655.0124-.0356.0182-.0837.024-.1492 0-.0596.0058-.1318.0058-.2088v-2.6738c0-.0771-.0058-.1492-.0058-.2146-.0058-.0597-.0116-.1078-.024-.1492-.0058-.0357-.0174-.0597-.0357-.0713-.0182-.0182-.0414-.024-.0655-.024h-.024-.0415-.0423v-.2686h.0423c.2206 0 .4411 0 .6924.0058zm0 4.1772v-.0837h.0058c.2089.0241.4237.0539.6451.0895v-.1135h-.0066-.0174c-.0299-.0058-.0597-.0174-.0896-.0356-.024-.0174-.0423-.0415-.0597-.0713-.0124-.0241-.024-.0539-.0357-.0895-.0066-.0299-.0182-.0655-.0182-.1078-.0058-.0414-.0058-.0837-.0058-.1251-.0058-.0481-.0058-.1011-.0058-.155v-2.7392c0-.0597 0-.1078.0058-.155 0-.0423 0-.0837.0058-.1252.0058-.0365.0116-.0721.0182-.1019.0117-.0357.0233-.0655.0357-.0895.0174-.0299.0415-.0473.0655-.0655.0299-.0116.0597-.0183.0896-.0183h.0116.0066v-.1491l-.102.0364h-.5489v-.0779c.2147.0058.4536.0183.7338.0415v.2329h-.0414-.0481-.0116c-.0183 0-.0357 0-.0481.0124-.0174.0058-.0291.0174-.0357.0298-.0116.0174-.0174.0415-.0298.0655-.0058.0298-.0116.0597-.0174.0953 0 .0299 0 .0713-.0067.1194v.1492 2.7392.1492c.0067.0472.0067.0895.0067.1251.0058.0299.0116.0655.0174.0895.0124.0299.0182.0539.0298.0779.0125.0174.0241.0299.0357.0415.0182.0058.0365.0182.0539.0182.0058 0 .0124 0 .0182.0058h.0058.0357l.0356.0058v.2802l-.0472-.0116c-.2272-.0299-.4536-.0655-.6866-.0896zm2.0539-4.1714v.0837h-.0183c-.3466-.0058-.6923-.0058-1.0389-.0058v.1136h.024c.0481 0 .0838.0174.1136.0472.0299.0299.0473.0655.0655.1194.0125.048.0183.1077.0241.1732s.0116.1434.0116.2329v2.8163c0 .0953-.0058.179-.0116.2511-.0058.0713-.0183.1252-.0357.1666-.0182.0423-.0423.0779-.0721.0953-.0299.0241-.0655.0299-.107.0241h-.0124v.1135c.2272.0357.4535.0837.6807.1252.1252.024.2505.048.3765.0721v.0829c-.126-.0233-.2571-.0473-.3881-.0771-.2388-.0423-.4776-.0895-.7164-.1318l-.0365-.0058v-.2743l.0481.0058c.0058 0 .0183.0058.0299.0058s.0182 0 .0298.0066c.0183 0 .0357 0 .0539-.0124h-.0058c.0174-.0116.0357-.0299.0415-.0597.0116-.0356.024-.0837.0298-.1492.0058-.0597.0116-.1434.0116-.2387v-2.8163c0-.0837-.0058-.1616-.0116-.2271-.0058-.0597-.0116-.1135-.024-.1608-.0058-.0356-.0241-.0655-.0415-.0779-.0124-.0174-.0298-.024-.0539-.024h-.024-.0058-.0357l-.0423-.0058v-.2744h.0423c.3582 0 .7222.0058 1.0804.0058zm0 4.5113v-.0829c.0953.0232.1965.0414.2919.0597v-.1194c-.0058-.0066-.0174-.0066-.0233-.0066-.0124-.0058-.0182-.0058-.024-.0058-.024-.0058-.0539-.0116-.0721-.0241-.0233-.0116-.0415-.0232-.0597-.0356-.0175-.0174-.0357-.0472-.0473-.0771-.0124-.0298-.0241-.0663-.0299-.1077-.0124-.0481-.0182-.1011-.024-.1674-.0058-.0597-.0058-.131-.0058-.2147v-1.3667l.0473.0066c.0895.0116.1675.0356.2272.0829.0655.0481.1136.1077.155.1914.0299.0771.0597.1733.0722.286.0174.0961.0232.2088.0298.3348h.0058c.0116 0 .0299.0058.0415.0058v-1.9394h-.0539c0 .1069-.0116.2089-.0299.2926-.0174.1011-.0472.1848-.0829.2445-.0365.0713-.0837.1193-.1493.1492-.0663.0298-.1376.0414-.2272.0356l-.0356-.0058v-1.6411h.0415.0597.0837c.2504.0116.442.0896.5788.2445.126.1434.2031.3523.2272.6266h.0356.0241c0-.0895-.0058-.179-.0058-.2685-.0058-.1078-.0058-.2147-.0125-.3224 0-.1069-.0058-.2147-.0058-.3224-.0058-.0895-.0058-.1849-.0058-.2744-.3466-.0058-.6865-.0058-1.0265-.0058v-.0837c.3582 0 .7098.0058 1.0622.0058h.0423v.0423c.0058.1011.0058.2089.0116.3158 0 .1077.0058.2155.0058.3224.0058.1019.0058.2088.0124.3166 0 .1069.0058.2147.0116.3224v.0414h-.0481c-.0232-.0058-.0472-.0058-.0713-.0058-.024 0-.0481-.0058-.0713-.0058h-.0365v-.0364c-.0174-.2744-.0887-.4774-.2089-.6142-.1252-.1376-.2985-.2088-.5249-.2147h-.0779-.0175v1.4795c.0531.0058.1012-.0058.1435-.0241.0473-.0232.0887-.0596.1128-.1127.0356-.0596.0597-.1318.0779-.2213.0174-.0953.0241-.203.0299-.3282v-.0414l.0414.0058c.0481 0 .0838.0058.1733.0481v2.0761l-.0481-.0116c-.0356-.0058-.0655-.0124-.0953-.0182-.0116 0-.0241-.0058-.0357-.0058l-.0356-.0058v-.0356c0-.1318-.0058-.2512-.0241-.3523-.0182-.1019-.0414-.1915-.0713-.2627-.0298-.0713-.0721-.1252-.1252-.1608-.0423-.0299-.0904-.0481-.1435-.0597v1.2706c0 .0779 0 .1492.0058.2146.0059.0597.0117.1078.0175.1492.0066.0365.0182.0721.0298.0962.0066.0174.0183.0356.0299.0472.0066.0058.0182.0182.0364.024.0117.0059.0299.0117.0531.0183h.0183c.024.0058.048.0116.0655.0116l.0298.0058v.2926l-.0473-.0116c-.1077-.0183-.2155-.0423-.3283-.0664zm2.4113-4.4931v.0838h-.0174c-.3466-.0067-.6924-.0067-1.039-.0125v.1376h.0058.0182c.0473 0 .0838.0174.1194.0539.0241.0356.0473.0771.0597.1367.0116.0539.0183.1194.0241.1915.0058.0771.0116.1608.0116.2561v3.1752c0 .1069-.0058.2022-.0116.2801s-.0183.1376-.0365.1848c-.0174.0481-.0415.078-.0713.102-.0299.0174-.0713.0232-.1136.0116h-.0058v.1376c.233.0655.466.1367.6866.2022.1252.0365.2504.0779.3698.1136v.0895c-.131-.0415-.2621-.0837-.3939-.1252-.2446-.0713-.4834-.1434-.7164-.2088l-.0299-.0116v-.2984l.0539.0116c.0058 0 .0183.0058.0241.0058s.0116 0 .0298.0058c.0241.0066.0357.0066.0539-.0058.0116-.0058.0232-.0298.0357-.0597.0174-.0356.024-.0895.0298-.1608.0058-.0779.0116-.1674.0116-.2743v-3.1752c0-.0895 0-.1732-.0058-.2503-.0058-.0721-.0182-.1318-.024-.179-.0116-.0481-.0299-.0779-.0473-.102-.0124-.0174-.0298-.0232-.0539-.0232h-.0182-.0473-.0423v-.305h.0423c.364.0067.7222.0066 1.0804.0125zm0 5.1437v-.0895c.102.0356.1973.0654.2985.0953v-.1492c-.0116-.0058-.0232-.0058-.0299-.0116-.0058 0 .0125.0058-.0232-.0058-.0298-.0125-.0539-.0241-.0779-.0357-.0241-.0124-.0415-.0298-.0597-.0538-.0117-.0183-.0299-.0481-.0415-.0837-.0124-.0357-.024-.078-.0298-.1252-.0125-.0539-.0183-.1135-.0241-.1848 0-.0721-.0058-.1558-.0058-.2512v-1.5573l.0473.0116c.0895.0182.1675.0539.233.1136.0655.0538.1136.1251.1492.2213.0357.0895.0597.1964.078.3215.0116.1194.0232.2512.0232.3945.0124.0059.024.0058.0365.0117h.0116v-2.2436c-.0183 0-.0357 0-.0481-.0058-.0058.1309-.0174.2444-.0357.3456-.0174.1135-.0414.203-.0771.2743-.0365.0779-.0895.1318-.1559.1674-.0597.0299-.1368.0357-.2263.0241l-.0357-.0058v-1.8624h.0415c.0356.0058.0655.0058.0953.0058h.0481c.2504.0124.4478.1078.5788.2868.1318.1674.2089.4061.2272.7219.0058 0 .0116.0058.0174.0058h.0481c-.0058-.1011-.0058-.2089-.0116-.3216 0-.1193-.0067-.2453-.0067-.3705-.0058-.1251-.0058-.2503-.0116-.3754 0-.1078-.0058-.2155-.0058-.3224-.3408 0-.6807-.0058-1.0273-.0058v-.0837c.3582 0 .7106.0058 1.0688.0058h.0357v.0414c.0066.1193.0066.2453.0124.3647 0 .1251.0058.2503.0058.3754.0058.1194.0058.2445.0116.3705.0066.1194.0066.2445.0124.3697v.0414h-.048c-.0357-.0058-.0656-.0058-.0896-.0116-.0241 0-.0415 0-.0539-.0058h-.0357v-.0356c-.0174-.3167-.0895-.5554-.2147-.7161-.1194-.1559-.2927-.2387-.5133-.2512h-.0539c-.0116 0-.0298 0-.0481-.0058v1.7065c.0539.0059.102.0001.1435-.024.0481-.0232.0895-.0655.1194-.1251.0298-.0655.0539-.1492.0721-.2503.0174-.1078.0299-.2329.0299-.3763v-.0473l.0472.0058c.0357.0058.0655.0058.0954.0116h.0365l.0356.0059v2.4234l-.0539-.0124c-.0298-.0116-.0481-.0116-.0655-.0174-.0298-.0067-.0481-.0125-.0655-.0183l-.0298-.0058v-.0298c0-.1616-.0067-.2984-.0241-.4177-.0124-.1194-.0356-.2213-.0721-.3042-.0299-.0837-.0713-.1434-.1252-.1915-.0415-.0356-.0896-.0654-.1435-.077v1.4496c0 .0895 0 .1732.0067.2445.0058.0721.0116.1317.0174.1732.0124.0481.0182.0837.0298.1193.0125.0241.0183.0481.0299.0597.0124.0124.024.024.0423.0298.0116.0125.0298.0241.053.0299.0183.0058 0 0 .0241.0058.0182.0066.0356.0124.0597.0182l.024.0116v.3224l-.0539-.0174c-.1069-.0364-.2147-.0663-.3225-.1019" fill="#302c2a"/><path d="m18.6937 25.6226h-.0058c-.1434.1434-.2214.3041-.2272.4774-.0058.0895.0058.1674.0299.2503.0298.0779.0721.1492.1318.2088.0232.0183.0473.0423.0713.0597zm-.0779 1.438c.0298.024.0539.0356.0779.048v.4236l-.024.0298c-.0241.0356-.0415.0597-.0655.0713-.0183.0182-.0415.0124-.0714-.0058-.024-.0116-.0298-.0415-.024-.0895 0-.0299 0-.0539-.0124-.0655-.0117-.0183-.0415-.0481-.1012-.0837l-.5373-.3639-.0183.0241c-.0298.0414-.053.0712-.0713.0837-.0182.0116-.0481.0058-.0837-.0183-.0174-.0182-.0357-.0356-.0415-.0538-.0058-.0241.0058-.0597.0357-.1012l.0298-.0422c-.0837-.0531-.1492-.1011-.1973-.1426-.0531-.0422-.0954-.0895-.131-.1434-.0415-.0779-.0597-.1492-.0539-.2329.0058-.0779.0298-.155.0837-.2271.0357-.053.078-.0953.131-.1251.0539-.0298.102-.024.1435.0058.0356.0182.0539.0481.0655.0837.0066.0356 0 .0721-.0232.1019-.0125.0175-.0241.0299-.0423.0415-.0174.0116-.0357.0182-.0597.0298-.0241.0058-.0357.0116-.0357.0116-.0182.0241.0116.0597.0896.1078l.2446.1674.0423-.0597.0232-.0422c.024-.0299.0481-.0539.0663-.0655.0232-.0116.0473-.0058.0829.0116.0299.024.0481.0481.0423.0779-.0058.024-.024.0655-.0597.1193l-.0423.0597zm.2089-1.5458v.2213c-.0058.0058-.0174.0116-.0232.0241-.0721.0712-.0895.1491-.0597.2387.0174.0596.0473.1127.0829.1607v.5313c-.0472-.0182-.0895-.0423-.131-.0721v-.9962c.0415-.0415.0838-.0779.131-.1078zm-.131 1.5938c.0183.0116.0299.0174.0415.0174.0124 0 .0365-.0058.0663-.0174.0058-.0058.0174-.0124.0232-.0124v.2329l-.131.2031zm.7761-.8056v.2561c-.1136.0962-.2388.1558-.3764.1675-.0896.0058-.1725 0-.2562-.0299 0-.0058-.0058-.0058-.0125-.0058v-.5313c.0241.0357.0539.0655.0838.0954.0837.0837.1733.1433.2628.179.0896.0356.1733.0182.2446-.0539.0241-.0232.0423-.0472.0539-.0771zm0-.818v.639c-.0298-.0779-.0895-.1674-.1907-.2627-.0721-.0779-.1559-.131-.2454-.1608-.0771-.0241-.1426-.0124-.209.0356v-.2213c.0241-.0116.0481-.0232.0722-.0356.0771-.0357.155-.0597.2388-.0655.0837-.0058.1608.0058.2388.0298.0356.0117.0655.0299.0953.0415zm0-.5188v.0953c-.0182-.0241-.024-.0473-.0116-.0655 0-.0058.0058-.0182.0116-.0298zm-.6451 2.13c.0299-.0116.0481-.0116.0664 0 .0298.024.0414.0423.0356.0663-.0058.0232-.0182.0531-.0423.0895l-.0597.0771zm.7761-1.4977v.8181c-.0174.0298-.0414.0597-.0655.0829-.024.024-.0414.0422-.0655.0596v-.2561c.0241-.0538.0241-.1135 0-.179v-.639c.0415.024.078.0597.1136.0961zm0-1.2349v.7161c-.0174.0116-.0414.024-.0597.024-.0232.0058-.0472-.0066-.0713-.0422v-.0953c.0058-.0059.0183-.0183.0299-.0299.0356-.0298.0539-.0539.0713-.0779.0124-.0174.024-.0472.024-.0771-.0058-.0538-.024-.1251-.0713-.2213-.0182-.0414-.024-.077-.0182-.1011.0058-.0182.024-.0481.0655-.0713.0124-.0066.024-.0182.0298-.024zm0 2.053c.0539-.0597.0896-.1318.1136-.2089.0423-.1077.0539-.2213.0299-.3348-.0174-.1011-.0655-.1964-.1435-.2744zm.8359-1.0087v.286l-.0415.0298c-.0481.0298-.0837.0481-.1136.0539-.024.0124-.0539.0058-.0771-.0058-.0241-.0183-.0539-.0481-.0838-.0896l-.4361-.6506-.0415.0241c-.0124.0116-.0298.0182-.0423.024v-.7161c.0299-.0124.0481-.0182.0664-.0182.0174.0058.0356.0298.0655.0721l.1608.2387.1194-.0779c.0423-.0299.0722-.0415.102-.0481.0299-.0058.0531.0066.0771.0423.0357.0538.0125.1069-.0655.1608l-.1194.0779.3466.5072c.0299.0472.0597.0771.083.0895zm0-1.8623v.6987l-.0597-.1318c-.0357-.0771-.0597-.131-.083-.1608-.0124-.0182-.024-.0298-.0364-.0357-.0117-.0058-.0357-.0124-.0597-.0124-.0299-.0058-.0473-.0058-.0598-.0116-.0058 0-.0174-.0116-.0232-.0298-.0124-.0241-.0066-.0415.0116-.0655.0183-.0182.0481-.0423.0838-.0779.107-.0895.1791-.1492.2264-.1732zm0 2.1483v-.286c0 .0058.0066.0058.0124.0058.024.0116.0655 0 .1136-.0298.0473-.0299.0829-.0539.1128-.0539.024-.0058.0539.0058.0721.0423.0357.0472.0058.1011-.0837.1666zm.8184-1.7837v.262c-.0539-.0299-.1136-.0357-.1675-.0117-.0713.0357-.1136.0896-.131.1675-.0058.053.0058.1193.0472.2022l.0722.1732c.0472.0953.0953.1732.1492.2271.0058.0116.0174.0174.0299.024v.2387c-.0125.0058-.0183.0058-.0241.0058-.0713.0116-.1434.0116-.2031 0-.0539-.0124-.0954-.0298-.131-.0596-.0423-.0299-.0722-.0655-.0954-.102-.0299-.0414-.0539-.0895-.0779-.1492l-.2869-.6439v-.6987l.0066-.0058c.0597-.0241.1128.0182.1667.1317l.0182.0473.2206.4898c.0597-.1193.1492-.203.257-.2569.0539-.0183.1012-.0357.1493-.0415zm0 1.283v-.2387c.0472.0357.1011.0357.1666.0059.0838-.0357.1261-.102.1261-.1973s-.0183-.1906-.0664-.2859c-.0414-.0962-.0953-.1857-.1724-.257-.0183-.0182-.0365-.0356-.0539-.0481v-.2619c.024-.0066.0539-.0124.0771-.0124.0779 0 .1434.0124.2089.0423.0664.0232.1261.0655.1733.1193.0539.0531.0954.1194.1319.1965.053.1251.0713.2387.0472.358-.0174.1136-.0713.2147-.1492.3042-.0838.0895-.1791.1616-.3043.2155-.0597.0298-.1194.0472-.1849.0596zm1.4925-1.3128v.1666c-.0481.0182-.0837.0481-.1194.0779-.0539.0597-.0779.131-.0597.2205.0058.048.0299.0895.0597.1135.0357.0299.0713.0415.1194.0357v.1914c-.0298.0116-.0539.0174-.0895.0232-.078.0125-.1493.0125-.2214-.0058-.0655-.0174-.1253-.0472-.1725-.0953-.0539-.0539-.0838-.1135-.0962-.1906-.0174-.0837-.0058-.1558.0299-.2155.0364-.0655.0837-.1194.1492-.1608.0663-.0414.1376-.0779.209-.1078.0663-.0232.1318-.0414.1915-.053zm0-.4119v.203c-.0423-.024-.0896-.0364-.1493-.024-.0356.0058-.0597.0174-.0779.0356-.0174.0116-.0415.0357-.0655.0713-.024.0299-.0481.0539-.0655.0721-.0241.0116-.0481.0241-.0779.0299-.0415.0058-.0772.0058-.1136-.0125-.0299-.0116-.0473-.0356-.0531-.077-.0125-.0481.0116-.0954.0655-.1318.0539-.0415.1194-.0713.1965-.1011.0721-.0241.1377-.0415.1915-.0481.0539-.0116.1012-.0174.1493-.0174zm.9494-.2744c-.0066-.0895-.0066-.1491-.0124-.1856-.0058-.0232-.0116-.0357-.0241-.0473-.0058-.0124-.0232-.024-.0472-.0356-.0241-.0124-.0423-.024-.0481-.0298-.0116-.0067-.0116-.0183-.0116-.0365 0-.0174 0-.0298.0116-.0414.0124-.0058.024-.0183.0423-.0241.0116-.0058.0298-.0116.0472-.0174.0183-.0066.0299-.0066.0423-.0124.131-.0473.2264-.0713.2803-.0713.0655-.0058.0953.0539.102.179v.0539l.0232 1.259c0 .0655.0058.1069.0124.1309.0058.0125.0232.0299.0531.0423.0365.0174.0597.0414.0597.0713 0 .0356-.0116.0538-.0357.0655-.024.0058-.0539.0124-.0953.0124l-.3698.0058c-.0423 0-.0722 0-.0962-.0124-.0232-.0059-.0357-.0299-.0357-.0597 0-.0299.0183-.0531.0539-.0771.0299-.0124.0481-.024.0539-.0423.0058-.0174.0116-.0654.0116-.1309zm-.9494 1.4919v-.1914c.0713-.0175.1252-.0655.1609-.1492.0182-.0415.024-.0837.024-.1194 0-.0356-.0058-.0837-.0182-.1434l-.0116-.077-.0481.0116c-.0357.0058-.0713.0182-.107.0298v-.1666c.0116 0 .0241-.0066.0357-.0066l.0779-.0116c-.0124-.0779-.0423-.1376-.0837-.1733-.0125-.0058-.0183-.0174-.0299-.0174v-.203c.1012-.0058.1849.0058.2629.0356.0771.0299.1368.0655.1791.1252.0356.0538.0655.1251.0771.2146l.0655.3705c.0124.0713.024.1136.0365.131.0116.0182.0356.0298.0597.0356.0472.0124.0713.0365.0713.0663.0058.0298 0 .0531-.0183.0655-.0232.0116-.053.024-.0953.0298l-.233.0415c-.0415.0058-.0713.0058-.0896 0-.0174-.0058-.0356-.0174-.0414-.0357-.0058-.0182-.0183-.048-.0241-.0895-.0472.1136-.131.1848-.2504.2271zm4.5017.4534v.1848l-.0299-.0182c-.0365-.0174-.0597-.0415-.0779-.0597-.0183-.0174-.0183-.0415 0-.0713.0116-.024.0414-.0356.0895-.0356zm0-1.0924v.3464c-.0241.0058-.0481 0-.0722-.0058-.0356-.0182-.0597-.0364-.0771-.0596-.0124-.0241-.0298-.0597-.0423-.102-.0116-.0472-.0298-.0837-.0414-.1069-.0183-.0298-.0423-.0481-.0838-.0597-.0539-.024-.1078-.0182-.1608.0116-.0539.0299-.0962.0779-.1377.131-.0356.0597-.0713.1193-.0895.1732-.0357.1019-.0481.1973-.0299.2868.0241.0953.078.1608.1733.1964h.0116c.0423.0182.0896.024.1435.024.0539-.0058.1078-.0174.155-.0414.0539-.0182.0896-.0298.1136-.0182.0183.0058.0357.0182.0415.0356.0066.0182.0066.0423 0 .0597-.0232.0538-.0896.0961-.1965.126-.1493.0298-.2869.0232-.4121-.0241-.078-.0298-.1493-.0721-.2148-.1251-.0655-.0539-.1136-.1194-.1551-.1857-.0364-.0713-.0539-.1425-.0597-.2263-.0066-.0837.0058-.1674.0357-.2511.0473-.1127.1136-.2022.1965-.2685.0896-.0713.1916-.1069.3051-.1194.1128-.0116.2206 0 .3342.0423.0597.024.1194.0597.1849.1011.0299.0183.0539.0423.078.0597zm0 .3464c.0116 0 .0232 0 .0356-.0058.0299-.0124.0539-.0364.0713-.0721.0183-.0597.0125-.1135-.0298-.1732-.0174-.0356-.0473-.0655-.0771-.0953zm.9129.823-.1012.1194c-.0356.0481-.0655.0895-.0953.1318-.0241.0472-.0365.0771-.0365.1011-.0174.1434.0298.2627.1493.3638.0298.0183.0538.0423.0837.0539zm0-1.4255v.6141l-.4478.8056c-.0298.0597-.0472.0954-.0539.1194 0 .0182.0067.0356.0241.0655.024.0364.0298.0663.0182.0895-.0182.0298-.0356.0422-.0597.0422-.024-.0058-.0539-.0182-.0895-.0356l-.3043-.1674v-.1848c.0232 0 .0356-.0058.0472-.0125.0183-.0116.0423-.0472.0722-.1069l.4892-.8777c.0415-.0771.0655-.131.0837-.1608.0058-.024.0058-.0414.0058-.0597-.0058-.0116-.0116-.0298-.0298-.0538-.0116-.0241-.0182-.0415-.024-.0473-.0059-.0124 0-.024.0058-.0422.0066-.0117.0182-.0175.0298-.0241.0183-.0058.0299-.0058.0481-.0058s.0357.0058.0539.0124c.0174.0058.0298.0058.0415.0117.0298.0058.0597.0116.0895.0182zm0 .6141v-.6141c.0954.0174.1617.0414.1974.0597.0539.0298.0539.1011-.0059.2088l-.024.0415zm1.0871 1.9991c-.0241.0183-.0423.0357-.0597.0539-.0365.0298-.0597.0713-.0838.1136-.0182.0414-.0298.0895-.0298.1433 0 .0597.0174.1252.0414.1965.0299.0721.0655.1318.1078.1914.0058.0116.0174.0232.0241.0299zm0-1.0443v.3821l-.3408.4061c-.0415.0531-.0713.0895-.0771.1128-.0067.0182 0 .0422.0116.0663.0182.0414.0182.0712 0 .0953-.0241.0298-.0481.0356-.0655.0298-.0241-.0124-.0539-.0298-.0838-.0539l-.1608-.1309c-.0299-.0299-.0481-.0481-.0597-.0663-.0067-.0232-.0125-.0415-.0067-.0597.0067-.0174.0241-.0472.0423-.0829-.1318.0116-.2446-.0124-.3466-.0721v-.77l.1551-.1848.0365-.0414c.0174-.0183.0298-.0423.0356-.0539 0-.0182 0-.0356-.0058-.0655-.0066-.0356-.0066-.0596.0116-.0721.0116-.0174.0357-.0298.0597-.0232.0415.0058.1136.0415.2272.1011.0058 0 .0174 0 .0299.0116.0174.0067.0356.0183.0472.0241.0423.0422.0597.0779.0539.1077-.0116.0357-.0356.0771-.0837.131l-.3524.4235c-.0357.0423-.0597.0779-.0771.1077-.0183.0299-.0299.0655-.0299.1012.0058.0364.0241.0663.0597.0961.0299.0232.0597.0356.0896.0472.0356.0058.0713.0125.1011.0058.0481-.0116.0954-.0472.1551-.1193l.2388-.2859.0298-.0357c.0183-.024.0299-.0423.0365-.0597.0058-.0124.0058-.0364 0-.0596-.0066-.0365-.0066-.0597.0058-.0779.0174-.0183.0357-.0241.0655-.0183.0357 0 .1012.0299.1974.0837zm0 .3821v-.3821l.0298.0183c.0473.024.0771.0414.0954.0596.0414.0299.0539.0655.0414.107zm.495.2984v.4956c-.0058.0058-.0116.0058-.0174.0116l-.1559.1136c-.0829.0596-.1492.1251-.1907.1848-.0415.0655-.0415.1309.0116.2031.0539.077.126.1011.2214.0837.0415-.0125.0895-.0241.131-.0423v.3464c-.0837-.0124-.1667-.0356-.2446-.0837-.0954-.0538-.1791-.1251-.2504-.2204v-.7286c.0174-.0174.0414-.0356.0655-.0538zm0 1.3965v-.3464c.0481-.024.0896-.0473.1377-.0837.0837-.0597.155-.131.2089-.2205.0597-.0837.0655-.1608.0116-.2329-.0472-.0597-.1069-.0895-.1849-.0895-.0481 0-.1078.024-.1733.0721v-.4956l.2571-.1906c.0713-.0481.1194-.0838.1434-.1078.0174-.0182.0299-.0356.0299-.0481v-.0596c0-.0299-.0067-.0473 0-.0597 0-.0116.0058-.0232.0174-.0298.024-.0174.0481-.0174.0655-.0058.024.0124.0597.0356.0962.0721.1194.0828.1965.1491.2263.1848.0357.0539.0058.1193-.0895.1906l-.0473.0299-.4303.3166c.1252.0356.2272.1011.2985.203.0539.0655.0837.1368.102.2089.0174.0713.0174.1367.0058.2088-.0125.0713-.0423.131-.0838.1965-.0414.0596-.1011.1135-.1675.1674-.1069.0771-.2205.1193-.3341.1193-.0299.0058-.0597 0-.0896 0" fill="#302c2a"/><path d="m28.5026 33.0999-.8416.9191-.7703-.2329.1791.9192-1.063.8594c.388-.1135.8001-.1259 1.1708-.3348l-.0597.6448.8118-.9548.8358-.4716-.4121-.1434z" fill="#302c2a"/></g></svg>