<svg fill="none" height="48" viewBox="0 0 48 48" width="48" xmlns="http://www.w3.org/2000/svg"><g clip-rule="evenodd" fill-rule="evenodd"><path d="m24.156 42.9999c-6.0839-2.0476-10.6859-5.9498-12.8305-11.2741h6.6275c-.4246-.6031-.782-1.2436-1.0575-1.9287h-6.2178c-.1713-.6254-.3128-1.2657-.4171-1.9211h6.0616c-.1118-.6181-.1787-1.2584-.1862-1.9288h-6.0912c-.0299-.4318-.0448-.8786-.0448-1.3254 0-.2011.0075-.4022.0075-.5957h6.2029c.0373-.4393.0969-.8637.1713-1.2808.0373-.216.082-.4321.1267-.648h-6.4265c.1937-2.9711.7671-5.4433 1.8022-7.9529 3.4403-.0819 4.5722-.6479 5.9647-1.3478 1.5787-.7893 2.9414-1.6382 6.3073-1.6382 3.3661 0 4.7286.8489 6.3072 1.6382 1.3927.6999 2.5245 1.2659 5.9648 1.3478 1.035 2.5096 1.6086 4.9818 1.802 7.9529h-6.4265c.0448.2159.0895.4319.1268.648.0744.4171.134.8415.1711 1.2808h6.2032c0 .1935.0075.3947.0075.5957 0 .4468-.0151.8936-.0449 1.3254h-6.0912c-.0073.6704-.0746 1.3107-.1863 1.9288h6.0615c-.1043.6554-.2456 1.2957-.4169 1.9211h-6.2178c-.2755.6851-.6332 1.3256-1.0575 1.9287h6.6275c-2.1446 5.3243-6.7466 9.2265-12.8306 11.2741z" fill="#008057"/><path d="m37.6344 29.7971c-.1862.6627-.4022 1.3034-.6478 1.9288h-6.6274c.4243-.6032.7819-1.2437 1.0574-1.9288z" fill="#fff"/><path d="m32.1761 25.9473c-.0073.6704-.0746 1.3107-.1862 1.9287h6.0615c.1041-.6255.1713-1.2734.2159-1.9287z" fill="#fff"/><path d="m31.8036 22.0973c.0448.2159.0894.4319.1267.6479.0744.4172.1341.8415.1712 1.2809h6.2031c-.0075-.6702-.0299-1.3107-.0746-1.9288z" fill="#fff"/><path d="m16.2105 24.0262c.0373-.4394.0968-.8637.1713-1.2809.0373-.2159.082-.432.1267-.6479h-6.4266c-.0446.6182-.067 1.2586-.0744 1.9288z" fill="#fff"/><path d="m16.3222 27.876c-.1118-.618-.1787-1.2583-.1862-1.9287h-6.0913c.0447.6553.1117 1.3032.2159 1.9287z" fill="#fff"/><path d="m17.953 31.726c-.4245-.6032-.7819-1.2437-1.0574-1.9288h-6.218c.1862.6627.402 1.3034.6478 1.9288z" fill="#fff"/><path d="m24.2157 35.6132h-.1191c-2.3235-.7892-4.2447-2.0777-5.5701-3.7905-1.2659-1.6454-1.9808-3.6858-1.9808-6.0316 0-1.102.0744-2.0702.2383-2.9712.1638-.901.4096-1.7425.7595-2.5914l.0522-.1192c.685-.0222 1.3851-.0521 2.0478-.2309.4691-.1266.8936-.3425 1.3255-.5585.767-.3947 1.5266-.7819 3.1872-.7819s2.4201.3872 3.1871.7819c.4318.216.8563.4319 1.3254.5585.6629.1788 1.3629.2087 2.0478.2309l.0522.1192c.3501.8489.5957 1.6904.7595 2.5914.1641.901.2384 1.8692.2384 2.9712 0 2.3457-.7149 4.3862-1.981 6.0316-1.3252 1.7127-3.2465 3.0013-5.5699 3.7905z" fill="#fff"/><path d="m24.156 35.2035c2.2117-.7595 4.0435-1.9959 5.3019-3.6341 1.2139-1.5712 1.8992-3.5223 1.8992-5.7785 0-1.0798-.067-2.0255-.2311-2.9042-.1487-.8265-.3721-1.5935-.6851-2.3755-.8412-.0297-1.4224-.1117-1.8764-.2383-.4989-.134-.9458-.3574-1.4075-.5882-.7222-.3724-1.4371-.7373-3.0009-.7373s-2.2787.3648-3.001.7373c-.4617.2308-.9085.4542-1.4075.5882-.4542.1266-1.035.2086-1.8765.2383-.3127.782-.5361 1.549-.6851 2.3755-.1637.8788-.2308 1.8244-.2308 2.9042 0 2.2561.6851 4.2073 1.8989 5.7785 1.2584 1.6382 3.0903 2.8746 5.3019 3.6341z" fill="#008057"/><g fill="#fff"><path d="m15.4956 18.3964c.2086.1564.3053.3872.2756.7-.0299.3128-.1787.6553-.4543 1.0352-.1563.2159-.3053.3946-.4542.5287-.1489.1415-.2086.1935-.3575.2978l-.5436-.3351c.2086-.1193.3426-.201.5436-.3574.1788-.134.3202-.283.4393-.4469.0299-.0373.0671-.0968.1043-.1638.0447-.0744.0745-.134.0894-.1862.0224-.0596.0298-.1191.0298-.1713 0-.0521-.0224-.0967-.0745-.1341-.052-.0371-.1042-.0371-.1788-.0147-.0669.0223-.1414.0744-.2306.1563-.0895.082-.1862.1787-.2831.2756-.0968.0968-.1862.1788-.283.2607-.2234.1787-.417.2755-.5809.3053-.1713.0223-.3351-.0224-.4765-.1266-.2011-.1489-.2831-.3723-.2533-.6776.0372-.3128.1788-.6404.4246-.983.1265-.1713.268-.3351.417-.4841.1266-.1265.2457-.2308.3649-.3201l.4022.3872c-.2906.1638-.5883.4318-.7746.685-.0446.0522-.0818.1118-.1116.1714-.0372.0595-.0671.1191-.082.186-.0223.0596-.0297.1118-.0223.1639.0074.0522.0297.0968.067.1266.0521.0371.1191.0446.1862.0149.067-.0372.1637-.1117.2979-.2458.0819-.0818.1712-.1637.2456-.2383.082-.082.1713-.1564.2681-.2383.201-.1638.3797-.2606.5436-.2905.1638-.0297.3128.015.4617.1192z"/><path d="m16.9477 15.5966c-.1266-.0373-.2532-.0448-.402-.015-.1192.0224-.2458.0745-.3724.1415-.1265.067-.268.1713-.4245.3053l-1.0499.8787 1.6903 2.0181.6107-.5138-.5511-.6552.4245-.3575c.1862-.1564.3203-.2978.4022-.4467.0892-.1415.1489-.2904.1787-.4543.0297-.1191.0224-.2383-.0149-.3575-.0298-.119-.0894-.2233-.1638-.3127-.097-.1192-.2087-.1937-.3278-.2309zm-.2085.9531c.015.0522.015.1117 0 .1787-.0223.0745-.0595.1415-.1265.2159-.0596.0672-.1415.1491-.2532.2383l-.2309.1937-.5064-.6031.1565-.1341c.1043-.0894.1936-.1564.2533-.2085.067-.0522.1414-.0893.2308-.1266.0595-.0223.1265-.0298.2011-.0223.0744.0074.134.0447.1786.0967.052.0596.0819.1191.0967.1713z"/><path d="m20.0679 14.1444c-.3724-.1117-.8042-.0596-1.2883.1415-.4914.2084-.8266.4839-1.0053.8265-.1788.35-.1862.7149-.0224 1.1022.1639.3872.4319.633.8042.7446s.8042.0596 1.2957-.149c.4915-.2084.8266-.4839 1.0054-.8265.1787-.3426.1861-.7074.0223-1.0946-.1638-.3948-.4319-.6405-.8116-.7447zm-.1193 2.0329c-.0818.067-.1862.134-.2903.1787-.1043.0448-.2234.0745-.3277.0819-.1043.0075-.2084 0-.3053-.0371-.0969-.0373-.1862-.0969-.2681-.1788-.0894-.082-.1638-.1937-.2234-.3426-.0596-.1415-.0894-.268-.0894-.3945 0-.1267.0149-.2384.0596-.3277.0521-.0969.1117-.1788.1861-.2458.0819-.0596.1862-.1267.283-.1638.1042-.0448.2159-.0745.3202-.0894.1043-.0075.2086.0074.3054.0372.0968.0373.1861.0968.2755.1787.0893.0819.1563.2011.2233.3426.0522.134.0894.2606.0894.3798.0075.1116-.0149.2234-.0595.335-.0371.0968-.1042.1787-.1788.2458z"/><path d="m23.6126 14.9263c.2009-.0969.3499-.2159.4467-.35.0968-.1265.134-.2904.1191-.484-.0149-.1415-.0521-.2532-.1266-.3426-.0819-.0894-.1862-.1563-.3127-.201-.1265-.0522-.2533-.0746-.3947-.0819-.1414-.0075-.3053 0-.4914.0148l-1.3777.1192.2308 2.6287.7745-.0745-.0819-.9606.4096-.0371c.3798.2904.6702.5883.8341.9009l.9084-.052c-.2384-.4097-.4766-.7895-.9382-1.0799zm-.3054-.499c-.0223.0447-.0596.0894-.1118.134-.0595.0447-.1339.0745-.2233.0894-.0819.0224-.1936.0372-.3277.0446l-.2829.0299-.0671-.7075.3352-.0298c.0968-.0074.1862-.0148.2606-.0148.0745-.0075.1415 0 .201.0148.082.0224.1415.0522.1788.0969s.0596.0968.067.1638c.0074.0745-.0075.1341-.0298.1787z"/><path d="m27.3505 13.638-2.837-.2978-.0596.5435 1.0426.1118-.2235 2.0702.767.0819.216-2.0777 1.035.1118z"/><path d="m28.7878 14.0923-.7446-.216-.73 2.5319.7524.2085z"/><path d="m32.7122 16.0433-.6553-.3872-.8787 1.3553-.6851-2.1894-.7-.3202-1.0797 2.3979.6702.2904.6554-1.4298.6627 2.1446.5733.3948z"/><path d="m34.5068 19.9975-.6925-1.0798-.3872.2831.2531.402-.3798.2682c-.2309-.2607-.5882-.7969-.5733-1.1543.0073-.2457.1339-.4542.3648-.6256.1117-.0892.2309-.1414.3501-.1637.119-.0224.2307-.0224.3424.0075.246.067.4768.2755.6256.4691.0746.1043.134.2086.1862.3128.1044.2383.1788.6106.2234.9233l.4989-.3723c-.0743-.2456-.1564-.551-.2456-.7224-.0968-.1711-.2014-.3499-.3352-.5137-.335-.4542-.6998-.7299-1.0872-.8266-.3872-.0968-.7449-.0298-1.0723.216-.3426.2606-.5213.5882-.5289.9829 0 .3947.1566.8116.4916 1.251.1414.1936.3052.365.4839.5289.1788.1637.4393.4169.5661.5063z"/><path d="m16.8137 35.5087c-.067.0746-.1414.1265-.2308.1638-.0968.0374-.1862.052-.2831.0447-.134-.0073-.2605-.0371-.3797-.0969-.1267-.0522-.2533-.1487-.3947-.2754l-.3351-.3126-.4692.4988-.4543-.4243 1.4374-1.534.8116.722c.1191.1118.2086.2159.2755.313.1192.1563.2085.4245.1713.6178-.0148.1044-.067.1938-.1489.2831zm-.4988-.4393c.0446-.0446.0669-.0968.0669-.1564 0-.0522-.0149-.1116-.0446-.1565-.0299-.0668-.0745-.119-.1191-.1636-.0448-.0522-.1116-.1119-.1937-.1863l-.1341-.1265-.4318.4615.1935.179c.0819.0744.1564.1339.2159.1787.0596.0446.1193.0668.1788.0744.0522.0073.1043.0073.149-.0149.0372-.0149.0819-.0448.1192-.0894z"/><path d="m19.1222 37.1248c-.1713.2902-.4022.4616-.7075.5138s-.6403-.0222-.9978-.2307c-.3574-.2087-.5957-.4618-.7-.7523-.1043-.2829-.0745-.5733.0968-.8637.1638-.2979.4022-.4691.7075-.5212.2979-.0524.6329.0297.9903.2306.3575.2087.5958.4618.7.7448.1117.2902.0819.5808-.0893.8787zm-1.0203.0222c.082-.0222.1639-.067.2383-.1265.0671-.0595.1341-.1341.1938-.2383.0595-.1116.0968-.2159.1116-.3055.0149-.0968.0074-.186-.0149-.2606-.0224-.0744-.0596-.1488-.1116-.2083-.0596-.0597-.1341-.1192-.2012-.1565-.0744-.0446-.1564-.0746-.2308-.0892-.0819-.0225-.1564-.0225-.2383 0-.0819.0146-.1564.0522-.2383.119-.0745.0595-.1415.1416-.2086.2533-.0596.1041-.0969.2084-.1116.2977-.0149.097-.0075.1862.0147.2608.0224.0744.0596.1488.1118.2085.0596.0595.1266.119.201.1563.0745.0446.1639.0817.2458.0968.0745.0149.1565.0149.2383-.0075z"/><path d="m21.4828 38.83-.7446-.2383c-.0299-.3203-.1937-.6332-.4022-.9458l-.3202-.1043-.2383.7373-.6032-.1936.6478-2.0031 1.0649.3423c.1489.0449.268.0971.365.1417.1042.0522.1935.1116.268.186.0819.0746.134.1566.1639.246.0296.0892.0296.1863 0 .2904-.0522.1489-.1341.2607-.2459.3202-.1191.067-.2605.1043-.4392.1192.2084.2903.3723.6553.484 1.102zm-.4617-1.6831c.0149-.0522.0149-.0968.0074-.1414-.0148-.0446-.0522-.0894-.1042-.1265-.0373-.0298-.0894-.0522-.1415-.0744-.0595-.0224-.1266-.0449-.201-.0746l-.2681-.082-.1787.5364.2382.0742c.0969.0375.1863.0597.2608.0746.0669.0149.134.0149.1862 0 .052-.0149.0968-.0371.1265-.0597.0296-.0297.0595-.0668.0744-.1266z"/><path d="m24.156 36.8715-2.2711-.1936-.0373.432.8414.0746-.1413 1.6604.5807.0522.1415-1.6607.8489.0744z"/><path d="m26.7698 36.6184-.6478.067.1116 1.3181c.0149.1563-.0149.268-.0892.3424-.0671.0746-.2085.1192-.3723.134-.1714.0151-.3203-.0073-.4023-.067-.0819-.067-.1265-.1711-.1414-.3202l-.1117-1.3031-.6404.0446.1116 1.3478c.0224.2608.1416.4469.3426.5661.2085.1267.499.1713.8787.134.3723-.0299.6554-.1265.8341-.2831.186-.1563.2607-.3574.2382-.618z"/><path d="m29.7782 36.7001-.9233.2831.1116.3798.3574-.1117.1192.3948c-.2754.1116-.6926.2233-.9756.1116-.1861-.0746-.3051-.2236-.3797-.4469-.0297-.1117-.0373-.2085-.0222-.3053.0296-.2009.1488-.3501.3126-.4617.0821-.0523.201-.1042.3128-.1415.0968-.0297.1936-.0446.2904-.0522.2012-.0073.4691.0224.6778.0597l-.1492-.4768c-.2009-.0147-.3796-.0071-.5361.0151-.1488.0224-.3126.0522-.4689.1041-.4321.1343-.7373.3277-.9234.5959-.1787.2606-.2236.551-.1267.8638.0968.3277.2977.5513.5956.6627.2906.1117.6478.1044 1.0723-.0222.1788-.0522.3577-.1267.5289-.216.1713-.0894.3277-.1787.432-.2457z"/><path d="m32.891 36.179-.5959.3501-.3723-.2831-.8265.484.0519.4544-.5805.3348-.2236-2.3011.6629-.3796zm-1.3034-.1863-.6476-.4915.0966.8116z"/><path d="m34.3059 34.243-.8788.8189-1.1468-1.2285-.4543.4244 1.4298 1.5417 1.3405-1.2437z"/></g><path d="m15.0415 10.8828c.253 0 1.2733.0299 2.1147-.201.6107-.1713 1.1989-.5362 1.0574-.87875-.1339-.30528-.7149-.31279-1.4-.15639-.8637.20101-1.735.13405-2.0328 0-.3352-.14889-.6106-.41707-.7448-.77448-.134-.37231.0298-.90095.3947-1.30318.365-.40197.9085-.72966 1.6234-.99026.6851-.25321 1.3776-.37975 2.0926-.45423l.4615.99039c-.3946-.00745-.8637.00745-1.3627.10426-.5063.08924-1.0499.26067-1.3627.55105-.2904.27563-.1489.65539.2607.61064.2308-.02235.5287-.05207.7968-.08193.6702-.05958 1.3776-.16384 2.0329.02986 1.3105.3872.9904 1.65308.1936 2.37532-.3053.2755-.6702.4916-.9904.6404-.8042.3723-1.7425.5138-2.5988.5809z" fill="#008057"/><path d="m27.038 5.46168c-.365-.14895-.7522-.26804-1.1616-.34259-.4023-.08192-.8343-.11909-1.2737-.11909-.5583 0-1.0945.06696-1.6009.19357-.834.21591-1.7351.6478-2.2191 1.4-.201.32025-.2978.65538-.2978 1.02011 0 .41706.134.81178.402 1.16168.551.72241 1.5042 1.13934 2.368 1.32554.4246.0894.8713.1192 1.3329.1192.4393 0 .8564-.0373 1.2585-.1118.4021-.0744.9085-.26794 1.2437-.40944l-.0075-1.21382c-.7446.38721-1.5563.61808-2.3979.61808-.9158 0-2.3456-.32017-2.3456-1.5042 0-1.17651 1.4223-1.49668 2.3456-1.49668.7819 0 1.6979.18618 2.3533.59566v-1.23622z" fill="#008057"/><path d="m29.7931 11.0169.581-1.82447 1.3327.42451c.4394.13398 1.1469.23825 1.7501.02972.8565-.30528 1.1172-1.2436.5957-1.97333-.216-.30535-.5437-.55105-.8563-.70745-.3352-.16384-.9903-.35741-1.5862-.55849l-1.8913-.62553-1.4895 4.72124zm2.9265-2.65101c-.119.39465-.8785.30528-1.1691.21591l-.8863-.2755.3353-1.10203 1.0052.32025c.3428.11164.849.4243.7149.84137z" fill="#008057"/><path d="m25.6528 20.5188c-.1862.1415-.335.2605-.4915.3052-.0149 0-.0149.0224-.0073.0224.119.0521.2755.0447.4393.0447.1564-.0075.3275-.0075.4765.0298.1043.0222.1787.0745.2384.134.0522.067.0892.1415.0968.2085-.1863-.0968-.365-.1415-.5213-.134-.067 0-.134.0149-.1862.0446-.0595.0297-.1042.0746-.1341.1267-.0371.0596-.0522.134-.0522.2234.0075.0073.0151.0149.0224.0073.0746-.0446.149-.0744.2236-.0894.067-.0223.1339-.0296.2009-.0223.1564.0075.2904.067.3948.1564.1041.0894.1713.2085.1713.3277.0073.1043.0149.2159.0371.3127.0149.0819.0446.1564.0819.2309-.1041-.0446-.1711-.1414-.2382-.2383-.0968-.1266-.1936-.2606-.3723-.2904-.0746-.0149-.1564 0-.2309.0373-.0746.0371-.1341.1043-.1789.186-.0074.0149 0 .0225.0151.0225.1414-.0076.2679.0222.3723.0817.1192.0598.2158.1566.2903.2681.1564.2458.1714.4617.1788.648.0075.1487.0149.2754.0894.3945-.1789-.0669-.283-.2607-.3723-.4393-.0522-.1043-.0968-.1936-.1565-.2606-.0297-.0298-.0595-.0522-.0968-.0744-.0595-.03-.1191-.0448-.1861-.0373-.0672.0149-.1267.0447-.1789.0969-.0371.0296-.0742.0744-.0968.1264-.0074.0075 0 .0224.0075.0224.1489 0 .2904.0596.402.1714.1043.0967.1787.2456.2087.4244.0147.1415.0147.3053.0073.469-.0073.3277-.0149.6627.1787.8711-.3499-.0593-.4245-.3721-.499-.6774-.0222-.0896-.0447-.1713-.0744-.2532-.0373-.1191-.1042-.216-.1788-.2904-.0892-.082-.1862-.1267-.2755-.1415-.0075 0-.0149.0149-.0075.0298.1416.1489.1938.3277.1938.5211 0 .1937-.0448.4098-.1041.6407-.0451.1709-.0598.3424-.03.4913.0224.1414.0746.2607.1712.3574.0075.0075.0226 0 .0226-.0075.0147-.1263.0371-.2309.0817-.3126.0446-.0746.0968-.1416.1639-.2009v.1414c.0075.3721.0149.767.0522 1.0499.0224.1787.1414.4691.283.7446.1712.3352.3721.6552.484.7744.186.1938.3872.3053.5881.3501.1712.0373.3426.0222.484-.0373.149-.0522.2682-.1563.3501-.2828.0819-.1193.1265-.2682.1192-.4321-.0151-.2306-.0522-.4094-.1713-.6851-.1193-.268-.3126-.633-.6181-1.2286-.1563-.2977-.2829-.6105-.335-.9233-.0523-.3203-.0297-.6405.1116-.9606.0971-.2383.2531-.4245.4543-.5511.1862-.1117.4096-.1713.6627-.1415 0 0 .0075-.0073.0149-.0073.0373-.0896.0968-.1491.1713-.1938.0819-.0446.1786-.0669.2755-.0744.1339 0 .2682.0224.3874.0671.052.0149.1041.0447.1488.067.0892.0446.1787.0894.2904.0894.1265.0075.2532-.0595.3723 0-.082.0075-.149.0521-.2159.0893-.0821.0447-.1638.0893-.2906.0968-.1414.0075-.2531-.0297-.3872-.0819-.0075-.0073-.0149 0-.0224.0075v.0149c0 .201.365.2308.514.201.0819-.0224.1787-.0373.2308-.0224-.0746 0-.1416.0447-.2159.082-.0895.0446-.2755.0893-.4319.0893-.0894 0-.1787-.0224-.2233-.0746-.0075-.0074-.0299-.0074-.0299.0075 0 .015 0 .0299.0073.0447.0075.082.0821.134.1565.1564.0819.0224.1712.0074.2383 0 .1043-.0149.1862-.0224.3052 0-.119.0298-.2158.0744-.3201.1191-.2309.1042-.4616.1788-.7149.1266-.1639-.0371-.2977-.134-.3424-.2904-.0299-.0968-.0299-.2086 0-.3127 0-.0075 0-.0149-.0151-.0149-.119-.0225-.2383-.0076-.3426.0371-.1192.0522-.2234.1341-.3126.2309-.1492.1713-.2309.3724-.2607.5883-.0299.2383 0 .499.0744.7447.0596.2085.1564.417.2755.6254.1117.2159.2458.4172.3723.6256.082.1266.1564.2531.2309.3796.0744.1193.1417.2384.2085.3575.0819.134.1192.2606.1416.3872.0222.1192.0222.2384.0222.3501-.0075.2233-.0668.4318-.1787.6105-.1117.1714-.2682.3203-.4842.447-.0147.0075-.0147.0222 0 .0222.0671.0299.1417.0446.216.0224.067-.0149.1341-.0522.2012-.1042-.0745.1639-.2085.2755-.3724.3426-.2086.082-.4617.0893-.7222.0371-.0075 0-.0151.0075-.0151.0222.0227.1117.0671.216.1343.2979.0444.0522.1041.0969.171.1268.067.0222.1491.0297.2308.0147.1042-.0222.2309-.0817.3576-.1859.0596.4094-.2681.5882-.6182.7744-.0445.0222-.0818.0447-.1193.0596-.119.0744-.238.186-.305.3127-.0598.1193-.0897.2531-.0522.3799 0 .0149.0148.0149.0222.0073.0746-.0744.1787-.1192.2906-.1712.1787-.0821.3796-.1789.5137-.4022.0597.097.0819.1936.0668.2831-.0147.1116-.0744.2159-.1638.2904-.2381.2159-.4318.2681-.5287.3052-.0296.0076-.0522.0076-.0668.0149-.0597.0298-.1118.0671-.1716.1119-.0666.052-.1263.1116-.1785.1636l-.0073.0075c-.0299.0598-.0522.1193-.0597.179-.0073.0591.0075.1188.0373.1709.0073.0074.0149.0073.0224.0073.0446-.0295.1192-.0371.1934-.0444.0597-.0075.1192-.0151.1713-.0297-.0371.1117-.1043.1934-.1789.2607-.0891.067-.1934.1265-.3051.1787-.0595.0296-.1341.1041-.1863.1934-.0595.0968-.1041.2084-.1339.3277-.0373.134-.0075.2606.0222.3798.0224.0819.0449.1638.0522.2458 0 .1043-.0668.186-.1638.2455-.119.0746-.2904.1193-.4394.1268.0745-.149.0449-.2533.0225-.3576-.0151-.052-.0298-.1042-.0298-.1637 0-.0073-.0075-.0149-.0149-.0149-.0672 0-.1416.0893-.2159.1786-.0371.045-.0746.0821-.1117.1192-.1192.1116-.2831.1192-.432.1267-.0595 0-.119 0-.1712.0149 0-.0073 0-.0149.0073-.0299.0374-.1563.0671-.268.1193-.3497.0222-.0448.0668-.0821.1118-.1192.0446-.0373.0966-.0746.1264-.1268.0075 0 .0075-.0073 0-.0149-.0596-.1414-.2531-.1041-.4541-.0668-.0894.0147-.1789.0297-.2533.0297-.0075-.0746-.0075-.1414.0075-.1935.0074-.0671.0296-.1117.0596-.1341.1265-.1414.3126-.1116.5063-.0821.134.0151.2755.0375.4021 0 .1414-.1115.2606-.2307.365-.3648.0966-.1414.186-.2831.253-.4469.0671-.1934.082-.3648.0522-.4914-.0224-.0892-.0597-.1565-.1118-.2011v.0075c-.0595-.0522-.1339-.0746-.2158-.067-.1193.0075-.2682.0595-.4321.1638.0522-.4245-.0892-.5808-.2979-.8192-.0071-.0073-.0222-.0224-.0297-.0371-.0595-.067-.1563-.1714-.2309-.2755-.0817-.1043-.1487-.2085-.1487-.2755 0-.0151 0-.0375 0-.0522-.0075-.3055-.0075-.5064.1041-.7149.0446-.0894.0968-.1714.149-.2533.0522-.0892.1041-.1711.1416-.2458.0595-.1116.0817-.2084.0075-.2532.052-.1042.0222-.1861-.0821-.2531-.1041-.0746-.2831-.1266-.5139-.1788-.2381-.0446-.402-.0819-.5584-.1263-.1489-.0448-.2755-.1043-.4095-.1789-.134-.082-.2829-.201-.4022-.3275-.1116-.1044-.1935-.216-.2233-.3053.134-.0523.2456-.1192.3277-.2087.0073-.0075 0-.0222-.0075-.0222-.3128.0147-.6032-.1638-.8563-.313-.1863-.1041-.35-.2009-.4767-.2009-.0968 0-.1935.0149-.268.0446-.0744.0299-.134.0746-.1787.1416 0 .0073.0075.0222.0149.0222.2308-.0446.3574.0595.4914.1788.1043.0892.2159.1862.4021.2384-.2011.1041-.3574.1339-.4989.1192-.1489-.0224-.2904-.1045-.4691-.2014-.1341-.0742-.2756-.1487-.4171-.1711-.134-.0297-.268-.0075-.3873.097-.0148.0071-.0074.0222 0 .0222.1118.0371.2086.0894.2831.1488.0671.0597.1191.1267.149.2086-.1415-.0448-.2831-.0894-.4171-.1192-.1415-.0373-.2756-.0595-.4022-.0595-.1489 0-.2903.0522-.4393.1041-.0596.0226-.1265.0373-.1862.0597-.3277.0817-.4245.1564-.5287.2234-.0223.0222-.0521.0446-.0894.067-.0223.0073-.0595.0222-.0968.0297-.0595.0224-.134.0371-.201.0969-.0074-.0223-.0074-.0522-.015-.0745-.0074-.1192.0076-.2382.0671-.3276.0522-.0895.1564-.1639.3053-.1936.0297-.0075.067-.0075.0967-.0151.015 0 .0224-.0147.0075-.0222-.1713-.2012-.268-.1639-.4468-.0968-.0373.0149-.0893.0373-.1415.0522-.0223.0075-.0446.0297-.0595.0595-.0149.0297-.0298.0595-.0373.0894-.1192-.2682-.0149-.4022.149-.4693.1787-.0668.4245-.0668.551-.0668.0075 0 .0149-.0076.0149-.0225-.0446-.0819-.0892-.1339-.134-.1638-.0522-.0297-.1118-.0373-.1937-.0446-.0149 0-.0297-.0075-.0446-.0075-.0372-.0149-.0894-.0224-.1415-.0073.0074-.082.0299-.149.067-.1936.0373-.0446.0894-.067.1639-.067.1787.0073.3277.0892.4841.1787.1711.0968.3499.1936.5882.1936.1862-.0075.3499-.0449.5063-.1117.1564-.0672.3053-.1489.4543-.2533.067-.0446.1192-.0819.1787-.1192.216-.1563.4245-.2979.6181-.3572.0521.0522.134.0744.2383.0817.1043 0 .2383-.0224.3947-.067.0371-.0147.0744-.0222.1118-.0296.1787-.0446.3499-.0896.4393-.1638.1041-.0822.186-.1639.2456-.2607.0522-.0894.0894-.1863.1118-.3055 0-.0075-.0224-.0149-.0299-.0075-.201.2236-.3723.2609-.5287.2906-.0819.0149-.1638.0371-.2457.0817-.1639.1118-.3128.1938-.4319.2384-.1117.0446-.2011.0595-.268.0446.0297-.1638.0894-.3202.1786-.4393.0894-.134.2086-.2307.3426-.2902.1564-.0747.3278-.1341.4841-.1863.35-.1191.6478-.2159.6925-.4244 0-.0075-.0075-.0224-.0149-.015-.2905.0895-.4617.0895-.6404.0895-.082 0-.1713 0-.2681.0147.015-.0817.0746-.1489.1788-.2159.1042-.0669.2606-.1191.4245-.1786.0595-.0224.1266-.0374.1935-.0596.2012-.0596.4394-.1265.5586-.2532.0521-.0447.0744-.1043.0818-.1564.0074-.0297.0074-.0596 0-.0894-.0075-.0223-.0224-.052-.0448-.0669-.0222-.0226-.0446-.0374-.0818-.0374-.0595-.0073-.1564.0149-.2606.0672-.0968.052-.2085.1265-.3202.2159-.1564-.0894-.2755-.1862-.35-.2904-.0595-.0968-.082-.1937-.0447-.2829.4244.0595.6925.067.8562.0223.1789-.0521.2458-.149.2682-.3054.0149-.0966-.0224-.1861-.0968-.2754-.0522-.0521-.1116-.0967-.1862-.134-.067-.0373-.1564-.0671-.2457-.082-.2533-.0446-.5661.0224-.8416.268-.0744-.0296-.119-.0744-.1489-.1191-.0223-.0371-.0297-.0818-.0297-.1265.0074-.0446.0224-.0895.0522-.1191.0371-.0521.0893-.0894.1563-.1043.015-.0074.015-.0298 0-.0298-.0297-.0075-.0521-.0075-.0744-.0075-.0894-.0147-.149-.0223-.1863-.0447-.0222-.0149-.0222-.0371 0-.0745l.0671-.1265c.3128-.0818.5212-.1191.6851-.1117.1564.015.2606.0745.3574.1937.0074.0073.0149.0073.0224.0073.0819-.0669.1935-.1042.2978-.1339.1415-.0522.268-.0896.3202-.1863.0075-.0075 0-.0224-.0074-.0224-.1713.0224-.3203.0299-.4543.0373-.134 0-.2382-.0074-.3275-.0224-.082-.0149-.1415-.0596-.1714-.1042-.0147-.0297-.0223-.0521-.0223-.082 0-.0223.0149-.052.0297-.0744.0299-.0446.0894-.0819.1714-.0893.0744-.0149.1638-.0075.2679 0 .1044.0147.2236.0371.35.0595h.015c.3796-.2755.6254-.2085.9157-.1266.2162.0596.4694.1266.8193.0818.0006.0001-.0067.0077-.0143.0151z" fill="#f3c242"/><path d="m18.6902 22.0452c.0522.0074.0819.0298.1118.0521.0149.0149.0297.0224.0372.0299.067.0222.134.0594.1862.1116.0446.0446.0818.1043.1117.1712 0 .0149-.0076.0223-.0149.0223-.0746.0075-.1341-.0296-.2012-.0744-.0968-.0596-.2011-.1267-.3872-.0596.2234.4767.3872.5063.7893.5734.0894.0225.201.0373.3276.067.149.0297.2682.082.3575.1564.0595.0446.1042.0967.1266.1563s.0298.1267.0149.1937c-.0149.0744-.0522.1415-.1116.2235.1191 0 .2606-.0374.3872-.0745.1787-.0446.3351-.0819.4319-.0373.0074.0074.0074.0223 0 .0298-.0968.0298-.149.0745-.2234.1415-.0969.0894-.2309.2085-.5436.3649.1116.0521.2159.0668.3276.0596.1191-.0075.2383-.0522.3648-.1192.0149-.0074.0373-.0224.0671-.0373.1415-.0894.3947-.2532.5734-.119.0075.0073 0 .0296-.0149.0296-.1936-.0074-.2904.1117-.4021.2531-.0819.1118-.1788.2308-.3426.3276.3277.0451.5734-.0071.7596-.119.1935-.119.335-.2977.4617-.4913.1116-.1788.2159-.2682.2977-.3427.0373-.0297.067-.0595.0894-.0819-.1192-.0297-.2606-.0297-.3947-.0372-.134 0-.2606-.0075-.3797-.0224-.1415-.0297-.2755-.0593-.3947-.1041-.1267-.0448-.2383-.1043-.3426-.1714-.201-.134-.3426-.2679-.4468-.3946-.1117-.1267-.1787-.2532-.2233-.3649-.0224-.0448-.0373-.0893-.0522-.1267-.1044-.2606-.2086-.5138-.5883-.4691.0596.0968.1043.1863.1415.2681.0446.0968.067.1787.0744.2606 0 .015-.0223.0222-.0297.0075-.0968-.1862-.2309-.3425-.3649-.4171-.0669-.0372-.134-.0595-.1937-.067-.0669 0-.1339.0075-.1935.0447-.0668.0375-.1339.0896-.1935.1863z" fill="#f3c242"/><path d="m20.0976 29.8643c.0299 0 .067-.0076.1043-.0076.0298 0 .0522-.0071.0745-.0071.1564-.0299.268-.0375.3425-.0075.0745.0222.1193.0817.1267.1714 0 .0071-.0074.0222-.0149.0222-.0596 0-.1191-.0075-.1788-.0075-.1414-.0075-.2755-.0075-.3648.0373-.0894.0373-.1489.0968-.2011.1563-.0522.0746-.082.1565-.0894.2236-.0075.0297 0 .0668.015.1116.0074.0446.0222.0892.0371.1265.0968-.1414.2086-.2306.3277-.2903.134-.0595.2754-.0671.4245-.03.0149 0 .0149.0151 0 .0227-.0894.0519-.2234.1487-.3202.2754-.067.0893-.1267.1861-.1415.2829.1191-.0224.2308 0 .3351.0149.1266.0224.2383.0446.3128-.0222.0223-.0224.0595-.067.0968-.1192.0595-.0746.1415-.1714.2159-.246.0372-.0296.0745-.0595.1043-.0742.0373-.0151.0745-.0224.1043-.0299.3277-.0147.5883-.0147.7744.0149.1713.0297.2979.0746.3651.1342 0-.0597-.0225-.1192-.0672-.1713-.0595-.0671-.1564-.1341-.2904-.1938-.0075-.0073-.0075-.0222 0-.0297.2532-.1341.5213-.052.7894.0373.3128.1041.6181.2009.9084-.0522-.1116-.0073-.201-.0671-.2903-.1415-.1266-.0968-.2681-.2086-.5064-.1787-.0075 0-.0149-.0149-.0149-.0224.0446-.0819.1116-.1414.1936-.1861.0968-.0522.2086-.0746.3052-.0746.1341 0 .2533.0373.365.0746.1415.0447.268.082.4169.0669-.1563-.2531-.1786-.5063-.119-.7595.0596-.2456.201-.4916.3648-.7371-.1115-.0376-.2384-.0225-.3721.0446-.1341.067-.2906.1862-.4543.3501-.0075.0147-.0225 0-.0225-.0151.0596-.1936.1417-.3499.2459-.4618.0818-.1041.1786-.1711.2978-.2233-.1491-.0075-.3128 0-.4841.0448-.2009.0446-.4094.1339-.6255.2682-.0149 0-.0223-.0075-.0223-.0151.0149-.1266.0819-.2234.1787-.2979.0968-.0669.216-.1264.3277-.1786.0818-.0299.1414-.0746.1935-.1192.0447-.0299.082-.0522.1192-.0746-.1042-.0075-.2309.0149-.3722.0371-.1044.0151-.216.0375-.3427.0448-.0669.0075-.134.0075-.201.0149-.1116 0-.2309.0073-.3426.0224-.1713.0371-.3202.1192-.4245.2384-.0894.1041-.134.2456-.1192.4243.015.1714.0969.2977.1713.4245.0969.1488.1938.2979.1788.5362-.0149.2233-.1415.3574-.3128.4318-.1639.0746-.3723.0894-.5511.0894-.1042 0-.2084-.0073-.2978-.0149-.0894-.0149-.1713-.0373-.2309-.0595-.0669-.0297-.1265-.0597-.1862-.0968-.0968-.0522-.1935-.1118-.3275-.1267-.1192-.0073-.2458.0149-.3427.0821-.0821.0595-.149.1414-.1863.2456z" fill="#f3c242"/><path d="m21.2966 21.9635c.0371.1116.1116.201.2159.2605.1267.082.2904.1265.4468.1265.1564-.0073.3277-.0744.5212-.1563.2755-.1191.5809-.2532.9606-.2382-.4393-.1043-.7968-.0075-1.0946.0744-.1489.0447-.2829.0819-.4021.0819-.1637.0074-.2979-.0075-.4021-.0372-.1043-.0298-.1788-.0669-.2457-.1116z" fill="#f3c242"/><path d="m25.2432 28.4344c.0073-.0073.0224 0 .0224.0149-.0299.1043-.0522.2084-.067.3202-.0151.1043-.0151.2159-.0151.3276.0075.216.0746.3577.1417.4991.0819.1711.1563.335.1043.6105 0 .0076-.0224.0149-.0299 0-.0818-.2009-.1712-.335-.2456-.4542-.0968-.1563-.1789-.2755-.2085-.4764-.0151-.1043.0074-.2757.0669-.4469.0523-.1491.134-.2906.2308-.3948z" fill="#008057"/><path d="m23.8582 27.0642c.0745.0895.1936.1566.3128.2012.1338.0522.2905.0744.4317.067.3277-.0149.4915-.1414.6478-.2607.0299-.0222.0597-.0446.0896-.0597.0072-.0075 0-.0296-.0151-.0296-.2604.0671-.5139.1042-.767.1117-.2457.0075-.4691-.0075-.6851-.0522-.0147.0001-.0296.0152-.0147.0223z" fill="#008057"/><path d="m23.2253 26.677c.0893.0821.2084.1417.3424.1863.1341.0446.2756.067.4245.067.1639-.0075.3276-.0522.4693-.1192.1413-.0746.2605-.1788.3275-.2904.0074-.0149-.0073-.0297-.0224-.0222-.1116.0742-.2606.1339-.4096.1711-.1563.0447-.3126.0744-.469.082-.1116.0075-.2234 0-.335-.0151-.1043-.0147-.2086-.0447-.3053-.0893-.0151.0001-.0299.0152-.0224.0298z" fill="#008057"/><path d="m22.6072 25.7834c.1043 0 .201.0744.3053.1566.1862.1339.3947.2977.7521.1711.0075-.0073.0075-.0224 0-.0297-.1042-.0373-.201-.1043-.2977-.1638-.216-.149-.4394-.3053-.7671-.1639-.0075.0075-.0075.0297.0074.0297z" fill="#008057"/><path d="m23.7092 25.6939c.1863-.1563.3574-.1785.5138-.2009.1191-.0149.2235-.0222.335-.0817.2236-.1193.3723-.2684.4321-.462.052-.186.0149-.4243-.149-.7073-.0075-.0149-.0299 0-.0299.0149.0446.1414.0373.2831-.0073.4096-.0522.1341-.149.2605-.2755.3426-.0968.067-.201.1192-.3053.1787-.2458.1341-.4839.2531-.5436.4916 0 .0145.0149.022.0297.0145z" fill="#008057"/><path d="m22.6221 25.4485c.1935-.0968.3574-.1117.5212-.1341.149-.0147.3053-.0373.484-.1116.1788-.0819.3426-.216.4245-.4021.067-.1563.0745-.3501-.0149-.581 0-.0075-.0224-.0075-.0224 0-.1712.4097-.402.514-.7073.6406-.0819.0297-.1639.0668-.2532.1118-.1415.0668-.2831.1563-.3724.2456-.0744.0746-.1117.1487-.0818.2233-.0001.0075.0148.015.0223.0075z" fill="#008057"/></g></svg>