<svg fill="none" height="48" viewBox="0 0 48 48" width="48" xmlns="http://www.w3.org/2000/svg"><path d="m24.0231 10.6332c8.8248 0 16.0231 7.1982 16.0231 16.0231 0 8.4883-6.665 15.4695-15.0263 15.9875l-.9955 1.3561-.9955-1.3561c-8.3639-.5193-15.0289-7.4992-15.0289-15.9875 0-8.8249 7.1983-16.0231 16.0231-16.0231z" fill="#003764"/><path d="m17.4191 14.9364c-.6247-.3656-1.1479-.8888-1.5136-1.5084-.0863-.1524-.1219-.2997-.1219-.4724 0-.3657.2083-.6399.5333-.7872.9447-.4318 1.925-.7771 2.9256-1.0412 3.1337-.833 6.4262-.833 9.5613 0 1.0005.2641 1.9808.6094 2.9255 1.0412.325.1473.5333.4215.5333.7872 0 .1727-.0356.32-.1219.4724-.3657.6196-.8888 1.1428-1.5136 1.5084-.6298.3759-1.3459.574-2.0722.5994l-2.1129-2.7935c-.8025-.1016-1.6101-.1524-2.4176-.1524-.8076 0-1.6152.0508-2.4176.1524l-2.1129 2.7935c-.7289-.0254-1.445-.2235-2.0748-.5994z" fill="#000"/><path d="m24.7494 4.30852c.1879.18792.3048.45203.3048.73646 0 .13713-.0254.27426-.0813.40632.2844 0 .5384.11682.7263.30474.1879.18793.3047.45204.3047.73646 0 .57901-.4672 1.04629-1.0462 1.04629-.1727 0-.3454-.04572-.4978-.13206.0254.52314.2438.99041.5892 1.33579.711.71614 1.8487.77709 2.636.15745.3301-.25395.5739-.61456.6907-1.02089-.1574.03048-.325.04063-.4774.00508-.2793-.06603-.5079-.23871-.6501-.46727-.3098-.48759-.1575-1.14786.3403-1.44753.2133-.12697.4774-.17776.7415-.13205-.0711-.41141.1169-.83804.4775-1.06152.2285-.14222.5079-.19809.7872-.13206.2844.06095.513.23364.6552.4622.2235.36061.2083.8228-.0406 1.16817.2641.06603.4876.22856.6298.44188.1473.22348.2082.50791.1422.80757-.066.27935-.2387.5079-.4673.65012-.3707.23363-.8533.20316-1.1936-.06095-.1117.52314-.005 1.04628.2591 1.47292.2742.43176.706.75676 1.2443.87356.5943.1321 1.2952.1118 1.7828-.3098-.3606-.0965-.6603-.38091-.7517-.74153-.1473-.58409.259-1.24944.9295-1.31039.452-.03047.6856.17777.9751.4368.2387-.39109.5689-1.27992 1.153-1.25452.3149.02539.6958.25903 1.0259.48758.1677.1219.3353.24888.5079.36569l-1.4576 1.51356c.1219.30982.005.70601-.2286.93961-.2489.2489-.706.3555-1.0361.2133-.4216.3505-.9244.5994-1.4679.7263-.5333.127-1.1021.1372-1.671.0051-.4723-.1066-.904-.3047-1.2748-.5638-.3809-.2691-.706-.6044-.9599-.98529-.3708.20319-.7822.34029-1.2089.40629-.8024.1168-1.6354-.0355-2.3414-.43677-.3047-.17269-.5282-.36569-.7771-.59933-.2489.23364-.4723.42664-.7771.59933-.706.40127-1.5389.55357-2.3414.43677-.4267-.066-.8381-.2031-1.2088-.40629-.254.38089-.579.71619-.96.98529-.3707.2591-.8025.4572-1.2748.5638-.5689.1321-1.1377.1219-1.671-.0051-.5435-.1269-1.0463-.3758-1.4679-.7263-.3301.1422-.7872.0356-1.0361-.2133-.2336-.2336-.3504-.62979-.2285-.93961l-1.4603-1.51229c.1727-.11681.3403-.24379.5079-.36569.3302-.22855.7111-.46219 1.026-.48759.5841-.02539.9142.86344 1.1529 1.25453.2895-.25903.5232-.46727.9752-.4368.6705.06095 1.0768.7263.9295 1.31039-.0914.36062-.3911.64506-.7517.74156.4876.4215 1.1885.4419 1.7827.3098.5384-.1168.9701-.4419 1.2444-.87359.2641-.42664.3708-.94978.259-1.47292-.3403.26411-.8228.29458-1.1935.06095-.2286-.14222-.4013-.37077-.4673-.65012-.066-.29966-.0051-.58409.1422-.80757.1422-.21332.3657-.37585.6298-.44188-.2489-.34537-.2641-.80756-.0406-1.16818.1422-.22855.3707-.40124.6552-.46219.2793-.06603.5587-.01016.7872.13206.3606.22347.5485.65011.4774 1.06152.2641-.04571.5283.00508.7416.13205.4977.29967.6501.95994.3403 1.44753-.1422.22856-.3708.40124-.6501.46727-.1524.03555-.32.0254-.4775-.00508.1168.40633.3606.76694.6908 1.02089.7872.61964 1.9249.55869 2.636-.15745.3454-.34538.5638-.81265.5892-1.33579-.1524.08634-.3251.13206-.4978.13206-.579 0-1.0463-.46728-1.0463-1.04629 0-.28442.1169-.54853.3048-.73646.1879-.18792.4419-.30474.7263-.30474-.0559-.13206-.0813-.26919-.0813-.40632 0-.28443.1168-.54854.3048-.73646.4037-.41268 1.0539-.41268 1.4551-.00127z" fill="#003764"/><path d="m24.0231 9.2111c.2438.26412.513.48251.8228.66028.6857.39112 1.5034.53842 2.2856.42152.4469-.066.8736-.2184 1.2545-.44184.2489.36064.5028.72124.9752 1.03614.3657.259.7822.4469 1.2444.5536.5536.127 1.1072.1168 1.6253-.0051.5536-.132 1.0462-.386 1.478-.7517.3098.1575.7415.0762.9853-.1676.2285-.2235.3149-.59423.1828-.89389l1.4222-1.47293c-.1169-.08126-.2641-.193-.4216-.30474-.3149-.2184-.6755-.44695-.9701-.46727-.5231-.03047-.8837.89899-1.1225 1.31547-.3047-.28442-.5333-.53838-.9904-.49774-.6145.05587-.9853.66535-.838 1.20373.1117.41648.4419.61967.8482.69587-.5536.5485-1.2698.6196-2.0012.4622-.5637-.1219-1.0208-.4673-1.3053-.91936-.3098-.49774-.4114-1.1377-.2285-1.6964.3403.30983.7821.40633 1.1935.15238.2083-.13206.3657-.33522.4216-.59425.066-.26919.0102-.52822-.127-.73139-.1777-.25903-.4215-.37584-.7212-.43171.2895-.34538.3809-.7771.1321-1.17834-.1321-.20824-.3403-.36061-.5943-.42156-.2539-.06095-.513-.01016-.7161.1219-.4114.25395-.5079.67551-.4013 1.10723-.2895-.07111-.5536-.07111-.8177.09142-.452.26919-.5892.86852-.3098 1.31039.127.20824.3352.36569.5891.42156.1981.04571.3962.01016.5892-.04571-.1219.49775-.3504.91423-.7618 1.23421-.8279.65012-2.0215.58409-2.7681-.16761-.4317-.4368-.6146-.9701-.6146-1.5745.1879.12189.3657.20824.5943.20824.5231 0 .9497-.42664.9497-.94978 0-.25903-.1066-.49775-.2742-.67044-.2489-.24379-.5079-.27934-.8127-.27427.0813-.16252.1372-.3149.1372-.50282 0-.25903-.1067-.49775-.2743-.67043-.3657-.37077-.9549-.37077-1.3206 0-.1676.17268-.2742.4114-.2742.67043 0 .18792.0558.3403.1371.50282-.3047-.00507-.5638.03048-.8126.27427-.1676.17269-.2743.41141-.2743.67044 0 .52314.4266.94978.9498.94978.2285 0 .4063-.08635.5942-.20824 0 .6044-.1828 1.1377-.6145 1.5745-.7467.7517-1.9402.81773-2.7681.16761-.4114-.31998-.64-.73646-.7619-1.23421.193.05587.3911.09142.5892.04571.2539-.05587.4622-.21332.5892-.42156.2793-.44187.1422-1.0412-.3099-1.31039-.2641-.16253-.5282-.16253-.8177-.09142.1067-.43172.0102-.85328-.4012-1.10723-.2032-.13206-.4622-.18285-.7162-.1219-.2539.06095-.4622.21332-.5942.42156-.2489.40124-.1575.83296.132 1.17834-.2996.05587-.5434.17268-.7212.43171-.1371.20317-.193.4622-.127.73139.0559.25903.2134.46219.4216.59425.4114.25395.8533.15745 1.1936-.15238.1828.5587.0812 1.19866-.2286 1.6964-.2844.45206-.7415.79746-1.3053.91936-.7314.1574-1.4475.0863-2.0011-.4622.4063-.0762.7364-.27939.8482-.69587.1472-.53838-.2235-1.14786-.8381-1.20373-.4571-.04064-.6857.21332-.9904.49774-.2387-.41648-.5993-1.34594-1.1225-1.31547-.2946.02032-.6552.24887-.9701.46727-.1574.11174-.3047.22348-.4215.30474l1.4221 1.47293c-.1321.29966-.0457.67039.1828.89389.2438.2438.6756.3251.9854.1676.4317.3657.9244.6197 1.478.7517.518.1219 1.0717.1321 1.6253.0051.4622-.1067.8787-.2946 1.2443-.5536.4724-.3149.7263-.6755.9752-1.03614.3809.22344.8076.37584 1.2545.44184.7822.1169 1.5999-.0304 2.2856-.42152.3098-.17777.579-.39616.8228-.66028z" fill="#ffe667"/><path d="m26.3849 12.8324 10.3841 13.716-12.7459 17.2891-12.7458-17.2878 10.3841-13.716c.7771-.0965 1.5694-.1473 2.3617-.1473.7924-.0012 1.5847.0495 2.3618.146z" fill="#ffe667"/><path d="m19.2628 11.2173c-.9955.2642-1.9656.6095-2.9052 1.0362-.2946.132-.4775.3707-.4775.7009 0 .1574.0305.2844.1118.4266.1879.3149.4164.6044.6755.8635.904-.5333 1.8792-.9498 2.9255-1.2241 2.6817-.7009 6.1774-.7009 8.8591 0 .96.254 1.864.6247 2.7084 1.0971l-1.0666.2743-.7517.0609.1829-.5485-.2184-.2845-.3098.3657-.2184.0305-.1727-.513-.2133.4419-.4775.2387.833 1.1072c.5536 0 1.2901-.1117 1.8284-.4368.2946-.1726.5537-.3758.8025-.6094.2591-.2591.4876-.5486.6755-.8635.0813-.1422.1118-.2692.1118-.4266 0-.3302-.1829-.5689-.4775-.7009-.9396-.4267-1.9097-.772-2.9052-1.0362-3.1198-.8278-6.4021-.8278-9.5206 0z" fill="#ffe667"/><path d="m22.5845 12.7766-2.8849 3.8106v19.3041l2.8849 3.5719zm-5.766 7.6211-2.8849 3.8042v4.5521l2.8862 3.5718v-11.9281zm8.642 19.0655 2.8849-3.5719v-19.3041l-2.8849-3.8106zm5.766-7.1374 2.8849-3.5718v-4.5521l-2.8849-3.8055z" fill="#e70005"/><path d="m19.3898 22.988c-.4622-.2895-.8482-.4012-1.3663-.4012-1.8894 0-3.2722 1.6456-3.2722 3.9071 0 2.1332 1.4069 3.8156 3.1859 3.8156.5231 0 .9244-.1117 1.4526-.4013v-2.1789c-.3352.32-.6705.4825-1.0412.4825-.8635 0-1.4425-.7212-1.4425-1.7776 0-.9955.6044-1.732 1.412-1.732.3759 0 .6704.127 1.0717.4622z" fill="#000"/><path d="m33.0143 24.3034v-1.6202h-4.349v7.6046h1.972v-3.1338h2.1586v-1.6202h-2.1586v-1.2304z" fill="#000"/><g fill="#e70005"><path d="m24.0231 6.89387c.3403 0 .6146-.27934.6146-.61964 0-.34029-.2743-.61456-.6146-.61456-.3352 0-.6145.27427-.6145.61456 0 .3403.2793.61964.6145.61964z"/><path d="m29.1326 7.49446c.3403 0 .6146-.27427.6146-.61456 0-.3403-.2743-.61965-.6146-.61965s-.6196.27935-.6196.61965c0 .34029.2793.61456.6196.61456z"/><path d="m34.2739 10.7653c.3403 0 .6196-.2794.6196-.6197 0-.34025-.2793-.6196-.6196-.6196s-.6146.27935-.6146.6196c0 .3403.2743.6197.6146.6197z"/><path d="m18.9174 7.49446c.3403 0 .6146-.27427.6146-.61456 0-.3403-.2743-.61965-.6146-.61965s-.6196.27935-.6196.61965c0 .34029.2793.61456.6196.61456z"/><path d="m13.7711 10.7653c.3403 0 .6145-.2794.6145-.6197 0-.34025-.2742-.6196-.6145-.6196s-.6197.27935-.6197.6196c0 .3403.2794.6197.6197.6197z"/><path d="m22.5591 11.5322 1.464-.6196 1.4628.6196-1.4628.6197z"/></g><path d="m16.3817 13.2147 1.1796-1.0678 1.5847.1117-1.1784 1.0628z" fill="#005187"/><path d="m31.6633 13.2147-1.1783-1.0678-1.586.1117 1.1797 1.0628z" fill="#005187"/><path d="m19.5625 14.9416 1.3662-1.8082-2.2093.6197.4215.6704-.0355.5435z" fill="#ffe667"/><path d="m22.0816 41.8706c-7.5385-.96-13.39593-7.4269-13.39593-15.2143 0-5.512 2.93063-10.3638 7.32013-13.0658.3607.5485.8432 1.0107 1.412 1.3459.5282.3149 1.1123.5028 1.7117.5739l-.9295 1.2292h-3.8804v2.7782h1.7777l-5.3191 7.0256z" fill="#005187"/><path d="m32.0391 13.5905c4.3896 2.702 7.3202 7.5538 7.3202 13.0658 0 7.7874-5.8574 14.2543-13.396 15.2155l11.3034-15.3272-5.319-7.0256h1.7777v-2.7783h-3.8817l-.9295-1.2291c.5994-.0711 1.1835-.259 1.7117-.5739.5701-.3365 1.0526-.7987 1.4132-1.3472z" fill="#005187"/><path d="m19.4913 15.5357-1.1428 1.5085h-3.7242v2.1688h2.0875l-5.5577 7.3303 11.791 15.9926c-8.2649-.5587-14.83847-7.4776-14.83847-15.8796 0-5.7558 3.07917-10.8108 7.68077-13.6093.0102.1371.0457.2539.1168.3809.0102.0102.1016.1626.1016.1626-4.3883 2.702-7.32016 7.5538-7.32016 13.0658 0 7.7874 5.85736 14.2543 13.39596 15.2155l-11.3034-15.3272 5.319-7.0256h-1.7776v-2.7783h3.8816l.9295-1.2291c.1219.0089.2438.019.3606.0241z" fill="#fff"/><path d="m28.5536 15.5358 1.1428 1.5085h3.7242v2.1687h-2.0875l5.5578 7.3303-11.791 15.9927c8.2648-.5587 14.8384-7.4777 14.8384-15.8809 0-5.7559-3.0792-10.8108-7.6808-13.6093-.0102.1371-.0457.2539-.1168.3809-.0102.0102-.1016.1625-.1016.1625 4.3896 2.7021 7.3202 7.5538 7.3202 13.0659 0 7.7874-5.8574 14.2543-13.396 15.2155l11.3034-15.3273-5.319-7.0256h1.7776v-2.7782h-3.8816l-.9295-1.2291c-.1219.0101-.2438.0203-.3606.0254z" fill="#fff"/><path d="m14.6243 17.0443v2.17l4.3032-.005 5.0956 16.3012 5.0955-16.3012 4.302.005v-2.17h-6.1672l-3.2303 10.4248-3.2315-10.4248z" fill="#000"/></svg>