<svg fill="none" height="48" viewBox="0 0 48 48" width="48" xmlns="http://www.w3.org/2000/svg"><path clip-rule="evenodd" d="m23.9805 8.91296c8.3326 0 15.0902 6.75734 15.0902 15.08994 0 8.3327-6.7576 15.0902-15.0902 15.0902-8.3327 0-15.09-6.7575-15.09-15.0902 0-8.3326 6.7573-15.08994 15.09-15.08994z" fill="#faca2a" fill-rule="evenodd"/><path clip-rule="evenodd" d="m23.9807 8.78333c8.4039 0 15.2193 6.81547 15.2193 15.21957 0 8.4042-6.8154 15.2196-15.2193 15.2196-8.4044 0-15.21984-6.8154-15.21984-15.2196 0-8.4041 6.81544-15.21957 15.21984-15.21957zm0 .17239c8.3087 0 15.0469 6.73828 15.0469 15.04718s-6.7382 15.0472-15.0469 15.0472c-8.3092 0-15.04744-6.7383-15.04744-15.0472s6.73824-15.04718 15.04744-15.04718z" fill="#231f20" fill-rule="evenodd"/><path clip-rule="evenodd" d="m23.9805 12.5776c6.3089 0 11.4253 5.1164 11.4253 11.4253s-5.1164 11.4254-11.4253 11.4254c-6.309 0-11.4254-5.1165-11.4254-11.4254s5.1164-11.4253 11.4254-11.4253z" fill="#231f20" fill-rule="evenodd"/><path clip-rule="evenodd" d="m28.1281 24.6734v2.5913h.2062c.1518 0 .1682-.0546.1682-.1351v-2.3062c0-.1065-.03-.15-.1666-.15zm-5.7336 4.4013-4.7901-.0093-1.7238-1.7701v-1.2104h1.3469v-2.7011l-3.3901-3.0805-1.0153.0025-1.4809-1.534v-1.2097h7.6422l1.5522 1.6858.004 1.0967-.4914-.0025.7978.7219 2.5684-1.8574-.4478-.43v-1.2145h4.6797l1.599 1.082.0038 1.7445-1.7393.0011-2.0799 1.5027h3.7093c2.3152 0 5.0478 1.5732 5.0426 4.2255-.0027 1.3521-.5029 2.2707-1.5558 2.9846 1.0212.6873 1.633 1.6869 1.6292 3.0319-.0034 1.2211-.5453 2.2481-1.4266 2.9176-.6229.4734-1.4239.7854-2.2861.7854h-7.6241l-1.7049-1.7709v-1.3211h1.181zm5.7164 1.0423.0019 2.6284h.221c.0942 0 .15-.0434.15-.1699l.0002-2.2173c-.0038-.2043-.0384-.232-.1703-.2412z" fill="#fff" fill-rule="evenodd"/><path clip-rule="evenodd" d="m27.9125 24.4578v3.0225h.427c.2485 0 .3784-.0869.3784-.3431v-2.3199c0-.2739-.108-.3595-.3771-.3595zm-5.3024 4.4017-4.9147-.0095-1.5994-1.6424v-.9071h1.3471v-3.0121l-3.5226-3.201-1.007.0026-1.3569-1.4052v-.9073h7.3324l1.4312 1.5547.0029.7957-.8374-.004 1.3452 1.2169 2.9191-2.1109-.568-.5451v-.9073h4.3983l1.4499.9813.0029 1.4142-1.5931.0013-2.6766 1.9335 4.3737.0002c2.0246 0 4.8356 1.3744 4.8291 4.0113-.004 1.645-.7706 2.3532-1.7016 2.9696.2819.3056 1.7649.9134 1.775 3.0459.0103 2.1355-1.7846 3.487-3.4996 3.487h-7.53l-1.5809-1.6424v-1.0186h1.181zm5.2839 1.0419v3.0594h.4459c.2704 0 .3595-.1112.3595-.3809l.0002-2.2284c0-.2668-.0902-.4501-.3767-.4501z" fill="#231f20" fill-rule="evenodd"/><path clip-rule="evenodd" d="m26.4054 23.0061v4.5604h1.9375c.3759 0 .4614-.2175.4614-.4271v-3.6906c0-.3425-.1745-.4427-.4614-.4427zm0 5.4066v4.6345h1.9375c.3106 0 .4614-.1538.4614-.4644v-3.6348c0-.3467-.1518-.5353-.4614-.5353zm-3.7091 4.6345v-10.0411h-.8857v-.8121l7.3257.0002c1.951 0 3.4258 1.0958 3.4879 3.1424.0321 1.0581-.5852 2.1613-1.5327 2.7527.9047.604 1.5767 1.1986 1.5702 2.7712-.0077 1.9119-1.7452 3.0327-3.064 3.0327h-8.0824v-.846z" fill="#faca2a" fill-rule="evenodd"/><path clip-rule="evenodd" d="m21.1461 22.2381v4.1487h.849v.7347h-5.8127v-.7347h1.3471v-3.2922l-4.1287-3.7347-.8417-.7613h-.9161v-.7347h7.1596v.7347h-1.1319l3.1541 2.853 3.9348-2.853h-1.4914v-.7347h4.2259v.7347h-1.3287z" fill="#faca2a" fill-rule="evenodd"/><path clip-rule="evenodd" d="m23.9805 13.4879.3783 1.165h1.2253l-.9914.72.3787 1.1651-.9909-.72-.9912.72.3785-1.1651-.9912-.72h1.2253z" fill="#faca2a" fill-rule="evenodd"/><g fill="#231f20"><path d="m21.6788 38.0342-.2999-.0516.1951-1.1406c-.1269.0818-.2639.1194-.4304.1175l.0459-.2666c.2219-.0067.4508-.1342.5105-.2393l.2435.042z"/><path d="m24.0212 37.8408.311-.0329c.0222.1084.1642.1661.3091.1489.2926-.0352.3123-.2542.3203-.4495-.0933.0911-.2563.1397-.4021.1456-.1587.0067-.2984-.035-.4178-.1244-.1195-.0895-.1828-.2097-.1896-.3609-.0071-.1577.0483-.2871.1657-.3889.1169-.1013.2412-.156.4291-.1638.5021-.0207.688.3127.7083.7647.0214.4797-.1235.8027-.6464.8243-.2674.0111-.514-.1315-.5876-.3631zm.8951-.6965c-.0088-.1959-.1584-.2892-.3471-.2817-.1875.0076-.3079.1143-.2991.2892.0088.1748.1477.288.3454.28.1731-.0069.3088-.1055.3008-.2875z"/><path d="m22.7049 37.3192c-.0986-.0336-.1701-.0793-.2143-.1365-.0447-.0573-.0665-.12-.0659-.1877.0008-.1158.0531-.2112.1575-.2857.1045-.0745.2525-.1112.4436-.1091.1892.0019.336.0416.4398.1181.1044.0768.156.1733.1552.289-.0004.072-.0252.1359-.0738.1917-.0483.0556-.1162.098-.2033.1269.1102.0355.1938.0871.2509.1542.057.0669.0853.1438.0845.2307-.0008.1436-.0602.2594-.1783.3481-.118.0885-.2743.1317-.4691.1296-.1815-.0018-.332-.0402-.452-.1157-.142-.0894-.212-.2102-.2108-.3629.0006-.0841.0281-.1608.0818-.2309.0539-.0696.1389-.1229.2542-.1598zm.0141-.3184c-.0015.1592.1742.2087.3022.2102.1271.0015.2967-.0474.298-.2016.0011-.1493-.1697-.195-.2915-.1965-.1229-.0015-.3077.0376-.3087.1879zm-.0594.6938c-.0015.2037.1909.262.3668.2641.171.0019.3457-.0726.3471-.2597.0015-.1805-.1927-.2477-.349-.2493-.1547-.0019-.3634.0623-.3649.2449z"/><path d="m25.9211 37.1753c-.103-.0159-.1812-.0484-.2347-.0971-.0539-.0486-.0864-.1065-.0977-.1734-.0193-.1141.0155-.2171.1052-.3087.09-.0917.2291-.1534.4176-.1848.1869-.0311.3383-.0178.4539.0396.1162.0573.1839.1433.2032.2574.0119.0711-.0011.1382-.0392.2017-.0378.0632-.0973.1166-.1781.1603.1147.0157.206.0518.2739.108.068.0558.1091.1266.1238.2124.0239.1416-.0143.266-.1152.3738-.1007.1078-.2468.1776-.4392.2097-.1789.0298-.3338.0182-.4651-.035-.1552-.0634-.2456-.1701-.271-.3207-.0141-.0826-.0004-.1632.0405-.2414.0409-.078.1149-.1453.2221-.2018zm-.0418-.316c.0265.1569.2081.1751.3343.1543.1255-.0207.284-.0985.2582-.2506-.0247-.1472-.2009-.1625-.3211-.1426-.1212.0199-.2963.0908-.2714.2389zm.0627.6936c.0342.2007.2337.2246.4073.1958.1687-.0279.3279-.1317.2966-.3162-.0302-.1781-.233-.2102-.3874-.1848-.1524.0254-.3469.125-.3165.3052z"/><path d="m12.9974 15.4358-.3079.3721.2588.2141.3079-.3716c.0694-.0839.1074-.1491.1139-.1965.0065-.047-.0134-.09-.0604-.1288-.0464-.0384-.0938-.0493-.1422-.0327-.0482.0172-.1049.0646-.1701.1434zm.4537 1.003.3466-.4186c.0705-.085.1081-.151.1131-.1989.0048-.0472-.0181-.092-.0692-.1342-.051-.0424-.102-.0558-.1527-.0407-.0506.0153-.1082.0619-.173.1401l-.3467.4186zm-.0105.5224-1.2559-1.0402.6724-.8119c.1168-.141.2305-.2251.3412-.2519.1108-.0271.2184.0023.3224.0885.0612.0508.1032.1097.126.1772.0227.0676.025.1414.0078.2213.083-.0531.1661-.0768.2492-.0701.0828.0068.1631.0424.2414.1072.1113.0923.1692.2012.1728.3264.0035.1252-.0474.2516-.1527.3787z"/><path d="m14.3653 15.0583.3054-.2848.0107.0113c.0625.0671.1397.0908.2318.0709.092-.0199.1946-.0827.3074-.1879.0871-.0812.1424-.1565.1657-.2261.0237-.0699.0136-.128-.03-.1747-.0367-.0395-.079-.0539-.1271-.0437-.0482.0101-.1237.0544-.2269.1326l-.2315.1766c-.1701.1283-.3165.199-.4403.2129-.1233.0138-.2311-.029-.3234-.128-.109-.117-.1455-.2615-.1093-.4333.0365-.1715.1412-.3381.3144-.4996.1861-.1734.3637-.2743.5336-.303.1699-.0288.3106.017.423.1376l.009.0096-.2967.2766c-.0625-.0532-.132-.0719-.2081-.0559-.0761.0159-.1596.066-.2506.1507-.0839.0783-.1378.1506-.1617.2177-.0239.0672-.0155.1225.0252.1659.0325.0351.0696.0479.1119.0386.0424-.009.1219-.0574.2394-.1449l.2435-.1833c.1684-.1256.3145-.1936.4393-.2039.1248-.0102.2351.0365.3314.1397.1238.1328.164.2842.1208.4537-.0434.1697-.169.3511-.3767.5444-.1975.1846-.3836.2901-.5576.3169-.1745.0269-.3241-.0272-.4493-.1614z"/><path d="m17.4838 12.6252c.099.1801.1144.3693.0453.5675-.069.198-.2116.3729-.4278.5241-.2437.1708-.483.2433-.7175.2175-.2343-.0256-.426-.1453-.5757-.359-.1495-.2138-.1967-.4352-.1409-.6645.0557-.2292.2057-.4293.4496-.6002.2131-.1491.423-.2244.6294-.2261.2068-.0015.3731.0694.5.2133l-.3649.2554c-.0795-.066-.1674-.0964-.2639-.091-.0962.0055-.1988.0466-.3085.1233-.1336.0936-.2126.2058-.2363.3365-.0239.1306.0107.2621.104.3953.0927.1323.2043.2097.3347.232.1303.0222.2626-.0139.397-.1081.1162-.0813.1926-.1711.2295-.2695.0365-.0981.0298-.195-.0206-.2898z"/><path d="m19.4004 12.5338-.2051-.6649-.9564-.6835.4962-.1531.5608.4377.2129-.6764.4941-.1522-.418 1.1071.2054.6651z"/><path d="m21.2713 11.6944c.1592-.0369.274-.1109.3442-.2225.0705-.1116.0877-.2465.0514-.4038-.0367-.1589-.1114-.2732-.2236-.3429-.1124-.0694-.2477-.0857-.4069-.0488-.1587.0365-.2741.1109-.3452.2233-.0711.1122-.0881.2469-.0516.4054.0363.1573.111.2712.2234.3404.1126.0695.249.0856.4083.0489zm-1.0698-.2882c-.0587-.254-.0195-.4771.1181-.6688.1378-.1917.3513-.3209.6413-.3878.2901-.0671.5386-.0445.7456.0675.2073.1122.3398.2956.3985.5497.0588.2542.0197.4768-.1172.668-.1372.1911-.3507.3203-.6407.3872-.2901.0671-.5386.0445-.7463-.0671-.2078-.1116-.3408-.2945-.3993-.5487z"/><path d="m22.6799 10.1437.0611.8745c.0113.1599.0532.274.1258.3417.0724.0677.1829.0967.332.0862.0793-.0057.1475-.0216.2045-.048.057-.0265.1019-.063.1351-.1097.026-.0363.0436-.077.0528-.1221.0088-.0457.0101-.1147.0036-.2078l-.061-.8744.4045-.0283.0642.9171c.0172.2467-.0403.4386-.1722.5758-.1317.1375-.3343.2158-.608.2349-.2729.019-.4838-.0302-.6336-.1481-.1495-.1175-.2332-.2995-.2504-.5462l-.0642-.9173z"/><path d="m24.1693 11.6696.1136-1.6266.5007.0348.7325 1.2043.0802-1.1475.3915.0275-.1136 1.6269-.495-.0346-.7397-1.2158-.081 1.1583z"/><path d="m26.8403 12.0931c-.1224-.0283-.2344-.0723-.3362-.1321-.1017-.0594-.1858-.1303-.2518-.2118-.0816-.102-.1349-.2108-.1594-.327-.025-.1162-.0216-.2429.01-.3796.0587-.2542.1917-.4375.3996-.5493.2076-.112.4565-.1345.7466-.0676.2448.0565.4362.1584.5745.3048.1382.1472.1988.3114.1816.4929l-.4331-.1001c-.0162-.0971-.0571-.1762-.1231-.2378-.0661-.0615-.1584-.1059-.2756-.1332-.1588-.0367-.2951-.0201-.4081.0495-.1131.0698-.1875.1835-.2242.3419-.0363.1573-.0191.2923.0515.4039.0709.1118.1863.186.3457.2227.1088.0252.3202.0483.5428.0302l.0417-.1751-.5331-.1216.073-.3169.898.2097-.1732.6829c-.1206.034-.262.0535-.4186.0602-.1777.0075-.3723-.0105-.5286-.0466z"/><path d="m30.0715 11.8242-.434-.2116-.1472.302.4339.2119c.0978.0476.1701.0692.2177.0641.0472-.0046.0843-.0342.111-.0889.0264-.0543.0258-.1028-.0019-.1458-.0279-.043-.0875-.0868-.1795-.1317zm-.8675.6775.4885.2382c.099.0483.1722.0692.2196.0627.0471-.0063.0853-.0392.1145-.0988.0289-.0593.03-.1122.0033-.1579-.0268-.0457-.0855-.0906-.177-.1353l-.4885-.2382zm-.5103.1128.7148-1.4658.9476.4622c.1644.0801.273.171.3253.2723.0524.1013.049.2126-.0101.3341-.0348.0715-.0824.126-.1424.1642-.0604.0379-.1317.0577-.2133.0598.0713.0681.1137.1434.1269.2254.013.0822-.0028.1689-.0474.2601-.0634.13-.1554.2118-.2762.2445-.1209.0334-.2559.0137-.4044-.0589z"/><path d="m31.3322 13.7514c.1338.0938.2655.1294.3955.107.1301-.0222.2419-.0998.3346-.2322.0933-.1334.1285-.2655.105-.3953-.0234-.1301-.1021-.2416-.2359-.3352-.1334-.0935-.2659-.1294-.3968-.1072-.1309.0225-.2427.0999-.336.2331-.0925.1323-.1273.2638-.1034.3938.0237.1301.103.2423.237.336zm-.5019-.9876c.1495-.2137.3414-.3339.5761-.3599.2345-.026.4736.0464.7173.2171.2439.1707.3935.3706.4488.5994.0552.2288.0078.4503-.1419.6638-.1496.2137-.3411.3337-.5749.3599-.2337.026-.4725-.0462-.7165-.2169-.2439-.1709-.3934-.3706-.4494-.5996-.0562-.229-.0092-.4503.1405-.6638z"/><path d="m32.3663 14.9322.4747-.509.1166-1.1697.3798.3543-.1003.7043.6924-.1521.3783.3526-1.1684.1887-.4746.509z"/><path d="m33.755 15.3532.2628.3246-.0119.0097c-.0713.0579-.1005.1332-.0868.2263.0134.0933.0687.2001.1658.3198.0749.0925.1462.1529.2142.1812.0679.0284.1267.0225.1764-.0178.0417-.0338.0591-.0751.0522-.1237-.0067-.0489-.0455-.1273-.1162-.2358l-.1602-.243c-.116-.1787-.1764-.33-.1817-.4541-.005-.1242.0449-.2284.1504-.3138.1242-.1006.271-.1271.4398-.0788.1686.0486.3274.1646.4763.3485.1603.1976.2483.382.2651.5533.0168.1716-.0386.3089-.1667.4126l-.0101.0083-.2554-.3154c.0576-.0585.0809-.1265.0704-.2036-.0107-.0772-.0549-.1641-.1329-.2605-.0724-.0892-.1408-.1481-.206-.1766s-.1212-.0239-.1674.0134c-.0371.0302-.0524.0663-.0463.1093.0063.043.0491.1254.1281.2489l.1657.2555c.1137.1768.1712.3274.1728.4526.0015.1252-.0528.2319-.1625.3209-.1409.1141-.2947.1436-.4608.0887-.1663-.0552-.3385-.1932-.5172-.4136-.1701-.2102-.2623-.4031-.277-.5784-.0145-.1758.0497-.3214.1925-.4369z"/></g></svg>